<svg width="34" height="30" viewBox="0 0 34 30" fill="none" xmlns="http://www.w3.org/2000/svg">
<path fill-rule="evenodd" clip-rule="evenodd" d="M3 0.5C1.34315 0.5 0 1.84315 0 3.5V26.5C0 28.1569 1.34315 29.5 3 29.5H31C32.6569 29.5 34 28.1569 34 26.5V3.5C34 1.84315 32.6569 0.5 31 0.5H3ZM2 3.5C2 2.94772 2.44772 2.5 3 2.5H31C31.5523 2.5 32 2.94772 32 3.5V14.1315L26.0547 10.1679L25.4613 9.77233L24.894 10.2046L14.9613 17.7723L9.5547 14.1679L8.96601 13.7755L8.4 14.2L2 19V3.5ZM2 21.5V22.9141H32V16.5352L25.5387 12.2277L15.606 19.7954L15.0387 20.2277L14.4453 19.8321L9.03399 16.2245L2 21.5ZM2 26.5V24.9141H32V26.5C32 27.0523 31.5523 27.5 31 27.5H3C2.44772 27.5 2 27.0523 2 26.5ZM7.5 8.5C7.5 7.67157 8.17157 7 9 7C9.82843 7 10.5 7.67157 10.5 8.5C10.5 9.32843 9.82843 10 9 10C8.17157 10 7.5 9.32843 7.5 8.5ZM9 5C7.067 5 5.5 6.567 5.5 8.5C5.5 10.433 7.067 12 9 12C10.933 12 12.5 10.433 12.5 8.5C12.5 6.567 10.933 5 9 5Z" fill="black"/>
</svg>
