<svg width="62" height="33" viewBox="0 0 62 33" fill="none" xmlns="http://www.w3.org/2000/svg">
<path d="M34.278 7.57588C31.8558 5.5957 29.0448 3.98059 26.156 2.77478C23.7227 1.75704 21.1227 1.03798 18.4672 1.00479C17.0673 0.982667 14.434 0.99373 13.3896 2.04466C12.8118 2.61991 12.434 3.6819 12.0229 4.37884C11.1452 5.88333 10.2563 7.37675 9.37855 8.88125C7.34526 12.3549 5.30086 15.8285 3.27869 19.3021C2.64537 20.3862 1.88983 21.4703 1.36762 22.6097C0.77874 23.893 1.03429 25.4528 1.20095 26.8135C1.23429 27.0568 1.37873 27.2449 1.63428 27.2449C4.33422 27.3223 7.05638 27.6542 9.72299 28.1078C12.134 28.5171 14.5229 29.0702 16.8339 29.8556C18.0339 30.2649 19.2117 30.7296 20.3339 31.3048C21.0116 31.6477 21.8672 32.4553 22.6116 32.5327C23.7449 32.6544 25.456 31.9907 26.5893 31.8579C27.8448 31.7141 29.1003 31.6367 30.367 31.5814C32.9225 31.4818 35.4891 31.5371 38.0446 31.6699C40.9667 31.8358 43.8889 32.0792 46.7777 32.5217C46.9888 32.5549 47.1555 32.4995 47.2666 32.3225C51.8332 25.6298 56.3997 18.937 60.9663 12.2442C61.0552 12.1115 61.033 11.9345 60.9663 11.8017C60.2774 10.5406 59.6774 8.79275 58.733 7.71969C57.4775 6.3037 54.5664 5.72845 52.7887 5.35233C46.4444 4.01377 39.6334 4.79921 33.7558 7.5095C33.2447 7.74182 33.6891 8.49406 34.2002 8.26175C39.489 5.82801 45.5444 5.04258 51.2999 5.97183C53.2887 6.29264 55.9331 6.75726 57.5997 7.97413C58.5775 8.68212 59.0997 10.2087 59.6886 11.2929C59.8108 11.5141 59.9108 11.8017 60.0774 12.0009C60.3219 12.3106 60.0219 12.3106 60.2219 11.857C60.1663 11.9898 60.0219 12.1779 59.933 12.2774C59.3441 12.8858 58.9108 13.7708 58.433 14.4678C56.7442 16.9347 55.0664 19.4016 53.3776 21.8796C51.6665 24.3797 49.9554 26.8909 48.2555 29.391C47.811 30.0437 47.0999 30.7959 46.8 31.5261C46.7444 31.6588 46.6111 31.7694 46.5444 31.9022C46.7444 31.4597 47.2555 31.869 46.5333 31.6477C45.4889 31.3269 44.1778 31.3491 43.0889 31.2384C41.0779 31.0282 39.0668 30.8844 37.0557 30.7849C32.4225 30.5747 28.0004 30.9508 23.4116 31.5039C22.1338 31.6588 21.0672 30.6964 19.9117 30.1654C18.9117 29.7008 17.8784 29.3136 16.8228 28.9596C14.5118 28.1963 12.1229 27.6542 9.72299 27.256C7.05638 26.8135 4.33422 26.4816 1.63428 26.3931C1.77872 26.5369 1.92316 26.6807 2.0676 26.8245C1.92316 25.6408 1.6565 24.1695 2.12316 23.0522C2.4787 22.2004 3.07869 21.3818 3.54535 20.5964C5.3342 17.5321 7.12305 14.4678 8.92301 11.4035C10.4674 8.77062 12.0118 6.1267 13.5562 3.49384C14.2007 2.3876 14.2118 2.43185 15.6229 2.13316C18.3006 1.56898 21.0894 1.97829 23.6782 2.78584C27.2337 3.90315 30.767 5.81695 33.6558 8.18431C34.1002 8.54937 34.7224 7.92988 34.278 7.57588Z" fill="black" stroke="black" stroke-width="0.4"/>
<path d="M1.82335 23.551C6.28992 23.5841 10.712 24.3474 14.9008 25.8962C17.1675 26.7369 19.3341 27.7989 21.4007 29.049C22.7229 29.8455 22.8562 29.6795 24.3117 29.3587C30.956 27.9096 38.6225 27.8542 45.2224 29.5136C45.4224 29.5689 45.6002 29.4804 45.7113 29.3145C50.4778 22.6991 54.9555 15.8847 59.1332 8.88216C59.4221 8.39542 58.6665 7.96398 58.3777 8.43967C54.8111 14.4023 51.0445 20.2433 47.0446 25.9404C46.6335 26.5267 46.2557 27.1573 45.8002 27.6994C45.0668 28.5622 45.0557 28.5401 43.9669 28.3299C42.8669 28.1087 41.7558 27.9538 40.6447 27.8211C38.0114 27.5334 35.3448 27.4671 32.6893 27.5556C30.4227 27.633 28.1672 27.8211 25.9228 28.1751C25.0451 28.3078 24.0673 28.6839 23.1784 28.7282C21.9785 28.7945 20.6229 27.5666 19.523 27.0024C14.0564 24.1594 7.95655 22.7323 1.80113 22.677C1.2678 22.677 1.2678 23.5399 1.82335 23.551Z" fill="black" stroke="black" stroke-width="0.4"/>
<path d="M33.7671 7.53257C29.9672 14.6678 26.1673 21.8031 22.3785 28.9384C22.1118 29.4362 22.8673 29.8787 23.134 29.3809C26.9339 22.2456 30.7338 15.1103 34.5226 7.97507C34.7893 7.47726 34.0338 7.03476 33.7671 7.53257Z" fill="black" stroke="black" stroke-width="0.4"/>
<path d="M15.1453 6.27145C20.3007 6.01702 25.245 7.51045 29.4005 10.5747C29.856 10.9066 30.2894 10.1544 29.8449 9.8225C25.5784 6.68076 20.4451 5.14309 15.1453 5.39752C14.5897 5.43071 14.5786 6.30464 15.1453 6.27145Z" fill="black" stroke="black" stroke-width="0.4"/>
<path d="M13.8231 9.57924C17.3897 10.0107 20.923 10.5195 24.0451 12.4223C24.5229 12.721 24.9673 11.9687 24.4895 11.67C21.2452 9.68986 17.5453 9.15887 13.8342 8.70531C13.2676 8.64999 13.2676 9.51286 13.8231 9.57924Z" fill="black" stroke="black" stroke-width="0.4"/>
<path d="M11.7343 12.6987C16.4897 13.1965 21.0229 14.5904 25.2451 16.8361C25.7451 17.1016 26.1784 16.3493 25.6895 16.0838C21.334 13.7607 16.6564 12.3337 11.7454 11.8248C11.1676 11.7695 11.1787 12.6434 11.7343 12.6987Z" fill="black" stroke="black" stroke-width="0.4"/>
<path d="M9.56766 16.4048C14.2898 16.8472 18.8119 18.1637 23.0451 20.2987C23.5451 20.5532 23.9896 19.8009 23.4896 19.5465C19.1119 17.334 14.4453 15.9954 9.56766 15.5308C9.01212 15.4866 9.01212 16.3494 9.56766 16.4048Z" fill="black" stroke="black" stroke-width="0.4"/>
<path d="M7.40103 20.0221C10.5899 19.9779 13.6565 20.4757 16.6675 21.5045C17.2008 21.6926 17.4341 20.8518 16.9008 20.6638C13.812 19.6018 10.6676 19.104 7.40103 19.1482C6.84549 19.1593 6.84549 20.0332 7.40103 20.0221Z" fill="black" stroke="black" stroke-width="0.4"/>
<path d="M36.2003 10.608C41.678 9.2916 47.2667 9.34691 52.7111 10.774C53.2555 10.9178 53.4888 10.077 52.9444 9.93322C47.3556 8.47298 41.5891 8.41767 35.967 9.76728C35.4225 9.90003 35.6559 10.7408 36.2003 10.608Z" fill="black" stroke="black" stroke-width="0.4"/>
<path d="M34.6559 13.971C38.878 13.4621 43.1113 13.3515 47.3445 13.6612C47.9112 13.7055 47.9001 12.8315 47.3445 12.7873C43.1002 12.4775 38.8669 12.5882 34.6559 13.097C34.1115 13.1745 34.1004 14.0373 34.6559 13.971Z" fill="black" stroke="black" stroke-width="0.4"/>
<path d="M32.6116 17.3892C37.967 16.8914 43.4113 16.5153 48.5445 18.4291C49.0779 18.6282 49.3001 17.7874 48.7779 17.5883C43.578 15.6413 38.0448 16.0175 32.6116 16.5153C32.056 16.5706 32.0449 17.4445 32.6116 17.3892Z" fill="black" stroke="black" stroke-width="0.4"/>
<path d="M31.2338 21.0067C35.4892 20.0885 39.778 20.0664 44.0335 20.9514C44.0002 20.6859 43.9668 20.4204 43.9335 20.1549C43.8113 20.2102 43.6891 20.2655 43.5668 20.3208C43.0557 20.5531 43.5002 21.3054 44.0113 21.0731C44.1335 21.0177 44.2557 20.9624 44.3779 20.9071C44.7113 20.7522 44.6224 20.1881 44.2779 20.1106C39.8669 19.2035 35.4115 19.2256 31.0116 20.1659C30.456 20.2876 30.6893 21.1284 31.2338 21.0067Z" fill="black" stroke="black" stroke-width="0.4"/>
<path d="M29.9561 24.1926C31.3227 23.9492 32.6894 23.7833 34.0782 23.7058C35.3226 23.6505 37.2781 23.3961 38.4003 23.9713C38.9003 24.2258 39.3448 23.4735 38.8448 23.2191C37.6448 22.6106 36.0559 22.7766 34.7449 22.8098C33.056 22.854 31.3894 23.0531 29.7339 23.3518C29.1672 23.4514 29.4005 24.2921 29.9561 24.1926Z" fill="black" stroke="black" stroke-width="0.4"/>
<path d="M59.1443 9.82247C55.0999 16.7697 50.5223 23.3961 45.4446 29.6464C45.2335 29.9119 45.6001 30.288 45.8224 30.0225C50.9222 23.739 55.5333 17.0794 59.6109 10.088C59.7665 9.78928 59.3109 9.52378 59.1443 9.82247Z" fill="black" stroke="black" stroke-width="0.4"/>
<path d="M59.8666 11.1501C57.3333 14.6901 54.9 18.3075 52.3779 21.8585C50.4335 24.6241 48.5113 27.788 45.9447 30.0447C45.6891 30.266 46.0669 30.6421 46.3224 30.4209C48.8224 28.2305 50.7112 25.1219 52.6223 22.4338C55.2111 18.7721 57.7111 15.0551 60.3221 11.4156C60.5332 11.139 60.0666 10.8735 59.8666 11.1501Z" fill="black" stroke="black" stroke-width="0.4"/>
<path d="M2.08999 24.2922C5.73436 24.4249 9.24539 24.9227 12.712 26.0732C15.9897 27.1684 19.0896 28.695 22.0562 30.465C22.3562 30.642 22.6229 30.1774 22.3229 30.0114C19.3118 28.2193 16.1675 26.6706 12.8453 25.5643C9.33428 24.3917 5.7788 23.8939 2.08999 23.7612C1.74556 23.7501 1.74556 24.2811 2.08999 24.2922Z" fill="black" stroke="black" stroke-width="0.4"/>
<path d="M1.70114 25.6197C9.08986 25.3763 16.323 27.8764 22.8118 31.2283C23.1118 31.3832 23.3895 30.9297 23.0784 30.7748C16.5119 27.3786 9.18986 24.8453 1.70114 25.0998C1.3567 25.0998 1.3567 25.6308 1.70114 25.6197Z" fill="black" stroke="black" stroke-width="0.4"/>
</svg>
