<svg width="67" height="67" viewBox="0 0 67 67" fill="none" xmlns="http://www.w3.org/2000/svg">
<path fill-rule="evenodd" clip-rule="evenodd" d="M34.3233 5.86245C30.0059 5.86245 26.506 9.36239 26.506 13.6798C26.506 15.9341 27.4585 17.9649 28.9881 19.3935C30.8042 18.9888 32.6693 18.7778 34.5714 18.7778C36.3324 18.7778 38.0618 18.9586 39.75 19.3067C41.226 17.8832 42.1406 15.8888 42.1406 13.6798C42.1406 9.36239 38.6407 5.86245 34.3233 5.86245ZM23.8369 17.5273C24.2255 18.586 24.7698 19.5695 25.4416 20.4497C24.7509 20.7084 24.0691 20.9956 23.397 21.3103C22.9781 21.5064 22.8125 22.0112 23.0207 22.4242L23.7746 23.92C23.9828 24.333 24.4859 24.4977 24.9056 24.3032C27.9635 22.886 31.21 22.1278 34.5714 22.1278C37.7607 22.1278 40.8457 22.8103 43.7642 24.0898C44.1878 24.2755 44.6874 24.1007 44.8872 23.6836L45.6106 22.1728C45.8103 21.7556 45.6346 21.2543 45.2117 21.0669C44.5863 20.7897 43.9529 20.5362 43.312 20.3072C43.9514 19.4412 44.469 18.4792 44.839 17.4468C46.2472 18.0273 47.5642 18.7243 48.7753 19.5245C49.7888 20.1943 51.0782 19.6559 51.4218 18.5971C51.5779 18.1161 52.2125 17.4828 53.3857 16.9269C54.1535 16.5631 54.9181 16.3437 55.4588 16.2412C55.3439 17.3374 55.157 18.2541 54.9559 19.2398L54.9447 19.2947C54.6869 20.5593 54.4119 21.9275 54.3094 23.769C54.2695 24.4849 54.4716 25.1567 54.8094 25.7074C55.3177 26.5359 55.8531 27.5192 56.1704 28.2645C57.298 30.9139 59.8109 33.3268 63.1272 33.3268C63.2992 33.3268 63.4387 33.4663 63.4387 33.6383V41.8478C63.4387 42.0028 63.3247 42.1342 63.1713 42.1562L58.3419 42.8461C56.1738 43.1558 54.3781 44.3904 53.08 45.8731C52.0619 47.036 50.8868 48.1048 49.5772 49.0566L48.8249 49.6033L49.3856 57.4538C49.3985 57.6341 49.2557 57.7875 49.075 57.7875H44.2557C44.0837 57.7875 43.9442 57.648 43.9442 57.476V52.1828L41.8123 52.7873C39.4666 53.4524 36.9481 53.8145 34.3233 53.8145C31.5685 53.8145 28.9308 53.4156 26.4871 52.6862L24.1647 51.9931L24.5547 57.4538C24.5676 57.6341 24.4248 57.7875 24.244 57.7875H19.4248C19.2528 57.7875 19.1133 57.648 19.1133 57.476V49.1068L18.468 48.6039C14.6997 45.6669 12.1651 41.7406 11.4066 37.3965C11.2919 36.7399 10.8762 36.3392 10.5744 36.1362C10.2922 35.9463 10.003 35.8513 9.81827 35.7998C9.4457 35.6959 9.00152 35.6408 8.64971 35.5993C8.55425 35.588 8.45837 35.577 8.36213 35.5659C7.65086 35.484 6.91971 35.3999 6.19245 35.2037C5.37658 34.9837 4.74192 34.6638 4.31351 34.207C4.2241 34.1116 4.13632 34.0025 4.05407 33.876C5.35604 33.9998 6.56733 33.9884 7.61163 33.8338C8.45281 33.7093 9.27934 33.4785 9.97009 33.0761C10.6718 32.6674 11.3509 32.0041 11.5786 31.0169C12.9192 25.2055 17.482 20.2092 23.8369 17.5273ZM45.4906 13.6798C45.4906 13.8197 45.4881 13.9591 45.483 14.0977C46.79 14.5997 48.0386 15.1911 49.2189 15.8662C50.0076 14.9622 51.0556 14.3239 51.9513 13.8995C53.3786 13.2233 54.9912 12.8214 56.0439 12.8214C56.6169 12.8214 57.6335 12.8664 58.3215 13.6363C58.6901 14.0487 58.8172 14.508 58.8615 14.8416C58.9017 15.1439 58.884 15.4331 58.8742 15.5886C58.7655 17.3256 58.4966 18.6435 58.2468 19.8677L58.2272 19.964C57.975 21.2008 57.7441 22.3635 57.6552 23.937C58.2101 24.8415 58.8467 25.9984 59.2528 26.9526C60.0361 28.793 61.564 29.9768 63.1272 29.9768C65.1494 29.9768 66.7887 31.6161 66.7887 33.6383V41.8478C66.7887 43.67 65.4488 45.2148 63.645 45.4725L58.8156 46.1624C57.6443 46.3297 56.5245 47.0244 55.6005 48.0798C54.6126 49.2082 53.5057 50.2523 52.2975 51.1997L52.7271 57.2151C52.8785 59.3346 51.1999 61.1375 49.075 61.1375H44.2557C42.2335 61.1375 40.5942 59.4982 40.5942 57.476V56.531C38.5818 56.9454 36.4815 57.1645 34.3233 57.1645C32.0906 57.1645 29.9198 56.93 27.8442 56.4873L27.8962 57.2151C28.0476 59.3346 26.3689 61.1375 24.244 61.1375H19.4248C17.4026 61.1375 15.7633 59.4982 15.7633 57.476V50.726C12.0335 47.6175 9.34539 43.545 8.29876 38.9311C8.21729 38.9215 8.08814 38.9066 7.9953 38.8961C7.30068 38.8173 6.30803 38.7046 5.32003 38.4381C4.19013 38.1334 2.8899 37.5862 1.86985 36.4985C0.812967 35.3714 0.211443 33.83 0.211435 31.8516L0.211426 29.7916L2.22806 30.2118C4.21925 30.6266 5.93426 30.6956 7.12108 30.5199C7.71935 30.4314 8.09062 30.294 8.28395 30.1814C9.99058 22.9883 15.7207 17.1229 23.1671 14.1831C23.1597 14.0163 23.156 13.8485 23.156 13.6798C23.156 7.51223 28.1558 2.51245 34.3233 2.51245C40.4909 2.51245 45.4906 7.51223 45.4906 13.6798ZM50.9276 31.0901C51.8696 31.0901 52.6332 30.3265 52.6332 29.3845C52.6332 28.4425 51.8696 27.6789 50.9276 27.6789C49.9856 27.6789 49.2219 28.4425 49.2219 29.3845C49.2219 30.3265 49.9856 31.0901 50.9276 31.0901Z" fill="black"/>
</svg>
