<svg width="36" height="32" viewBox="0 0 36 32" fill="none" xmlns="http://www.w3.org/2000/svg">
<path fill-rule="evenodd" clip-rule="evenodd" d="M18.3301 0.279752C16.7505 -0.448878 14.8947 0.414312 14.4343 2.09176L13.2816 6.29128C13.2102 6.55112 13.1 6.79868 12.9547 7.02556L9.2229 12.8504L9.09631 13.0481H3.59863C1.94177 13.0481 0.598633 14.3912 0.598633 16.0481V28.9806C0.598633 30.6375 1.94177 31.9806 3.59863 31.9806L10.0649 31.9806H28.1837C29.463 31.9806 30.5116 31.6185 31.2716 30.9818C32.0298 30.3466 32.4413 29.4853 32.513 28.6134C32.577 27.8356 32.3704 27.0414 31.8956 26.3976C32.9359 25.7935 33.5912 24.8466 33.76 23.7908C33.8906 22.9739 33.7112 22.1196 33.1862 21.4369C33.3153 21.3523 33.4378 21.2609 33.5535 21.1631C34.3295 20.507 34.7227 19.6229 34.7845 18.7444C34.8432 17.9119 34.5911 17.0323 34.064 16.3534C34.8983 15.6888 35.3607 14.6972 35.3983 13.6918C35.4307 12.8285 35.1514 11.9336 34.5139 11.2478C33.8643 10.549 32.9147 10.1442 31.7598 10.1442H21.0225V4.48675C21.0225 2.6793 19.9713 1.03685 18.3301 0.279752ZM9.06494 29.9806V15.0481H3.59863C3.04633 15.0481 2.59863 15.4958 2.59863 16.0481V28.9806C2.59863 29.5329 3.04633 29.9806 3.59863 29.9806H9.06494ZM29.136 27.0787V27.0822C29.6838 27.0822 30.0232 27.2795 30.2242 27.508C30.4373 27.7502 30.5493 28.0897 30.5197 28.4494C30.4907 28.8021 30.3254 29.1654 29.9872 29.4487C29.6509 29.7305 29.0835 29.9806 28.1837 29.9806H11.0649V13.6827L14.6387 8.10446C14.8928 7.70778 15.0855 7.27496 15.2102 6.82067L16.3629 2.62114C16.4964 2.13485 17.0344 1.8846 17.4923 2.09584C18.425 2.52611 19.0225 3.45954 19.0225 4.48675V10.1442H18.2826C17.7303 10.1442 17.2826 10.5919 17.2826 11.1442C17.2826 11.6965 17.7303 12.1442 18.2826 12.1442H20.0225H31.7598C32.4299 12.1442 32.8235 12.367 33.049 12.6095C33.2866 12.865 33.4144 13.2252 33.3997 13.617C33.3715 14.3698 32.8247 15.1646 31.5894 15.1646L29.1971 15.1651C28.6448 15.1651 28.1971 15.6128 28.1971 16.1651C28.1971 16.7174 28.6448 17.1651 29.1971 17.1651H31.6227C32.3307 17.1839 32.8461 17.7997 32.7895 18.6039C32.763 18.9802 32.5992 19.3508 32.2622 19.6359C31.9405 19.9078 31.3916 20.1585 30.4985 20.1819H29.1971C28.6448 20.1819 28.1971 20.6296 28.1971 21.1819C28.1971 21.7342 28.6448 22.1819 29.1971 22.1819H30.3607V22.1837C31.0237 22.1837 31.381 22.4028 31.5617 22.6087C31.7495 22.8226 31.8407 23.1273 31.7851 23.475C31.6841 24.1068 31.0115 25.0446 29.2433 25.0811H29.2059C29.1905 25.0811 29.1751 25.0814 29.1599 25.0821C29.1519 25.0821 29.144 25.0822 29.136 25.0822V25.0835C28.6163 25.1193 28.2059 25.5523 28.2059 26.0811C28.2059 26.6099 28.6163 27.0428 29.136 27.0787ZM7.33179 26.9011C7.33179 27.7295 6.66022 28.4011 5.83179 28.4011C5.00336 28.4011 4.33179 27.7295 4.33179 26.9011C4.33179 26.0726 5.00336 25.4011 5.83179 25.4011C6.66022 25.4011 7.33179 26.0726 7.33179 26.9011Z" fill="black"/>
</svg>
