<svg width="38" height="32" viewBox="0 0 38 32" fill="none" xmlns="http://www.w3.org/2000/svg">
<path fill-rule="evenodd" clip-rule="evenodd" d="M1 0.311401C0.447715 0.311401 0 0.759117 0 1.3114C0 1.86369 0.447715 2.3114 1 2.3114H1.92261V6.37487C1.92261 7.14806 2.22113 7.89139 2.7559 8.44981L15.5115 21.7696C15.6898 21.9558 15.7893 22.2035 15.7893 22.4613V29.1114C15.7893 30.216 16.6847 31.1114 17.7893 31.1114H20.0559C21.1605 31.1114 22.0559 30.216 22.0559 29.1114V22.4613C22.0559 22.2035 22.1555 21.9558 22.3337 21.7696L35.0893 8.44981C35.6241 7.89139 35.9226 7.14806 35.9226 6.37487V2.3114H37C37.5523 2.3114 38 1.86369 38 1.3114C38 0.759117 37.5523 0.311401 37 0.311401H34.9226H2.92261H1ZM3.92261 6.37487V2.3114H33.9226V6.37487C33.9226 6.6326 33.8231 6.88038 33.6448 7.06652L32.978 7.76283C28.7752 7.61227 25.1317 8.27512 21.7697 8.88677C20.6877 9.08361 19.6349 9.27516 18.6019 9.43258C14.3266 10.0841 10.1855 10.211 5.09701 8.00282L4.20037 7.06652C4.02212 6.88038 3.92261 6.6326 3.92261 6.37487ZM8.11146 11.1506L16.956 20.3863C17.4908 20.9447 17.7893 21.6881 17.7893 22.4613V29.1114H20.0559V22.4613C20.0559 21.6881 20.3545 20.9447 20.8892 20.3863L31.0779 9.74698C27.8916 9.81044 25.0689 10.3231 22.2725 10.831C21.1524 11.0344 20.0365 11.237 18.9032 11.4097C15.4845 11.9307 12.024 12.1452 8.11146 11.1506Z" fill="black"/>
</svg>
