<svg width="34" height="34" viewBox="0 0 34 34" fill="none" xmlns="http://www.w3.org/2000/svg">
<path fill-rule="evenodd" clip-rule="evenodd" d="M2 17C2 8.71573 8.71573 2 17 2C25.2843 2 32 8.71573 32 17C32 25.2843 25.2843 32 17 32C8.71573 32 2 25.2843 2 17ZM17 0C7.61116 0 0 7.61116 0 17C0 26.3888 7.61116 34 17 34C26.3888 34 34 26.3888 34 17C34 7.61116 26.3888 0 17 0ZM6 17C6 10.9249 10.9249 6 17 6C23.0751 6 28 10.9249 28 17C28 23.0751 23.0751 28 17 28C10.9249 28 6 23.0751 6 17ZM17 4C9.8203 4 4 9.8203 4 17C4 24.1797 9.8203 30 17 30C24.1797 30 30 24.1797 30 17C30 9.8203 24.1797 4 17 4ZM17 7C17.5523 7 18 7.44772 18 8V15.2676C18.5978 15.6134 19 16.2597 19 17C19 17.0651 18.9969 17.1296 18.9908 17.1931L24.5812 21.1863C25.0307 21.5073 25.1347 22.1318 24.8137 22.5812C24.4927 23.0307 23.8682 23.1347 23.4188 22.8137L17.8286 18.8208C17.5762 18.9359 17.2956 19 17 19C15.8954 19 15 18.1046 15 17C15 16.2597 15.4022 15.6134 16 15.2676V8C16 7.44772 16.4477 7 17 7Z" fill="black"/>
</svg>
