<svg width="73" height="101" viewBox="0 0 73 101" fill="none" xmlns="http://www.w3.org/2000/svg">
<path d="M56.0385 6.78343C60.4402 30.1296 63.9082 53.4758 68.9769 76.6886C69.5104 79.2233 70.8443 82.5585 70.5775 85.0933C70.3107 87.7614 67.5096 88.6952 65.3755 89.6291C62.9745 90.6963 60.5736 91.3634 58.1726 91.897C50.9698 93.6313 43.767 94.9654 36.5642 96.2994C33.0962 96.9665 29.6281 97.7669 26.2935 98.0337C24.8263 98.1671 22.5587 98.3005 21.4916 96.9665C20.8247 96.166 20.8247 94.9654 20.6913 94.0315C18.6905 82.4251 16.2896 70.8187 13.8887 59.2123C11.4877 47.6059 9.08679 36.1329 6.81924 24.5265C6.01893 20.7912 3.35121 13.9874 7.61954 11.4527C9.75371 10.1186 12.955 9.85179 15.4893 9.45157C22.9589 7.85068 30.5618 6.24982 38.0314 4.64893C41.0993 3.9819 44.1672 3.31485 47.235 2.78123C48.5689 2.51441 50.0361 2.11419 51.5034 2.11419C54.3045 2.11419 55.5049 4.11529 56.0385 6.78343C56.1719 7.45046 57.2389 7.18365 57.1056 6.51662C56.572 3.58167 55.1048 1.31377 52.0369 1.04695C49.3692 0.78014 46.4347 1.71398 43.9004 2.24761C36.2974 3.84849 28.8278 5.44938 21.2249 7.05026C18.157 7.71729 14.9557 8.38432 11.8879 8.91795C9.08678 9.45158 5.88553 10.1186 4.68506 13.0536C3.21782 16.5221 4.95183 21.3248 5.61876 24.7934C6.95261 31.5971 8.41986 38.4009 9.75372 45.0712C12.5548 58.4119 15.2225 71.7526 17.7568 85.2266C18.2904 88.295 18.9573 91.3634 19.4909 94.4317C19.6242 95.3656 19.7576 96.4328 20.1578 97.2333C21.625 99.768 25.093 99.2344 27.6274 98.9676C35.6305 97.9003 43.6336 96.166 51.5034 94.5651C54.9714 93.8981 58.5728 93.0976 61.9074 92.1638C64.7085 91.3634 68.1765 90.2961 70.3107 88.295C71.5112 87.0943 71.9113 85.6269 71.778 83.8926C71.5112 80.6908 70.3107 77.3557 69.6438 74.2873C68.0432 66.8165 66.5759 59.4791 65.2421 52.0084C62.441 36.9334 59.9067 21.725 57.1056 6.65004C56.9722 5.71619 55.9051 6.1164 56.0385 6.78343Z" fill="black"/>
<path d="M56.0385 6.78343C60.4402 30.1296 63.9082 53.4758 68.9769 76.6886C69.5104 79.2233 70.8443 82.5585 70.5775 85.0933C70.3107 87.7614 67.5096 88.6952 65.3755 89.6291C62.9745 90.6963 60.5736 91.3634 58.1726 91.897C50.9698 93.6313 43.767 94.9654 36.5642 96.2994C33.0962 96.9665 29.6281 97.7669 26.2935 98.0337C24.8263 98.1671 22.5587 98.3005 21.4916 96.9665C20.8247 96.166 20.8247 94.9654 20.6913 94.0315C18.6905 82.4251 16.2896 70.8187 13.8887 59.2123C11.4877 47.6059 9.08679 36.1329 6.81924 24.5265C6.01893 20.7912 3.35121 13.9874 7.61954 11.4527C9.75371 10.1186 12.955 9.85179 15.4893 9.45157C22.9589 7.85068 30.5618 6.24982 38.0314 4.64893C41.0993 3.9819 44.1672 3.31485 47.235 2.78123C48.5689 2.51441 50.0361 2.11419 51.5034 2.11419C54.3045 2.11419 55.5049 4.11529 56.0385 6.78343ZM56.0385 6.78343C56.1719 7.45046 57.2389 7.18365 57.1056 6.51662C56.572 3.58167 55.1048 1.31377 52.0369 1.04695C49.3692 0.78014 46.4347 1.71398 43.9004 2.24761C36.2974 3.84849 28.8278 5.44938 21.2249 7.05026C18.157 7.71729 14.9557 8.38432 11.8879 8.91795C9.08678 9.45158 5.88553 10.1186 4.68506 13.0536C3.21782 16.5221 4.95183 21.3248 5.61876 24.7934C6.95261 31.5971 8.41986 38.4009 9.75372 45.0712C12.5548 58.4119 15.2225 71.7526 17.7568 85.2266C18.2904 88.295 18.9573 91.3634 19.4909 94.4317C19.6242 95.3656 19.7576 96.4328 20.1578 97.2333C21.625 99.768 25.093 99.2344 27.6274 98.9676C35.6305 97.9003 43.6336 96.166 51.5034 94.5651C54.9714 93.8981 58.5728 93.0976 61.9074 92.1638C64.7085 91.3634 68.1765 90.2961 70.3107 88.295C71.5112 87.0943 71.9113 85.6269 71.778 83.8926C71.5112 80.6908 70.3107 77.3557 69.6438 74.2873C68.0432 66.8165 66.5759 59.4791 65.2421 52.0084C62.441 36.9334 59.9067 21.725 57.1056 6.65004C56.9722 5.71619 55.9051 6.1164 56.0385 6.78343Z" stroke="black" stroke-width="0.6"/>
<path d="M10.2872 16.5222C14.2887 40.4021 21.4915 63.8817 25.2263 87.7615C25.2263 88.0283 25.4931 88.1617 25.7599 88.1617C39.0984 87.0944 52.0368 82.5586 64.9752 79.6237C65.242 79.4903 65.3754 79.2234 65.3754 78.9566C63.508 67.7505 61.5072 56.5443 59.373 45.4715C56.9721 32.9313 54.5711 20.1242 50.703 7.98421C50.5696 7.7174 50.4362 7.58398 50.1694 7.58398C36.8309 9.31827 23.6257 12.6534 10.6873 15.8552C10.0204 15.9886 10.2872 17.1893 10.9541 16.9225C15.8893 15.7218 20.8246 14.5211 25.6265 13.4539C29.8948 12.52 34.2965 11.5862 38.5649 10.6523C40.4323 10.2521 42.2997 9.98531 44.3004 9.58509C45.1008 9.45168 48.9689 8.25102 49.7693 8.65124C50.4362 9.05146 50.8363 12.3866 51.1031 13.1871C51.6367 14.9214 52.0368 16.6557 52.437 18.3899C53.5041 22.5256 54.4377 26.7946 55.2381 30.9302C57.1055 39.735 58.8395 48.6733 60.4401 57.6115C61.774 64.8155 62.9744 72.0195 64.1749 79.2234C64.3083 78.9566 64.4417 78.6898 64.575 78.5564C58.5727 79.8905 52.8371 81.4914 46.8348 82.9588C42.9666 83.8927 39.0984 84.8265 35.0969 85.627C33.3628 86.0272 31.7622 86.294 30.0282 86.5608C29.2279 86.6942 28.2942 86.8276 27.4939 86.961C26.4268 87.0944 26.4268 87.3613 26.0266 86.5608C25.4931 85.627 25.4931 83.4925 25.2263 82.2918C24.9596 80.5575 24.5594 78.8232 24.1593 77.0889C23.3589 73.2201 22.5586 69.3513 21.7583 65.616C19.8909 57.2113 18.0235 48.6733 16.1561 40.2687C14.4221 32.2642 12.5547 24.2598 11.2208 16.2554C11.3542 15.455 10.2872 15.7218 10.2872 16.5222Z" fill="black" stroke="black" stroke-width="0.6"/>
<path d="M20.2911 20.3909C17.3566 20.7911 16.1562 24.5265 16.5563 27.1946C16.9565 30.1296 19.7576 31.8639 22.5586 31.0634C24.9596 30.3964 27.8941 27.4615 27.4939 24.7933C27.0938 21.5916 23.0922 19.8573 20.2911 20.3909C19.6242 20.5243 19.8909 21.5916 20.5579 21.4582C22.5586 21.0579 25.7599 22.392 26.2934 24.6599C26.827 26.7944 24.0259 29.3291 22.1585 29.8628C16.5563 31.4637 15.8894 22.1252 20.5579 21.4582C21.3582 21.4582 21.0914 20.2575 20.2911 20.3909Z" fill="black"/>
<path d="M20.2911 20.3909C17.3566 20.7911 16.1562 24.5265 16.5563 27.1946C16.9565 30.1296 19.7576 31.8639 22.5586 31.0634C24.9596 30.3964 27.8941 27.4615 27.4939 24.7933C27.0938 21.5916 23.0922 19.8573 20.2911 20.3909ZM20.2911 20.3909C19.6242 20.5243 19.8909 21.5916 20.5579 21.4582C22.5586 21.0579 25.7599 22.392 26.2934 24.6599C26.827 26.7944 24.0259 29.3291 22.1585 29.8628C16.5563 31.4637 15.8894 22.1252 20.5579 21.4582C21.3582 21.4582 21.0914 20.2575 20.2911 20.3909Z" stroke="black" stroke-width="0.6"/>
<path d="M28.8277 21.8585C33.2294 20.7912 37.7646 19.8574 42.1663 19.0569C42.8332 18.9235 42.5664 17.8563 41.8995 17.9897C37.3644 18.7901 32.9627 19.7239 28.5609 20.7912C27.894 20.9246 28.1608 21.9919 28.8277 21.8585Z" fill="black" stroke="black" stroke-width="0.6"/>
<path d="M29.7614 25.3271C36.0305 23.993 42.2996 22.5255 48.5687 20.7912C49.2357 20.6578 48.9689 19.4572 48.302 19.724C42.0329 21.3249 35.7638 22.9257 29.4946 24.2598C28.6943 24.3932 29.0945 25.4605 29.7614 25.3271Z" fill="black" stroke="black" stroke-width="0.6"/>
<path d="M20.4244 34.9323C21.3581 40.6688 22.4252 46.5387 23.6256 52.2752C23.6256 52.542 24.0258 52.6754 24.2926 52.6754C33.2294 51.0745 42.0328 48.94 50.7029 46.4053C50.9697 46.4053 51.1031 46.1384 51.1031 45.8716C50.7029 40.0017 49.9026 34.1318 48.4354 28.3953C48.302 28.1285 48.0352 27.9951 47.7684 27.9951C38.965 29.9962 30.0281 31.8639 21.2247 33.865C20.5578 33.9984 20.8245 35.0657 21.4915 34.9323C30.2949 32.9312 39.2318 31.0635 48.0352 29.0624C47.7684 28.929 47.5017 28.7956 47.3683 28.6622C48.302 32.531 48.9689 36.3997 49.5025 40.2685C49.6358 41.6026 50.4361 44.0039 49.6358 45.0712C48.9689 46.1385 45.901 46.4053 44.7006 46.8055C37.8979 48.6732 30.9618 50.1406 24.0258 51.4747C24.2926 51.6081 24.5593 51.7415 24.6927 51.8749C23.4922 46.1384 22.4252 40.2685 21.4915 34.532C21.3581 33.9984 20.291 34.2652 20.4244 34.9323Z" fill="black" stroke="black" stroke-width="0.6"/>
<path d="M25.76 57.7448C34.43 55.3435 43.1001 53.4758 52.0369 51.8749C52.7039 51.7415 52.4371 50.6742 51.7702 50.8077C42.9667 52.2751 34.1633 54.2763 25.4932 56.6776C24.6929 56.9444 24.9597 58.0117 25.76 57.7448Z" fill="black" stroke="black" stroke-width="0.6"/>
<path d="M26.5603 62.4141C35.3637 60.1462 44.3005 58.1451 53.2374 56.5442C53.9043 56.4108 53.6375 55.3436 52.9706 55.477C44.0338 57.0778 35.0969 58.9456 26.2935 61.3469C25.4932 61.4803 25.8933 62.5475 26.5603 62.4141Z" fill="black" stroke="black" stroke-width="0.6"/>
<path d="M28.4276 67.2168C31.6288 66.4164 34.6967 65.7494 37.8979 65.2157C38.5648 65.0823 38.298 64.0151 37.6311 64.1485C34.4299 64.6821 31.2287 65.3491 28.1608 66.1496C27.4939 66.283 27.7607 67.3503 28.4276 67.2168Z" fill="black" stroke="black" stroke-width="0.6"/>
<path d="M28.8277 72.9532C28.9611 74.5541 28.9611 78.8231 30.4283 79.8903C31.6288 80.6908 35.0968 79.2233 36.2973 78.9565C43.3667 77.489 50.5696 75.8881 57.639 74.4207C57.9058 74.2873 58.0392 74.0204 58.0392 73.7536C57.7724 71.4857 57.3722 69.0844 57.1055 66.8165C57.1055 66.5497 56.7053 66.4163 56.4385 66.4163C47.1015 67.8837 38.0313 69.8848 28.8277 72.2861C28.4276 72.4196 28.2942 73.0866 28.6943 73.3534C28.8277 73.3534 28.9611 73.4868 29.0945 73.4868C29.7614 73.7536 30.2949 72.8198 29.628 72.553C29.4946 72.553 29.3612 72.4196 29.2279 72.4196C29.2279 72.8198 29.0945 73.0866 29.0945 73.4868C38.1647 71.0855 47.3683 69.0844 56.7053 67.6169C56.4385 67.4835 56.1718 67.3501 56.0384 67.2167C56.3051 69.4846 56.7053 71.8859 56.9721 74.1538C57.1055 73.887 57.2388 73.6202 57.3722 73.4868C52.3036 74.554 47.1015 75.6213 42.0329 76.822C39.4986 77.3556 36.9642 77.8892 34.4299 78.4229C33.2294 78.6897 31.8956 79.3567 30.8285 78.156C30.0282 77.0888 30.0282 74.4206 30.0282 73.22C29.8948 72.2861 28.6943 72.2861 28.8277 72.9532Z" fill="black" stroke="black" stroke-width="0.6"/>
<path d="M47.2349 88.0281C48.8355 88.4283 48.7021 91.0964 46.8348 90.963C46.1678 90.963 45.3675 90.4294 45.3675 89.629C45.3675 88.6951 46.3012 87.8947 47.2349 88.0281C47.9018 88.0281 47.9018 86.9608 47.2349 86.8274C45.7677 86.694 44.4338 88.0281 44.3004 89.3622C44.1671 90.8296 45.3675 91.8969 46.7014 92.0303C48.0352 92.1637 49.3691 91.3633 49.5025 89.8958C49.6358 88.5617 48.8355 87.0942 47.5017 86.8274C46.8348 86.694 46.4346 87.7613 47.2349 88.0281Z" fill="black"/>
<path d="M47.2349 88.0281C48.8355 88.4283 48.7021 91.0964 46.8348 90.963C46.1678 90.963 45.3675 90.4294 45.3675 89.629C45.3675 88.6951 46.3012 87.8947 47.2349 88.0281ZM47.2349 88.0281C47.9018 88.0281 47.9018 86.9608 47.2349 86.8274C45.7677 86.694 44.4338 88.0281 44.3004 89.3622C44.1671 90.8296 45.3675 91.8969 46.7014 92.0303C48.0352 92.1637 49.3691 91.3633 49.5025 89.8958C49.6358 88.5617 48.8355 87.0942 47.5017 86.8274C46.8348 86.694 46.4346 87.7613 47.2349 88.0281Z" stroke="black" stroke-width="0.6"/>
<path d="M6.68572 10.5189C-2.25111 11.7196 1.75046 24.5267 2.81755 29.8629C4.68495 39.8684 6.55234 49.874 8.41974 60.0129C10.2871 70.0184 12.2879 80.0239 14.2887 90.0294C14.8222 92.9644 14.8222 98.1673 18.0235 99.7681C20.4244 101.102 23.7591 100.168 26.16 99.2345C26.8269 98.9677 26.5602 97.9004 25.8932 98.1672C24.426 98.7009 22.9588 99.2345 21.3581 99.2345C18.557 99.3679 17.3566 97.9004 16.6896 95.3657C15.7559 91.4969 15.089 87.6281 14.2887 83.6259C12.6881 75.6215 11.0874 67.6171 9.6202 59.7461C8.15296 52.0085 6.68571 44.1375 5.21847 36.3999C4.41816 32.2643 3.75123 28.262 2.95092 24.1264C2.15061 19.8574 0.950147 12.52 7.08588 11.7196C7.75281 11.4528 7.35265 10.3855 6.68572 10.5189Z" fill="black" stroke="black" stroke-width="0.6"/>
<path d="M23.3589 33.7317C22.2918 35.3326 21.4915 37.0668 21.0914 38.9345C20.958 39.4682 21.7583 39.735 21.8917 39.2013C22.2918 37.3336 22.9588 35.7328 24.0258 34.2653C24.426 33.7317 23.6257 33.3315 23.3589 33.7317Z" fill="black" stroke="black" stroke-width="0.6"/>
<path d="M25.8933 33.4648C24.2927 36.1329 22.9588 38.9345 21.7583 41.736C21.4916 42.2696 22.2919 42.6698 22.5586 42.1362C23.7591 39.3347 25.2264 36.5331 26.6936 33.865C26.9604 33.3314 26.1601 32.9311 25.8933 33.4648Z" fill="black" stroke="black" stroke-width="0.6"/>
<path d="M28.561 32.9312C26.9604 36.2664 25.4932 39.4681 23.8925 42.8033C23.4924 43.7371 21.625 46.1385 22.9589 47.0723C23.359 47.4725 23.8926 46.6721 23.359 46.2719C22.8255 45.8717 28.8278 34.5321 29.3614 33.3314C29.6281 32.7978 28.8278 32.3976 28.561 32.9312Z" fill="black" stroke="black" stroke-width="0.6"/>
<path d="M32.4291 32.3976C30.4284 35.9996 28.561 39.735 26.5602 43.4704C25.6265 45.2047 24.6928 47.0724 23.8925 48.8067C23.4923 49.6071 22.9588 50.1407 23.359 50.9412C23.4923 51.0746 23.6257 51.208 23.8925 51.208H24.0259C24.5594 51.0746 24.2927 50.2741 23.7591 50.4076C24.8262 50.1407 25.8933 46.8056 26.2934 45.8717C26.9603 44.4042 27.7607 43.0702 28.4276 41.6027C29.8948 38.6677 31.4954 35.7328 33.0961 32.7978C33.4962 32.3976 32.6959 31.864 32.4291 32.3976Z" fill="black" stroke="black" stroke-width="0.6"/>
</svg>
