<svg width="30" height="45" viewBox="0 0 30 45" fill="none" xmlns="http://www.w3.org/2000/svg">
<path d="M11.0539 1.08976C15.1591 5.54762 10.702 11.5305 8.00425 15.5191C5.4238 19.2731 2.72607 22.9098 1.20126 27.2503C0.0283277 30.6524 -0.675446 34.7583 0.966659 38.1604C2.37418 40.9758 5.18922 42.8528 8.12155 43.674C15.1591 45.7856 23.487 42.6182 27.5922 36.518C31.3456 31.0043 30.8764 23.1444 25.0118 19.1558C24.4253 18.8039 23.9561 19.6251 24.5426 19.977C31.9321 24.9041 29.3516 34.9929 23.1351 39.5681C17.505 43.7913 6.36214 45.3164 2.13959 38.043C-2.08296 30.6524 4.83735 21.6194 8.82532 15.8711C11.8749 11.5305 16.2148 5.19568 11.7576 0.268579C11.2885 -0.0833568 10.5847 0.620515 11.0539 1.08976Z" fill="black"/>
<path d="M11.4057 0.972399C18.9125 1.9109 18.9125 10.9439 16.8012 16.3403C15.3937 19.9769 12.9305 24.904 16.2148 28.3061C18.2087 30.4177 21.9621 30.4177 24.1907 28.5407C27.0057 26.1945 26.7712 21.9712 24.7772 19.2731C24.4253 18.8038 23.4869 19.2731 23.9561 19.7423C25.4809 21.9712 25.9501 25.1387 23.9561 27.3676C22.314 29.1273 19.0298 29.4792 17.1531 27.8368C13.1652 24.3175 17.505 17.9826 18.5606 14.1113C20.0854 8.24574 18.2087 0.855088 11.4057 0.0339042C10.8193 -0.20072 10.8193 0.855087 11.4057 0.972399Z" fill="black"/>
<path d="M6.01021 25.6079C3.19517 29.7139 3.89891 34.8756 7.53501 38.043C8.00418 38.5123 8.70795 37.8084 8.23878 37.3391C4.83727 34.4063 4.25079 29.8312 6.83124 26.0772C7.30041 25.6079 6.36209 25.1387 6.01021 25.6079Z" fill="black"/>
<path d="M10.3501 39.6854C10.7019 40.272 11.523 40.3893 11.9922 39.9201C12.4613 39.4508 11.7576 38.747 11.2884 39.2162C11.2884 39.2162 11.2884 39.2162 11.1711 39.2162C10.8193 38.5123 9.99819 39.0989 10.3501 39.6854Z" fill="black"/>
</svg>
