<svg width="45" height="47" viewBox="0 0 45 47" fill="none" xmlns="http://www.w3.org/2000/svg">
<rect y="0.772949" width="44.2963" height="45.2743" rx="22.1481" fill="black"/>
<g clip-path="url(#clip0)">
<path d="M24.2638 17.1695C24.1428 17.0506 23.9975 16.9316 23.8765 16.8126C23.5859 17.0981 23.2712 17.3599 22.9807 17.6454C23.1259 17.7644 23.2954 17.8833 23.4407 18.0023C23.7312 17.7406 23.9975 17.4788 24.2638 17.1695Z" stroke="#F5E8B7" stroke-width="0.2"/>
<path d="M15.1605 27.8051C16.3952 26.6154 17.4847 25.283 18.6711 24.0457C20.0027 22.6419 21.4069 21.3095 22.787 19.9533C22.3996 19.6202 21.988 19.2871 21.6006 18.9302C20.1964 20.2626 18.8406 21.6426 17.4847 23.0226C16.1047 24.4502 14.4826 25.9016 13.2962 27.5196C13.7078 27.5671 14.0952 27.6385 14.5068 27.7099C14.6762 27.7337 14.9668 27.7575 15.1605 27.8051Z" stroke="#F5E8B7" stroke-width="0.2"/>
<path d="M17.0731 30.5176C16.5647 30.5652 16.0321 30.5414 15.5236 30.5414C15.3542 30.5414 15.2573 30.4224 15.2573 30.2796C15.2089 29.8514 15.1605 29.3993 15.0878 28.971C15.0636 28.6855 14.8699 28.281 15.0636 28.3286C14.5552 28.0669 13.6594 28.0669 13.0783 28.0193C12.812 28.6855 12.6909 29.4469 12.5214 30.1131C12.473 30.3034 12.4246 30.4938 12.4004 30.6841C13.272 31.3741 14.192 32.2783 14.7731 33.0159C15.7415 32.8493 16.6858 32.659 17.63 32.421C17.7026 32.3972 17.7511 32.3972 17.8237 32.3735C17.7995 31.8738 17.7511 31.3979 17.7026 30.8983C17.6058 30.351 17.63 30.47 17.0731 30.5176Z" stroke="#F5E8B7" stroke-width="0.2"/>
<path d="M26.4429 19.2633C26.2007 19.525 25.9344 19.763 25.6439 19.9771C25.8134 20.1437 25.9828 20.3102 26.1523 20.5006C26.4186 20.2864 26.6608 20.0247 26.9029 19.763C26.7576 19.5964 26.6123 19.4537 26.4671 19.2871C26.4671 19.2871 26.4671 19.2633 26.4429 19.2633Z" stroke="#F5E8B7" stroke-width="0.2"/>
<path d="M23.8523 18.3592C24.046 18.5019 24.2154 18.6685 24.3849 18.835C24.627 18.5733 24.8933 18.3116 25.1597 18.0498C24.9902 17.8833 24.8207 17.7167 24.627 17.574C24.4091 17.8357 24.1428 18.0974 23.8523 18.3592Z" stroke="#F5E8B7" stroke-width="0.2"/>
<path d="M27.0724 21.4047C27.2903 21.143 27.5324 20.9051 27.7745 20.6671C27.605 20.5006 27.4597 20.334 27.2903 20.1437C27.0724 20.4054 26.8303 20.6433 26.5639 20.8575C26.7334 21.0478 26.9029 21.2382 27.0724 21.4047Z" stroke="#F5E8B7" stroke-width="0.2"/>
<path d="M24.8207 19.1681C24.966 19.3109 25.1112 19.4536 25.2807 19.5964C25.5713 19.3823 25.8376 19.1205 26.0797 18.8826C25.9102 18.7161 25.7649 18.5495 25.5955 18.4067C25.3049 18.6447 25.0628 18.9064 24.8207 19.1681Z" stroke="#F5E8B7" stroke-width="0.2"/>
<path d="M27.4597 21.8091C27.6534 21.9995 27.8229 22.166 28.0166 22.3564C28.2587 22.1184 28.525 21.8805 28.7913 21.6426C28.5734 21.4522 28.3555 21.2857 28.1618 21.0953C27.9197 21.3095 27.6776 21.5474 27.4597 21.8091Z" stroke="#F5E8B7" stroke-width="0.2"/>
<path d="M29.5177 13.4577C27.8713 13.0056 26.4913 14.457 25.4018 15.4326C25.3776 15.4564 25.3291 15.5039 25.3049 15.5277C26.9271 17.0981 28.5492 18.6922 30.1229 20.3102C30.8977 19.525 31.5756 18.6922 32.0598 17.7881C32.6893 16.5746 32.2777 15.7895 31.4546 14.8853C30.9219 14.3381 30.2924 13.6719 29.5177 13.4577Z" stroke="#F5E8B7" stroke-width="0.2"/>
<path d="M24.7481 16.0275C24.5786 16.1702 24.4333 16.313 24.2639 16.4557C25.1597 17.2647 26.0313 18.0499 26.8545 18.9065C27.6292 19.7154 28.3071 20.5482 29.1545 21.2382C29.2998 21.0954 29.4451 20.9527 29.5903 20.8099C28.0166 19.2158 26.3944 17.5978 24.7481 16.0275Z" stroke="#F5E8B7" stroke-width="0.2"/>
<path d="M18.1384 30.4223C18.2353 30.9934 18.2837 31.5406 18.3079 32.1117C18.9374 31.7072 19.4458 31.041 19.9543 30.4937C20.8259 29.6134 21.6733 28.733 22.5449 27.8289C23.9249 26.4251 25.3049 25.0213 26.685 23.6175C26.3702 23.2606 26.0313 22.9037 25.6923 22.5706C23.2712 25.2592 20.7532 27.9003 18.1384 30.4223Z" stroke="#F5E8B7" stroke-width="0.2"/>
<path d="M22.569 18.0261C22.4238 18.1689 22.2785 18.2878 22.1332 18.4306C23.8764 19.9296 25.6681 21.4048 27.2176 23.0941C27.2902 23.0227 27.3628 22.9513 27.4355 22.88C27.4839 22.8086 27.5565 22.761 27.6292 22.6896C26.007 21.1193 24.4333 19.3585 22.569 18.0261Z" stroke="#F5E8B7" stroke-width="0.2"/>
<path d="M23.2228 20.3102C21.8428 21.6902 20.4143 23.0226 19.0827 24.4264C17.8721 25.6637 16.8068 26.9961 15.5479 28.1858C15.7415 28.6616 15.7415 29.4944 15.7658 30.0178C16.4679 29.9941 17.1458 29.9941 17.8479 29.9465C20.4385 27.4482 22.908 24.8547 25.3292 22.2136C24.6512 21.5474 23.9249 20.9288 23.2228 20.3102Z" stroke="#F5E8B7" stroke-width="0.2"/>
<path d="M31.4061 13.8623C30.1956 12.7202 29.0334 12.4109 27.4597 13.0533C26.0555 13.6244 24.966 14.8616 23.8765 15.8372C22.2301 17.3123 20.6322 18.8589 19.0584 20.4293C17.5573 21.952 16.0562 23.4986 14.6036 25.069C13.9499 25.759 13.2235 26.4728 12.6667 27.2341C12.6425 27.2579 12.6183 27.2817 12.6183 27.3055C12.5941 27.3293 12.5698 27.3769 12.5698 27.4007C12.1583 28.1859 11.9888 29.1138 11.7951 29.9466C11.5045 31.2552 11.2382 32.5638 11.1172 33.8963C11.093 34.158 11.3593 34.277 11.5772 34.2294C13.7078 33.8963 15.7899 33.4442 17.9205 33.0635C18.7921 32.9207 19.1553 32.3259 19.7606 31.7073C20.7774 30.6842 21.7701 29.6373 22.787 28.6142C24.6512 26.6869 26.5155 24.7834 28.4282 22.9038C30.0019 21.3572 32.2051 19.6679 32.9556 17.5265C33.4883 15.9799 32.5441 14.8854 31.4061 13.8623ZM26.1765 20.5006C26.007 20.3341 25.8376 20.1675 25.6681 19.9772C25.9586 19.763 26.2249 19.5251 26.4671 19.2634L26.4913 19.2872C26.6365 19.4537 26.7818 19.5965 26.9271 19.763C26.685 20.0248 26.4428 20.2627 26.1765 20.5006ZM27.2902 20.1675C27.4597 20.3341 27.605 20.5244 27.7745 20.691C27.5323 20.9289 27.2902 21.1668 27.0723 21.4286C26.9029 21.262 26.7092 21.0717 26.5397 20.9051C26.806 20.6672 27.0481 20.4293 27.2902 20.1675ZM25.2565 19.5965C25.1112 19.4537 24.966 19.311 24.7965 19.1682C25.0386 18.9065 25.3049 18.6448 25.5712 18.383C25.7407 18.5496 25.9102 18.6923 26.0555 18.8589C25.8134 19.1444 25.547 19.3824 25.2565 19.5965ZM24.4091 18.8113C24.2396 18.6448 24.0459 18.502 23.8765 18.3354C24.167 18.0737 24.4333 17.812 24.6754 17.5265C24.8449 17.693 25.0386 17.8596 25.2081 18.0023C24.9175 18.2879 24.6512 18.5496 24.4091 18.8113ZM23.8765 16.8365C23.9975 16.9554 24.1428 17.0744 24.2638 17.1934C23.9975 17.4789 23.7312 17.7644 23.4407 18.0261C23.2954 17.9072 23.1259 17.7882 22.9806 17.6692C23.2712 17.3837 23.5617 17.0982 23.8765 16.8365ZM17.5089 23.0227C18.8405 21.6427 20.2206 20.2627 21.6248 18.9303C22.0122 19.2634 22.4238 19.5965 22.8112 19.9534C21.4311 21.3096 20.0269 22.642 18.6953 24.0458C17.5089 25.3069 16.4194 26.6155 15.1846 27.8052C14.9667 27.7338 14.7004 27.7338 14.5552 27.71C14.1678 27.6386 13.7562 27.591 13.3446 27.5197C14.5067 25.9017 16.1289 24.4741 17.5089 23.0227ZM13.6109 33.1587L11.9646 33.4918C11.8919 33.5156 11.8435 33.468 11.8435 33.3966L12.2793 31.7311C12.3035 31.6597 12.3762 31.6359 12.4246 31.7073L13.6351 33.0159C13.6836 33.0873 13.6593 33.1587 13.6109 33.1587ZM17.6058 32.4211C16.6615 32.659 15.7173 32.8494 14.7488 33.0159C14.1678 32.3021 13.272 31.398 12.3762 30.6842C12.4246 30.4938 12.4488 30.3035 12.4972 30.1131C12.6425 29.4469 12.7877 28.6617 13.0541 28.0193C13.6351 28.0669 14.5309 28.0907 15.0394 28.3286C14.8457 28.2573 15.0394 28.6855 15.0636 28.9711C15.112 29.3993 15.1604 29.8514 15.2331 30.2797C15.2573 30.4224 15.3541 30.5652 15.4994 30.5414C16.0078 30.5176 16.5405 30.5652 17.0489 30.5176C17.6058 30.47 17.5816 30.3511 17.6542 30.8983C17.7026 31.398 17.751 31.8738 17.7752 32.3735C17.7268 32.3973 17.6784 32.4211 17.6058 32.4211ZM17.8479 29.9466C17.1458 29.9942 16.4678 29.9942 15.7657 30.018C15.7415 29.4945 15.7415 28.6855 15.5478 28.1859C16.7826 26.9962 17.8721 25.6638 19.0584 24.4265C20.39 23.0227 21.8185 21.6665 23.1985 20.3103C23.9249 20.9289 24.627 21.5475 25.3049 22.2138C22.908 24.8548 20.4385 27.4483 17.8479 29.9466ZM22.5691 27.829C21.6975 28.7093 20.8501 29.5897 19.9785 30.4938C19.4458 31.0411 18.9616 31.7073 18.3321 32.1118C18.2837 31.5407 18.2353 30.9697 18.1626 30.4224C20.7774 27.9004 23.2712 25.2593 25.7407 22.5944C26.0797 22.9276 26.4186 23.2845 26.7334 23.6414C25.3291 25.0214 23.9491 26.4252 22.5691 27.829ZM27.4355 22.9038C27.3629 22.9751 27.2902 23.0465 27.2176 23.1179C25.6923 21.4048 23.8765 19.9534 22.1333 18.4544C22.2785 18.3117 22.4238 18.1927 22.5691 18.0499C24.4091 19.3824 25.9828 21.1431 27.605 22.7372C27.5566 22.7848 27.4839 22.8324 27.4355 22.9038ZM28.0166 22.3565C27.8229 22.1662 27.6534 21.9996 27.4597 21.8093C27.6776 21.5475 27.9197 21.3096 28.1618 21.0717C28.3555 21.262 28.5734 21.4524 28.7913 21.6189C28.525 21.8569 28.2587 22.1186 28.0166 22.3565ZM29.1787 21.262C28.3071 20.5482 27.6534 19.7393 26.8786 18.9303C26.0555 18.0737 25.1839 17.2648 24.288 16.4796C24.4575 16.3368 24.6028 16.1941 24.7723 16.0513C26.4186 17.6454 28.0166 19.2396 29.6145 20.8575C29.4692 20.9765 29.324 21.1193 29.1787 21.262ZM32.0356 17.812C31.5756 18.7161 30.8735 19.5489 30.0987 20.3341C28.5008 18.7161 26.9029 17.122 25.2807 15.5516C25.3049 15.5278 25.3533 15.4803 25.3775 15.4565C26.4671 14.4809 27.8471 13.0295 29.4934 13.4816C30.2682 13.6958 30.8735 14.3382 31.4061 14.9092C32.2777 15.7896 32.6651 16.5747 32.0356 17.812Z" fill="#F5E8B7" stroke="#F5E8B7" stroke-width="0.2"/>
</g>
<defs>
<clipPath id="clip0">
<rect width="21.9837" height="21.5329" fill="white" transform="translate(11.1172 12.7202)"/>
</clipPath>
</defs>
</svg>
