<svg width="66" height="65" viewBox="0 0 66 65" fill="none" xmlns="http://www.w3.org/2000/svg">
<path fill-rule="evenodd" clip-rule="evenodd" d="M32.8999 8.98828C20.733 8.98828 10.9513 16.6184 9.28216 26.1884C9.17974 26.7754 9.6721 27.5234 10.6765 27.5234H10.725H55.1233C56.1277 27.5234 56.6201 26.7754 56.5176 26.1884C54.8485 16.6184 45.0668 8.98828 32.8999 8.98828ZM6.02979 25.6382C5.81508 26.8691 6.12849 27.9666 6.75841 28.8278C5.15907 30.014 4.125 31.8998 4.125 34.0234V36.0039C4.125 37.6798 4.76903 39.2076 5.82656 40.3603V41.2087C5.82656 42.3805 6.12929 43.5215 6.69215 44.5303C6.15417 45.1158 5.82656 45.8923 5.82656 46.7441V51.1367C5.82656 55.624 9.52023 59.2617 14.0766 59.2617H51.9234C56.4798 59.2617 60.1734 55.624 60.1734 51.1367V46.7441C60.1734 45.8923 59.8458 45.1158 59.3079 44.5303C59.8707 43.5215 60.1734 42.3805 60.1734 41.2087V40.3603C61.231 39.2076 61.875 37.6798 61.875 36.0039V34.0234C61.875 31.8418 60.7837 29.9112 59.1094 28.7322C59.6936 27.886 59.9769 26.824 59.77 25.6382C57.7774 14.2135 46.3496 5.73828 32.8999 5.73828C19.4502 5.73828 8.0224 14.2135 6.02979 25.6382ZM56.6858 42.3551C56.2313 42.4526 55.7592 42.5039 55.275 42.5039H10.725C10.2408 42.5039 9.76868 42.4526 9.31418 42.3551C9.49405 42.89 9.79909 43.3818 10.2113 43.7877L12.8972 46.433C14.6022 48.1121 17.3666 48.1121 19.0716 46.433C22.0653 43.4846 26.919 43.4846 29.9128 46.433C31.6178 48.1121 34.3822 48.1121 36.0872 46.433C39.081 43.4846 43.9347 43.4846 46.9284 46.433C48.6334 48.1121 51.3978 48.1121 53.1028 46.433L55.7887 43.7877C56.2009 43.3818 56.506 42.89 56.6858 42.3551ZM56.8734 47.3157L55.4362 48.7311C52.4425 51.6794 47.5888 51.6794 44.595 48.7311C42.89 47.0519 40.1256 47.0519 38.4206 48.7311C35.4269 51.6794 30.5731 51.6794 27.5794 48.7311C25.8744 47.0519 23.11 47.0519 21.405 48.7311C18.4112 51.6794 13.5575 51.6794 10.5638 48.7311L9.12656 47.3157V51.1367C9.12656 53.8291 11.3427 56.0117 14.0766 56.0117H51.9234C54.6573 56.0117 56.8734 53.8291 56.8734 51.1367V47.3157ZM7.425 34.0234C7.425 32.6943 8.2351 31.5516 9.39555 31.048L23.2594 37.5155C24.5701 38.127 26.0872 38.1416 27.4098 37.5554L42.7127 30.7734H55.1233H55.275C57.0975 30.7734 58.575 32.2285 58.575 34.0234V36.0039C58.575 37.7988 57.0975 39.2539 55.275 39.2539H10.725C8.90249 39.2539 7.425 37.7988 7.425 36.0039V34.0234ZM24.6722 34.5784L16.5159 30.7734H34.6711L26.0556 34.5917C25.6147 34.7871 25.109 34.7822 24.6722 34.5784ZM26.0936 13.9082C27.005 13.9082 27.7436 14.6358 27.7436 15.5332C27.7436 16.4307 27.005 17.1582 26.0936 17.1582C25.1823 17.1582 24.4436 16.4307 24.4436 15.5332C24.4436 14.6358 25.1823 13.9082 26.0936 13.9082ZM39.7061 13.9082C40.6175 13.9082 41.3561 14.6358 41.3561 15.5332C41.3561 16.4307 40.6175 17.1582 39.7061 17.1582C38.7948 17.1582 38.0561 16.4307 38.0561 15.5332C38.0561 14.6358 38.7948 13.9082 39.7061 13.9082ZM20.9374 22.2364C20.9374 21.3389 20.1987 20.6114 19.2874 20.6114C18.3761 20.6114 17.6374 21.3389 17.6374 22.2364C17.6374 23.1338 18.3761 23.8614 19.2874 23.8614C20.1987 23.8614 20.9374 23.1338 20.9374 22.2364ZM32.8999 20.6114C33.8112 20.6114 34.5499 21.3389 34.5499 22.2364C34.5499 23.1338 33.8112 23.8614 32.8999 23.8614C31.9886 23.8614 31.2499 23.1338 31.2499 22.2364C31.2499 21.3389 31.9886 20.6114 32.8999 20.6114ZM48.1624 22.2364C48.1624 21.3389 47.4237 20.6114 46.5124 20.6114C45.6011 20.6114 44.8624 21.3389 44.8624 22.2364C44.8624 23.1338 45.6011 23.8614 46.5124 23.8614C47.4237 23.8614 48.1624 23.1338 48.1624 22.2364Z" fill="black"/>
</svg>
