<svg width="66" height="66" viewBox="0 0 66 66" fill="none" xmlns="http://www.w3.org/2000/svg">
<path fill-rule="evenodd" clip-rule="evenodd" d="M15.8457 9.52264C10.0699 9.52264 5.18198 13.7892 4.40158 19.5121L0.911432 45.1062C0.0912165 51.1211 4.76664 56.4773 10.8372 56.4773C14.8728 56.4773 18.5144 54.0557 20.0752 50.3341L22.3615 44.8825C23.4489 42.2899 25.9857 40.6029 28.7971 40.6029H37.2029C40.0143 40.6029 42.5511 42.2899 43.6384 44.8825L45.9247 50.3341C47.4855 54.0557 51.1271 56.4773 55.1628 56.4773C61.2333 56.4773 65.9087 51.1211 65.0885 45.1063L61.4322 18.2933C60.7471 13.2687 56.4555 9.52264 51.3844 9.52264H51.2544C49.4226 9.52264 47.6698 10.2386 46.3644 11.5069H21.6198C20.3145 10.2386 18.5617 9.52264 16.73 9.52264H15.8457ZM7.67132 19.9579C8.22875 15.8702 11.7201 12.8226 15.8457 12.8226H16.73C17.7795 12.8226 18.7802 13.2664 19.4848 14.0442C19.9247 14.5299 20.5495 14.8069 21.2049 14.8069H46.7794C47.4347 14.8069 48.0594 14.5299 48.4994 14.0442C49.2041 13.2664 50.2048 12.8226 51.2544 12.8226H51.3844C54.8053 12.8226 57.7003 15.3497 58.1625 18.7392L61.8188 45.5521C62.3688 49.5856 59.2335 53.1773 55.1628 53.1773C52.4566 53.1773 50.0146 51.5534 48.9679 49.0578L46.6816 43.6062C45.0802 39.7876 41.3437 37.3029 37.2029 37.3029H28.7971C24.6563 37.3029 20.9198 39.7876 19.3183 43.6062L17.032 49.0578C15.9853 51.5535 13.5434 53.1773 10.8372 53.1773C6.76639 53.1773 3.63115 49.5856 4.18117 45.5521L7.67132 19.9579ZM16.9013 18.1282C15.5344 18.1282 14.4263 19.2363 14.4263 20.6032V21.6778H13.3517C11.9848 21.6778 10.8767 22.7859 10.8767 24.1528V27.7024C10.8767 29.0693 11.9848 30.1774 13.3517 30.1774H14.4263V31.252C14.4263 32.6189 15.5344 33.727 16.9013 33.727H20.4508C21.8177 33.727 22.9258 32.6189 22.9258 31.252V30.1774H24.0004C25.3673 30.1774 26.4754 29.0693 26.4754 27.7024V24.1528C26.4754 22.7859 25.3673 21.6778 24.0004 21.6778H22.9258V20.6032C22.9258 19.2363 21.8177 18.1282 20.4508 18.1282H16.9013ZM17.7263 23.3278V21.4282H19.6258V23.3278V24.9778H21.2758H23.1754V26.8774H21.2758H19.6258V28.5274V30.427H17.7263V28.5274V26.8774H16.0763H14.1767V24.9778H16.0763H17.7263V23.3278ZM50.7862 20.0402C50.0164 20.0402 49.3924 20.6642 49.3924 21.4339C49.3924 22.2037 50.0164 22.8277 50.7862 22.8277C51.5559 22.8277 52.1799 22.2037 52.1799 21.4339C52.1799 20.6642 51.5559 20.0402 50.7862 20.0402ZM46.0924 21.4339C46.0924 18.8416 48.1939 16.7402 50.7862 16.7402C53.3784 16.7402 55.4799 18.8416 55.4799 21.4339C55.4799 24.0262 53.3784 26.1277 50.7862 26.1277C48.1939 26.1277 46.0924 24.0262 46.0924 21.4339ZM41.9615 29.0332C41.9615 28.2635 42.5855 27.6395 43.3552 27.6395C44.125 27.6395 44.749 28.2635 44.749 29.0332C44.749 29.803 44.125 30.427 43.3552 30.427C42.5855 30.427 41.9615 29.803 41.9615 29.0332ZM43.3552 24.3395C40.7629 24.3395 38.6615 26.4409 38.6615 29.0332C38.6615 31.6255 40.7629 33.727 43.3552 33.727C45.9475 33.727 48.049 31.6255 48.049 29.0332C48.049 26.4409 45.9475 24.3395 43.3552 24.3395Z" fill="black"/>
</svg>
