<svg width="136" height="80" viewBox="0 0 136 80" fill="none" xmlns="http://www.w3.org/2000/svg">
<g clip-path="url(#clip0)">
<path d="M72.773 19.5896C67.166 15.8597 60.7997 12.9906 54.351 11.0124C48.9188 9.3416 43.1906 8.34372 37.4847 8.82316C34.4756 9.06603 28.8265 9.63543 26.8019 12.0979C25.6807 13.447 25.0891 15.7949 24.3507 17.3696C22.7774 20.7668 21.178 24.1427 19.6047 27.5399C15.9579 35.3849 12.2872 43.2322 8.66426 51.0749C7.52882 53.5231 6.13107 55.9966 5.2455 58.54C4.24653 61.4045 5.1169 64.685 5.75541 67.5585C5.87718 68.0717 6.22598 68.4437 6.77443 68.3907C12.5849 67.9966 18.4955 68.1417 24.312 68.5583C29.5709 68.9334 34.8119 69.6204 39.9338 70.82C42.5936 71.446 45.2171 72.1949 47.7442 73.1917C49.2696 73.7841 51.2724 75.3327 52.886 75.3439C55.3433 75.3691 58.8786 73.5959 61.2834 73.0773C63.9483 72.5098 66.6268 72.0841 69.3338 71.7033C74.7977 70.9609 80.3174 70.5472 85.8292 70.3013C92.1348 70.0502 98.4564 69.9647 104.748 70.3117C105.207 70.3389 105.554 70.1861 105.756 69.7848C114.175 54.535 122.594 39.2851 131.013 24.0353C131.177 23.7331 131.092 23.3595 130.922 23.0896C129.183 20.5372 127.535 16.9261 125.286 14.8285C122.3 12.0626 115.933 11.4365 112.041 11.0012C98.1486 9.45536 83.6934 12.5456 71.6385 19.556C70.5896 20.1584 71.6986 21.674 72.7476 21.0716C83.5957 14.7742 96.4294 11.8406 108.973 12.6337C113.308 12.9071 119.079 13.352 122.907 15.6072C125.151 16.9176 126.587 20.072 128.075 22.2669C128.383 22.7144 128.657 23.3083 129.055 23.6994C129.644 24.3107 129 24.3728 129.336 23.3621C129.244 23.6573 128.973 24.0891 128.802 24.3203C127.664 25.7427 126.917 27.7239 126.035 29.3123C122.92 34.9345 119.828 40.5544 116.715 46.2002C113.559 51.898 110.405 57.6193 107.273 63.3147C106.454 64.8017 105.083 66.5568 104.59 68.1793C104.498 68.4745 104.235 68.7386 104.119 69.0361C104.457 68.049 105.638 68.8178 104.043 68.4946C101.735 68.0255 98.9257 68.3445 96.566 68.3337C92.2066 68.3013 87.8609 68.4108 83.5243 68.6148C73.5374 69.1259 64.1245 70.8462 54.3905 72.9794C51.6803 73.5752 49.1925 71.7394 46.603 70.8441C44.361 70.0584 42.0634 69.4451 39.7251 68.9073C34.6077 67.755 29.369 67.0916 24.1362 66.7379C18.322 66.3449 12.4113 66.1998 6.59862 66.5703C6.9383 66.8477 7.27797 67.1251 7.61764 67.4025C7.06335 64.9027 6.1874 61.8136 6.95832 59.3291C7.54557 57.4349 8.66427 55.5611 9.50368 53.7858C12.7104 46.8662 15.9171 39.9466 19.1476 33.0247C21.9187 27.0778 24.6876 21.1073 27.4587 15.1604C28.6134 12.6627 28.6464 12.7549 31.6131 11.8242C37.2434 10.0634 43.3131 10.3602 49.0358 11.5495C56.8969 13.2005 64.8748 16.5582 71.5632 21.0189C72.5923 21.707 73.7998 20.2541 72.773 19.5896Z" fill="black"/>
<path d="M6.41762 60.4563C16.0103 59.6015 25.6584 60.3163 34.9677 62.7581C40.0057 64.0851 44.8748 65.9057 49.568 68.1489C52.57 69.5771 52.8219 69.1948 55.8795 68.2075C69.84 63.7334 86.2819 62.0262 100.789 64.2047C101.229 64.2814 101.592 64.0555 101.797 63.6778C110.661 48.552 118.864 33.0605 126.385 17.2293C126.905 16.1292 125.194 15.3637 124.672 16.4402C118.248 29.9224 111.37 43.186 103.962 56.1907C103.201 57.5289 102.52 58.9548 101.654 60.2076C100.258 62.2037 100.23 62.1587 97.8498 61.9352C95.4434 61.6903 93.0269 61.5896 90.6149 61.5362C84.9042 61.4673 79.1676 61.8781 73.4868 62.6176C68.6383 63.2529 63.8365 64.1222 59.0928 65.3439C57.2364 65.8096 55.2156 66.816 53.3171 67.0948C50.7555 67.4854 47.5929 65.1421 45.1158 64.1643C32.797 59.2213 19.4114 57.4357 6.18956 58.5932C5.04497 58.7038 5.22306 60.5478 6.41762 60.4563Z" fill="black"/>
<path d="M71.6673 19.6022C64.9848 35.6389 58.3023 51.6755 51.6436 67.7098C51.174 68.829 52.8869 69.6181 53.3564 68.4989C60.0389 52.4623 66.7214 36.4257 73.3801 20.3913C73.8497 19.2722 72.1368 18.4831 71.6673 19.6022Z" fill="black"/>
<path d="M51.9277 68.1596C51.9617 70.2562 52.1365 72.3154 52.4328 74.3867C52.5946 75.5642 54.4807 75.4059 54.3166 74.2047C54.0203 72.1335 53.8455 70.0743 53.8115 67.9777C53.7905 66.7627 51.9067 66.9447 51.9277 68.1596Z" fill="black"/>
<path d="M31.442 20.7665C42.4538 19.1543 53.3733 21.3212 62.9239 27.0088C63.9701 27.6236 64.7448 25.9262 63.7225 25.309C53.9174 19.479 42.5835 17.2566 31.2617 18.8988C30.0763 19.0849 30.2328 20.9549 31.442 20.7665Z" fill="black"/>
<path d="M29.2871 28.1095C37.0305 28.2923 44.7184 28.6476 51.8117 32.0669C52.8987 32.6062 53.6972 30.9065 52.6102 30.3671C45.2387 26.8076 37.1885 26.4397 29.1306 26.2395C27.903 26.2387 28.0811 28.0828 29.2871 28.1095Z" fill="black"/>
<path d="M25.448 35.2094C35.7566 35.2877 45.7732 37.327 55.298 41.2513C56.4258 41.7151 57.2005 40.0176 56.0965 39.5515C46.2697 35.4894 35.9362 33.4091 25.2915 33.3394C24.0401 33.3409 24.2443 35.2063 25.448 35.2094Z" fill="black"/>
<path d="M21.563 43.5786C31.7886 43.5456 41.7654 45.4217 51.2912 49.1073C52.4167 49.5474 53.2153 47.8477 52.0897 47.4075C42.238 43.5864 31.9467 41.6929 21.3826 41.7109C20.1812 41.7314 20.3593 43.5755 21.563 43.5786Z" fill="black"/>
<path d="M17.6597 51.7585C24.4942 51.003 31.1783 51.4313 37.8528 53.006C39.0362 53.2973 39.3634 51.4522 38.18 51.1608C31.3318 49.5314 24.4808 49.1192 17.4793 49.8907C16.2893 50.0295 16.4697 51.8972 17.6597 51.7585Z" fill="black"/>
<path d="M77.5242 25.6704C89.0083 21.7217 101.014 20.6816 112.993 22.6031C114.191 22.7976 114.518 20.9524 113.32 20.7579C101.024 18.7955 88.6372 19.8724 76.8499 23.9219C75.7089 24.3185 76.3831 26.0669 77.5242 25.6704Z" fill="black"/>
<path d="M74.9037 33.1775C83.86 31.2149 92.9223 30.1012 102.071 29.8858C103.297 29.8629 103.092 27.9975 101.891 28.0181C92.7181 28.2358 83.6558 29.3495 74.7234 31.3098C73.5709 31.5882 73.7252 33.4345 74.9037 33.1775Z" fill="black"/>
<path d="M71.2216 40.9066C82.6124 38.7328 94.2191 36.8006 105.631 39.8268C106.816 40.1418 107.12 38.2989 105.958 37.9816C94.3964 34.8983 82.599 36.8489 71.0413 39.0389C69.8604 39.2722 70.0169 41.1423 71.2216 40.9066Z" fill="black"/>
<path d="M69.0114 48.9232C77.9547 46.0789 87.1545 45.1428 96.47 46.1521C96.3436 45.5916 96.2173 45.0311 96.091 44.4706C95.8401 44.6142 95.5892 44.7577 95.3383 44.9013C94.2894 45.5037 95.3984 47.0192 96.4474 46.4168C96.6983 46.2733 96.9491 46.1297 97.2 45.9862C97.8834 45.5861 97.5762 44.3988 96.821 44.3047C87.1672 43.2803 77.6097 44.251 68.361 47.1724C67.1938 47.5476 67.8681 49.2961 69.0114 48.9232Z" fill="black"/>
<path d="M66.9267 55.9968C69.8095 55.1935 72.7082 54.5556 75.6729 54.1022C78.3322 53.7261 82.4765 52.7771 85.0036 53.7739C86.1292 54.214 86.9277 52.5142 85.8022 52.0741C83.1013 51.0225 79.7256 51.7064 76.9187 52.0491C73.3034 52.4937 69.7676 53.2646 66.2763 54.2461C65.0807 54.5763 65.755 56.3247 66.9267 55.9968Z" fill="black"/>
<path d="M126.603 19.2365C119.357 34.9219 110.9 50.0322 101.293 64.4423C100.895 65.0534 101.759 65.7813 102.181 65.1678C111.829 50.6822 120.351 35.494 127.659 19.7072C127.931 19.0366 126.899 18.5636 126.603 19.2365Z" fill="black"/>
<path d="M128.427 21.9238C123.721 30.0143 119.245 38.2495 114.565 46.3613C110.963 52.6748 107.491 59.8348 102.448 65.1897C101.945 65.7155 102.834 66.4411 103.336 65.9153C108.25 60.716 111.662 53.6811 115.208 47.5401C120.009 39.178 124.607 30.7162 129.459 22.3968C129.855 21.762 128.799 21.2913 128.427 21.9238Z" fill="black"/>
<path d="M53.2428 72.805C69.569 69.1524 86.1891 67.0462 102.91 66.4814C103.654 66.4573 103.544 65.3225 102.8 65.3466C86.0795 65.9114 69.4595 68.0176 53.1332 71.6702C52.4031 71.8362 52.5104 72.9474 53.2428 72.805Z" fill="black"/>
<path d="M7.14285 61.9851C14.9916 61.5135 22.6295 61.8497 30.3067 63.59C37.5671 65.2512 44.5351 67.8713 51.2671 71.0392C51.9475 71.3553 52.4239 70.3071 51.7458 70.0146C44.9138 66.8087 37.8459 64.1505 30.4878 62.4748C22.7106 60.6964 14.9774 60.3694 7.03326 60.8503C6.29177 60.898 6.40136 62.0328 7.14285 61.9851Z" fill="black"/>
<path d="M6.58225 64.9028C22.3892 62.8513 38.4286 66.6952 53.0462 72.5139C53.722 72.7828 54.2245 71.7559 53.5248 71.4894C38.7313 65.5922 22.4943 61.6957 6.47494 63.7916C5.73573 63.863 5.84532 64.9978 6.58225 64.9028Z" fill="black"/>
</g>
<defs>
<clipPath id="clip0">
<rect width="129.46" height="67.7644" fill="white" transform="translate(0 12.4443) rotate(-5.51603)"/>
</clipPath>
</defs>
</svg>
