<svg width="50" height="64" viewBox="0 0 50 64" fill="none" xmlns="http://www.w3.org/2000/svg">
<path d="M19.1517 24.3012C22.4266 26.7863 26.3982 29.2302 29.6731 31.7152C31.7127 33.3052 33.85 34.8762 35.8189 36.6693C39.979 40.4013 43.4255 44.7455 46.2157 49.4068C46.8922 50.5999 47.6091 52.069 47.1984 53.3792C46.7305 54.9844 44.7615 55.9357 43.0483 55.8908C41.3351 55.8459 39.807 55.008 38.4742 54.132C33.1294 50.536 29.1713 45.4398 25.2266 40.4355C21.9888 36.1453 18.889 32.1121 15.6512 27.8219L19.1517 24.3012Z" fill="black"/>
<path d="M18.8352 24.8677C24.4759 28.9861 30.5444 32.5483 35.646 37.1516C37.9743 39.3104 40.1186 41.6004 42.079 44.0215C43.1961 45.4862 44.3261 47.0421 45.2593 48.6379C45.6445 49.2175 46.0426 49.8883 46.3423 50.5791C46.9802 52.2347 46.1805 54.4631 44.1267 54.9727C40.6095 55.8725 36.7704 52.3287 34.5662 50.3326C32.2508 48.2652 30.3162 46.0267 28.3687 43.6968C24.0885 38.4577 20.065 32.8847 15.8704 27.5343C15.7977 27.7369 15.8362 28.0109 15.7635 28.2134C16.9143 27.0412 18.1636 25.849 19.3273 24.7681C19.7679 24.3032 19.173 23.6722 18.7195 24.0457C17.5686 25.218 16.3194 26.4102 15.1557 27.4911C14.9846 27.7136 14.9119 27.9162 15.0489 28.1702C20.2237 34.7312 24.9579 41.7571 30.6846 47.9246C33.5479 51.0084 40.8755 59.2002 46.2448 54.9197C48.7947 52.9007 47.3992 50.1774 46.1064 48.1847C44.1288 44.9216 41.672 41.8495 39.0569 39.0913C33.2574 33.1263 25.9907 28.9613 19.3228 24.0176C18.989 23.8033 18.3901 24.5821 18.8352 24.8677Z" fill="black"/>
<path d="M15.444 25.822C14.8802 25.3688 14.3163 24.9157 13.8359 24.3524C13.6024 24.1164 13.4789 23.9527 13.2454 23.7167C12.8884 23.3171 12.805 23.4272 13.2221 22.8766C13.973 21.8856 15.4412 21.0363 16.4255 20.2814C16.2187 20.2278 15.9284 20.2844 15.7215 20.2309C16.6823 21.3575 17.6565 22.5753 18.6173 23.7018C18.9876 24.1927 19.7918 23.5667 19.4215 23.0758C18.4607 21.9493 17.4865 20.7315 16.5257 19.6049C16.4023 19.4413 16.0986 19.4066 15.8217 19.5545C14.8373 20.3094 13.8529 21.0644 12.9787 21.8918C12.6316 22.241 11.8975 22.6656 11.8808 23.232C11.8507 23.7071 12.3311 24.2703 12.6748 24.5787C13.2786 25.3056 14.076 25.9948 14.86 26.5928C15.3138 26.9735 15.8978 26.2028 15.444 25.822Z" fill="black"/>
<path d="M13.6837 24.5232C14.9352 23.631 16.0774 22.6671 17.1104 21.6316C17.5374 21.1776 16.7724 20.6762 16.3454 21.1303C15.4085 22.1471 14.2663 23.111 13.0975 23.8945C12.5479 24.1866 13.1341 24.8154 13.6837 24.5232Z" fill="black"/>
<path d="M11.7796 22.6557C6.96015 23.9729 4.06001 19.9067 3.66367 15.8252C3.35799 13.0492 3.56652 10.3621 1.64427 8.18475C1.47622 8.40653 1.3216 8.7202 1.15354 8.94199C4.62858 9.39904 8.63806 8.71227 11.703 10.478C14.8789 12.3166 15.2618 16.3062 15.5372 19.5606C15.6178 20.112 16.5924 19.9221 16.5118 19.3707C16.223 16.0243 15.756 12.1456 12.9432 10.0473C9.79758 7.7302 5.1899 8.43901 1.31157 7.96602C0.908279 7.95009 0.585606 8.48555 0.820848 8.72326C3.60004 11.9624 1.72444 16.9592 4.04319 20.4771C5.71336 22.9871 8.61364 24.3123 11.7896 23.4099C12.5828 23.3499 12.4484 22.4309 11.7796 22.6557Z" fill="black"/>
<path d="M2.06195 9.10413C4.99159 9.9506 8.38155 10.5184 10.4981 12.6572C12.3928 14.6503 13.3804 17.2926 14.2571 19.862C14.4352 20.3943 15.3826 20.0207 15.1912 19.3965C14.1767 16.5705 13.1354 13.5606 10.824 11.4598C8.62352 9.43179 5.34443 8.93691 2.51223 8.07146C1.80332 8.02062 1.43705 8.94243 2.06195 9.10413Z" fill="black"/>
<path d="M2.14348 9.55233C6.92933 12.6963 11.2835 15.64 13.3916 21.1058C13.5703 21.6396 14.5214 21.265 14.3291 20.639C12.0963 15.008 7.74213 12.0643 2.83148 8.75504C2.17718 8.40848 1.58699 9.18674 2.14348 9.55233Z" fill="black"/>
<path d="M1.41749 9.28886C6.23428 12.6192 6.86927 19.7025 13.0631 21.4375C13.6909 21.5998 14.0588 20.6748 13.4309 20.5125C7.4464 18.8317 6.69999 11.6752 1.9946 8.418C1.54904 8.12536 0.958422 8.90402 1.41749 9.28886Z" fill="black"/>
<path d="M1.95807 9.57026C3.76269 12.9248 3.79725 17.2881 6.34644 20.2131C7.92064 21.9975 10.8419 23.3302 13.2719 22.0034C13.8337 21.7043 13.4037 20.8378 12.8419 21.1369C9.19011 23.081 6.28194 19.0857 5.29994 16.5213C4.3315 14.0494 3.96553 11.5554 2.71618 9.23304C2.5367 8.69789 1.68043 9.05417 1.95807 9.57026Z" fill="black"/>
</svg>
