<?xml version="1.0" encoding="utf-8"?>
<!-- Generator: Adobe Illustrator 24.2.0, SVG Export Plug-In . SVG Version: 6.00 Build 0)  -->
<svg version="1.1" id="Calque_1" xmlns="http://www.w3.org/2000/svg" xmlns:xlink="http://www.w3.org/1999/xlink" x="0px" y="0px"
	 viewBox="0 0 50 64" style="enable-background:new 0 0 50 64;" xml:space="preserve">
<style type="text/css">
	.st0{fill:#F5E8B7;}
</style>
<path class="st0" d="M19.2,24.3c3.3,2.5,7.2,4.9,10.5,7.4c2,1.6,4.2,3.2,6.1,5c4.2,3.7,7.6,8.1,10.4,12.7c0.7,1.2,1.4,2.7,1,4
	c-0.5,1.6-2.4,2.6-4.2,2.5c-1.7,0-3.2-0.9-4.6-1.8c-5.3-3.6-9.3-8.7-13.2-13.7c-3.2-4.3-6.3-8.3-9.6-12.6L19.2,24.3z"/>
<path class="st0" d="M18.8,24.9c5.6,4.1,11.7,7.7,16.8,12.3c2.3,2.2,4.5,4.4,6.4,6.9c1.1,1.5,2.2,3,3.2,4.6c0.4,0.6,0.8,1.3,1.1,1.9
	c0.6,1.7-0.2,3.9-2.2,4.4c-3.5,0.9-7.4-2.6-9.6-4.6c-2.3-2.1-4.2-4.3-6.2-6.6c-4.3-5.2-8.3-10.8-12.5-16.2c-0.1,0.2,0,0.5-0.1,0.7
	c1.2-1.2,2.4-2.4,3.6-3.4c0.4-0.5-0.2-1.1-0.6-0.7c-1.2,1.2-2.4,2.4-3.6,3.4c-0.2,0.2-0.2,0.4-0.1,0.7c5.2,6.6,9.9,13.6,15.6,19.8
	c2.9,3.1,10.2,11.3,15.6,7c2.5-2,1.2-4.7-0.1-6.7c-2-3.3-4.4-6.3-7-9.1C33.3,33.1,26,29,19.3,24C19,23.8,18.4,24.6,18.8,24.9z"/>
<path class="st0" d="M15.4,25.8c-0.6-0.5-1.1-0.9-1.6-1.5c-0.2-0.2-0.4-0.4-0.6-0.6c-0.4-0.4-0.4-0.3,0-0.8c0.8-1,2.2-1.8,3.2-2.6
	c-0.2-0.1-0.5,0-0.7-0.1c1,1.1,1.9,2.3,2.9,3.5c0.4,0.5,1.2-0.1,0.8-0.6c-1-1.1-1.9-2.3-2.9-3.5c-0.1-0.2-0.4-0.2-0.7-0.1
	c-1,0.8-2,1.5-2.8,2.3c-0.3,0.3-1.1,0.8-1.1,1.3c0,0.5,0.5,1,0.8,1.3c0.6,0.7,1.4,1.4,2.2,2C15.3,27,15.9,26.2,15.4,25.8z"/>
<path class="st0" d="M13.7,24.5c1.3-0.9,2.4-1.9,3.4-2.9c0.4-0.5-0.3-1-0.8-0.5c-0.9,1-2.1,2-3.2,2.8C12.5,24.2,13.1,24.8,13.7,24.5
	z"/>
<path class="st0" d="M11.8,22.7C7,24,4.1,19.9,3.7,15.8c-0.3-2.8-0.1-5.5-2-7.6C1.5,8.4,1.3,8.7,1.2,8.9c3.5,0.5,7.5-0.2,10.5,1.5
	c3.2,1.8,3.6,5.8,3.8,9.1c0.1,0.6,1.1,0.4,1-0.2c-0.3-3.3-0.8-7.2-3.6-9.3C9.8,7.7,5.2,8.4,1.3,8C0.9,8,0.6,8.5,0.8,8.7
	C3.6,12,1.7,17,4,20.5c1.7,2.5,4.6,3.8,7.7,2.9C12.6,23.3,12.4,22.4,11.8,22.7z"/>
<path class="st0" d="M2.1,9.1c2.9,0.8,6.3,1.4,8.4,3.6c1.9,2,2.9,4.6,3.8,7.2c0.2,0.5,1.1,0.2,0.9-0.5c-1-2.8-2.1-5.8-4.4-7.9
	c-2.2-2-5.5-2.5-8.3-3.4C1.8,8,1.4,8.9,2.1,9.1z"/>
<path class="st0" d="M2.1,9.6c4.8,3.1,9.1,6.1,11.2,11.6c0.2,0.5,1.1,0.2,0.9-0.5C12.1,15,7.7,12.1,2.8,8.8C2.2,8.4,1.6,9.2,2.1,9.6
	z"/>
<path class="st0" d="M1.4,9.3c4.8,3.3,5.5,10.4,11.6,12.1c0.6,0.2,1-0.8,0.4-0.9C7.4,18.8,6.7,11.7,2,8.4C1.5,8.1,1,8.9,1.4,9.3z"/>
<path class="st0" d="M2,9.6c1.8,3.4,1.8,7.7,4.4,10.6c1.6,1.8,4.5,3.1,6.9,1.8c0.6-0.3,0.1-1.2-0.4-0.9c-3.7,1.9-6.6-2.1-7.5-4.6
	c-1-2.5-1.3-5-2.6-7.3C2.5,8.7,1.7,9.1,2,9.6z"/>
</svg>
