<svg fill="none" height="52" viewBox="0 0 57 52" width="57" xmlns="http://www.w3.org/2000/svg"><g fill="#000"><path d="m.0235765 12.443c.1767405 12.9041.1767615 25.8082.3535015 38.7123 0 .3535.35347.7071.706952.7071 11.48807 0 23.15297-.1768 34.64107-.8839.3535 0 .707-.3535.707-.7071-.3535-13.2576-.3535-26.6919-.3535-39.9496 0-.3535-.3535-.70705-.707-.70705-11.4881.53035-23.1529 1.23735-34.641047 2.12125-.883701 0-1.060441 1.5909 0 1.5909 6.009167-.3535 12.018347-.8838 18.027447-1.2374 2.8279-.1768 5.6557-.3535 8.4836-.5303 1.7674-.1768 6.3626-1.0606 7.4231.3535.5302.7071 0 4.2425 0 5.1263v4.4192 9.5455c0 3.0051 0 6.0101.1767 8.8384 0 1.9445 1.0604 7.9546-.1767 9.3687-1.2372 1.2374-7.5999.7071-9.3673.7071-3.0046.1768-6.0091.1768-9.0137.1768s-6.0092.1767-9.01376.1767c-.88371 0-3.71156.5303-4.59526 0-1.23718-.8838-.70696-2.2979-.8837-3.7121-.17674-11.3131-.17674-22.8031-.35348-34.1163 0-1.0606-1.4139235-1.0606-1.4139235 0z"/><path d="m21.7624 11.2058c.707-1.9445 1.414-3.7122 2.2977-5.65665.3535-.70708 1.0604-2.82828 1.7674-3.35859 2.1209-1.237376 8.13 1.94445 10.2509 2.65153 6.7161 2.29798 13.2555 4.77273 19.7949 7.42421-.1768-.3535-.3535-.707-.5302-1.0605-2.8279 6.5404-5.479 13.0808-8.3068 19.6212-1.4139 3.1818-2.6511 6.3637-4.065 9.3687-.5303 1.0606-1.0605 4.0657-1.9442 4.7728-1.5906 1.0606-3.358 0-4.9487-.5303-.8837-.1768-1.4139 1.2373-.3535 1.4141 1.414.3536 4.2418 1.9445 5.8324.8839 1.2372-.7071 1.5907-2.8283 2.1209-3.8889.8837-1.9445 1.7674-4.0657 2.6511-6.0101 3.5348-8.3082 7.0696-16.6163 10.6044-24.9244.1768-.5303 0-.8838-.5302-1.0606-9.8974-4.06567-19.9716-7.60102-30.2226-10.782852-.3534-.176768-.7069-.0000054-.8837.353531-2.1208 3.181831-3.7115 6.717201-4.7719 10.252521-.5302 1.0607.8837 1.4142 1.2371.5304z"/><path d="m4.08845 31.5341c3.53481-2.4748 7.06965-4.596 10.78115-6.894-.3535-.1768-.707-.1768-1.0604-.3535 3.7115 5.1263 7.7765 10.0758 10.6044 15.7323.3534.8839 1.7674.1768 1.2371-.707-2.8278-5.6566-6.8928-10.6061-10.6044-15.7324-.1767-.3535-.7069-.5303-1.0604-.3535-3.7115 2.1212-7.24635 4.4192-10.78115 6.8939-.70696.7071 0 1.9445.8837 1.4142z"/><path d="m20.879 32.7717c2.4744-2.1212 4.9487-4.4192 7.4231-6.5404-.3535 0-.707 0-1.0604 0 2.1208 2.298 3.7115 4.7727 4.9487 7.601.3535.8838 1.7674.1768 1.2372-.7071-1.414-2.8283-3.1814-5.4798-5.3022-7.7778-.3535-.3535-.707-.1767-1.0605 0-2.4743 2.1212-4.9487 4.4192-7.423 6.5404-.707.3536.3534 1.4142 1.2371.8839z"/><path d="m3.20498 15.2714c0 9.7223-.17672 19.2678-.17672 28.99 0 .3536.35347.7071.70695.7071 9.72069-.1768 19.26469-.3536 28.98539-.3536.3535 0 .707-.3535.707-.707 0-10.2526 0-20.3284 0-30.5809 0-.3536-.3535-.7071-.707-.7071-9.544.707-19.2647 1.4141-28.80864 1.9444-.8837 0-1.06044 1.5909 0 1.5909 6.89284-.5303 13.96244-1.0605 20.85534-1.4141 2.2976-.1768 5.6557.1768 7.9533-.5303-2.6511.8838 0-1.5909-.707-.3535-.1767.1767 0 1.0606 0 1.2373v5.3031 13.4344 6.0101c0 .7071-.3535 3.0051 0 3.5354s1.0605 0 0-.3536c-1.0604-.3535-3.0046 0-4.065 0-4.4185 0-9.0137.1768-13.4322.1768-2.2977 0-4.77202 0-7.06964.1768-.53022 0-3.00458.3535-3.5348 0 .53022.3535.5302-4.596.5302-4.9495 0-2.4748 0-4.7728 0-7.2476 0-5.303 0-10.6061 0-15.9091.17674-.8838-1.23718-.8838-1.23718 0z"/><path d="m4.26538 40.9027c9.01372-.1768 18.20422-.3535 27.21792-.5303.8837 0 1.0605-1.5909 0-1.5909-9.0137.1768-18.2042.3535-27.21792.5303-.8837.1768-.8837 1.7677 0 1.5909z"/><path d="m22.4694 16.8624c-1.7674.1768-3.0046 1.5909-3.0046 3.3586s1.5907 3.0051 3.1814 3.0051c1.5906 0 3.0045-1.2374 3.0045-2.8283.1768-1.9445-1.2372-3.1818-3.0045-3.5354-.8837-.1767-1.414 1.2374-.3535 1.4142 1.0604.1767 1.7674.707 1.9441 1.7677 0 .8838-.5302 1.5909-1.4139 1.5909s-1.7674-.3536-1.9441-1.2374c-.1768-.8839.5302-1.9445 1.4139-2.1212 1.2372 0 1.2372-1.5909.1767-1.4142z"/><path d="m24.9437 10.4987c1.2372-1.76771 2.1209-3.35862 2.8279-5.30307-.3535.17677-.707.35354-.8837.53031 8.4835 2.82829 16.7903 5.83336 25.0971 9.01516-.1767-.3535-.3535-.7071-.5302-1.0606-2.2976 4.9495-4.5953 9.899-6.7162 14.8485-1.0604 2.298-2.1208 4.596-3.0045 6.7172-.3535.8838-.8837 3.0051-2.1209 3.3586-.707.1768-2.6511-.8838-3.1813-1.0606-.8837-.3535-1.2372 1.0606-.3535 1.4142 1.4139.5303 2.8278 1.0606 4.2417 1.4141.3535.1768.707 0 .8837-.3536 3.8883-8.4848 7.7766-17.1465 11.6649-25.6313.1767-.5303 0-.8839-.5302-1.0606-8.3068-3.1819-16.6136-6.18692-25.0971-9.01521-.3535-.17677-.707.17677-.8837.53031-.707 1.76768-1.5907 3.3586-2.6511 4.94951-.707.70709.7069 1.41409 1.2371.70709z"/><path d="m36.2553 24.4633c2.4744-.8839 4.9488-1.5909 7.4232-2.4748-.3535-.1768-.707-.3535-.8838-.5303.5303 2.298 1.0605 4.596 1.2372 7.0707.1768.8839 1.5907.8839 1.5907 0-.1768-2.4747-.707-4.9495-1.2372-7.4242-.1767-.3536-.5302-.7071-.8837-.5303-2.4744.8838-4.9487 1.5909-7.4231 2.4747-1.2372.3536-.8837 1.7677.1767 1.4142z"/><path d="m36.0787 31.8876c1.9442.8839 4.065 1.7677 6.0092 2.6515.8837.3536 1.5907-.8838.707-1.2373-1.9442-.8839-4.0651-1.7677-6.0092-2.6515-.8837-.3536-1.5907.8838-.707 1.2373z"/><circle cx="22.1958" cy="19.6752" r="2.36561"/></g></svg>