<svg xmlns="http://www.w3.org/2000/svg" viewBox="0 0 60.42 31.95"><defs><style>.cls-1{fill:#f5e8b7;stroke:#f5e8b7;stroke-width:0.4px;}</style></defs><g id="Calque_2" data-name="Calque 2"><g id="Calque_1-2" data-name="Calque 1"><path class="cls-1" d="M33.48,6.78A33.27,33.27,0,0,0,25.36,2,21.1,21.1,0,0,0,17.67.2c-1.4,0-4,0-5.08,1a11.86,11.86,0,0,0-1.37,2.34c-.87,1.5-1.76,3-2.64,4.5-2,3.47-4.08,7-6.1,10.42-.63,1.09-1.39,2.17-1.91,3.31A7.87,7.87,0,0,0,.4,26a.43.43,0,0,0,.43.43,57.83,57.83,0,0,1,8.09.87A45.56,45.56,0,0,1,16,29.06a25.48,25.48,0,0,1,3.5,1.44c.68.35,1.54,1.16,2.28,1.23,1.13.12,2.85-.54,4-.67s2.51-.22,3.78-.28c2.55-.1,5.12,0,7.67.09,2.93.17,5.85.41,8.74.85a.45.45,0,0,0,.49-.2l13.7-20.08a.46.46,0,0,0,0-.44,22.67,22.67,0,0,0-2.24-4.08c-1.25-1.42-4.16-2-5.94-2.37A30.75,30.75,0,0,0,33,6.71c-.52.23-.07,1,.44.75A29.88,29.88,0,0,1,50.5,5.17c2,.32,4.63.79,6.3,2,1,.71,1.5,2.24,2.09,3.32a4.1,4.1,0,0,0,.39.71c.24.31-.06.31.14-.14a1.75,1.75,0,0,1-.29.42,16.61,16.61,0,0,0-1.5,2.19c-1.69,2.46-3.36,4.93-5.05,7.41l-5.12,7.51A13.27,13.27,0,0,0,46,30.73c-.06.13-.19.24-.26.37.2-.44.72,0,0-.25a18.7,18.7,0,0,0-3.44-.41q-3-.32-6-.46a81.92,81.92,0,0,0-13.65.72c-1.28.16-2.34-.8-3.5-1.33A27.5,27.5,0,0,0,16,28.16a46.73,46.73,0,0,0-7.1-1.7,61,61,0,0,0-8.09-.87l.44.43a7.87,7.87,0,0,1,.05-3.77A20.61,20.61,0,0,1,2.75,19.8q2.67-4.61,5.37-9.2,2.33-3.94,4.64-7.91c.64-1.1.65-1.06,2.06-1.36A16.14,16.14,0,0,1,22.88,2a30.6,30.6,0,0,1,10,5.39C33.3,7.75,33.92,7.13,33.48,6.78Z"/><path class="cls-1" d="M1,22.75A38.38,38.38,0,0,1,14.1,25.1a38.21,38.21,0,0,1,6.5,3.15c1.32.8,1.46.63,2.91.31a47.44,47.44,0,0,1,20.91.15.42.42,0,0,0,.49-.2Q52.07,18.6,58.33,8.08a.44.44,0,0,0-.75-.44q-5.36,8.94-11.34,17.5c-.41.59-.78,1.22-1.24,1.76-.73.86-.74.84-1.83.63S41,27.15,39.84,27a55.51,55.51,0,0,0-8-.26,53.07,53.07,0,0,0-6.77.62c-.87.13-1.85.5-2.74.55-1.2.06-2.56-1.16-3.66-1.73A39.09,39.09,0,0,0,1,21.88C.47,21.88.47,22.74,1,22.75Z"/><path class="cls-1" d="M33,6.73q-5.7,10.71-11.39,21.41c-.27.5.49.94.75.44L33.72,7.18C34,6.68,33.23,6.23,33,6.73Z"/><path class="cls-1" d="M14.35,5.47A22,22,0,0,1,28.6,9.77c.46.34.89-.42.44-.75A22.73,22.73,0,0,0,14.35,4.6C13.79,4.63,13.78,5.5,14.35,5.47Z"/><path class="cls-1" d="M13,8.78c3.57.43,7.1.94,10.23,2.84.47.3.92-.45.44-.75-3.24-2-6.94-2.51-10.66-3C12.47,7.85,12.47,8.71,13,8.78Z"/><path class="cls-1" d="M10.93,11.9A36.79,36.79,0,0,1,24.45,16c.5.26.93-.49.44-.76A37.79,37.79,0,0,0,11,11C10.37,11,10.38,11.84,10.93,11.9Z"/><path class="cls-1" d="M8.77,15.6a37.69,37.69,0,0,1,13.48,3.9c.5.25.94-.5.44-.75a38.79,38.79,0,0,0-13.92-4C8.21,14.69,8.21,15.55,8.77,15.6Z"/><path class="cls-1" d="M6.6,19.22a27.52,27.52,0,0,1,9.27,1.48c.53.19.76-.65.23-.84a27.64,27.64,0,0,0-9.5-1.51A.44.44,0,0,0,6.6,19.22Z"/><path class="cls-1" d="M35.4,9.81A33.67,33.67,0,0,1,51.91,10a.44.44,0,0,0,.23-.84,34.69,34.69,0,0,0-17-.16C34.62,9.1,34.86,9.94,35.4,9.81Z"/><path class="cls-1" d="M33.86,13.17a65.55,65.55,0,0,1,12.68-.31c.57.05.56-.83,0-.87a65.51,65.51,0,0,0-12.68.31C33.31,12.37,33.3,13.24,33.86,13.17Z"/><path class="cls-1" d="M31.81,16.59c5.36-.5,10.8-.87,15.93,1,.54.2.76-.64.24-.84-5.2-1.95-10.74-1.57-16.17-1.07C31.26,15.77,31.24,16.64,31.81,16.59Z"/><path class="cls-1" d="M30.43,20.21a30.68,30.68,0,0,1,12.8-.06c0-.26-.06-.53-.1-.8l-.36.17c-.51.23-.07,1,.44.75l.37-.16a.45.45,0,0,0-.1-.8,32.08,32.08,0,0,0-13.27.06C29.66,19.49,29.89,20.33,30.43,20.21Z"/><path class="cls-1" d="M29.16,23.39a33.31,33.31,0,0,1,4.12-.48c1.24-.06,3.2-.31,4.32.26.5.26.94-.5.44-.75-1.2-.61-2.78-.44-4.1-.41a32.52,32.52,0,0,0-5,.54C28.37,22.65,28.6,23.49,29.16,23.39Z"/><path class="cls-1" d="M58.34,9a154.71,154.71,0,0,1-13.7,19.83c-.21.26.16.64.38.37A157.78,157.78,0,0,0,58.81,9.29C59,9,58.51,8.72,58.34,9Z"/><path class="cls-1" d="M59.07,10.35c-2.54,3.54-5,7.16-7.49,10.71-1.95,2.76-3.87,5.93-6.44,8.18-.25.23.13.6.38.38,2.5-2.19,4.39-5.3,6.3-8,2.59-3.66,5.09-7.37,7.7-11C59.73,10.34,59.27,10.07,59.07,10.35Z"/><path class="cls-1" d="M1.29,23.49a37.51,37.51,0,0,1,10.62,1.78,48.31,48.31,0,0,1,9.35,4.39.26.26,0,1,0,.26-.45,49,49,0,0,0-9.47-4.45A37.84,37.84,0,0,0,1.29,23C1,23,1,23.48,1.29,23.49Z"/><path class="cls-1" d="M.9,24.82c7.39-.24,14.62,2.26,21.11,5.61.3.15.58-.3.27-.46C15.71,26.58,8.39,24.05.9,24.3A.26.26,0,0,0,.9,24.82Z"/></g></g></svg>