<svg width="61" height="33" viewBox="0 0 61 33" fill="none" xmlns="http://www.w3.org/2000/svg">
<path d="M33.7486 7.2032C31.3264 5.22302 28.5154 3.60791 25.6265 2.4021C23.1933 1.38436 20.5933 0.665299 17.9378 0.632112C16.5379 0.609987 13.9046 0.621049 12.8602 1.67198C12.2824 2.24723 11.9046 3.30922 11.4935 4.00615C10.6158 5.51065 9.72689 7.00407 8.84913 8.50857C6.81584 11.9822 4.77144 15.4558 2.74927 18.9294C2.11595 20.0135 1.36041 21.0976 0.838198 22.237C0.249322 23.5203 0.504872 25.0801 0.671535 26.4408C0.704867 26.6841 0.849308 26.8722 1.10486 26.8722C3.8048 26.9496 6.52696 27.2815 9.19357 27.7351C11.6046 28.1444 13.9935 28.6975 16.3045 29.4829C17.5045 29.8923 18.6823 30.3569 19.8044 30.9321C20.4822 31.2751 21.3377 32.0826 22.0822 32.1601C23.2155 32.2817 24.9266 31.618 26.0599 31.4852C27.3154 31.3414 28.5709 31.264 29.8376 31.2087C32.3931 31.1091 34.9597 31.1644 37.5152 31.2972C40.4373 31.4631 43.3595 31.7065 46.2483 32.149C46.4594 32.1822 46.6261 32.1269 46.7372 31.9499C51.3038 25.2571 55.8703 18.5643 60.4369 11.8715C60.5258 11.7388 60.5036 11.5618 60.4369 11.429C59.748 10.1679 59.148 8.42007 58.2036 7.34701C56.9481 5.93102 54.037 5.35577 52.2593 4.97965C45.915 3.64109 39.104 4.42653 33.2264 7.13682C32.7153 7.36913 33.1597 8.12138 33.6708 7.88907C38.9596 5.45533 45.015 4.6699 50.7704 5.59915C52.7593 5.91996 55.4037 6.38458 57.0703 7.60145C58.0481 8.30944 58.5703 9.83606 59.1591 10.9202C59.2814 11.1414 59.3814 11.429 59.548 11.6282C59.7925 11.9379 59.4925 11.9379 59.6925 11.4844C59.6369 11.6171 59.4925 11.8052 59.4036 11.9047C58.8147 12.5132 58.3814 13.3982 57.9036 14.0951C56.2148 16.562 54.537 19.0289 52.8482 21.5069C51.1371 24.007 49.426 26.5182 47.7261 29.0183C47.2816 29.671 46.5705 30.4233 46.2705 31.1534C46.215 31.2861 46.0816 31.3967 46.015 31.5295C46.215 31.087 46.7261 31.4963 46.0039 31.2751C44.9594 30.9543 43.6484 30.9764 42.5595 30.8657C40.5484 30.6556 38.5374 30.5118 36.5263 30.4122C31.8931 30.202 27.4709 30.5781 22.8822 31.1313C21.6044 31.2861 20.5378 30.3237 19.3822 29.7927C18.3823 29.3281 17.3489 28.9409 16.2934 28.5869C13.9824 27.8236 11.5935 27.2815 9.19357 26.8833C6.52696 26.4408 3.8048 26.1089 1.10486 26.0204C1.2493 26.1642 1.39374 26.308 1.53818 26.4518C1.39374 25.2682 1.12708 23.7969 1.59374 22.6795C1.94928 21.8277 2.54927 21.0091 3.01593 20.2237C4.80478 17.1594 6.59363 14.0951 8.39359 11.0308C9.938 8.39794 11.4824 5.75402 13.0268 3.12116C13.6712 2.01492 13.6824 2.05917 15.0934 1.76048C17.7712 1.1963 20.56 1.60561 23.1488 2.41316C26.7043 3.53047 30.2376 5.44427 33.1264 7.81163C33.5708 8.17669 34.193 7.5572 33.7486 7.2032Z" fill="black" stroke="black" stroke-width="0.4"/>
<path d="M1.29393 23.1783C5.7605 23.2115 10.1826 23.9748 14.3714 25.5235C16.638 26.3643 18.8047 27.4262 20.8713 28.6763C22.1935 29.4728 22.3268 29.3069 23.7823 28.9861C30.4266 27.5369 38.0931 27.4816 44.693 29.1409C44.893 29.1962 45.0707 29.1077 45.1819 28.9418C49.9484 22.3265 54.4261 15.512 58.6038 8.50948C58.8927 8.02274 58.1371 7.5913 57.8482 8.06699C54.2817 14.0296 50.5151 19.8706 46.5152 25.5678C46.1041 26.1541 45.7263 26.7846 45.2707 27.3267C44.5374 28.1896 44.5263 28.1674 43.4375 27.9572C42.3375 27.736 41.2264 27.5811 40.1153 27.4484C37.482 27.1607 34.8154 27.0944 32.1599 27.1829C29.8933 27.2603 27.6378 27.4484 25.3934 27.8024C24.5156 27.9351 23.5379 28.3112 22.649 28.3555C21.449 28.4219 20.0935 27.1939 18.9935 26.6298C13.527 23.7867 7.42713 22.3597 1.27171 22.3043C0.738385 22.3043 0.738385 23.1672 1.29393 23.1783Z" fill="black" stroke="black" stroke-width="0.4"/>
<path d="M33.2377 7.15989C29.4378 14.2952 25.6378 21.4304 21.849 28.5657C21.5824 29.0635 22.3379 29.506 22.6046 29.0082C26.4045 21.8729 30.2044 14.7377 33.9932 7.60239C34.2599 7.10458 33.5043 6.66208 33.2377 7.15989Z" fill="black" stroke="black" stroke-width="0.4"/>
<path d="M14.6158 5.89877C19.7713 5.64434 24.7156 7.13777 28.8711 10.2021C29.3266 10.5339 29.76 9.78169 29.3155 9.44982C25.0489 6.30808 19.9157 4.7704 14.6158 5.02484C14.0603 5.05803 14.0492 5.93196 14.6158 5.89877Z" fill="black" stroke="black" stroke-width="0.4"/>
<path d="M13.2936 9.20656C16.8602 9.63799 20.3935 10.1469 23.5156 12.0496C23.9934 12.3483 24.4378 11.596 23.9601 11.2974C20.7157 9.31718 17.0158 8.78619 13.3047 8.33263C12.7381 8.27731 12.7381 9.14018 13.2936 9.20656Z" fill="black" stroke="black" stroke-width="0.4"/>
<path d="M11.2048 12.326C15.9603 12.8238 20.4935 14.2177 24.7156 16.4634C25.2156 16.7289 25.649 15.9766 25.1601 15.7111C20.8046 13.388 16.1269 11.961 11.2159 11.4521C10.6382 11.3968 10.6493 12.2707 11.2048 12.326Z" fill="black" stroke="black" stroke-width="0.4"/>
<path d="M9.03824 16.0321C13.7604 16.4746 18.2825 17.791 22.5157 19.9261C23.0157 20.1805 23.4601 19.4282 22.9602 19.1738C18.5825 16.9613 13.9159 15.6228 9.03824 15.1581C8.4827 15.1139 8.4827 15.9768 9.03824 16.0321Z" fill="black" stroke="black" stroke-width="0.4"/>
<path d="M6.87161 19.6495C10.0604 19.6052 13.127 20.103 16.1381 21.1318C16.6714 21.3199 16.9047 20.4792 16.3714 20.2911C13.2826 19.2291 10.1382 18.7313 6.87161 18.7755C6.31607 18.7866 6.31607 19.6605 6.87161 19.6495Z" fill="black" stroke="black" stroke-width="0.4"/>
<path d="M35.6709 10.2353C41.1486 8.91892 46.7374 8.97423 52.1817 10.4013C52.7261 10.5451 52.9595 9.70435 52.415 9.56054C46.8263 8.1003 41.0597 8.04499 35.4376 9.3946C34.8932 9.52735 35.1265 10.3681 35.6709 10.2353Z" fill="black" stroke="black" stroke-width="0.4"/>
<path d="M34.1265 13.5983C38.3486 13.0894 42.5819 12.9788 46.8151 13.2885C47.3818 13.3328 47.3706 12.4589 46.8151 12.4146C42.5707 12.1049 38.3375 12.2155 34.1265 12.7244C33.5821 12.8018 33.5709 13.6647 34.1265 13.5983Z" fill="black" stroke="black" stroke-width="0.4"/>
<path d="M32.0822 17.0165C37.4376 16.5187 42.8819 16.1426 48.0151 18.0564C48.5485 18.2555 48.7707 17.4148 48.2485 17.2156C43.0486 15.2686 37.5154 15.6448 32.0822 16.1426C31.5266 16.1979 31.5155 17.0718 32.0822 17.0165Z" fill="black" stroke="black" stroke-width="0.4"/>
<path d="M30.7044 20.634C34.9598 19.7158 39.2486 19.6937 43.5041 20.5787C43.4707 20.3132 43.4374 20.0477 43.4041 19.7822C43.2819 19.8375 43.1596 19.8928 43.0374 19.9481C42.5263 20.1804 42.9708 20.9327 43.4819 20.7004C43.6041 20.6451 43.7263 20.5897 43.8485 20.5344C44.1818 20.3796 44.0929 19.8154 43.7485 19.7379C39.3375 18.8308 34.882 18.8529 30.4821 19.7933C29.9266 19.9149 30.1599 20.7557 30.7044 20.634Z" fill="black" stroke="black" stroke-width="0.4"/>
<path d="M29.4267 23.8199C30.7933 23.5765 32.1599 23.4106 33.5488 23.3331C34.7932 23.2778 36.7487 23.0234 37.8709 23.5986C38.3709 23.8531 38.8153 23.1008 38.3154 22.8464C37.1154 22.238 35.5265 22.4039 34.2154 22.4371C32.5266 22.4813 30.86 22.6805 29.2045 22.9791C28.6378 23.0787 28.8711 23.9194 29.4267 23.8199Z" fill="black" stroke="black" stroke-width="0.4"/>
<path d="M58.6149 9.44979C54.5705 16.397 49.9928 23.0234 44.9152 29.2737C44.7041 29.5392 45.0707 29.9153 45.2929 29.6498C50.3928 23.3663 55.0038 16.7068 59.0815 9.71529C59.2371 9.4166 58.7815 9.1511 58.6149 9.44979Z" fill="black" stroke="black" stroke-width="0.4"/>
<path d="M59.3371 10.7774C56.8038 14.3174 54.3705 17.9348 51.8484 21.4858C49.904 24.2515 47.9818 27.4153 45.4152 29.6721C45.1596 29.8933 45.5374 30.2694 45.793 30.0482C48.2929 27.8578 50.1817 24.7493 52.0928 22.0611C54.6816 18.3994 57.1816 14.6824 59.7927 11.0429C60.0038 10.7663 59.5371 10.5008 59.3371 10.7774Z" fill="black" stroke="black" stroke-width="0.4"/>
<path d="M1.56054 23.9195C5.20491 24.0522 8.71594 24.55 12.1825 25.7005C15.4602 26.7957 18.5602 28.3223 21.5268 30.0923C21.8268 30.2693 22.0934 29.8047 21.7934 29.6388C18.7824 27.8466 15.638 26.2979 12.3159 25.1917C8.80483 24.019 5.24935 23.5212 1.56054 23.3885C1.21611 23.3774 1.21611 23.9084 1.56054 23.9195Z" fill="black" stroke="black" stroke-width="0.4"/>
<path d="M1.17169 25.247C8.56041 25.0036 15.7936 27.5038 22.2823 30.8557C22.5823 31.0105 22.8601 30.557 22.549 30.4021C15.9825 27.0059 8.66041 24.4726 1.17169 24.7271C0.827251 24.7271 0.827251 25.2581 1.17169 25.247Z" fill="black" stroke="black" stroke-width="0.4"/>
</svg>
