<svg width="40" height="40" viewBox="0 0 40 40" fill="none" xmlns="http://www.w3.org/2000/svg">
<path fill-rule="evenodd" clip-rule="evenodd" d="M2.90552 21.0629C1.69816 22.2703 1.69816 24.2278 2.90552 25.4352L14.5648 37.0945C15.7722 38.3018 17.7297 38.3018 18.9371 37.0945L37.0945 18.9371C37.7569 18.2746 38.0832 17.3475 37.9818 16.4162L36.8366 5.90207C36.6795 4.4596 35.5404 3.32048 34.0979 3.16337L23.5838 2.0182C22.6525 1.91676 21.7254 2.24309 21.0629 2.90554L2.90552 21.0629ZM4.36293 23.9778C3.96048 23.5753 3.96048 22.9228 4.36293 22.5204L22.5203 4.36295C22.7412 4.14214 23.0502 4.03336 23.3606 4.06717L33.8748 5.21234C34.3556 5.26471 34.7353 5.64442 34.7877 6.12524L35.9328 16.6394C35.9666 16.9498 35.8579 17.2588 35.6371 17.4797L17.4796 35.6371C17.0772 36.0395 16.4247 36.0395 16.0222 35.6371L4.36293 23.9778ZM29.4863 9.44668C29.4863 8.87752 29.9477 8.41613 30.5168 8.41613C31.086 8.41613 31.5474 8.87752 31.5474 9.44668C31.5474 10.0158 31.086 10.4772 30.5168 10.4772C29.9477 10.4772 29.4863 10.0158 29.4863 9.44668ZM30.5168 6.35504C28.8094 6.35504 27.4252 7.73921 27.4252 9.44668C27.4252 11.1541 28.8094 12.5383 30.5168 12.5383C32.2243 12.5383 33.6085 11.1541 33.6085 9.44668C33.6085 7.73921 32.2243 6.35504 30.5168 6.35504Z" fill="black"/>
</svg>
