<svg width="34" height="36" viewBox="0 0 34 36" fill="none" xmlns="http://www.w3.org/2000/svg">
<path fill-rule="evenodd" clip-rule="evenodd" d="M16.984 1.80005C13.1046 1.80005 10.2927 2.27116 7.55272 3.81843L7.51592 3.83921L7.48122 3.8637L3.90387 6.38888C3.3251 6.79742 3.01078 7.56776 3.21698 8.33017C3.70013 10.1165 4.55452 11.6239 6.09102 13.0606C6.5924 13.5294 7.28928 13.6121 7.86532 13.3448L8.3053 13.1407C8.40706 15.0456 8.71108 17.1556 9.1844 18.6382C9.2691 18.9035 9.27762 19.1432 9.22594 19.3381C8.94506 20.3972 8.35568 22.6319 7.83161 24.6996C7.20256 27.1814 6.62781 29.7794 6.36761 30.9808C6.19357 31.7844 6.56693 32.6771 7.39548 32.9719C8.65296 33.4192 11.6188 34.2001 17.0004 34.2001C22.3873 34.2001 25.3536 33.4177 26.609 32.9705C27.4339 32.6767 27.8079 31.7892 27.6378 30.9877C27.3832 29.7871 26.8178 27.1854 26.1877 24.6996C25.6643 22.6345 25.0492 20.405 24.7517 19.3395C24.6958 19.1391 24.703 18.8929 24.7891 18.6244C25.2638 17.1449 25.5846 15.0424 25.6929 13.1395L26.1354 13.3448C26.7115 13.6121 27.4084 13.5294 27.9097 13.0606C29.4455 11.6246 30.2998 10.118 30.7831 8.33275C30.9901 7.56784 30.6732 6.7952 30.0912 6.38761L26.4841 3.86184L26.4506 3.83841L26.4152 3.81842C23.6753 2.27116 20.8633 1.80005 16.984 1.80005ZM8.26741 9.3938V11.193L7.1944 11.6909C5.92547 10.4979 5.25497 9.30285 4.86245 7.87556L8.389 5.38625C9.74912 4.62366 11.1443 4.1495 12.7847 3.88306C12.7941 3.91943 12.8038 3.95638 12.8138 3.99382C12.9736 4.59497 13.2218 5.40167 13.553 6.01533C13.998 6.8399 14.7665 7.63873 15.3622 8.19436C15.6704 8.48182 15.9533 8.72325 16.1595 8.89307C16.2628 8.97818 16.3474 9.0458 16.407 9.09277C16.4368 9.11626 16.4605 9.13462 16.4771 9.14745L16.4966 9.16251L16.5023 9.16684L16.5041 9.16819L16.5049 9.16885L17.0004 9.54495L17.4957 9.169L17.4967 9.16819L17.4985 9.16684L17.5042 9.16251L17.5237 9.14745C17.5403 9.13462 17.5639 9.11626 17.5938 9.09277C17.6534 9.0458 17.738 8.97818 17.8413 8.89307C18.0474 8.72325 18.3304 8.48182 18.6386 8.19436C19.2342 7.63873 20.0028 6.8399 20.4478 6.01533C20.779 5.40167 21.0272 4.59497 21.187 3.99382C21.1965 3.95814 21.2058 3.92292 21.2148 3.88821C22.8421 4.15568 24.2285 4.62886 25.5803 5.38701L29.1377 7.87795C28.7451 9.30415 28.0746 10.4985 26.8064 11.6909L25.7334 11.193V9.3938C25.7334 8.89675 25.3528 8.4938 24.8834 8.4938C24.4139 8.4938 24.0334 8.89675 24.0334 9.3938V10.8318L9.96741 10.8318V9.3938C9.96741 8.89675 9.58685 8.4938 9.11741 8.4938C8.64797 8.4938 8.26741 8.89675 8.26741 9.3938ZM9.98394 12.6318C10.0204 13.601 10.1159 14.6379 10.2601 15.6056L23.7236 15.6056C23.8744 14.6368 23.9764 13.5996 24.0155 12.6318L9.98394 12.6318ZM23.3625 17.4056L10.6097 17.4056C10.6681 17.6385 10.7299 17.8583 10.7949 18.0618C10.9646 18.5933 11.0257 19.2097 10.8626 19.8247C10.5823 20.8819 9.995 23.1087 9.47351 25.1662C8.86621 27.5622 8.30832 30.0758 8.04213 31.3023C9.17196 31.6888 11.9385 32.4001 17.0004 32.4001C22.0673 32.4001 24.8342 31.6874 25.962 31.3011C25.7015 30.0762 25.1531 27.5621 24.5458 25.1662C24.028 23.1233 23.4177 20.9111 23.1215 19.8497C22.9469 19.2245 23.0041 18.5921 23.1794 18.0454C23.2433 17.8464 23.3044 17.6322 23.3625 17.4056ZM19.5014 3.68653C18.7247 3.62679 17.891 3.60005 16.984 3.60005C16.0895 3.60005 15.2662 3.62606 14.4987 3.68408C14.6453 4.20887 14.8295 4.75265 15.029 5.12228C15.3264 5.67332 15.9126 6.30887 16.486 6.8437C16.6719 7.01714 16.8483 7.17249 17.0004 7.30222C17.1525 7.17249 17.3289 7.01714 17.5148 6.8437C18.0882 6.30887 18.6744 5.67332 18.9718 5.12228C19.1709 4.75322 19.355 4.21057 19.5014 3.68653Z" fill="black"/>
</svg>
