<svg width="60" height="60" viewBox="0 0 60 60" fill="none" xmlns="http://www.w3.org/2000/svg">
<path fill-rule="evenodd" clip-rule="evenodd" d="M8.53125 27.1289C8.53125 15.272 18.1431 5.66016 30 5.66016C41.8569 5.66016 51.4688 15.272 51.4688 27.1289V28.9102H48.7266V27.1289C48.7266 16.7865 40.3424 8.40237 30 8.40237C19.6576 8.40237 11.2734 16.7865 11.2734 27.1289V28.9102H8.53125V27.1289ZM43.4062 25.6289C44.2452 25.6289 45.0306 25.8585 45.7029 26.2583C45.251 17.9777 38.3934 11.4024 30 11.4024C21.6066 11.4024 14.749 17.9777 14.2971 26.2583C14.9694 25.8585 15.7548 25.6289 16.5938 25.6289H17.1562C19.6415 25.6289 21.6562 27.6436 21.6562 30.1289V47.0977C21.6562 49.5829 19.6415 51.5977 17.1562 51.5977H16.5938C14.5308 51.5977 12.7921 50.2095 12.2607 48.3164H10.1719V52.8398C10.1719 53.6683 10.8434 54.3398 11.6719 54.3398H22.5016C22.5383 53.5441 23.1951 52.9102 24 52.9102H27.6445C28.8678 52.9102 29.8594 53.9018 29.8594 55.125C29.8594 56.3482 28.8678 57.3398 27.6445 57.3398H11.6719C9.18659 57.3398 7.17188 55.3251 7.17188 52.8398V48.2198C4.3727 47.7119 2.25 45.2621 2.25 42.3164V34.9102C2.25 32.5751 3.58389 30.5516 5.53125 29.56V27.1289C5.53125 13.6152 16.4863 2.66016 30 2.66016C43.5137 2.66016 54.4688 13.6152 54.4688 27.1289V29.56C56.4161 30.5516 57.75 32.5751 57.75 34.9102V42.3164C57.75 45.6301 55.0637 48.3164 51.75 48.3164H47.7393C47.2079 50.2095 45.4692 51.5977 43.4062 51.5977H42.8438C40.3585 51.5977 38.3438 49.5829 38.3438 47.0977V30.1289C38.3438 27.6436 40.3585 25.6289 42.8438 25.6289H43.4062ZM10.1719 45.3164V40.2539C10.1719 39.4255 9.5003 38.7539 8.67188 38.7539C7.84345 38.7539 7.17188 39.4255 7.17188 40.2539V45.1169C6.04767 44.6838 5.25 43.5932 5.25 42.3164V34.9102C5.25 33.2533 6.59315 31.9102 8.25 31.9102H12.0938V45.3164H10.1719ZM15.0938 30.4102V30.1289C15.0938 29.3005 15.7653 28.6289 16.5938 28.6289H17.1562C17.9847 28.6289 18.6562 29.3005 18.6562 30.1289V47.0977C18.6562 47.9261 17.9847 48.5977 17.1562 48.5977H16.5938C15.7653 48.5977 15.0938 47.9261 15.0938 47.0977V46.8164V30.4102ZM43.4062 48.5977C44.2347 48.5977 44.9062 47.9261 44.9062 47.0977V46.8164V30.4102V30.1289C44.9062 29.3005 44.2347 28.6289 43.4062 28.6289H42.8438C42.0153 28.6289 41.3438 29.3005 41.3438 30.1289V47.0977C41.3438 47.9261 42.0153 48.5977 42.8438 48.5977H43.4062ZM51.75 45.3164H47.9062V31.9102H51.75C53.4069 31.9102 54.75 33.2533 54.75 34.9102V42.3164C54.75 43.9733 53.4069 45.3164 51.75 45.3164Z" fill="black"/>
</svg>
