<svg width="30" height="24" viewBox="0 0 30 24" fill="none" xmlns="http://www.w3.org/2000/svg">
<path fill-rule="evenodd" clip-rule="evenodd" d="M4.2482 0.354004C2.17713 0.354004 0.498199 2.03294 0.498199 4.104V14.604C0.498199 16.6751 2.17713 18.354 4.2482 18.354H4.84954L4.2603 21.5948L3.97828 23.1459L5.35964 22.3862L12.2358 18.6043C12.7345 18.8951 13.3145 19.0618 13.9335 19.0618H20.3826L27.0462 22.7268L26.3782 19.0526C28.1248 18.924 29.5019 17.4662 29.5019 15.6868V8.94447C29.5019 7.0805 27.9908 5.56947 26.1269 5.56947H25.9982V4.104C25.9982 2.03294 24.3193 0.354004 22.2482 0.354004H4.2482ZM10.5585 15.6868C10.5585 16.3619 10.7567 16.9906 11.0981 17.5181L6.01811 20.3121L6.4861 17.7382L6.64686 16.854H5.7482H4.2482C3.00556 16.854 1.9982 15.8466 1.9982 14.604V4.104C1.9982 2.86136 3.00556 1.854 4.2482 1.854H22.2482C23.4908 1.854 24.4982 2.86136 24.4982 4.104V5.56947H13.9335C12.0695 5.56947 10.5585 7.08051 10.5585 8.94447V15.6868ZM26.1269 7.06947C27.1624 7.06947 28.0019 7.90893 28.0019 8.94447V15.6868C28.0019 16.7223 27.1624 17.5618 26.1269 17.5618H24.5826L25.0064 19.8929L20.7679 17.5618H13.9335C12.898 17.5618 12.0585 16.7223 12.0585 15.6868V8.94447C12.0585 7.90893 12.898 7.06947 13.9335 7.06947H26.1269ZM16.1503 9.9165C15.9005 9.9165 15.698 10.0844 15.698 10.2915V11.0415C15.698 11.2486 15.9005 11.4165 16.1503 11.4165H24.7073C24.9571 11.4165 25.1596 11.2486 25.1596 11.0415V10.2915C25.1596 10.0844 24.9571 9.9165 24.7073 9.9165H16.1503ZM15.698 13.4397C15.698 13.2326 15.8001 13.0647 15.9261 13.0647H20.2414C20.3674 13.0647 20.4695 13.2326 20.4695 13.4397V14.1897C20.4695 14.3968 20.3674 14.5647 20.2414 14.5647H15.9261C15.8001 14.5647 15.698 14.3968 15.698 14.1897V13.4397ZM22.3965 13.0647C22.1894 13.0647 22.0215 13.2326 22.0215 13.4397V14.1897C22.0215 14.3968 22.1894 14.5647 22.3965 14.5647H24.7846C24.9917 14.5647 25.1596 14.3968 25.1596 14.1897V13.4397C25.1596 13.2326 24.9917 13.0647 24.7846 13.0647H22.3965Z" fill="#F5E8B7"/>
</svg>
