<svg width="27" height="25" viewBox="0 0 27 25" fill="none" xmlns="http://www.w3.org/2000/svg">
<path fill-rule="evenodd" clip-rule="evenodd" d="M14.3842 0.565685C13.8582 0.178952 13.1418 0.178951 12.6158 0.565685L1.26886 8.90818C0.981937 9.11913 0.8125 9.45401 0.8125 9.81013L0.812503 12.41C0.812503 13.0282 1.31371 13.5295 1.93199 13.5295H2.51838V23.6048C2.51838 24.2231 3.01959 24.7243 3.63787 24.7243H9.02206H9.35594H17.6048V24.7236C17.6178 24.7241 17.6309 24.7243 17.6441 24.7243H23.3621C23.9804 24.7243 24.4816 24.2231 24.4816 23.6048V13.5295H25.068C25.6863 13.5295 26.1875 13.0282 26.1875 12.41V9.81012C26.1875 9.454 26.0181 9.11912 25.7311 8.90818L14.3842 0.565685ZM16.5246 23.2317H10.4754V14.2758H16.5246V23.2317ZM13.5 1.76828L24.6949 9.99893V12.0368H23.8314L13.9582 4.35762L13.5082 4.00765L13.0522 4.34968L2.8027 12.0368H2.30515L2.30515 9.99893L13.5 1.76828ZM4.01103 12.9964L13.4918 5.88582L22.989 13.2725V23.2317H18.0172V13.9026C18.0172 13.2843 17.516 12.7831 16.8977 12.7831H10.1023C9.48398 12.7831 8.98277 13.2843 8.98277 13.9026V23.2317H4.01103V12.9964ZM15.7858 17.8825C15.7858 17.4617 15.4447 17.1206 15.0239 17.1206C14.6031 17.1206 14.2619 17.4617 14.2619 17.8825V19.4064C14.2619 19.8272 14.6031 20.1683 15.0239 20.1683C15.4447 20.1683 15.7858 19.8272 15.7858 19.4064V17.8825Z" fill="#F5E8B7"/>
</svg>
