<svg width="30" height="22" viewBox="0 0 30 22" fill="none" xmlns="http://www.w3.org/2000/svg">
<path fill-rule="evenodd" clip-rule="evenodd" d="M4.5 12.0069V2.40372C4.62405 2.3334 4.80221 2.24553 5.04459 2.15464C5.69737 1.90985 6.8249 1.63989 8.625 1.63989C10.4389 1.63989 11.8748 2.39221 12.8755 3.16965C13.3747 3.5575 13.7574 3.94564 14.0137 4.23491C14.1117 4.34549 14.1906 4.44098 14.25 4.51566L14.25 13.6101C14.1092 13.4867 13.9577 13.3609 13.7958 13.2351C12.6244 12.3251 10.8729 11.3899 8.625 11.3899C6.6751 11.3899 5.34722 11.6892 4.5 12.0069ZM14.25 15.7656C14.1906 15.691 14.1117 15.5955 14.0137 15.4849C13.7574 15.1956 13.3747 14.8075 12.8755 14.4197C11.8748 13.6422 10.4389 12.8899 8.625 12.8899C6.8249 12.8899 5.69737 13.1598 5.04459 13.4046C4.80221 13.4955 4.62405 13.5834 4.5 13.6537V15.65L14.25 17.6L14.25 15.7656ZM15.75 17.6L15.75 15.7656C15.8094 15.691 15.8883 15.5955 15.9863 15.4849C16.2426 15.1956 16.6253 14.8075 17.1245 14.4197C18.1252 13.6422 19.5611 12.8899 21.375 12.8899C23.1751 12.8899 24.3026 13.1598 24.9554 13.4046C25.1978 13.4955 25.376 13.5834 25.5 13.6537V15.65L15.75 17.6ZM15.75 13.6101L15.75 4.51563C15.8094 4.44096 15.8883 4.34547 15.9863 4.23491C16.2426 3.94564 16.6253 3.5575 17.1245 3.16965C18.1252 2.39221 19.5611 1.63989 21.375 1.63989C23.1751 1.63989 24.3026 1.90985 24.9554 2.15464C25.1978 2.24553 25.376 2.3334 25.5 2.40372V12.0069C24.6528 11.6892 23.3249 11.3899 21.375 11.3899C19.1271 11.3899 17.3756 12.3251 16.2042 13.2351C16.0423 13.3609 15.8908 13.4867 15.75 13.6101ZM3 12.9542V3.88989L2.25 3.88989V17.825L14.8529 20.3456C14.95 20.365 15.05 20.365 15.1471 20.3456L27.75 17.825V4.26489H27V12.9542V13.2649V16.2649V16.8797L26.3971 17.0003L15.1471 19.2503L15 19.2797L14.8529 19.2503L3.60291 17.0003L3 16.8797V16.2649V13.2649V12.9542ZM2.25 2.38989H3V2.01489V1.70423L3.22055 1.48369L3.22145 1.48279L3.22335 1.48091L3.22747 1.47687L3.23707 1.46764C3.24408 1.46098 3.25232 1.45334 3.26183 1.44479C3.28084 1.42767 3.30492 1.40692 3.33441 1.3831C3.39344 1.33542 3.47395 1.27564 3.57881 1.20823C3.7888 1.07324 4.09444 0.908948 4.51791 0.750147C5.36513 0.432439 6.6751 0.139894 8.625 0.139893C10.8729 0.139891 12.6244 1.07507 13.7958 1.98513C14.3004 2.37716 14.7034 2.76897 15 3.0895C15.2966 2.76897 15.6996 2.37716 16.2042 1.98513C17.3756 1.07507 19.1271 0.139891 21.375 0.139893C23.3249 0.139894 24.6349 0.432439 25.4821 0.750147C25.9056 0.908948 26.2112 1.07324 26.4212 1.20823C26.526 1.27564 26.6066 1.33542 26.6656 1.3831C26.6951 1.40692 26.7192 1.42767 26.7382 1.44479C26.7477 1.45334 26.7559 1.46098 26.7629 1.46764L26.7725 1.47687L26.7767 1.48091L26.7785 1.48279L26.7795 1.48369L27 1.70423V2.01489V2.76489H27.75C28.5784 2.76489 29.25 3.43646 29.25 4.26489V17.825C29.25 18.5401 28.7453 19.1557 28.0442 19.2959L15.4413 21.8165C15.15 21.8747 14.85 21.8747 14.5587 21.8165L1.95583 19.2959C1.25469 19.1557 0.75 18.5401 0.75 17.825V3.88989C0.75 3.06146 1.42157 2.38989 2.25 2.38989Z" fill="#F5E8B7"/>
</svg>
