<svg width="35" height="35" viewBox="0 0 35 35" fill="none" xmlns="http://www.w3.org/2000/svg">
<g clip-path="url(#clip0)">
<path d="M20.7956 7.07588C20.607 6.88669 20.3807 6.69749 20.1922 6.5083C19.7396 6.96236 19.2493 7.37859 18.7968 7.83265C19.023 8.02184 19.287 8.21104 19.5133 8.40023C19.9659 7.984 20.3807 7.56778 20.7956 7.07588Z" stroke="black" stroke-width="0.2"/>
<path d="M6.61525 23.9896C8.53864 22.0977 10.2357 19.9788 12.0837 18.0111C14.158 15.7787 16.3453 13.6597 18.495 11.5029C17.8916 10.9732 17.2505 10.4434 16.647 9.87585C14.4597 11.9948 12.3477 14.1895 10.2357 16.3841C8.08607 18.6544 5.55927 20.9626 3.7113 23.5356C4.35243 23.6113 4.95585 23.7248 5.59698 23.8383C5.86098 23.8761 6.31354 23.914 6.61525 23.9896Z" stroke="black" stroke-width="0.2"/>
<path d="M9.59463 28.3032C8.80265 28.3789 7.97295 28.3411 7.18097 28.3411C6.91697 28.3411 6.76612 28.1519 6.76612 27.9249C6.69069 27.2438 6.61526 26.5248 6.50212 25.8437C6.46441 25.3897 6.1627 24.7464 6.46441 24.8221C5.67242 24.4059 4.27702 24.4059 3.3719 24.3302C2.95705 25.3897 2.76848 26.6005 2.50449 27.66C2.42906 27.9627 2.35363 28.2654 2.31592 28.5681C3.67361 29.6654 5.10672 31.1033 6.01185 32.2763C7.52039 32.0114 8.99121 31.7087 10.462 31.3303C10.5752 31.2925 10.6506 31.2925 10.7638 31.2547C10.726 30.46 10.6506 29.7033 10.5752 28.9087C10.4243 28.0384 10.462 28.2276 9.59463 28.3032Z" stroke="black" stroke-width="0.2"/>
<path d="M24.1898 10.4056C23.8127 10.8219 23.3978 11.2002 22.9453 11.5408C23.2092 11.8057 23.4732 12.0705 23.7372 12.3732C24.1521 12.0327 24.5292 11.6165 24.9064 11.2002C24.6801 10.9354 24.4538 10.7083 24.2275 10.4435C24.2275 10.4435 24.2275 10.4056 24.1898 10.4056Z" stroke="black" stroke-width="0.2"/>
<path d="M20.1544 8.96779C20.4561 9.19482 20.7201 9.45969 20.9841 9.72456C21.3613 9.30834 21.7761 8.89211 22.191 8.47589C21.927 8.21102 21.663 7.94615 21.3613 7.71912C21.0218 8.13534 20.607 8.55156 20.1544 8.96779Z" stroke="black" stroke-width="0.2"/>
<path d="M25.1703 13.8111C25.5098 13.3949 25.8869 13.0165 26.264 12.6381C26 12.3732 25.7738 12.1084 25.5098 11.8057C25.1703 12.2219 24.7932 12.6003 24.3784 12.9408C24.6424 13.2435 24.9063 13.5462 25.1703 13.8111Z" stroke="black" stroke-width="0.2"/>
<path d="M21.663 10.2543C21.8892 10.4813 22.1155 10.7084 22.3795 10.9354C22.8321 10.5948 23.2469 10.1786 23.6241 9.80023C23.3601 9.53536 23.1338 9.27049 22.8698 9.04346C22.4172 9.42184 22.0401 9.83807 21.663 10.2543Z" stroke="black" stroke-width="0.2"/>
<path d="M25.7737 14.4544C26.0755 14.7571 26.3394 15.0219 26.6412 15.3247C27.0183 14.9463 27.4331 14.5679 27.848 14.1895C27.5086 13.8868 27.1691 13.6219 26.8674 13.3192C26.4903 13.6598 26.1132 14.0381 25.7737 14.4544Z" stroke="black" stroke-width="0.2"/>
<path d="M28.9794 1.17295C26.4149 0.454016 24.2652 2.76217 22.5681 4.31355C22.5304 4.35139 22.4549 4.42707 22.4172 4.4649C24.944 6.96225 27.4709 9.49743 29.9222 12.0705C31.1291 10.8218 32.185 9.49743 32.9393 8.05957C33.9199 6.1298 33.2787 4.88113 31.9965 3.44326C31.1668 2.57298 30.1862 1.5135 28.9794 1.17295Z" stroke="black" stroke-width="0.2"/>
<path d="M21.5498 5.25964C21.2858 5.48667 21.0595 5.71371 20.7955 5.94074C22.1909 7.22725 23.5486 8.47592 24.8309 9.83811C26.0377 11.1246 27.0937 12.449 28.4137 13.5463C28.64 13.3193 28.8662 13.0922 29.0925 12.8652C26.6411 10.33 24.1143 7.75699 21.5498 5.25964Z" stroke="black" stroke-width="0.2"/>
<path d="M11.254 28.1519C11.4049 29.06 11.4803 29.9303 11.518 30.8384C12.4986 30.1952 13.2906 29.1357 14.0825 28.2654C15.4402 26.8654 16.7602 25.4653 18.1179 24.0275C20.2676 21.795 22.4172 19.5625 24.5669 17.3301C24.0766 16.7625 23.5486 16.1949 23.0207 15.6652C19.2493 19.9409 15.3271 24.141 11.254 28.1519Z" stroke="black" stroke-width="0.2"/>
<path d="M18.1556 8.43799C17.9293 8.66502 17.703 8.85421 17.4767 9.08124C20.1921 11.4651 22.9829 13.8111 25.3966 16.4976C25.5097 16.3841 25.6229 16.2706 25.736 16.1571C25.8114 16.0435 25.9246 15.9679 26.0377 15.8543C23.5109 13.357 21.0595 10.5569 18.1556 8.43799Z" stroke="black" stroke-width="0.2"/>
<path d="M19.1739 12.0706C17.0242 14.2652 14.7991 16.3842 12.7249 18.6166C10.8392 20.5842 9.17979 22.7032 7.21869 24.5951C7.5204 25.3519 7.5204 26.6762 7.55811 27.5087C8.6518 27.4709 9.70778 27.4709 10.8015 27.3952C14.8368 23.4221 18.6836 19.2977 22.455 15.0976C21.399 14.0382 20.2676 13.0544 19.1739 12.0706Z" stroke="black" stroke-width="0.2"/>
<path d="M31.9214 1.8155C30.0357 -0.000747958 28.2255 -0.492649 25.7741 0.528992C23.5867 1.43712 21.8896 3.40472 20.1925 4.9561C17.628 7.3021 15.1389 9.7616 12.6875 12.2589C10.3493 14.6806 8.01103 17.1401 5.74821 19.6375C4.72995 20.7348 3.59854 21.8699 2.73113 23.0808C2.69341 23.1186 2.6557 23.1565 2.6557 23.1943C2.61799 23.2321 2.58027 23.3078 2.58027 23.3456C1.93914 24.5943 1.67515 26.07 1.37344 27.3944C0.920877 29.4755 0.506028 31.5566 0.31746 33.6756C0.279747 34.0918 0.694596 34.281 1.03402 34.2053C4.35281 33.6756 7.59618 32.9566 10.915 32.3512C12.2727 32.1242 12.8384 31.1782 13.7812 30.1944C15.3652 28.5674 16.9114 26.9025 18.4954 25.2754C21.3993 22.2105 24.3033 19.1834 27.2827 16.1942C29.734 13.7347 33.166 11.0481 34.3351 7.64264C35.1648 5.18314 33.694 3.44256 31.9214 1.8155ZM23.7753 12.3725C23.5113 12.1076 23.2473 11.8427 22.9833 11.54C23.4359 11.1995 23.8507 10.8211 24.2279 10.4049L24.2656 10.4427C24.4919 10.7076 24.7181 10.9346 24.9444 11.1995C24.5673 11.6157 24.1901 11.9941 23.7753 12.3725ZM25.5101 11.8427C25.7741 12.1076 26.0004 12.4103 26.2644 12.6752C25.8873 13.0536 25.5101 13.4319 25.1707 13.8482C24.9067 13.5833 24.605 13.2806 24.341 13.0157C24.7558 12.6373 25.133 12.2589 25.5101 11.8427ZM22.3422 10.9346C22.1159 10.7076 21.8896 10.4805 21.6256 10.2535C22.0028 9.83728 22.4176 9.42105 22.8325 9.00483C23.0965 9.2697 23.3604 9.49673 23.5867 9.7616C23.2096 10.2157 22.7947 10.5941 22.3422 10.9346ZM21.0222 9.68593C20.7582 9.42106 20.4565 9.19402 20.1925 8.92915C20.6451 8.51293 21.0599 8.09671 21.4371 7.64264C21.701 7.90751 22.0028 8.17238 22.2668 8.39941C21.8142 8.85348 21.3993 9.2697 21.0222 9.68593ZM20.1925 6.54532C20.3811 6.73452 20.6074 6.92371 20.7959 7.1129C20.3811 7.56697 19.9662 8.02103 19.5137 8.43725C19.2874 8.24806 19.0234 8.05887 18.7971 7.86967C19.2497 7.41561 19.7022 6.96155 20.1925 6.54532ZM10.2738 16.3834C12.3481 14.1887 14.4978 11.9941 16.6851 9.87512C17.2886 10.4049 17.9297 10.9346 18.5331 11.5022C16.3834 13.659 14.1961 15.7779 12.1218 18.0104C10.2738 20.0159 8.57673 22.097 6.65334 23.9889C6.31392 23.8754 5.89907 23.8754 5.67279 23.8375C5.06937 23.724 4.42824 23.6484 3.78711 23.5348C5.59736 20.9618 8.12417 18.6915 10.2738 16.3834ZM4.20196 32.5026L1.63743 33.0323C1.52429 33.0702 1.44887 32.9945 1.44887 32.881L2.12771 30.2323C2.16542 30.1188 2.27857 30.0809 2.35399 30.1944L4.23967 32.2756C4.3151 32.3891 4.27738 32.5026 4.20196 32.5026ZM10.4247 31.3296C8.95387 31.708 7.48304 32.0107 5.97449 32.2756C5.06937 31.1404 3.67397 29.7025 2.27857 28.5674C2.35399 28.2647 2.39171 27.962 2.46713 27.6592C2.69341 26.5998 2.9197 25.3511 3.33455 24.3295C4.23967 24.4051 5.63507 24.443 6.42706 24.8214C6.12535 24.7078 6.42706 25.3889 6.46477 25.843C6.5402 26.5241 6.61562 27.243 6.72877 27.9241C6.76648 28.1511 6.91733 28.3782 7.14361 28.3403C7.9356 28.3025 8.7653 28.3782 9.55728 28.3025C10.4247 28.2268 10.387 28.0376 10.5001 28.9079C10.5755 29.7025 10.651 30.4593 10.6887 31.2539C10.6133 31.2917 10.5378 31.3296 10.4247 31.3296ZM10.8018 27.3944C9.70814 27.4701 8.65216 27.4701 7.55846 27.5079C7.52075 26.6754 7.52075 25.3889 7.21904 24.5943C9.14243 22.7024 10.8395 20.5834 12.6875 18.6158C14.7618 16.3834 16.9869 14.2266 19.1365 12.0698C20.2679 13.0536 21.3616 14.0374 22.4176 15.0968C18.684 19.2969 14.8372 23.4213 10.8018 27.3944ZM18.156 24.0267C16.7983 25.4268 15.4783 26.8268 14.1206 28.2647C13.2909 29.1349 12.5367 30.1944 11.5561 30.8377C11.4807 29.9296 11.4052 29.0214 11.2921 28.1511C15.3652 24.1403 19.2497 19.9402 23.0965 15.7023C23.6244 16.232 24.1524 16.7996 24.6427 17.3672C22.4553 19.5618 20.3056 21.7943 18.156 24.0267ZM25.7364 16.1942C25.6233 16.3077 25.5101 16.4212 25.397 16.5347C23.021 13.8103 20.1925 11.5022 17.4771 9.11835C17.7034 8.89132 17.9297 8.70212 18.156 8.47509C21.0222 10.5941 23.4736 13.3941 26.0004 15.9293C25.925 16.005 25.8118 16.0806 25.7364 16.1942ZM26.6415 15.3239C26.3398 15.0212 26.0758 14.7563 25.7741 14.4536C26.1135 14.0374 26.4907 13.659 26.8678 13.2806C27.1695 13.5833 27.5089 13.886 27.8484 14.1509C27.4335 14.5293 27.0187 14.9455 26.6415 15.3239ZM28.4518 13.5833C27.0941 12.4481 26.0758 11.1616 24.869 9.87512C23.5867 8.51293 22.229 7.22642 20.8336 5.97775C21.0976 5.75071 21.3239 5.52368 21.5879 5.29665C24.1524 7.83184 26.6415 10.367 29.1306 12.94C28.9043 13.1292 28.6781 13.3563 28.4518 13.5833ZM32.902 8.09671C32.1854 9.53457 31.0917 10.8589 29.8849 12.1076C27.3958 9.53457 24.9067 6.99939 22.3799 4.50204C22.4176 4.4642 22.493 4.38853 22.5307 4.35069C24.2279 2.79931 26.3775 0.491153 28.9421 1.21009C30.1489 1.55063 31.0917 2.57227 31.9214 3.4804C33.2791 4.88043 33.8825 6.1291 32.902 8.09671Z" fill="black" stroke="black" stroke-width="0.2"/>
</g>
<defs>
<clipPath id="clip0">
<rect width="34.2439" height="34.2439" fill="white" transform="translate(0.317078)"/>
</clipPath>
</defs>
</svg>
