<svg width="47" height="50" viewBox="0 0 47 50" fill="none" xmlns="http://www.w3.org/2000/svg">
<rect y="3.77295" width="44.2963" height="45.2743" rx="22.1481" fill="black"/>
<g clip-path="url(#clip0)">
<path d="M24.2638 20.1695C24.1427 20.0506 23.9975 19.9316 23.8764 19.8126C23.5859 20.0981 23.2711 20.3599 22.9806 20.6454C23.1259 20.7644 23.2953 20.8833 23.4406 21.0023C23.7311 20.7406 23.9975 20.4788 24.2638 20.1695Z" stroke="#F5E8B7" stroke-width="0.2"/>
<path d="M15.1604 30.8051C16.3952 29.6154 17.4847 28.283 18.671 27.0457C20.0026 25.6419 21.4069 24.3095 22.7869 22.9533C22.3995 22.6202 21.9879 22.2871 21.6006 21.9302C20.1963 23.2626 18.8405 24.6426 17.4847 26.0226C16.1046 27.4502 14.4825 28.9016 13.2961 30.5196C13.7077 30.5671 14.0951 30.6385 14.5067 30.7099C14.6762 30.7337 14.9667 30.7575 15.1604 30.8051Z" stroke="#F5E8B7" stroke-width="0.2"/>
<path d="M17.0731 33.5176C16.5647 33.5652 16.0321 33.5414 15.5236 33.5414C15.3542 33.5414 15.2573 33.4224 15.2573 33.2796C15.2089 32.8514 15.1605 32.3993 15.0878 31.971C15.0636 31.6855 14.8699 31.281 15.0636 31.3286C14.5552 31.0669 13.6594 31.0669 13.0783 31.0193C12.812 31.6855 12.6909 32.4469 12.5214 33.1131C12.473 33.3034 12.4246 33.4938 12.4004 33.6841C13.272 34.3741 14.192 35.2783 14.7731 36.0159C15.7415 35.8493 16.6858 35.659 17.63 35.421C17.7026 35.3972 17.7511 35.3972 17.8237 35.3735C17.7995 34.8738 17.7511 34.3979 17.7026 33.8983C17.6058 33.351 17.63 33.47 17.0731 33.5176Z" stroke="#F5E8B7" stroke-width="0.2"/>
<path d="M26.4428 22.2633C26.2007 22.525 25.9343 22.763 25.6438 22.9771C25.8133 23.1437 25.9828 23.3102 26.1522 23.5006C26.4186 23.2864 26.6607 23.0247 26.9028 22.763C26.7575 22.5964 26.6122 22.4537 26.467 22.2871C26.467 22.2871 26.467 22.2633 26.4428 22.2633Z" stroke="#F5E8B7" stroke-width="0.2"/>
<path d="M23.8523 21.3592C24.046 21.5019 24.2155 21.6685 24.3849 21.835C24.6271 21.5733 24.8934 21.3116 25.1597 21.0498C24.9902 20.8833 24.8207 20.7167 24.6271 20.574C24.4092 20.8357 24.1428 21.0974 23.8523 21.3592Z" stroke="#F5E8B7" stroke-width="0.2"/>
<path d="M27.0723 24.4047C27.2902 24.143 27.5323 23.9051 27.7744 23.6671C27.6049 23.5006 27.4597 23.334 27.2902 23.1437C27.0723 23.4054 26.8302 23.6433 26.5638 23.8575C26.7333 24.0478 26.9028 24.2382 27.0723 24.4047Z" stroke="#F5E8B7" stroke-width="0.2"/>
<path d="M24.8207 22.1681C24.9659 22.3109 25.1112 22.4536 25.2807 22.5964C25.5712 22.3823 25.8375 22.1205 26.0797 21.8826C25.9102 21.7161 25.7649 21.5495 25.5954 21.4067C25.3049 21.6447 25.0628 21.9064 24.8207 22.1681Z" stroke="#F5E8B7" stroke-width="0.2"/>
<path d="M27.4597 24.8091C27.6534 24.9995 27.8229 25.166 28.0166 25.3564C28.2587 25.1184 28.525 24.8805 28.7913 24.6426C28.5734 24.4522 28.3555 24.2857 28.1618 24.0953C27.9197 24.3095 27.6776 24.5474 27.4597 24.8091Z" stroke="#F5E8B7" stroke-width="0.2"/>
<path d="M29.5177 16.4577C27.8713 16.0056 26.4913 17.457 25.4018 18.4326C25.3776 18.4564 25.3291 18.5039 25.3049 18.5277C26.9271 20.0981 28.5492 21.6922 30.1229 23.3102C30.8977 22.525 31.5756 21.6922 32.0598 20.7881C32.6893 19.5746 32.2777 18.7895 31.4546 17.8853C30.9219 17.3381 30.2924 16.6719 29.5177 16.4577Z" stroke="#F5E8B7" stroke-width="0.2"/>
<path d="M24.748 19.0275C24.5785 19.1702 24.4333 19.313 24.2638 19.4557C25.1596 20.2647 26.0312 21.0499 26.8544 21.9065C27.6292 22.7154 28.3071 23.5482 29.1545 24.2382C29.2997 24.0954 29.445 23.9527 29.5903 23.8099C28.0165 22.2158 26.3944 20.5978 24.748 19.0275Z" stroke="#F5E8B7" stroke-width="0.2"/>
<path d="M18.1384 33.4223C18.2353 33.9934 18.2837 34.5406 18.3079 35.1117C18.9374 34.7072 19.4458 34.041 19.9543 33.4937C20.8259 32.6134 21.6733 31.733 22.5449 30.8289C23.9249 29.4251 25.3049 28.0213 26.685 26.6175C26.3702 26.2606 26.0313 25.9037 25.6923 25.5706C23.2712 28.2592 20.7532 30.9003 18.1384 33.4223Z" stroke="#F5E8B7" stroke-width="0.2"/>
<path d="M22.569 21.0261C22.4237 21.1689 22.2784 21.2878 22.1332 21.4306C23.8764 22.9296 25.668 24.4048 27.2175 26.0941C27.2902 26.0227 27.3628 25.9513 27.4354 25.88C27.4838 25.8086 27.5565 25.761 27.6291 25.6896C26.007 24.1193 24.4332 22.3585 22.569 21.0261Z" stroke="#F5E8B7" stroke-width="0.2"/>
<path d="M23.2228 23.3102C21.8428 24.6902 20.4143 26.0226 19.0827 27.4264C17.8721 28.6637 16.8068 29.9961 15.5479 31.1858C15.7415 31.6616 15.7415 32.4944 15.7658 33.0178C16.4679 32.9941 17.1458 32.9941 17.8479 32.9465C20.4385 30.4482 22.908 27.8547 25.3292 25.2136C24.6512 24.5474 23.9249 23.9288 23.2228 23.3102Z" stroke="#F5E8B7" stroke-width="0.2"/>
<path d="M31.4061 16.8623C30.1955 15.7202 29.0334 15.4109 27.4597 16.0533C26.0554 16.6244 24.9659 17.8616 23.8764 18.8372C22.2301 20.3123 20.6321 21.8589 19.0584 23.4293C17.5573 24.952 16.0562 26.4986 14.6035 28.0689C13.9498 28.759 13.2235 29.4728 12.6667 30.2341C12.6424 30.2579 12.6182 30.2817 12.6182 30.3055C12.594 30.3293 12.5698 30.3769 12.5698 30.4007C12.1582 31.1859 11.9887 32.1138 11.7951 32.9466C11.5045 34.2552 11.2382 35.5638 11.1171 36.8963C11.0929 37.158 11.3593 37.277 11.5772 37.2294C13.7077 36.8963 15.7899 36.4442 17.9205 36.0635C18.7921 35.9207 19.1552 35.3259 19.7605 34.7073C20.7774 33.6842 21.7701 32.6373 22.7869 31.6142C24.6512 29.6869 26.5154 27.7834 28.4281 25.9038C30.0019 24.3572 32.2051 22.6679 32.9556 20.5265C33.4883 18.9799 32.544 17.8854 31.4061 16.8623ZM26.1765 23.5006C26.007 23.3341 25.8375 23.1675 25.6681 22.9772C25.9586 22.763 26.2249 22.5251 26.467 22.2634L26.4912 22.2872C26.6365 22.4537 26.7818 22.5965 26.927 22.763C26.6849 23.0248 26.4428 23.2627 26.1765 23.5006ZM27.2902 23.1675C27.4597 23.3341 27.6049 23.5244 27.7744 23.691C27.5323 23.9289 27.2902 24.1669 27.0723 24.4286C26.9028 24.262 26.7091 24.0717 26.5397 23.9051C26.806 23.6672 27.0481 23.4293 27.2902 23.1675ZM25.2565 22.5965C25.1112 22.4537 24.9659 22.311 24.7965 22.1682C25.0386 21.9065 25.3049 21.6448 25.5712 21.383C25.7407 21.5496 25.9102 21.6923 26.0554 21.8589C25.8133 22.1444 25.547 22.3824 25.2565 22.5965ZM24.4091 21.8113C24.2396 21.6448 24.0459 21.502 23.8764 21.3354C24.167 21.0737 24.4333 20.812 24.6754 20.5265C24.8449 20.693 25.0386 20.8596 25.208 21.0023C24.9175 21.2879 24.6512 21.5496 24.4091 21.8113ZM23.8764 19.8365C23.9975 19.9554 24.1427 20.0744 24.2638 20.1934C23.9975 20.4789 23.7312 20.7644 23.4406 21.0261C23.2954 20.9072 23.1259 20.7882 22.9806 20.6692C23.2711 20.3837 23.5617 20.0982 23.8764 19.8365ZM17.5089 26.0227C18.8405 24.6427 20.2205 23.2627 21.6248 21.9303C22.0122 22.2634 22.4238 22.5965 22.8111 22.9534C21.4311 24.3096 20.0268 25.642 18.6952 27.0458C17.5089 28.3069 16.4194 29.6155 15.1846 30.8052C14.9667 30.7338 14.7004 30.7338 14.5551 30.71C14.1677 30.6386 13.7562 30.591 13.3446 30.5197C14.5067 28.9017 16.1289 27.4741 17.5089 26.0227ZM13.6109 36.1587L11.9645 36.4918C11.8919 36.5156 11.8435 36.468 11.8435 36.3966L12.2793 34.7311C12.3035 34.6597 12.3761 34.6359 12.4245 34.7073L13.6351 36.0159C13.6835 36.0873 13.6593 36.1587 13.6109 36.1587ZM17.6057 35.4211C16.6615 35.659 15.7173 35.8494 14.7488 36.0159C14.1677 35.3021 13.2719 34.398 12.3761 33.6842C12.4245 33.4938 12.4488 33.3035 12.4972 33.1131C12.6424 32.4469 12.7877 31.6617 13.054 31.0193C13.6351 31.0669 14.5309 31.0907 15.0393 31.3286C14.8457 31.2572 15.0393 31.6855 15.0636 31.9711C15.112 32.3993 15.1604 32.8514 15.233 33.2797C15.2572 33.4224 15.3541 33.5652 15.4994 33.5414C16.0078 33.5176 16.5404 33.5652 17.0489 33.5176C17.6057 33.47 17.5815 33.3511 17.6542 33.8983C17.7026 34.398 17.751 34.8738 17.7752 35.3735C17.7268 35.3973 17.6784 35.4211 17.6057 35.4211ZM17.8478 32.9466C17.1457 32.9942 16.4678 32.9942 15.7657 33.018C15.7415 32.4945 15.7415 31.6855 15.5478 31.1859C16.7826 29.9962 17.8721 28.6638 19.0584 27.4265C20.39 26.0227 21.8185 24.6665 23.1985 23.3103C23.9248 23.9289 24.627 24.5475 25.3049 25.2138C22.908 27.8548 20.4384 30.4483 17.8478 32.9466ZM22.569 30.829C21.6974 31.7093 20.85 32.5897 19.9784 33.4938C19.4458 34.0411 18.9616 34.7073 18.3321 35.1118C18.2836 34.5407 18.2352 33.9697 18.1626 33.4224C20.7774 30.9004 23.2711 28.2593 25.7407 25.5944C26.0796 25.9276 26.4186 26.2845 26.7333 26.6414C25.3291 28.0214 23.9491 29.4252 22.569 30.829ZM27.4355 25.9038C27.3628 25.9751 27.2902 26.0465 27.2176 26.1179C25.6923 24.4048 23.8764 22.9534 22.1332 21.4544C22.2785 21.3117 22.4238 21.1927 22.569 21.0499C24.4091 22.3824 25.9828 24.1431 27.6049 25.7372C27.5565 25.7848 27.4839 25.8324 27.4355 25.9038ZM28.0165 25.3565C27.8228 25.1662 27.6534 24.9996 27.4597 24.8093C27.6776 24.5475 27.9197 24.3096 28.1618 24.0717C28.3555 24.262 28.5734 24.4524 28.7913 24.6189C28.525 24.8569 28.2586 25.1186 28.0165 25.3565ZM29.1787 24.262C28.3071 23.5482 27.6534 22.7393 26.8786 21.9303C26.0554 21.0737 25.1838 20.2648 24.288 19.4796C24.4575 19.3368 24.6028 19.1941 24.7722 19.0513C26.4186 20.6454 28.0165 22.2396 29.6145 23.8575C29.4692 23.9765 29.3239 24.1193 29.1787 24.262ZM32.0356 20.812C31.5756 21.7161 30.8735 22.5489 30.0987 23.3341C28.5008 21.7161 26.9028 20.122 25.2807 18.5516C25.3049 18.5278 25.3533 18.4803 25.3775 18.4565C26.467 17.4809 27.8471 16.0295 29.4934 16.4816C30.2682 16.6958 30.8735 17.3382 31.4061 17.9092C32.2777 18.7896 32.6651 19.5747 32.0356 20.812Z" fill="#F5E8B7" stroke="#F5E8B7" stroke-width="0.2"/>
</g>
<defs>
<clipPath id="clip0">
<rect width="21.9837" height="21.5329" fill="white" transform="translate(11.1172 15.7202)"/>
</clipPath>
</defs>
</svg>
