<svg width="34" height="33" viewBox="0 0 34 33" fill="none" xmlns="http://www.w3.org/2000/svg">
<path fill-rule="evenodd" clip-rule="evenodd" d="M13.821 2.75715C15.7368 1.64362 18.0941 1.63534 20.1203 2.81306C21.1723 3.42451 21.515 4.55011 21.549 6.35305C18.6333 5.19569 15.2898 5.20504 12.381 6.38111C12.413 4.55272 12.7652 3.37082 13.821 2.75715ZM23.4685 6.66963V7.32796C23.6566 7.44679 23.8416 7.57138 24.0233 7.70175C24.4539 8.01085 24.5537 8.61222 24.2461 9.04496C24.2414 9.05147 24.2367 9.0579 24.232 9.06426C24.5702 9.41152 24.7786 9.88684 24.7786 10.4111V11.2661C24.7786 12.1478 24.1889 12.8912 23.3842 13.1196C23.2232 14.1114 22.8393 15.0607 22.296 15.8932H22.3196V18.9214L28.9231 21.1088C31.3906 21.9261 33.1664 24.1017 33.4814 26.693L33.9856 30.8407C34.1251 31.9884 33.2338 33 32.0831 33H1.91685C0.766202 33 -0.125093 31.9884 0.014408 30.8407L0.517196 26.7044C0.833012 24.1062 2.61726 21.9267 5.09355 21.1142L11.613 18.9752V15.8932H11.6576C11.1016 15.0559 10.7071 14.0991 10.5446 13.0979C9.77644 12.8469 9.22124 12.1216 9.22124 11.2661V10.4111C9.22124 9.88679 9.42975 9.41143 9.76799 9.06417C9.76531 9.06059 9.76266 9.05698 9.76002 9.05335C9.75799 9.05057 9.75598 9.04777 9.75398 9.04496C9.44636 8.61222 9.54611 8.01085 9.97678 7.70175C10.136 7.5875 10.2978 7.47768 10.4619 7.37229V6.66963C10.4619 4.65472 10.7504 2.31713 12.8613 1.09017C15.385 -0.376674 18.4744 -0.368396 21.08 1.14608C23.189 2.37195 23.4685 4.65029 23.4685 6.66963ZM12.3785 8.4919C15.215 7.07133 18.7048 7.05983 21.5519 8.45738V12.084C21.5519 13.3131 21.0259 14.5722 20.1623 15.5261C19.2997 16.4787 18.1657 17.0585 17 17.0585C15.8318 17.0585 14.6782 16.4763 13.7974 15.52C12.9159 14.563 12.3785 13.3053 12.3785 12.084V8.4919ZM13.5296 19.3244V17.8313C14.2752 18.3587 15.1272 18.7403 16.0417 18.9006V22.4457C14.9727 22.2185 14.0763 21.6278 13.3818 20.9913C13.2068 20.8308 13.0476 20.6702 12.905 20.5158C13.2889 20.2513 13.5296 19.8092 13.5296 19.3244ZM16.0417 24.4016C14.3431 24.1513 13.007 23.2543 12.0902 22.4141C11.6221 21.985 11.2486 21.5579 10.9747 21.2105L5.68847 22.9449C3.91969 23.5252 2.64522 25.082 2.41964 26.9379L1.91685 31.0742H16.0417L16.0417 24.4016ZM17.9583 31.0742V24.3943C19.6287 24.1357 20.953 23.2563 21.8692 22.4297C22.3621 21.9849 22.7531 21.5414 23.0356 21.1863L28.323 22.9377C30.0855 23.5216 31.354 25.0755 31.579 26.9265L32.0831 31.0742H17.9583ZM17.9583 22.4353V18.9003C18.8496 18.7433 19.6774 18.3747 20.403 17.8649V19.2696C20.403 19.7805 20.6704 20.2442 21.0913 20.5023C20.9415 20.6626 20.7736 20.8299 20.5887 20.9968C19.8953 21.6224 19.0079 22.2018 17.9583 22.4353ZM22.7113 27.5503C22.7113 27.2844 22.9258 27.0688 23.1904 27.0688H27.6207C27.8853 27.0688 28.0998 27.2844 28.0998 27.5503V28.5501C28.0998 28.816 27.8853 29.0316 27.6207 29.0316H23.1904C22.9258 29.0316 22.7113 28.816 22.7113 28.5501V27.5503Z" fill="black"/>
</svg>
