<svg width="54" height="44" viewBox="0 0 54 44" fill="none" xmlns="http://www.w3.org/2000/svg">
<path d="M12.4583 16.3115C10.1605 15.5933 6.57022 15.7369 4.27244 16.5988C1.54383 17.6044 0.682146 20.0464 0.394924 22.7757C-0.179521 26.5106 -0.0358962 30.5328 0.251326 34.2676C0.394937 36.9969 0.394942 40.3009 2.83633 42.0246C6.13939 44.323 11.0222 42.8865 14.8997 42.7429C19.7824 42.5992 24.8088 42.3119 29.6916 42.0246C32.8511 41.881 37.8774 42.3119 40.7497 41.0191C43.0474 40.0136 42.9038 36.2787 43.0474 34.124C43.3347 29.0963 43.191 23.9249 42.6166 18.8972C42.473 17.0298 42.6166 12.7203 40.7497 11.5711C39.1699 10.5656 36.1541 11.1402 34.4308 11.2838C31.5586 11.4275 28.5427 11.8584 25.6705 12.1457C23.2291 12.433 23.5163 12.864 22.2238 14.5877C20.7877 16.5988 14.1816 16.0242 11.7402 16.3115C10.8786 16.4552 11.1658 17.8917 12.1711 17.748C15.0433 17.3171 17.7719 17.3171 20.6441 17.0298C21.793 16.8861 22.7983 16.8861 23.3727 16.0242C23.9472 15.1623 23.5163 14.8751 24.5216 14.1568C25.2397 13.5822 26.2449 13.7259 27.1066 13.5822C29.2608 13.2949 31.4149 13.1513 33.5691 12.864C35.0052 12.7203 38.021 12.0021 39.3135 12.864C40.3188 13.4386 40.3188 14.3005 40.4624 15.4496C41.0369 19.1845 41.3241 22.9194 41.3241 26.6542C41.4677 30.2455 41.6113 34.124 40.8933 37.7152C40.3188 40.5881 38.1647 40.1572 35.4361 40.4445C28.1119 41.0191 20.9313 41.3064 13.6072 41.5937C13.0327 41.5937 12.4583 41.5937 11.8838 41.7373C10.1605 41.881 8.43715 42.1683 6.57021 42.0246C3.12354 41.7373 1.54382 39.008 1.2566 35.8477C0.825766 31.9692 0.825766 27.9471 1.2566 24.0686C1.54382 21.1956 2.26187 18.6099 5.42131 17.8917C7.43187 17.4607 9.72966 17.3171 11.7402 17.8917C13.0327 17.8917 13.3199 16.5988 12.4583 16.3115Z" fill="#F5E8B7"/>
<path d="M11.7402 17.1735C11.5966 25.6487 11.4529 33.9803 11.1657 42.4556C11.1657 43.3175 12.6018 43.3175 12.6018 42.4556C12.889 33.9803 13.0327 25.6487 13.1763 17.1735C13.1763 16.1679 11.7402 16.1679 11.7402 17.1735Z" fill="#F5E8B7"/>
<path d="M9.29902 16.3116C9.29902 15.8806 9.299 15.306 9.44261 14.7314C9.72984 13.1513 10.0171 13.4386 11.1659 13.4386C12.3148 13.4386 13.4637 13.2949 14.7562 13.2949C15.3307 13.2949 17.4849 12.864 17.9157 13.1513C18.4901 13.5822 18.0593 15.5933 17.9157 16.3116C17.7721 17.1735 19.2082 17.1735 19.3518 16.3116C19.4954 15.306 20.0698 13.0076 19.0646 12.1457C18.0593 11.1402 15.4743 11.8585 14.3254 12.0021C12.7457 12.1458 10.3043 11.7148 9.01178 12.433C7.86288 13.1513 8.15011 15.306 8.0065 16.4552C7.71928 17.3171 9.1554 17.3171 9.29902 16.3116Z" fill="#F5E8B7"/>
<path d="M34.1437 15.0187C34.0001 15.8805 34.1438 16.5988 34.431 17.4607C34.5746 17.748 34.7182 18.0353 35.149 18.0353C36.1543 18.0353 37.3032 18.1789 38.3085 17.8916C39.3138 17.6043 39.1701 16.5988 39.0265 15.8806C38.8829 15.1623 38.8829 14.1568 38.0213 14.0131C37.5904 13.8695 37.1596 14.0131 36.8724 14.1568C36.2979 14.3004 35.7235 14.3004 35.149 14.4441C34.2874 14.5877 34.5746 16.0242 35.5799 15.8806C35.8671 15.8806 36.2979 15.7369 36.5851 15.7369C36.8724 15.7369 37.3032 15.5933 37.4468 15.5933C37.5904 15.5933 37.5904 15.5933 37.4468 15.5933C37.4468 15.7369 37.4468 16.0242 37.4468 16.1678C37.4468 16.4551 37.5904 16.8861 37.4468 17.1734C37.5904 17.0297 37.734 16.8861 37.734 16.7424C37.4468 16.8861 36.7288 16.8861 36.4415 16.8861C35.8671 16.8861 35.4362 16.8861 34.8618 16.8861C35.149 17.0297 35.2926 17.1734 35.5799 17.4607C35.2926 16.7424 35.2926 16.1678 35.2926 15.4496C35.7235 14.1568 34.2873 14.1568 34.1437 15.0187Z" fill="#F5E8B7"/>
<path d="M27.25 18.61C22.3673 20.1901 18.777 24.9305 19.495 30.2455C20.3567 35.8478 25.6703 38.7207 30.9839 37.5716C36.2975 36.4224 40.175 32.1129 39.1698 26.5106C38.0209 20.4774 33.1381 17.1735 27.25 18.61C26.3884 18.7536 26.6756 20.1901 27.6809 20.0464C32.7073 18.8972 36.872 21.7702 37.8773 26.9416C38.7389 31.682 35.2923 35.2732 30.6967 36.2787C25.9575 37.4279 21.2184 34.5549 20.9311 29.5272C20.6439 25.0741 23.6597 21.4829 27.6809 20.0464C28.5425 19.6155 28.1117 18.3227 27.25 18.61Z" fill="#F5E8B7"/>
<path d="M28.1117 22.0575C23.0853 23.494 21.5056 29.8145 25.0959 32.8312C28.6861 35.8478 35.2922 32.8311 35.5794 28.9526C36.0103 25.0741 33.1381 20.7647 28.1117 22.0575Z" fill="#F5E8B7"/>
<path d="M43.4781 0.510347C43.0473 1.80318 42.4728 2.95236 42.042 4.2452C41.7548 5.10709 43.0473 5.53804 43.4781 4.67615C43.9089 3.38331 44.4834 2.23411 44.9142 0.941275C45.2014 -0.0642643 43.7653 -0.351544 43.4781 0.510347Z" fill="#F5E8B7"/>
<path d="M49.2225 3.09591C48.2172 4.24509 47.4992 5.39429 47.0683 6.83077C46.7811 7.69266 48.2172 8.1236 48.5045 7.26172C48.9353 6.11253 49.5098 5.10699 50.3715 4.2451C50.9459 3.38321 49.9406 2.37767 49.2225 3.09591Z" fill="#F5E8B7"/>
<path d="M51.0896 10.9967C51.664 10.5657 52.3821 10.2784 53.1001 10.4221C53.5309 10.4221 53.8182 10.2784 53.9618 9.99114C54.1054 9.70385 53.8181 9.12927 53.5309 9.12927C52.2384 8.98562 51.0896 9.27291 50.2279 10.1348C49.3662 10.5657 50.3715 11.5713 51.0896 10.9967Z" fill="#F5E8B7"/>
<path d="M5.1339 20.4775C4.12862 22.6322 3.84141 24.9306 4.27225 27.2289C4.41586 28.0908 5.85198 27.8035 5.70836 26.798C5.42114 24.9306 5.56475 22.9195 6.42642 21.1957C6.71365 20.3338 5.56474 19.6156 5.1339 20.4775Z" fill="#F5E8B7"/>
<path d="M4.8468 30.3894C5.70847 30.3894 5.70847 28.9529 4.8468 28.9529C3.84151 28.9529 3.84151 30.3894 4.8468 30.3894Z" fill="#F5E8B7"/>
<path d="M10.4476 13.4388C10.4476 14.4443 10.4476 15.4498 10.4476 16.3117C10.4476 16.8863 11.4529 16.8863 11.4529 16.3117C11.4529 15.3062 11.4529 14.3007 11.4529 13.4388C11.4529 12.8642 10.4476 12.8642 10.4476 13.4388Z" fill="#F5E8B7"/>
<path d="M12.3147 13.4388C12.4583 14.4443 12.6019 15.5935 12.7455 16.599C12.8891 17.1736 13.7508 17.1736 13.7508 16.599C13.6072 15.5935 13.4636 14.4443 13.32 13.4388C13.32 12.8642 12.3147 12.8642 12.3147 13.4388Z" fill="#F5E8B7"/>
<path d="M14.4688 13.1514C14.3251 14.3006 14.4688 15.4498 14.756 16.4553C14.8996 17.0299 15.7613 16.7426 15.6177 16.168C15.3304 15.1625 15.3304 14.1569 15.474 13.1514C15.474 12.5768 14.4688 12.5768 14.4688 13.1514Z" fill="#F5E8B7"/>
<path d="M15.9052 13.4388C16.0489 14.3006 16.0488 15.1625 16.1925 16.1681C16.1925 16.7427 17.1977 16.7427 17.1977 16.1681C17.0541 15.3062 17.0541 14.4443 16.9105 13.4388C16.9105 12.8642 15.9052 12.8642 15.9052 13.4388Z" fill="#F5E8B7"/>
</svg>
