<svg xmlns="http://www.w3.org/2000/svg" viewBox="0 0 54 43.32"><g id="Calque_2" data-name="Calque 2"><g id="Calque_1-2" data-name="Calque 1"><path d="M12.46,16.31a14.47,14.47,0,0,0-8.19.29C1.54,17.6.68,20.05.39,22.78A51.34,51.34,0,0,0,.25,34.27C.39,37,.39,40.3,2.84,42c3.3,2.3,8.18.87,12.06.72,4.88-.14,9.91-.43,14.79-.72,3.16-.14,8.19.29,11.06-1,2.3-1,2.15-4.74,2.3-6.9a91.11,91.11,0,0,0-.43-15.22c-.15-1.87,0-6.18-1.87-7.33-1.58-1-4.6-.43-6.32-.29-2.87.15-5.89.58-8.76.87-2.44.28-2.15.71-3.45,2.44-1.43,2-8,1.43-10.48,1.72-.86.15-.57,1.58.43,1.44,2.87-.43,5.6-.43,8.47-.72,1.15-.14,2.16-.14,2.73-1s.15-1.14,1.15-1.86c.72-.58,1.72-.43,2.59-.58,2.15-.29,4.3-.43,6.46-.72,1.44-.14,4.45-.86,5.74,0,1,.58,1,1.44,1.15,2.59a72.84,72.84,0,0,1,.86,11.2,47.22,47.22,0,0,1-.43,11.07c-.57,2.87-2.73,2.44-5.45,2.72-7.33.58-14.51.87-21.83,1.15a6.75,6.75,0,0,0-1.73.15A31.72,31.72,0,0,1,6.57,42c-3.45-.28-5-3-5.31-6.17a54,54,0,0,1,0-11.78c.28-2.87,1-5.46,4.16-6.18a13.5,13.5,0,0,1,6.32,0C13,17.89,13.32,16.6,12.46,16.31Z"/><path d="M11.74,17.17c-.14,8.48-.29,16.81-.57,25.29a.72.72,0,0,0,1.43,0c.29-8.48.43-16.81.58-25.29A.72.72,0,1,0,11.74,17.17Z"/><path d="M9.3,16.31a6.63,6.63,0,0,1,.14-1.58c.29-1.58.58-1.29,1.73-1.29s2.29-.15,3.59-.15c.57,0,2.72-.43,3.16-.14s.14,2.44,0,3.16,1.29.86,1.43,0,.72-3.3-.29-4.16c-1-1-3.59-.29-4.73-.15-1.58.15-4-.29-5.32.43s-.86,2.88-1,4C7.72,17.32,9.16,17.32,9.3,16.31Z"/><path d="M34.14,15a4.79,4.79,0,0,0,.29,2.44c.14.29.29.58.72.58a11.59,11.59,0,0,0,3.16-.15c1-.29.86-1.29.72-2s-.15-1.72-1-1.87a1.52,1.52,0,0,0-1.15.15c-.57.14-1.15.14-1.72.28-.86.15-.58,1.58.43,1.44.29,0,.72-.14,1-.14s.71-.15.86-.15h0v.58c0,.29.14.72,0,1,.14-.14.28-.28.28-.43a3.77,3.77,0,0,1-1.29.15H34.86a2.4,2.4,0,0,1,.72.57,4.84,4.84,0,0,1-.29-2C35.72,14.16,34.29,14.16,34.14,15Z"/><path d="M27.25,18.61c-4.88,1.58-8.47,6.32-7.75,11.64.86,5.6,6.17,8.47,11.48,7.32s9.19-5.46,8.19-11.06c-1.15-6-6-9.34-11.92-7.9-.86.14-.57,1.58.43,1.44,5-1.15,9.19,1.72,10.2,6.89.86,4.74-2.59,8.33-7.18,9.34s-9.48-1.73-9.77-6.75c-.29-4.46,2.73-8,6.75-9.48C28.54,19.62,28.11,18.32,27.25,18.61Z"/><path d="M28.11,22.06c-5,1.43-6.6,7.75-3,10.77s10.19,0,10.48-3.88S33.14,20.76,28.11,22.06Z"/><path d="M43.48.51C43.05,1.8,42.47,3,42,4.25c-.29.86,1,1.29,1.44.43.43-1.3,1-2.45,1.43-3.74C45.2-.06,43.77-.35,43.48.51Z"/><path d="M49.22,3.1a9.79,9.79,0,0,0-2.15,3.73c-.29.86,1.15,1.29,1.43.43a8.31,8.31,0,0,1,1.87-3C51,3.38,49.94,2.38,49.22,3.1Z"/><path d="M51.09,11a2.59,2.59,0,0,1,2-.58A.86.86,0,0,0,54,10c.15-.29-.14-.86-.43-.86a3.86,3.86,0,0,0-3.3,1C49.37,10.57,50.37,11.57,51.09,11Z"/><path d="M5.13,20.48a11,11,0,0,0-.86,6.75c.15.86,1.58.57,1.44-.43a9.3,9.3,0,0,1,.72-5.6C6.71,20.33,5.56,19.62,5.13,20.48Z"/><path d="M4.85,30.39c.86,0,.86-1.44,0-1.44A.72.72,0,1,0,4.85,30.39Z"/><path d="M10.45,13.44v2.87c0,.58,1,.58,1,0V13.44C11.45,12.86,10.45,12.86,10.45,13.44Z"/><path d="M12.31,13.44c.15,1,.29,2.15.44,3.16.14.57,1,.57,1,0-.14-1-.29-2.16-.43-3.16C13.32,12.86,12.31,12.86,12.31,13.44Z"/><path d="M14.47,13.15a8.43,8.43,0,0,0,.29,3.31c.14.57,1,.28.86-.29a7.18,7.18,0,0,1-.15-3C15.47,12.58,14.47,12.58,14.47,13.15Z"/><path d="M15.91,13.44c.14.86.14,1.72.28,2.73,0,.57,1,.57,1,0-.15-.86-.15-1.73-.29-2.73C16.91,12.86,15.91,12.86,15.91,13.44Z"/></g></g></svg>