<svg width="45" height="47" viewBox="0 0 45 47" fill="none" xmlns="http://www.w3.org/2000/svg">
<path d="M7.15725 14.7332C4.60921 14.8394 1.84883 16.0074 0.787152 18.4497C0.25631 19.7239 0.150143 21.2105 0.150143 22.5909C0.0439751 25.0332 -0.0621916 27.3693 0.0439767 29.8115C0.0439767 34.1651 -0.0621949 38.7311 0.787152 42.9785C1.31799 45.8455 3.54753 46.3764 6.20173 46.3764C14.589 46.2702 22.8702 46.0579 31.2575 45.7393C34.3363 45.6331 37.5214 45.1022 39.0077 41.9166C39.8571 40.1115 39.8571 37.8816 39.9633 35.8641C40.1756 33.3156 40.3879 30.7672 40.4941 28.2187C40.7064 23.8651 41.2373 19.2992 41.0249 14.9456C40.9188 13.6714 40.8126 12.3971 39.9633 11.3353C38.5831 9.53011 35.7165 9.63631 33.5932 9.63631C31.8945 9.63631 30.3019 9.63631 28.6033 9.63631C27.6477 9.63631 26.3737 9.53013 25.5244 9.95487C24.8874 10.2734 24.5689 10.9105 24.3565 11.5476C24.1442 12.0786 24.038 12.928 24.038 13.459C24.038 14.5208 24.2503 14.2023 23.5072 14.4146C22.4455 14.627 21.0653 14.4146 20.0036 14.5208C18.5173 14.5208 16.9247 14.5208 15.4384 14.627C12.5718 14.627 9.81146 14.7332 7.15725 14.7332C6.52024 14.7332 6.52024 15.6889 7.15725 15.6889C12.7842 15.6889 18.5173 15.5827 24.1442 15.4765C24.3565 15.4765 24.5689 15.3703 24.5689 15.1579C24.675 14.2023 24.675 12.8219 25.0997 11.9724C25.7367 10.6982 26.3737 10.8043 27.5416 10.6982C29.5588 10.592 31.6821 10.592 33.6993 10.592C35.9289 10.6982 38.9016 10.592 39.6447 13.1404C39.8571 13.9899 39.9633 14.9456 39.9633 15.7951C40.0694 22.3786 39.4324 28.962 38.9016 35.5455C38.5831 39.0496 38.5831 43.1909 34.5487 44.3589C32.4253 44.996 30.0896 44.7836 27.9662 44.8898C21.5961 45.1022 15.1199 45.3146 8.74977 45.4208C7.47576 45.4208 6.3079 45.527 5.03388 45.527C3.86603 45.4208 2.27351 44.6775 1.6365 43.5094C1.10566 42.5538 1.31799 40.6424 1.21183 39.6868C1.10566 37.8816 0.999487 36.0764 0.893318 34.2713C0.78715 30.661 0.78715 27.0507 0.893318 23.5466C0.999487 21.7414 0.893318 19.7239 1.955 18.2373C3.12285 16.5383 5.14005 15.7951 7.15725 15.7951C7.79426 15.5827 7.79426 14.627 7.15725 14.7332Z" fill="black"/>
<path d="M28.3909 13.2466C28.1785 14.2023 28.0724 15.158 28.1785 16.2198C28.1785 16.4322 28.3909 16.6445 28.6032 16.6445C30.9389 16.6445 33.2746 16.6446 35.6103 16.5384C35.8226 16.5384 36.035 16.326 36.035 16.1136C36.035 15.2641 36.2473 13.9899 36.035 13.1405C35.9288 12.7157 35.8226 12.6095 35.5041 12.5033C34.6548 12.291 33.5931 12.3971 32.7438 12.3971C31.4697 12.3971 30.3019 12.5033 29.0279 12.6095C28.497 12.6095 28.497 13.5652 29.0279 13.5652C30.5142 13.459 32.0006 13.3528 33.5931 13.3528C34.2301 13.3528 35.0795 13.1405 35.2918 13.8837C35.5041 14.5209 35.2918 15.3703 35.2918 16.0074C35.398 15.9013 35.6103 15.6889 35.7165 15.5827C33.3808 15.6889 31.0451 15.6889 28.7094 15.6889C28.8155 15.7951 29.0279 16.0074 29.134 16.1136C29.134 15.158 29.134 14.3085 29.3464 13.3528C29.3464 12.9281 28.497 12.7157 28.3909 13.2466Z" fill="black"/>
<path d="M7.05099 14.9456C6.94482 13.6714 7.47566 13.459 8.74968 13.2466C9.59903 13.1404 10.4484 13.1404 11.2977 13.1404C12.1471 13.1404 12.9964 13.1404 13.8458 13.1404C14.3766 13.1404 14.8013 13.1404 15.3321 13.1404C15.3321 13.5652 15.3321 14.0961 15.226 14.5208C15.226 15.0518 16.0753 15.0518 16.1815 14.5208C16.1815 13.7775 16.6061 12.7157 15.863 12.2909C15.5445 12.0786 15.0136 12.1847 14.6951 12.1847C13.6334 12.1847 12.5717 12.1847 11.4039 12.1847C10.4484 12.1847 9.49286 12.2909 8.53735 12.2909C8.11267 12.2909 7.26333 12.1847 6.83865 12.5033C6.20164 13.0342 6.30781 14.2023 6.30781 14.9456C6.20164 15.5827 7.15715 15.5827 7.05099 14.9456Z" fill="black"/>
<path d="M8.53736 12.8219C8.32503 13.6714 8.32503 14.5209 8.53736 15.3704C8.64353 15.9013 9.59904 15.689 9.3867 15.158C9.17437 14.4147 9.17437 13.7776 9.3867 13.0343C9.59904 12.3972 8.64353 12.1848 8.53736 12.8219Z" fill="black"/>
<path d="M10.6607 12.8218C10.5546 13.6713 10.6607 14.4146 10.8731 15.264C10.9792 15.795 11.8286 15.5826 11.7224 15.0517C11.6163 14.3084 11.5101 13.6712 11.6163 12.928C11.6163 12.1847 10.6607 12.1847 10.6607 12.8218Z" fill="black"/>
<path d="M12.8903 12.7157C12.7841 13.5651 12.678 14.3084 12.7841 15.1579C12.8903 15.6888 13.7397 15.6888 13.7397 15.1579C13.6335 14.4146 13.6335 13.6713 13.7397 12.928C13.8458 12.3971 12.8903 12.0785 12.8903 12.7157Z" fill="black"/>
<path d="M0.786977 29.1744C3.75969 28.9621 6.73241 28.7497 9.70513 28.6435C10.236 28.6435 10.3421 27.6879 9.70513 27.6879C6.73241 27.7941 3.75969 28.0064 0.786977 28.2188C0.149967 28.325 0.149967 29.1744 0.786977 29.1744Z" fill="black"/>
<path d="M29.5587 28.4312C32.956 28.0064 36.3534 28.325 39.7508 28.4312C40.3878 28.4312 40.3878 27.5817 39.7508 27.4755C36.3534 27.3693 32.956 27.0508 29.5587 27.4755C29.0278 27.5817 29.0278 28.5373 29.5587 28.4312Z" fill="black"/>
<path d="M23.6132 37.7753C20.1096 39.4743 15.1197 38.4125 12.3594 35.864C8.53731 32.3599 9.17432 25.4579 13.3149 22.4847C16.7123 20.0424 21.7022 20.361 25.0996 22.6971C30.7265 26.5197 29.1339 34.8022 23.6132 37.7753C23.0824 38.0939 23.507 38.8372 24.0379 38.5186C28.2846 36.1826 30.7265 30.7671 29.0278 26.095C27.5414 22.1661 23.4009 20.0424 19.2603 19.83C15.2259 19.7239 11.4038 21.7414 9.81133 25.4579C8.11263 29.4929 8.85581 34.2712 12.3594 37.032C15.5444 39.3681 20.4281 40.2176 24.0379 38.5186C24.5687 38.3063 24.144 37.563 23.6132 37.7753Z" fill="black"/>
<path d="M22.1269 34.9084C19.2604 36.395 12.3594 34.8022 13.3149 28.8558C14.2705 22.9095 21.2776 22.9095 24.0379 25.9888C26.7983 29.0682 24.9935 33.528 22.1269 34.9084Z" fill="black"/>
<path d="M16.1815 26.7321C14.8013 28.4311 15.0137 30.661 16.6062 32.1476C17.0309 32.5723 17.6679 31.9352 17.2432 31.5105C15.9692 30.4486 15.7568 28.7496 16.8185 27.3692C17.2432 26.9445 16.6062 26.3074 16.1815 26.7321Z" fill="white"/>
<path d="M18.3049 33.1033C18.4111 33.1033 18.5173 33.1033 18.6234 33.1033C19.2604 33.1033 19.2604 32.1476 18.6234 32.1476C18.5173 32.1476 18.4111 32.1476 18.3049 32.1476C17.7741 32.2538 17.7741 33.1033 18.3049 33.1033Z" fill="white"/>
<path d="M22.0208 3.58383C22.8701 4.64569 23.7195 5.70754 24.675 6.66321C25.0997 7.08795 25.7367 6.45083 25.312 6.02609C24.3565 5.07042 23.5071 4.00857 22.6578 2.94671C22.3393 2.52197 21.7023 3.15909 22.0208 3.58383Z" fill="black"/>
<path d="M29.771 0.398194C29.771 1.67241 29.8771 2.94663 30.1956 4.22085C30.3018 4.75177 31.1511 4.53941 31.045 4.00848C30.8326 2.84044 30.7265 1.67241 30.7265 0.398194C30.6203 -0.132731 29.771 -0.132731 29.771 0.398194Z" fill="black"/>
<path d="M37.8399 1.67239C37.309 2.62806 36.672 3.68992 36.1411 4.64558C35.8226 5.17651 36.672 5.60124 36.8843 5.07032C37.4152 4.11465 38.0522 3.05279 38.583 2.09713C38.9015 1.67239 38.0522 1.24765 37.8399 1.67239Z" fill="black"/>
<path d="M43.2545 4.96417C42.1928 5.91984 41.2373 6.9817 40.1756 7.93737C39.7509 8.36211 40.3879 8.99923 40.8126 8.57449C41.7681 7.51263 42.8298 6.55696 43.8915 5.60129C44.3161 5.17655 43.6791 4.53943 43.2545 4.96417Z" fill="black"/>
<path d="M0.574713 26.8384C1.10555 27.4755 1.74256 28.0064 2.37957 28.4312C2.80424 28.6435 3.12275 28.1126 2.69808 27.794C2.06107 27.3693 1.53023 26.8384 0.999387 26.3075C0.787051 25.9889 0.256208 26.5198 0.574713 26.8384Z" fill="black"/>
<path d="M0.150008 23.759C1.53019 25.5642 3.12271 27.1569 4.92757 28.4312C5.24608 28.7497 5.67075 28.1126 5.24608 27.794C3.54739 26.5198 2.06103 25.0332 0.787015 23.3343C0.468511 23.1219 -0.168496 23.4405 0.150008 23.759Z" fill="black"/>
<path d="M0.574834 22.2723C2.6982 24.2899 4.60922 26.3074 6.52025 28.5373C6.83875 28.8558 7.26342 28.4311 7.05109 28.0063C5.24623 25.7765 3.22904 23.7589 1.10567 21.7414C0.78717 21.4229 0.25633 21.9538 0.574834 22.2723Z" fill="black"/>
<path d="M36.6719 36.5012C36.5658 37.8816 36.0349 39.262 35.1856 40.3238C34.8671 40.6424 35.3979 41.1733 35.7164 40.8548C36.7781 39.5805 37.309 38.2001 37.4151 36.5012C37.4151 36.0764 36.6719 36.0764 36.6719 36.5012Z" fill="black"/>
<path d="M33.4869 41.598C33.3807 41.598 33.3807 41.598 33.4869 41.598C32.9561 41.598 32.9561 42.3413 33.3807 42.3413H33.4869C33.9116 42.2352 33.9116 41.598 33.4869 41.598Z" fill="black"/>
</svg>
