<svg xmlns="http://www.w3.org/2000/svg" viewBox="0 0 49.87 55.41"><defs><style>.cls-1,.cls-2{fill:#f5e8b7;}.cls-1{stroke:#000;stroke-width:0.6px;}</style></defs><g id="Calque_2" data-name="Calque 2"><g id="Calque_1-2" data-name="Calque 1"><path class="cls-1" d="M34.73,55.05c3.55-1.6,8.34-2.93,10.56-6.3,2.4-3.55,1.16-9.15.45-13.06-.09-.44-.8-.26-.71.18.71,3.91,1.95,10-1,13.23-2.4,2.67-6.48,3.91-9.77,5.33C33.93,54.61,34.28,55.32,34.73,55.05Z"/><path class="cls-1" d="M36.68,19.71c-1.33.44-1.69,1.51-1.69,2.84a31,31,0,0,0,1,7.55,18.49,18.49,0,0,0,2.75,6.84c.54.8,1.6,2,2.76,1.77,2.66-.62,1.24-6.66.88-8.25a41,41,0,0,0-2.31-7.11c-.62-1.51-1.42-3-3-3.55-.45-.18-.63.53-.18.71,1.6.53,2.31,2.49,2.84,3.91A40.47,40.47,0,0,1,41.3,29a28.07,28.07,0,0,1,.89,4.7c.08,1.07.35,2.84-.27,3.82-1,1.69-2.66-1-3.11-1.86A17.19,17.19,0,0,1,37,30.54a52.16,52.16,0,0,1-.89-5.41c-.18-1.33-.71-4.09,1-4.62C37.39,20.33,37.21,19.62,36.68,19.71Z"/><path class="cls-1" d="M36.68,20.42c2.49-1.24,7.19-3.11,9.06-.09a23.6,23.6,0,0,1,2.48,7.28c.54,2.49,1.16,6.13-.62,8.26-1.51,1.78-4.17,2-6.39,2.13-.45,0-.45.8,0,.8,2.48-.17,5.41-.53,7.1-2.57,1.87-2.4,1.24-6,.71-8.79a31.72,31.72,0,0,0-1.68-5.69,6.27,6.27,0,0,0-2.05-3.11c-2.39-1.68-6.66.09-8.88,1.25C35.79,20,36.24,20.6,36.68,20.42Z"/><path class="cls-1" d="M10.13,30.28c-4.17-.71-2,7.28-1.59,9.23a35.41,35.41,0,0,0,2.39,7.11c.71,1.51,1.78,3.28,3.55,3.73,3.91.88,2.58-7.11,2.13-9-.88-3.91-2.39-9.5-6.3-11.37-.44-.18-.8.45-.35.62,2.93,1.42,4,4.8,5,7.64a27.84,27.84,0,0,1,1.24,4.62c.18,1.24.71,4.62-.09,5.77-2.75,3.82-5.77-5.77-6.21-7.37C9.51,40,7.11,30.54,10,31.08,10.4,31.08,10.58,30.37,10.13,30.28Z"/><path class="cls-1" d="M9.51,30.81a29.15,29.15,0,0,1,3.73-1.69c1.16-.44,2.31-1,3.46.36a4.9,4.9,0,0,1,.63,1.15,40.3,40.3,0,0,1,2.84,7c.62,2.13,1.42,4.88,1,7-.53,2.58-3.1,3.82-5.41,4.53-.45.18-.27.89.17.71,2.22-.71,4.62-1.86,5.69-4.08,1.15-2.67-.09-6.48-.89-9.06A26.51,26.51,0,0,0,19,32.32c-.53-1.24-1.15-3.11-2.22-4.08-1.86-1.69-5.86.88-7.63,1.86C8.71,30.46,9.07,31.08,9.51,30.81Z"/><path class="cls-1" d="M14.13,29c2,2.22,2.84,5.24,3.73,8a57.14,57.14,0,0,1,2.22,9.23c.09.45.8.45.8,0a56.25,56.25,0,0,0-2.49-10.12c-.89-2.75-1.69-5.51-3.73-7.73C14.31,28.15,13.77,28.68,14.13,29Z"/><path class="cls-1" d="M39,19.36a30.3,30.3,0,0,1,4.26,18.55c0,.45.71.45.8,0a31.81,31.81,0,0,0-4.44-19A.38.38,0,0,0,39,19.36Z"/><path class="cls-1" d="M.63,38.89c1.16-.09,2.22-.18,3.38-.35.44-.09.44-.8,0-.8-1.16.09-2.22.17-3.38.35C.19,38.18.19,38.89.63,38.89Z"/><path class="cls-1" d="M2.14,43.07c.8-.27,1.69-.54,2.49-.89.44-.18.26-.89-.18-.71-.8.26-1.69.53-2.49.88C1.52,42.44,1.7,43.24,2.14,43.07Z"/><path class="cls-1" d="M4,47.06c.71-.44,1.33-.89,2-1.33.44-.27,0-.89-.36-.62-.71.44-1.33.89-2,1.33C3.3,46.71,3.65,47.33,4,47.06Z"/><path class="cls-1" d="M13.33,28.15C12.18,19.71,12.18,7.81,21.5,3.81A9.91,9.91,0,0,1,33.13,6.12c3.11,3.47,4,8.17,4.7,12.52.09.45.8.27.72-.17-.8-4.8-1.87-10-5.51-13.5A10.62,10.62,0,0,0,21.5,3c-9.95,4-10.12,16.42-8.88,25.39C12.71,28.77,13.42,28.59,13.33,28.15Z"/><path class="cls-1" d="M11.47,29c-1.34-9.42-.8-22.47,9.5-26.82A11.53,11.53,0,0,1,34.19,4.79c3.29,3.64,4.53,8.7,5.42,13.41.09.44.8.27.71-.18C39.43,13,38,7.37,34.11,3.64A12.14,12.14,0,0,0,21,1.24C10,5.59,9.33,19.27,10.75,29.12,10.75,29.66,11.55,29.48,11.47,29Z"/><path class="cls-1" d="M37.12,20.69A40.07,40.07,0,0,0,35.62,25c-.09.35.44.44.44.18A23.14,23.14,0,0,1,37.48,21C37.66,20.69,37.21,20.42,37.12,20.69Z"/><path class="cls-1" d="M38,21.75c-.8,2-1.68,3.91-2.48,5.86-.09.27.26.54.44.27.8-1.95,1.69-3.91,2.49-5.86C38.63,21.75,38.19,21.49,38,21.75Z"/><path class="cls-1" d="M39,23.62A21,21,0,0,0,36.41,29c-.08.26.36.44.45.17a24.25,24.25,0,0,1,2.57-5.24C39.61,23.62,39.17,23.35,39,23.62Z"/><ellipse class="cls-2" cx="39.13" cy="29.29" rx="2.78" ry="8.99" transform="translate(-5.48 9.31) rotate(-12.68)"/></g></g></svg>