<svg width="51" height="56" viewBox="0 0 51 56" fill="none" xmlns="http://www.w3.org/2000/svg">
<path d="M35.0531 55.1834C38.6046 53.585 43.3991 52.2529 45.6188 48.8785C48.0161 45.3264 46.773 39.732 46.0627 35.8247C45.974 35.3807 45.2637 35.5583 45.3524 36.0023C46.0627 39.9096 47.3058 45.9481 44.3758 49.2337C41.9785 51.8977 37.8943 53.141 34.6092 54.5618C34.254 54.7394 34.6092 55.4498 35.0531 55.1834Z" fill="black" stroke="black" stroke-width="0.6"/>
<path d="M37.0066 19.8405C35.6747 20.2845 35.3196 21.3502 35.3196 22.6822C35.2308 25.1686 35.7635 27.8327 36.2963 30.2303C36.829 32.6279 37.6281 35.1144 39.0487 37.068C39.5814 37.8672 40.6468 39.1104 41.8011 38.844C44.4647 38.2224 43.0441 32.1839 42.6889 30.5855C42.1562 28.1879 41.3571 25.7902 40.3805 23.4814C39.759 21.9718 38.9599 20.4621 37.3617 19.9293C36.9178 19.7517 36.7402 20.4621 37.1841 20.6397C38.7823 21.1726 39.4926 23.1262 40.0253 24.547C40.6468 26.0566 41.1796 27.4775 41.6235 29.0759C42.0674 30.5855 42.3338 32.1839 42.5114 33.7823C42.6002 34.848 42.8665 36.624 42.245 37.6008C41.2683 39.288 39.5814 36.624 39.1375 35.736C38.2496 34.1376 37.6281 32.4503 37.2729 30.6743C36.829 28.8983 36.6514 27.1222 36.385 25.2574C36.2075 23.9254 35.6747 21.1726 37.3617 20.6397C37.7169 20.4621 37.5393 19.7517 37.0066 19.8405Z" fill="black" stroke="black" stroke-width="0.6"/>
<path d="M37.0065 20.551C39.4925 19.3078 44.1983 17.4429 46.0628 20.4622C47.3946 22.5934 48.0161 25.3463 48.5488 27.7439C49.0816 30.2303 49.7031 33.8712 47.9273 36.0024C46.4179 37.7784 43.7543 38.0448 41.5346 38.1336C41.0907 38.1336 41.0907 38.9329 41.5346 38.9329C44.0207 38.7553 46.9507 38.4001 48.6376 36.3576C50.5021 33.96 49.8806 30.3191 49.3479 27.5663C48.9928 25.6127 48.3713 23.7478 47.661 21.883C47.217 20.7286 46.6843 19.4854 45.6189 18.7749C43.2216 17.0877 38.9598 18.8637 36.7401 20.0182C36.1186 20.107 36.5626 20.7286 37.0065 20.551Z" fill="black" stroke="black" stroke-width="0.6"/>
<path d="M10.4591 30.4078C6.28609 29.6974 8.41698 37.6896 8.86091 39.6432C9.39364 42.0408 10.1927 44.4385 11.2582 46.7473C11.9685 48.2569 13.0339 50.0329 14.8097 50.477C18.7163 51.365 17.3845 43.3728 16.9405 41.508C16.0527 37.6008 14.5433 32.0063 10.6367 30.1414C10.1927 29.9638 9.83757 30.5854 10.2815 30.763C13.2115 32.1839 14.2769 35.5583 15.2536 38.4C15.7863 39.9096 16.2302 41.4192 16.4966 43.0176C16.6742 44.2609 17.2069 47.6353 16.4078 48.7897C13.6554 52.6082 10.6367 43.0176 10.1927 41.4192C9.83757 40.0872 7.44032 30.6742 10.2815 31.2071C10.7254 31.2071 10.903 30.4966 10.4591 30.4078Z" fill="black" stroke="black" stroke-width="0.6"/>
<path d="M9.83763 30.9408C11.0807 30.3192 12.2349 29.6976 13.5667 29.2536C14.7209 28.8095 15.8752 28.2767 17.0294 29.6088C17.2958 29.8752 17.4733 30.408 17.6509 30.7632C18.8051 32.9832 19.7818 35.3808 20.4921 37.7785C21.1136 39.9097 21.9127 42.6626 21.4688 44.7938C20.936 47.369 18.3612 48.6122 16.0527 49.3227C15.6088 49.5003 15.7864 50.2107 16.2303 50.0331C18.45 49.3227 20.8472 48.1682 21.9127 45.9482C23.0669 43.2842 21.8239 39.4657 21.0248 36.8905C20.5809 35.3808 20.0482 33.8712 19.3379 32.4504C18.8051 31.2072 18.1836 29.3424 17.1182 28.3655C15.2536 26.6783 11.2582 29.2536 9.48248 30.2304C9.03855 30.5856 9.3937 31.2072 9.83763 30.9408Z" fill="black" stroke="black" stroke-width="0.6"/>
<path d="M14.4545 29.1647C16.4966 31.3847 17.2957 34.404 18.1836 37.1568C19.1602 40.176 19.9593 43.2841 20.4032 46.3921C20.492 46.8361 21.2023 46.8361 21.2023 46.3921C20.7584 42.9289 19.7817 39.5544 18.7163 36.2688C17.8284 33.5159 17.0293 30.7631 14.9872 28.5431C14.6321 28.2767 14.0993 28.8095 14.4545 29.1647Z" fill="black" stroke="black" stroke-width="0.6"/>
<path d="M39.315 19.4852C42.6889 25.0797 44.1983 31.5622 43.5768 38.0447C43.5768 38.4887 44.2871 38.4887 44.3758 38.0447C44.9086 31.3846 43.3992 24.8133 39.9365 19.0412C39.6701 18.686 39.0486 19.0412 39.315 19.4852Z" fill="black" stroke="black" stroke-width="0.6"/>
<path d="M0.958837 39.0216C2.11307 38.9328 3.17852 38.844 4.33275 38.6664C4.77668 38.5776 4.77668 37.8672 4.33275 37.8672C3.17852 37.956 2.11307 38.0448 0.958837 38.2224C0.514901 38.3112 0.514901 39.0216 0.958837 39.0216Z" fill="black" stroke="black" stroke-width="0.6"/>
<path d="M2.46823 43.1952C3.26731 42.9288 4.15519 42.6624 4.95427 42.3072C5.39821 42.1295 5.22063 41.4191 4.7767 41.5967C3.97761 41.8632 3.08974 42.1296 2.29066 42.4848C1.84672 42.5736 2.02429 43.3728 2.46823 43.1952Z" fill="black" stroke="black" stroke-width="0.6"/>
<path d="M4.33279 47.1913C5.04309 46.7473 5.6646 46.3033 6.3749 45.8593C6.81883 45.5929 6.3749 44.9713 6.01975 45.2377C5.30945 45.6817 4.68794 46.1257 3.97764 46.5697C3.62249 46.8361 3.97764 47.4577 4.33279 47.1913Z" fill="black" stroke="black" stroke-width="0.6"/>
<path d="M13.6555 28.2766C12.5013 19.8405 12.5013 7.94113 21.8239 3.94507C25.9081 2.16904 30.4363 2.87945 33.455 6.25391C36.5626 9.71716 37.4505 14.4236 38.1607 18.7749C38.2495 19.2189 38.9598 19.0413 38.871 18.5973C38.072 13.802 37.0065 8.56274 33.3662 5.09949C30.2587 2.08024 25.7305 1.54743 21.8239 3.14586C11.8797 7.14192 11.7022 19.5741 12.9452 28.543C13.034 28.8983 13.7443 28.7207 13.6555 28.2766Z" fill="black" stroke="black" stroke-width="0.6"/>
<path d="M11.7909 29.0759C10.4591 19.6629 10.9918 6.6091 21.2911 2.25783C25.9081 0.304202 31.0577 1.19222 34.5204 4.92187C37.8055 8.56273 39.0486 13.6244 39.9364 18.3309C40.0252 18.7749 40.7355 18.5973 40.6467 18.1533C39.7589 13.0916 38.3383 7.49711 34.4316 3.76746C30.8801 0.304203 25.8193 -0.406209 21.2911 1.36982C10.3703 5.72109 9.66 19.3965 11.0806 29.2535C11.0806 29.7863 11.8797 29.6087 11.7909 29.0759Z" fill="black" stroke="black" stroke-width="0.6"/>
<path d="M37.4505 20.8174C36.829 22.2382 36.385 23.659 35.9411 25.0798C35.8523 25.4351 36.385 25.5238 36.385 25.2574C36.7402 23.8366 37.1841 22.4158 37.8056 21.0838C37.9832 20.8174 37.5393 20.551 37.4505 20.8174Z" fill="black" stroke="black" stroke-width="0.6"/>
<path d="M38.3384 21.8829C37.5393 23.8366 36.6514 25.7902 35.8523 27.7438C35.7635 28.0102 36.1187 28.2766 36.2963 28.0102C37.0954 26.0566 37.9832 24.103 38.7823 22.1493C38.9599 21.8829 38.5159 21.6165 38.3384 21.8829Z" fill="black" stroke="black" stroke-width="0.6"/>
<path d="M39.3149 23.7478C38.1607 25.435 37.3616 27.211 36.7401 29.0759C36.6513 29.3423 37.0952 29.5199 37.184 29.2535C37.8055 27.3886 38.6934 25.7014 39.7588 24.0142C39.9364 23.7478 39.4925 23.4814 39.3149 23.7478Z" fill="black" stroke="black" stroke-width="0.6"/>
<ellipse cx="39.4554" cy="29.4239" rx="2.775" ry="8.98624" transform="rotate(-12.6846 39.4554 29.4239)" fill="black"/>
</svg>
