<svg width="40" height="40" viewBox="0 0 40 40" fill="none" xmlns="http://www.w3.org/2000/svg">
<rect width="40" height="40" fill="white"/>
<path fill-rule="evenodd" clip-rule="evenodd" d="M8.68121 17.0262C8.68121 10.6579 13.8437 5.49536 20.212 5.49536C26.5803 5.49536 31.7429 10.6579 31.7429 17.0262C31.7429 18.5071 31.4637 19.9228 30.9551 21.2235L30.8974 21.2707L30.9237 21.3029C29.225 25.5538 25.0692 28.557 20.212 28.557C13.8437 28.557 8.68121 23.3945 8.68121 17.0262ZM32.3386 23.0354C30.3194 27.1023 26.3146 30.009 21.5923 30.4875L26.1175 36.0283L28.7972 30.0648C28.9907 29.6341 29.3757 29.3197 29.8363 29.2162L36.2149 27.7818L32.3386 23.0354ZM20.0228 31.7274L14.7998 37.967C14.084 38.8221 12.7187 38.625 12.274 37.6024L9.44376 31.0943L2.5391 29.4536C1.45424 29.1958 1.01993 27.8864 1.73567 27.0314L7.14864 20.5649C6.84383 19.4369 6.68121 18.2505 6.68121 17.0262C6.68121 9.55332 12.7392 3.49536 20.212 3.49536C27.6849 3.49536 33.7429 9.55332 33.7429 17.0262C33.7429 18.3735 33.5459 19.6748 33.1793 20.903L38.2757 27.1433C38.9811 28.0069 38.5309 29.3109 37.443 29.5556L30.519 31.1126L27.6102 37.586C27.1532 38.6031 25.7855 38.7836 25.0802 37.92L20.0228 31.7274ZM3.78858 27.6948L7.9407 22.7345C9.8618 26.8573 13.7994 29.8511 18.4856 30.4479L13.7854 36.0629L11.1781 30.0674C10.9899 29.6344 10.6087 29.3154 10.1494 29.2062L3.78858 27.6948ZM21.6068 10.6679C21.1067 9.40353 19.3173 9.40353 18.8172 10.6679L17.5852 13.7822L14.5305 14.0397C13.2218 14.15 12.6767 15.77 13.6526 16.649L16.0308 18.791L15.2842 22.0818C14.9872 23.3911 16.428 24.4013 17.5577 23.6757L20.212 21.971L22.8664 23.6758C23.996 24.4013 25.4368 23.3911 25.1398 22.0818L24.3932 18.791L26.7714 16.649C27.7473 15.77 27.2023 14.15 25.8935 14.0397L22.8388 13.7822L21.6068 10.6679ZM19.2169 15.0944L20.212 12.5789L21.2071 15.0944L21.4351 15.671L22.053 15.7231L24.5749 15.9357L22.619 17.6973L22.1833 18.0897L22.313 18.6616L22.919 21.3326L20.7524 19.9412L20.212 19.5941L19.6716 19.9412L17.505 21.3326L18.111 18.6616L18.2407 18.0897L17.805 17.6973L15.8491 15.9357L18.3711 15.7231L18.9889 15.671L19.2169 15.0944Z" fill="black"/>
</svg>
