<svg width="34" height="34" viewBox="0 0 34 34" fill="none" xmlns="http://www.w3.org/2000/svg">
<path fill-rule="evenodd" clip-rule="evenodd" d="M6.79999 5.95C6.33055 5.95 5.94999 6.33056 5.94999 6.8V12.75H4.24999V6.8C4.24999 5.39167 5.39166 4.25 6.79999 4.25H13.6V5.95H6.79999ZM27.2 5.95C27.6694 5.95 28.05 6.33056 28.05 6.8V12.75H29.75V6.8C29.75 5.39167 28.6083 4.25 27.2 4.25H20.4V5.95H27.2ZM5.94999 27.2C5.94999 27.6694 6.33055 28.05 6.79999 28.05H13.6V29.75H6.79999C5.39166 29.75 4.24999 28.6083 4.24999 27.2V21.25H5.94999V27.2ZM27.2 28.05C27.6694 28.05 28.05 27.6694 28.05 27.2V21.25H29.75V27.2C29.75 28.6083 28.6083 29.75 27.2 29.75H20.4V28.05H27.2ZM2.54999 17.425C2.54999 17.6597 2.74027 17.85 2.97499 17.85H31.025C31.2597 17.85 31.45 17.6597 31.45 17.425V16.575C31.45 16.3403 31.2597 16.15 31.025 16.15H2.97499C2.74027 16.15 2.54999 16.3403 2.54999 16.575V17.425Z" fill="#F4DD8A"/>
</svg>
