<svg width="30" height="30" viewBox="0 0 30 30" fill="none" xmlns="http://www.w3.org/2000/svg">
<path fill-rule="evenodd" clip-rule="evenodd" d="M11.7455 3.23091C11.8722 2.59735 12.4285 2.1413 13.0746 2.1413H16.9254C17.5715 2.1413 18.1278 2.59735 18.2545 3.23091L18.6524 5.22016C18.883 5.30633 19.1097 5.4004 19.3323 5.50206L21.0202 4.3768C21.5578 4.01841 22.2736 4.08929 22.7305 4.54616L25.4534 7.26909C25.9103 7.72596 25.9811 8.44179 25.6227 8.97939L24.4976 10.6671C24.5994 10.8898 24.6936 11.1168 24.7798 11.3476L26.7691 11.7455C27.4026 11.8722 27.8587 12.4285 27.8587 13.0746V16.9254C27.8587 17.5715 27.4026 18.1278 26.7691 18.2545L24.7798 18.6524C24.6936 18.8831 24.5995 19.11 24.4978 19.3326L25.6232 21.0208C25.9816 21.5584 25.9107 22.2742 25.4538 22.7311L22.7309 25.454C22.274 25.9109 21.5582 25.9817 21.0206 25.6233L19.3324 24.4979C19.1098 24.5996 18.883 24.6937 18.6524 24.7798L18.2545 26.7691C18.1278 27.4027 17.5715 27.8587 16.9254 27.8587H13.0746C12.4285 27.8587 11.8722 27.4027 11.7455 26.7691L11.3476 24.7798C11.1168 24.6936 10.8899 24.5995 10.6672 24.4977L8.97873 25.6234C8.44113 25.9818 7.7253 25.9109 7.26843 25.454L4.5455 22.7311C4.08863 22.2742 4.01775 21.5584 4.37614 21.0208L5.50196 19.3321C5.40034 19.1096 5.30629 18.8829 5.22015 18.6524L3.23089 18.2545C2.59733 18.1278 2.14128 17.5715 2.14128 16.9254V13.0746C2.14128 12.4285 2.59733 11.8722 3.23089 11.7455L5.22015 11.3476C5.30633 11.117 5.40043 10.8902 5.50211 10.6676L4.37659 8.97933C4.0182 8.44173 4.08908 7.7259 4.54595 7.26903L7.26888 4.5461C7.72575 4.08923 8.44158 4.01835 8.97918 4.37675L10.6674 5.50221C10.89 5.4005 11.1169 5.30637 11.3476 5.22016L11.7455 3.23091ZM13.1931 3.6413L12.6485 6.36417L12.2313 6.49998C11.7874 6.64447 11.3587 6.82281 10.9482 7.032L10.557 7.23137L8.24574 5.69056L5.69041 8.24589L7.23125 10.5571L7.0319 10.9484C6.82275 11.3588 6.64444 11.7874 6.49997 12.2313L6.36416 12.6485L3.64128 13.1931L3.64128 16.8069L6.36416 17.3515L6.49997 17.7687C6.6444 18.2125 6.82266 18.641 7.03175 19.0514L7.23108 19.4426L5.68996 21.7543L8.24529 24.3096L10.5568 22.7686L10.948 22.9679C11.3586 23.1772 11.7873 23.3555 12.2313 23.5L12.6485 23.6358L13.1931 26.3587H16.8069L17.3515 23.6358L17.7687 23.5C18.2125 23.3556 18.6412 23.1772 19.0516 22.9681L19.4429 22.7687L21.754 24.3095L24.3094 21.7542L22.7686 19.4431L22.968 19.0518C23.1772 18.6413 23.3555 18.2126 23.5 17.7687L23.6358 17.3515L26.3587 16.8069V13.1931L23.6358 12.6485L23.5 12.2313C23.3555 11.7873 23.1771 11.3585 22.9678 10.9479L22.7684 10.5567L24.3089 8.24595L21.7536 5.69062L19.4427 7.2312L19.0515 7.03185C18.6411 6.82273 18.2125 6.64444 17.7687 6.49998L17.3515 6.36417L16.8069 3.6413H13.1931ZM15 12C13.3431 12 12 13.3431 12 15C12 16.6569 13.3431 18 15 18C16.6569 18 18 16.6569 18 15C18 13.3431 16.6569 12 15 12ZM10.5 15C10.5 12.5147 12.5147 10.5 15 10.5C17.4853 10.5 19.5 12.5147 19.5 15C19.5 17.4853 17.4853 19.5 15 19.5C12.5147 19.5 10.5 17.4853 10.5 15ZM9.15308 15C9.15308 11.8019 11.7456 9.20937 14.9437 9.20937C18.1418 9.20937 20.7343 11.8019 20.7343 15C20.7343 18.1981 18.1418 20.7906 14.9437 20.7906C11.7456 20.7906 9.15308 18.1981 9.15308 15ZM14.9437 7.70937C10.9172 7.70937 7.65308 10.9735 7.65308 15C7.65308 19.0265 10.9172 22.2906 14.9437 22.2906C18.9702 22.2906 22.2343 19.0265 22.2343 15C22.2343 10.9735 18.9702 7.70937 14.9437 7.70937Z" fill="black"/>
</svg>
