<svg width="66" height="66" viewBox="0 0 66 66" fill="none" xmlns="http://www.w3.org/2000/svg">
<path fill-rule="evenodd" clip-rule="evenodd" d="M5.92365 8.45198C5.92365 6.62944 7.40114 5.15198 9.22365 5.15198H56.7765C58.599 5.15198 60.0765 6.62944 60.0765 8.45198V35.4386C60.0765 36.0027 59.9349 36.5337 59.6854 36.9981C59.9631 37.4446 60.1374 37.9634 60.1742 38.5222L61.4102 57.3318C61.5353 59.2353 60.025 60.8481 58.1173 60.8481H7.88263C5.97491 60.8481 4.4646 59.2353 4.58978 57.3317L5.82577 38.5222C5.86252 37.9633 6.03695 37.4445 6.3146 36.9979C6.06515 36.5335 5.92365 36.0026 5.92365 35.4386V8.45198ZM56.7765 8.45198V35.4386H53.3262C53.3262 34.5273 52.5875 33.7886 51.6762 33.7886H14.3238C13.4125 33.7886 12.6738 34.5273 12.6738 35.4386H9.22365V8.45198H56.7765ZM9.11872 38.7386H9.22365H56.7765H56.8812L58.1173 57.5481H7.88263L9.11872 38.7386ZM12.7875 41.6736C12.3319 41.6736 11.9625 42.043 11.9625 42.4986V44.1486C11.9625 44.6043 12.3319 44.9736 12.7875 44.9736H16.0875C16.5431 44.9736 16.9125 44.6043 16.9125 44.1486V42.4986C16.9125 42.043 16.5431 41.6736 16.0875 41.6736H12.7875ZM19.3875 42.4986C19.3875 42.043 19.7569 41.6736 20.2125 41.6736H23.5125C23.9681 41.6736 24.3375 42.043 24.3375 42.4986V44.1486C24.3375 44.6043 23.9681 44.9736 23.5125 44.9736H20.2125C19.7569 44.9736 19.3875 44.6043 19.3875 44.1486V42.4986ZM27.6375 41.6736C27.1819 41.6736 26.8125 42.043 26.8125 42.4986V44.1486C26.8125 44.6043 27.1819 44.9736 27.6375 44.9736H30.9375C31.3931 44.9736 31.7625 44.6043 31.7625 44.1486V42.4986C31.7625 42.043 31.3931 41.6736 30.9375 41.6736H27.6375ZM34.2375 42.4986C34.2375 42.043 34.6069 41.6736 35.0625 41.6736H38.3625C38.8181 41.6736 39.1875 42.043 39.1875 42.4986V44.1486C39.1875 44.6043 38.8181 44.9736 38.3625 44.9736H35.0625C34.6069 44.9736 34.2375 44.6043 34.2375 44.1486V42.4986ZM42.4875 41.6736C42.0319 41.6736 41.6625 42.043 41.6625 42.4986V44.1486C41.6625 44.6043 42.0319 44.9736 42.4875 44.9736H45.7875C46.2431 44.9736 46.6125 44.6043 46.6125 44.1486V42.4986C46.6125 42.043 46.2431 41.6736 45.7875 41.6736H42.4875ZM49.0875 42.4986C49.0875 42.043 49.4569 41.6736 49.9125 41.6736H53.2125C53.6681 41.6736 54.0375 42.043 54.0375 42.4986V44.1486C54.0375 44.6043 53.6681 44.9736 53.2125 44.9736H49.9125C49.4569 44.9736 49.0875 44.6043 49.0875 44.1486V42.4986ZM16.5 47.0515C16.0444 47.0515 15.675 47.4208 15.675 47.8765V49.5265C15.675 49.9821 16.0444 50.3515 16.5 50.3515H19.8C20.2556 50.3515 20.625 49.9821 20.625 49.5265V47.8765C20.625 47.4208 20.2556 47.0515 19.8 47.0515H16.5ZM23.1 47.8765C23.1 47.4208 23.4694 47.0515 23.925 47.0515H27.225C27.6806 47.0515 28.05 47.4208 28.05 47.8765V49.5265C28.05 49.9821 27.6806 50.3515 27.225 50.3515H23.925C23.4694 50.3515 23.1 49.9821 23.1 49.5265V47.8765ZM31.35 47.0515C30.8944 47.0515 30.525 47.4208 30.525 47.8765V49.5265C30.525 49.9821 30.8944 50.3515 31.35 50.3515H34.65C35.1056 50.3515 35.475 49.9821 35.475 49.5265V47.8765C35.475 47.4208 35.1056 47.0515 34.65 47.0515H31.35ZM25.6193 53.3858C25.6193 52.9302 25.9887 52.5608 26.4443 52.5608H39.5555C40.0112 52.5608 40.3805 52.9302 40.3805 53.3858V55.0358C40.3805 55.4915 40.0112 55.8608 39.5555 55.8608H26.4443C25.9887 55.8608 25.6193 55.4915 25.6193 55.0358V53.3858ZM38.775 47.0515C38.3194 47.0515 37.95 47.4208 37.95 47.8765V49.5265C37.95 49.9821 38.3194 50.3515 38.775 50.3515H42.075C42.5306 50.3515 42.9 49.9821 42.9 49.5265V47.8765C42.9 47.4208 42.5306 47.0515 42.075 47.0515H38.775ZM45.375 47.8765C45.375 47.4208 45.7444 47.0515 46.2 47.0515H49.5C49.9556 47.0515 50.325 47.4208 50.325 47.8765V49.5265C50.325 49.9821 49.9556 50.3515 49.5 50.3515H46.2C45.7444 50.3515 45.375 49.9821 45.375 49.5265V47.8765Z" fill="black"/>
</svg>
