<svg width="36" height="36" viewBox="0 0 36 36" fill="none" xmlns="http://www.w3.org/2000/svg">
<circle cx="18" cy="18" r="18" fill="black"/>
<path fill-rule="evenodd" clip-rule="evenodd" d="M17.3454 9.475C17.0417 9.475 16.7954 9.72124 16.7954 10.025V10.1847H19.2046V10.025C19.2046 9.72124 18.9584 9.475 18.6546 9.475H17.3454ZM15.6954 10.025V10.1847H11.8287C10.9174 10.1847 10.1787 10.9234 10.1787 11.8347V12.5976C10.1787 13.1224 10.5462 13.5614 11.038 13.6712L11.5576 26.0442C11.5947 26.9278 12.3218 27.625 13.2061 27.625H22.7939C23.6783 27.625 24.4054 26.9278 24.4425 26.0442L24.9621 13.6712C25.4538 13.5614 25.8213 13.1224 25.8213 12.5976V11.8347C25.8213 10.9234 25.0826 10.1847 24.1713 10.1847H20.3046V10.025C20.3046 9.11373 19.5659 8.375 18.6546 8.375H17.3454C16.4341 8.375 15.6954 9.11373 15.6954 10.025ZM24.7213 12.5976L24.4336 12.5976H11.5665H11.2787V11.8347C11.2787 11.5309 11.525 11.2847 11.8287 11.2847H24.1713C24.4751 11.2847 24.7213 11.5309 24.7213 11.8347V12.5976ZM12.1401 13.6976L12.6566 25.9981C12.669 26.2926 12.9113 26.525 13.2061 26.525H22.7939C23.0887 26.525 23.3311 26.2926 23.3434 25.9981L23.86 13.6976H12.1401ZM15.2019 16.3051C15.2019 16.0014 14.9556 15.7551 14.6519 15.7551C14.3481 15.7551 14.1019 16.0014 14.1019 16.3051V23.5438C14.1019 23.8476 14.3481 24.0938 14.6519 24.0938C14.9556 24.0938 15.2019 23.8476 15.2019 23.5438V16.3051ZM18.55 16.3051C18.55 16.0014 18.3038 15.7551 18 15.7551C17.6963 15.7551 17.45 16.0014 17.45 16.3051V23.5438C17.45 23.8476 17.6963 24.0938 18 24.0938C18.3038 24.0938 18.55 23.8476 18.55 23.5438V16.3051ZM21.3482 15.7551C21.6519 15.7551 21.8982 16.0014 21.8982 16.3051V23.5438C21.8982 23.8476 21.6519 24.0938 21.3482 24.0938C21.0444 24.0938 20.7982 23.8476 20.7982 23.5438V16.3051C20.7982 16.0014 21.0444 15.7551 21.3482 15.7551Z" fill="#F5E8B7"/>
</svg>
