<svg width="65" height="66" viewBox="0 0 65 66" fill="none" xmlns="http://www.w3.org/2000/svg">
<path fill-rule="evenodd" clip-rule="evenodd" d="M47.8524 11.9192C49.6539 10.0121 52.227 9.06492 54.8136 9.35674C55.3248 9.41442 55.7284 9.82418 55.7852 10.3433C56.0726 12.9697 55.1398 15.5823 53.2616 17.4116L43.6924 26.7314L42.9954 27.4102L43.2495 28.3563L49.8464 52.9169L46.5694 56.2443L35.9051 38.8884L40.4475 34.4644C41.0952 33.8336 41.1166 32.7891 40.4954 32.1315C39.8741 31.4738 38.8454 31.452 38.1977 32.0828L32.7031 37.4343L23.1044 46.7829L22.3626 47.5054L22.6876 48.4955L24.677 54.5554L22.8627 56.3976L18.2989 49.4464L22.8651 44.81C23.4997 44.1656 23.4997 43.1209 22.8651 42.4765C22.2305 41.8322 21.2016 41.8322 20.567 42.4765L15.9404 47.1742L9.45687 42.7853L11.2711 40.9431L17.2397 42.9632L18.2148 43.2933L18.9263 42.5401L28.1332 32.7937L33.4037 27.2144C34.025 26.5568 34.0035 25.5123 33.3559 24.8815C32.7082 24.2506 31.6795 24.2724 31.0583 24.9301L26.7011 29.5425L9.60718 18.7134L12.8841 15.386L37.0739 22.0848L38.0057 22.3428L38.6742 21.6351L47.8524 11.9192ZM13.5968 49.5539L7.13184 45.1775C5.69558 44.2053 5.49437 42.1419 6.71496 40.9025L9.19791 38.3813L10.347 39.5481L9.19792 38.3813C9.93055 37.6374 11.0142 37.3777 11.9972 37.7103L11.4833 39.2757L11.9972 37.7103L17.2923 39.5026L24.4025 31.9758L7.33764 21.1653C5.84441 20.2193 5.60683 18.1084 6.85134 16.8447L10.7972 12.8382C11.4913 12.1334 12.5041 11.8603 13.4512 12.1226L22.1084 14.5199L25.3253 11.2535C26.5945 9.96481 28.6523 9.96481 29.9215 11.2535L31.7584 13.1188C32.8787 14.2563 33.0102 16.0176 32.1528 17.3015L36.9973 18.643L45.5069 9.63482C48.0083 6.98682 51.581 5.67173 55.1725 6.07693C57.1945 6.30505 58.7906 7.92576 59.0153 9.97883C59.4143 13.6256 58.1192 17.2532 55.5113 19.7931L46.6391 28.4341L48.0738 33.7757C49.349 32.765 51.1957 32.8552 52.3688 34.0463L54.2058 35.9115C55.475 37.2003 55.475 39.2897 54.2058 40.5784L50.8235 44.0128L53.0604 52.3412C53.3187 53.3028 53.0497 54.3312 52.3556 55.036L48.4098 59.0425C47.1653 60.3062 45.0864 60.065 44.1547 58.5488L33.5086 41.2225L26.0959 48.442L27.8608 53.8182C28.1884 54.8162 27.9326 55.9166 27.2 56.6605L24.717 59.1817C23.4964 60.421 21.4642 60.2167 20.5067 58.7583L15.9552 51.8261L15.1857 52.6075C14.5511 53.2519 13.5222 53.2519 12.8876 52.6075C12.253 51.9631 12.253 50.9184 12.8876 50.2741L13.5968 49.5539ZM49.8386 40.3459L51.9077 38.245L50.0707 36.3798L49.0513 37.4149L49.8386 40.3459ZM28.6063 16.3194L25.7197 15.52L27.6234 13.587L29.4603 15.4522L28.6063 16.3194Z" fill="black"/>
</svg>
