<svg width="27" height="28" viewBox="0 0 27 28" fill="none" xmlns="http://www.w3.org/2000/svg">
<path fill-rule="evenodd" clip-rule="evenodd" d="M11.0645 3.13346C12.5322 2.25299 14.3382 2.24645 15.8905 3.17767C16.7427 3.68885 16.9873 4.65448 16.9873 6.22709V6.31112C16.1045 6.35134 15.2322 6.0391 14.2675 5.35917L13.8325 5.0526L13.4126 5.38106L12.1771 6.34762C11.5579 6.21086 11.1725 6.06282 10.862 5.85456C10.589 5.67142 10.3359 5.41614 10.0321 4.99579C10.1575 4.10773 10.4609 3.49552 11.0645 3.13346ZM13.89 6.91507C14.8878 7.53235 15.9083 7.87025 16.9873 7.83535V10.5083C16.9873 11.4801 16.5844 12.4757 15.9227 13.2299C15.2619 13.9831 14.393 14.4416 13.5 14.4416C12.605 14.4416 11.7212 13.9813 11.0464 13.2251C10.371 12.4684 9.95935 11.474 9.95935 10.5083V7.05993C9.99393 7.08489 10.029 7.1093 10.0646 7.13316C10.6689 7.53853 11.3575 7.74262 12.2227 7.90932L12.5407 7.9706L12.799 7.76858L13.89 6.91507ZM8.491 6.22709C8.491 5.95877 8.49727 5.68321 8.51542 5.40582L8.51377 5.40327L8.51567 5.40196C8.60576 4.03355 8.98563 2.62139 10.3292 1.81537C12.2627 0.655531 14.6296 0.662077 16.6258 1.85958C18.2416 2.82888 18.4557 4.63038 18.4557 6.22709V7.74056C19.0389 7.94218 19.4594 8.5129 19.4594 9.18547V9.86155C19.4594 10.5587 19.0076 11.1464 18.3911 11.3271C18.219 12.4217 17.7141 13.4508 17.0088 14.2547C16.9499 14.3218 16.8893 14.3877 16.8272 14.452V15.9L22.5215 17.6842C24.4715 18.2953 25.8894 20.043 26.1363 22.1399L26.5131 25.3393C26.62 26.2468 25.9372 27.0467 25.0556 27.0467H1.94436C1.06281 27.0467 0.379962 26.2468 0.486838 25.3393L0.862596 22.1489C1.11019 20.0466 2.53456 18.2959 4.49112 17.689L10.1211 15.9425V14.4236C10.0692 14.3699 10.0184 14.3151 9.96876 14.2595C9.24868 13.4526 8.72821 12.4156 8.5543 11.3099C7.9658 11.1115 7.54042 10.538 7.54042 9.86155V9.18547C7.54042 8.53349 7.93554 7.97722 8.491 7.76011V6.22709ZM11.5894 16.226V15.5067C12.177 15.7959 12.8228 15.9643 13.5 15.9643C14.1603 15.9643 14.7877 15.8042 15.3589 15.5281V16.1826C15.3589 16.6861 15.6769 17.1302 16.1416 17.2759L16.4408 17.3696C16.3799 17.4313 16.3161 17.4935 16.2493 17.5556C15.5566 18.2007 14.6113 18.7836 13.4671 18.779C12.3341 18.7745 11.4056 18.1923 10.7279 17.5513C10.6723 17.4986 10.6187 17.4459 10.5672 17.3935L10.8038 17.3202C11.27 17.1755 11.5894 16.7307 11.5894 16.226ZM9.00421 17.8784L4.91191 19.1478C3.51437 19.5814 2.49697 20.8319 2.32012 22.3335L1.94436 25.5239H5.1208V23.0288C5.1208 22.6083 5.4495 22.2675 5.85497 22.2675C6.26044 22.2675 6.58915 22.6083 6.58915 23.0288V25.5239H20.4109V23.0288C20.4109 22.6083 20.7396 22.2675 21.1451 22.2675C21.5505 22.2675 21.8792 22.6083 21.8792 23.0288V25.5239H25.0556L24.6788 22.3245C24.5024 20.8267 23.4896 19.5783 22.0968 19.1419L18.0027 17.859C17.8003 18.1091 17.5419 18.3986 17.2304 18.6886C16.3925 19.4688 15.1093 20.3083 13.4614 20.3017C11.826 20.2952 10.5616 19.455 9.7384 18.6763C9.44419 18.398 9.19876 18.1207 9.00421 17.8784Z" fill="black"/>
</svg>
