<svg width="18" height="18" viewBox="0 0 18 18" fill="none" xmlns="http://www.w3.org/2000/svg">
<g clip-path="url(#clip0)">
<path d="M10.7643 3.71924C10.6652 3.61979 10.5462 3.52035 10.4471 3.4209C10.2092 3.65957 9.95151 3.87836 9.71362 4.11703C9.83257 4.21648 9.97133 4.31593 10.0903 4.41537C10.3282 4.19659 10.5462 3.9778 10.7643 3.71924Z" stroke="#F5E8B7" stroke-width="0.2"/>
<path d="M3.31061 12.6098C4.32162 11.6153 5.21369 10.5015 6.18506 9.46728C7.27537 8.2938 8.42515 7.17999 9.5551 6.04629C9.23792 5.76784 8.90092 5.48938 8.58374 5.19104C7.43396 6.30485 6.32383 7.45844 5.21369 8.61203C4.08374 9.8054 2.75555 11.0187 1.78418 12.3711C2.12118 12.4109 2.43836 12.4706 2.77537 12.5303C2.91414 12.5502 3.15202 12.57 3.31061 12.6098Z" stroke="#F5E8B7" stroke-width="0.2"/>
<path d="M4.87677 14.8773C4.46047 14.9171 4.02435 14.8972 3.60805 14.8972C3.46928 14.8972 3.38999 14.7978 3.38999 14.6784C3.35034 14.3204 3.31069 13.9425 3.25122 13.5845C3.2314 13.3458 3.07281 13.0077 3.2314 13.0475C2.8151 12.8287 2.08162 12.8287 1.60585 12.7889C1.38779 13.3458 1.28867 13.9823 1.1499 14.5392C1.11025 14.6983 1.07061 14.8574 1.05078 15.0166C1.76444 15.5934 2.51774 16.3492 2.99351 16.9657C3.78646 16.8265 4.55959 16.6674 5.33272 16.4685C5.39219 16.4486 5.43184 16.4486 5.49131 16.4287C5.47148 16.011 5.43184 15.6132 5.39219 15.1956C5.31289 14.7381 5.33272 14.8376 4.87677 14.8773Z" stroke="#F5E8B7" stroke-width="0.2"/>
<path d="M12.5485 5.4696C12.3502 5.68839 12.1322 5.88728 11.8943 6.06629C12.0331 6.20552 12.1718 6.34474 12.3106 6.50386C12.5287 6.32485 12.7269 6.10607 12.9251 5.88728C12.8062 5.74806 12.6872 5.62872 12.5683 5.48949C12.5683 5.48949 12.5683 5.4696 12.5485 5.4696Z" stroke="#F5E8B7" stroke-width="0.2"/>
<path d="M10.4275 4.71373C10.5861 4.83306 10.7248 4.97229 10.8636 5.11152C11.0619 4.89273 11.2799 4.67395 11.498 4.45516C11.3592 4.31594 11.2204 4.17671 11.0619 4.05737C10.8834 4.27616 10.6654 4.49494 10.4275 4.71373Z" stroke="#F5E8B7" stroke-width="0.2"/>
<path d="M13.064 7.25959C13.2424 7.0408 13.4407 6.84191 13.6389 6.64301C13.5001 6.50379 13.3812 6.36456 13.2424 6.20544C13.064 6.42423 12.8658 6.62312 12.6477 6.80213C12.7865 6.96125 12.9252 7.12036 13.064 7.25959Z" stroke="#F5E8B7" stroke-width="0.2"/>
<path d="M11.2205 5.39001C11.3394 5.50934 11.4583 5.62868 11.5971 5.74802C11.835 5.56901 12.0531 5.35023 12.2513 5.15133C12.1125 5.0121 11.9936 4.87288 11.8548 4.75354C11.6169 4.95244 11.4187 5.17122 11.2205 5.39001Z" stroke="#F5E8B7" stroke-width="0.2"/>
<path d="M13.3811 7.59778C13.5397 7.7569 13.6785 7.89613 13.8371 8.05524C14.0353 7.85635 14.2533 7.65745 14.4714 7.45856C14.293 7.29944 14.1146 7.16021 13.956 7.0011C13.7578 7.1801 13.5595 7.379 13.3811 7.59778Z" stroke="#F5E8B7" stroke-width="0.2"/>
<path d="M15.0663 0.616492C13.7183 0.238591 12.5883 1.45185 11.6962 2.26732C11.6764 2.28721 11.6368 2.32699 11.6169 2.34688C12.9451 3.65959 14.2733 4.99218 15.5619 6.34467C16.1962 5.68831 16.7513 4.99218 17.1478 4.23638C17.6632 3.22202 17.3262 2.56566 16.6522 1.80986C16.2161 1.3524 15.7006 0.795497 15.0663 0.616492Z" stroke="#F5E8B7" stroke-width="0.2"/>
<path d="M11.1609 2.76453C11.0221 2.88386 10.9032 3.0032 10.7644 3.12254C11.4979 3.79878 12.2115 4.45513 12.8856 5.17116C13.5199 5.8474 14.075 6.54353 14.7688 7.12033C14.8878 7.00099 15.0067 6.88165 15.1256 6.76232C13.8371 5.42972 12.5089 4.07723 11.1609 2.76453Z" stroke="#F5E8B7" stroke-width="0.2"/>
<path d="M5.74902 14.7978C5.82832 15.2751 5.86797 15.7326 5.88779 16.2099C6.40321 15.8718 6.81951 15.3149 7.23581 14.8575C7.94946 14.1215 8.6433 13.3856 9.35695 12.6298C10.4869 11.4564 11.6169 10.2829 12.7468 9.10939C12.4891 8.81105 12.2116 8.51271 11.934 8.23425C9.95167 10.4818 7.88999 12.6895 5.74902 14.7978Z" stroke="#F5E8B7" stroke-width="0.2"/>
<path d="M9.37685 4.4353C9.2579 4.55464 9.13896 4.65409 9.02002 4.77342C10.4473 6.02646 11.9143 7.25961 13.183 8.67177C13.2425 8.6121 13.302 8.55243 13.3614 8.49276C13.4011 8.43309 13.4605 8.39331 13.52 8.33365C12.1918 7.02094 10.9033 5.54911 9.37685 4.4353Z" stroke="#F5E8B7" stroke-width="0.2"/>
<path d="M9.91207 6.34473C8.78211 7.49832 7.61251 8.61213 6.5222 9.78561C5.53101 10.8199 4.65877 11.9337 3.62793 12.9282C3.78652 13.3259 3.78652 14.0221 3.80634 14.4596C4.38123 14.4398 4.9363 14.4398 5.51119 14.4C7.63233 12.3116 9.65436 10.1436 11.6367 7.93589C11.0817 7.37898 10.487 6.86185 9.91207 6.34473Z" stroke="#F5E8B7" stroke-width="0.2"/>
<path d="M16.6121 0.955231C15.6209 0.00053489 14.6694 -0.258029 13.3809 0.278988C12.2311 0.756336 11.339 1.79059 10.4469 2.60606C9.09892 3.83921 7.79055 5.13203 6.502 6.44473C5.27292 7.71766 4.04385 9.01048 2.85442 10.3232C2.31918 10.9 1.72447 11.4967 1.26852 12.1331C1.24869 12.153 1.22887 12.1729 1.22887 12.1928C1.20905 12.2127 1.18922 12.2525 1.18922 12.2724C0.852218 12.9287 0.713452 13.7044 0.554861 14.4005C0.316976 15.4945 0.098914 16.5884 -0.000205011 17.7022C-0.0200288 17.921 0.198033 18.0204 0.376447 17.9806C2.12094 17.7022 3.82579 17.3243 5.57028 17.0061C6.28394 16.8867 6.5813 16.3895 7.07689 15.8724C7.90949 15.0171 8.72227 14.142 9.55486 13.2867C11.0813 11.6757 12.6077 10.0845 14.1738 8.51324C15.4624 7.22042 17.2663 5.80827 17.8809 4.01821C18.317 2.7254 17.5439 1.81048 16.6121 0.955231ZM12.3302 6.5044C12.1914 6.36518 12.0527 6.22595 11.9139 6.06683C12.1518 5.88783 12.3698 5.68893 12.5681 5.47015L12.5879 5.49004C12.7068 5.62926 12.8258 5.7486 12.9447 5.88783C12.7465 6.10661 12.5483 6.30551 12.3302 6.5044ZM13.2421 6.22595C13.3809 6.36518 13.4998 6.52429 13.6386 6.66352C13.4403 6.86241 13.2421 7.06131 13.0637 7.28009C12.9249 7.14087 12.7663 6.98175 12.6276 6.84252C12.8456 6.64363 13.0439 6.44473 13.2421 6.22595ZM11.5769 5.7486C11.4579 5.62926 11.339 5.50993 11.2002 5.39059C11.3985 5.17181 11.6165 4.95302 11.8346 4.73424C11.9734 4.87346 12.1121 4.9928 12.2311 5.13203C12.0328 5.3707 11.8148 5.5696 11.5769 5.7486ZM10.8831 5.09225C10.7443 4.95302 10.5857 4.83368 10.4469 4.69446C10.6848 4.47567 10.9029 4.25689 11.1011 4.01821C11.2399 4.15744 11.3985 4.29667 11.5372 4.416C11.2994 4.65468 11.0813 4.87346 10.8831 5.09225ZM10.4469 3.44142C10.5461 3.54087 10.665 3.64031 10.7641 3.73976C10.5461 3.97843 10.328 4.21711 10.0901 4.43589C9.97116 4.33645 9.8324 4.237 9.71345 4.13755C9.95134 3.89888 10.1892 3.6602 10.4469 3.44142ZM5.23328 8.61269C6.32359 7.4591 7.45354 6.30551 8.60332 5.19169C8.9205 5.47015 9.25751 5.7486 9.57469 6.04694C8.44473 7.18064 7.29495 8.29446 6.20464 9.46794C5.23328 10.5221 4.34121 11.616 3.33019 12.6105C3.15178 12.5508 2.93372 12.5508 2.81477 12.5309C2.49759 12.4713 2.16059 12.4315 1.82358 12.3718C2.77513 11.0193 4.10332 9.82595 5.23328 8.61269ZM2.04165 17.0856L0.693628 17.3641C0.634156 17.384 0.594509 17.3442 0.594509 17.2845L0.951337 15.8922C0.971161 15.8326 1.03063 15.8127 1.07028 15.8724L2.06147 16.9663C2.10112 17.0259 2.08129 17.0856 2.04165 17.0856ZM5.31257 16.469C4.53944 16.6679 3.76632 16.8271 2.97336 16.9663C2.49759 16.3696 1.76411 15.6138 1.03063 15.0171C1.07028 14.858 1.0901 14.6989 1.12975 14.5398C1.24869 13.9829 1.36764 13.3265 1.5857 12.7895C2.06147 12.8293 2.79495 12.8492 3.21125 13.048C3.05266 12.9884 3.21125 13.3464 3.23107 13.5851C3.27072 13.9431 3.31037 14.321 3.36984 14.679C3.38966 14.7983 3.46896 14.9177 3.5879 14.8978C4.0042 14.8779 4.44033 14.9177 4.85662 14.8779C5.31257 14.8381 5.29275 14.7387 5.35222 15.1961C5.39187 15.6138 5.43151 16.0116 5.45134 16.4293C5.41169 16.4492 5.37204 16.469 5.31257 16.469ZM5.51081 14.4005C4.93592 14.4403 4.38085 14.4403 3.80596 14.4602C3.78614 14.0226 3.78614 13.3464 3.62755 12.9287C4.63856 11.9342 5.53063 10.8204 6.502 9.78617C7.59231 8.61269 8.76191 7.47899 9.89187 6.34529C10.4866 6.86241 11.0615 7.37954 11.6165 7.93645C9.65398 10.1442 7.63196 12.3121 5.51081 14.4005ZM9.37645 12.6304C8.66279 13.3663 7.96896 14.1022 7.2553 14.858C6.81918 15.3154 6.4227 15.8724 5.90729 16.2105C5.86764 15.7331 5.82799 15.2558 5.76852 14.7983C7.90949 12.69 9.95134 10.4823 11.9734 8.25468C12.2509 8.53313 12.5284 8.83147 12.7861 9.12982C11.6364 10.2834 10.5064 11.4569 9.37645 12.6304ZM13.361 8.51324C13.3016 8.57291 13.2421 8.63258 13.1826 8.69225C11.9337 7.2602 10.4469 6.04694 9.01962 4.7939C9.13856 4.67457 9.25751 4.57512 9.37645 4.45578C10.8831 5.5696 12.1716 7.04142 13.4998 8.37401C13.4602 8.41379 13.4007 8.45357 13.361 8.51324ZM13.8368 8.05578C13.6782 7.89667 13.5394 7.75744 13.3809 7.59832C13.5593 7.37954 13.7575 7.18064 13.9557 6.98175C14.1143 7.14087 14.2928 7.29998 14.4712 7.43921C14.2531 7.6381 14.035 7.85689 13.8368 8.05578ZM14.7883 7.14087C14.0747 6.54418 13.5394 5.86794 12.9051 5.19169C12.2311 4.47567 11.5174 3.79943 10.7839 3.14308C10.9227 3.02374 11.0416 2.9044 11.1804 2.78506C12.5284 4.11766 13.8368 5.45026 15.1452 6.80274C15.0262 6.90219 14.9073 7.02153 14.7883 7.14087ZM17.1276 4.25689C16.7509 5.01269 16.176 5.70882 15.5417 6.36518C14.2333 5.01269 12.9249 3.68009 11.5967 2.36739C11.6165 2.3475 11.6562 2.30772 11.676 2.28783C12.5681 1.47236 13.698 0.259098 15.0461 0.636999C15.6804 0.816004 16.176 1.35302 16.6121 1.83037C17.3258 2.56628 17.643 3.22263 17.1276 4.25689Z" fill="#F5E8B7" stroke="#F5E8B7" stroke-width="0.2"/>
</g>
<defs>
<clipPath id="clip0">
<rect width="18" height="18" fill="white"/>
</clipPath>
</defs>
</svg>
