<svg width="289" height="276" viewBox="0 0 289 276" fill="none" xmlns="http://www.w3.org/2000/svg">
<path d="M172.154 33.5875C172.154 29.9277 169.246 26.952 165.654 26.952C162.063 26.952 159.155 29.9277 159.155 33.5875C159.155 37.2473 162.063 40.223 165.654 40.223C169.246 40.223 172.154 37.2473 172.154 33.5875ZM165.654 38.7522C162.85 38.7522 160.592 36.4264 160.592 33.5875C160.592 30.7486 162.85 28.4228 165.654 28.4228C168.459 28.4228 170.717 30.7486 170.717 33.5875C170.717 36.4606 168.459 38.7522 165.654 38.7522Z" fill="black"/>
<path d="M10.1548 90.2626C1.53489 97.2401 1.94536 99.1555 4.44239 103.568C5.1265 104.799 5.91324 106.201 6.59735 108.048L7.96559 107.535C7.24727 105.551 6.39213 104.047 5.70801 102.849C3.58724 99.0871 2.97154 97.9584 11.0783 91.3913C13.5754 89.3733 14.841 87.3553 14.9094 85.2005C15.0804 81.4723 11.7625 78.2572 8.27345 74.8368C4.75024 71.4165 1.0902 67.8593 1.46647 63.9601C1.74012 61.0528 4.13454 58.1455 8.78654 55.0672C15.183 50.7918 13.1991 46.0717 11.2836 41.5227C10.2916 39.1969 9.29963 36.7684 9.29963 34.34H7.82878C7.82878 37.0762 8.88914 39.6415 9.94953 42.1042C11.8651 46.6874 13.4043 50.313 7.99981 53.9044C2.93734 57.2563 0.337671 60.5398 0.0298181 63.8917C-0.380653 68.475 3.51882 72.2716 7.28147 75.9313C10.531 79.1122 13.6438 82.0879 13.4728 85.1662C13.3701 86.8422 12.2755 88.5182 10.1548 90.2626Z" fill="black"/>
<path d="M80.4481 227.35C80.0376 231.181 80.0034 236.448 80.0034 240.621V241.134C80.0034 243.597 80.0034 244.828 80.8243 245.58C81.3374 246.059 82.09 246.23 83.1846 246.23C83.5266 246.23 83.9029 246.23 84.3475 246.196C84.9632 246.162 85.8526 246.162 86.7762 246.162C88.1444 246.162 89.5468 246.162 90.3678 246.059C93.0358 245.683 93.7884 245.136 93.9936 243.289C93.9936 243.186 94.233 228.957 94.062 227.863C93.5147 224.785 91.7018 224.853 88.1444 224.921C87.8023 224.921 87.4603 224.921 87.1182 224.956C86.5367 224.956 85.9552 224.956 85.3737 224.921C83.1503 224.785 80.7217 224.682 80.4481 227.35Z" fill="black"/>
<path d="M90.1962 249.48C89.6489 249.48 88.9989 249.48 88.3148 249.446C84.1759 249.206 81.8157 249.582 80.6869 250.677C79.9002 251.464 79.8318 252.455 79.866 253.14C79.9686 255.978 79.9002 261.348 79.866 264.94C79.8318 266.753 79.8318 268.086 79.8318 268.497C79.8318 268.873 79.9686 269.249 80.2422 269.523C81.0632 270.344 82.9445 270.344 85.5441 270.344C86.1941 270.344 86.8782 270.344 87.5623 270.344H87.5965C88.007 270.344 88.4174 270.378 88.8279 270.378C91.496 270.378 94.2666 270.036 94.5061 267.026C94.7797 263.64 94.7455 256.389 94.5745 252.9C94.4035 249.514 92.4537 249.48 90.1962 249.48Z" fill="black"/>
<path d="M90.1961 67.4148C92.3511 73.0241 94.3008 78.1204 99.6027 84.0376L52.1935 92.8279L51.441 92.9647L52.2619 96.7271C43.1973 98.1636 34.338 102.063 27.8047 107.467C25.1367 109.69 22.9475 112.05 21.2714 114.513L7.28124 112.29L6.01562 118.138L18.3639 120.225C17.6114 122.448 17.2693 124.671 17.3378 126.894C17.4404 129.665 19.3217 130.315 20.5531 130.759C21.5793 131.136 21.8871 131.307 21.9213 131.751C22.195 134.83 24.4184 136.266 26.5049 136.335C27.4627 136.369 28.352 136.129 29.0703 135.685C29.0019 137.6 29.173 140.097 30.336 141.499C31.4306 142.799 32.8672 143.552 34.3038 143.552C34.6117 143.552 34.8853 143.517 35.159 143.449C36.1852 143.209 37.9981 142.354 39.1269 139.242H39.2295C39.2295 139.174 39.2295 139.002 39.2637 138.831C39.3321 138.626 39.4005 138.421 39.4347 138.216L39.3663 138.182C39.8794 135.48 41.5897 128.776 42.1028 127.852C43.1289 126.039 45.1471 125.082 46.4811 125.253C47.1652 125.321 47.6099 125.663 47.8151 126.313C47.8151 126.929 47.7125 130.862 45.0787 133.975C43.0263 136.403 43.3684 138.626 44.2919 139.789C44.9761 140.678 46.0364 141.123 47.1994 141.123C47.9862 141.123 48.8071 140.918 49.628 140.473C53.5959 138.387 54.8273 135.548 56.1271 132.504C56.9139 130.657 57.7348 128.776 59.2399 126.963L70.1173 124.979C67.7229 130.623 65.6363 136.54 63.9945 142.354C61.3948 151.589 55.0668 190.581 57.9058 198.003L58.0769 198.482H59.5477C59.2741 198.79 58.9662 199.132 58.6242 199.474C49.1834 209.769 43.1974 217.191 44.5998 220.03C44.9419 220.749 45.6944 221.125 46.7548 221.125C46.9258 221.125 47.0968 221.125 47.2678 221.091C52.775 220.578 58.5557 220.338 64.1655 220.407C61.7369 220.783 58.6926 221.877 58.4873 225.811C58.0427 233.917 58.1795 245.204 58.3163 256.149C58.3847 260.801 58.4189 265.213 58.4531 269.181V269.523C58.4531 272.601 58.4531 274.824 62.9341 274.995C64.9522 275.064 67.4493 275.098 70.1857 275.098C74.6667 275.098 79.7976 274.995 84.6548 274.824C96.5242 274.38 98.2345 273.832 98.5766 273.251C98.6108 273.217 98.645 273.182 98.6792 273.114C99.6027 271.541 99.5343 254.918 99.5001 247.872C99.4317 239.218 99.1238 224.066 98.4397 222.185C97.6872 220.133 94.1982 219.62 89.7172 219.688C90.1961 219.209 90.7434 218.525 91.3591 217.602C91.8722 216.884 92.6931 215.755 93.0694 215.516C93.3431 215.721 93.7193 216.781 93.9588 217.362C94.4719 218.731 94.9849 220.133 96.1822 220.099C111.027 219.586 111.198 218.867 111.37 218.115C111.575 217.294 112.567 203.134 112.84 198.893H113.182L112.943 189.076L122.384 190.547C120.947 213.84 119.476 244.486 121.187 249.001L121.358 249.48H131.825C131.722 249.548 131.654 249.651 131.551 249.719C120.16 259.775 112.84 267.128 114.106 270.138C114.448 270.959 115.337 271.404 116.74 271.404C116.911 271.404 117.116 271.404 117.321 271.37C125.907 270.72 134.937 270.515 143.455 270.788C144.789 270.822 156.282 270.822 168.117 270.583C169.177 270.549 170.272 269.352 171.503 267.949C172.153 267.197 173.385 265.829 173.829 265.795C174.206 265.795 174.753 266.992 175.095 267.71C175.711 269.044 176.326 270.446 177.626 270.378C195.755 269.865 195.995 269.181 196.2 268.428C196.508 267.436 198.115 248.111 198.115 247.975L198.081 247.461C198.184 245.991 198.252 243.289 198.184 238.363H203.52L208.24 270.104C207.214 270.925 206.017 271.917 205.778 272.191C206.53 272.088 212.619 272.43 212.55 272.191C213.234 272.191 214.124 272.225 214.979 272.259L215.355 272.327V272.293C216.826 272.327 218.126 272.362 218.092 272.225C218.023 271.951 216.552 270.48 215.766 269.66L220.11 240.074H264.338L269.913 269.728C269.092 270.583 267.724 271.951 267.656 272.225C267.587 272.464 273.676 272.122 274.429 272.225C274.155 271.917 272.445 270.515 271.384 269.694L259.446 206.349C262.662 204.536 265.467 202.176 267.827 199.235C273.916 191.641 276.755 180.867 278.704 171.325C283.083 150.05 287.906 118.754 288.179 111.811C288.556 102.439 279.662 93.3409 268.819 91.9728C260.37 90.9125 233.587 90.6388 223.291 91.4939C217.544 80.2752 211.25 72.1348 204.58 67.2779C198.902 63.1393 193.053 61.6344 187.956 62.9341C187.888 61.4633 187.751 60.061 187.58 58.7271C187.135 55.1699 186.793 50.0736 186.554 45.1825C186.793 45.251 187.033 45.2509 187.683 45.2509C190.248 45.2509 192.472 38.6497 195.242 28.0124C195.516 26.9521 195.721 26.1312 195.858 25.6524C197.397 20.385 196.85 13.0313 191.958 9.30316C186.007 4.75411 167.98 -2.15499 161.173 0.649685C154.469 3.38596 153.614 7.42195 153.682 9.57677C153.819 12.9287 156.384 16.1438 160.079 17.683C158.984 18.9485 157.958 20.4193 156.966 22.0268C156.077 23.4976 155.256 25.0709 154.537 26.7127C153.614 26.1997 152.588 25.926 151.459 25.926C147.867 25.926 144.96 28.9017 144.96 32.5615C144.96 35.9818 147.525 38.7865 150.775 39.1627C150.056 42.9593 149.646 46.9611 149.577 51.0997C149.441 59.1717 159.702 60.5399 163.054 60.9845C163.191 61.0187 163.362 61.0187 163.499 61.0529C163.704 62.3868 164.218 64.4391 164.799 66.7649C165.552 69.7064 166.338 73.0241 166.817 75.7262C162.849 74.187 156.042 73.6056 143.694 75.8972L131.072 78.223C130.285 77.6416 129.499 76.9233 128.541 75.9656C127.002 74.3923 126.796 72.0322 126.591 69.5354C126.249 65.4994 125.873 61.0187 119.853 58.9323C119.784 58.5903 119.716 58.214 119.682 57.872L114.961 29.278L114.927 29.1753C114.893 29.0727 114.859 28.9359 114.824 28.7991C114.448 27.4994 113.559 24.4895 110.035 24.8999L94.6771 26.9521C92.7274 27.1915 91.4275 27.773 90.675 28.7649C89.512 30.3041 89.8883 32.5273 90.3329 35.0583C90.3671 35.3319 90.4356 35.6056 90.4698 35.8792L91.7354 44.4642C91.0513 44.7379 90.5382 45.2168 90.1619 45.8666C88.9989 47.9872 89.9567 51.7154 91.0171 54.7595C90.504 54.5543 90.0593 54.6227 89.7172 54.7595C87.6307 55.6488 87.4597 60.8819 89.3068 65.6704C89.7514 66.2176 89.9567 66.8333 90.1961 67.4148ZM90.4698 56.025C90.504 56.025 90.504 56.025 90.5382 56.025C90.846 56.025 91.667 56.5381 92.83 58.9323C93.3089 60.1978 93.9246 61.566 94.6429 63.0025C94.9507 63.6182 95.2928 64.268 95.6691 64.8837C95.7375 64.9863 95.7717 65.0889 95.8401 65.1915L96.661 66.8675L97.3794 68.3724L96.9689 67.1069C97.8582 68.5777 98.7818 70.0142 99.7395 71.3482C99.9106 71.5876 100.082 71.827 100.218 72.0664C100.389 72.3058 100.56 72.5453 100.732 72.7847C101.142 73.3661 101.552 73.9134 101.963 74.3922C102.066 74.7001 102.271 74.8711 102.613 74.9395L102.955 73.5371C103.092 73.5713 103.297 73.7082 103.331 73.9134C103.297 73.8108 103.229 73.674 103.092 73.5029C102.852 73.1951 102.613 72.8531 102.339 72.5453C102.168 72.34 102.031 72.1006 101.86 71.8954C101.689 71.6902 101.552 71.4507 101.381 71.2455C99.5343 68.6461 97.5504 65.4993 96.0453 62.5579C95.6691 61.8054 95.2928 61.0871 94.9849 60.4031C94.6771 59.719 94.4034 59.0349 94.164 58.3851C94.0956 58.1798 93.993 57.872 93.8219 57.4958C93.7535 57.359 93.7193 57.2221 93.6509 57.0511C92.6589 54.5885 90.3672 48.7739 91.5986 46.4823C91.7354 46.2428 91.9064 46.0376 92.1116 45.9008C92.3169 45.764 92.5221 45.6614 92.7958 45.6272H92.83C93.0694 45.593 93.3089 45.593 93.5483 45.6614C94.5061 46.0034 95.1902 47.44 95.9769 49.3553C96.3532 51.2365 99.5001 56.5039 102.921 61.9422C103.365 62.6605 103.776 63.3445 103.844 63.4471C103.844 63.4129 103.776 63.3104 103.776 63.1393H105.247C105.247 62.8999 105.247 62.8999 104.152 61.1555C102.852 59.0691 99.979 54.4858 98.4397 51.4759C98.4397 51.3733 98.4055 51.2707 98.3713 51.1339C97.0715 48.0898 96.6952 45.4904 97.482 44.6695C98.0635 44.0538 99.3975 44.3616 100.424 44.7379C101.245 45.0799 103.742 49.287 105.794 52.7073C108.496 57.2563 111.575 62.3868 114.038 64.9179C114.14 65.0205 114.277 65.2257 114.448 65.3968C114.824 65.8756 115.303 66.4913 115.953 66.7649C116.124 66.9017 116.261 66.8675 116.432 66.8333L119.305 66.3887L116.706 65.4651C115.474 64.3022 111.985 60.061 112.327 59.2059C112.327 59.2059 112.43 59.1375 112.84 59.1375C115.303 59.2401 117.253 59.5137 118.826 59.9926C119.1 60.061 119.374 60.1636 119.613 60.232C119.887 60.3347 120.16 60.4372 120.434 60.5398C124.812 62.421 125.086 65.944 125.394 69.6037C125.599 72.2374 125.839 74.9737 127.754 76.9233C128.37 77.5389 128.917 78.052 129.43 78.4966C129.67 78.7019 129.943 78.9071 130.183 79.1123C130.456 79.3175 130.73 79.5227 130.969 79.6937C131.893 80.3436 132.748 80.8225 133.706 81.3697C134.527 81.8486 135.348 82.2932 136.34 82.9431L125.052 105.039L109.899 91.3913L109.864 91.3571C106.923 89.0655 104.528 86.9791 102.544 84.9611C102.339 84.7559 102.134 84.5507 101.929 84.3455C101.723 84.1402 101.518 83.935 101.347 83.7298C95.7717 77.6758 93.7877 72.5452 91.5986 66.8675C91.3591 66.2518 91.1197 65.6704 90.8802 65.0547C88.9647 60.2662 89.683 56.367 90.4698 56.025ZM94.0956 33.827C93.5825 33.8612 93.1036 33.3139 93.0694 32.5957C93.0352 31.8774 93.4115 31.2617 93.9246 31.2275C94.4376 31.1933 94.9165 31.7406 94.9507 32.4589C95.0191 33.1771 94.6429 33.7928 94.0956 33.827ZM167.399 77.4705C167.843 77.6758 168.254 77.9152 168.596 78.1888C169.348 78.7019 169.896 79.2491 170.34 79.7964C170.819 80.412 171.195 80.9935 171.503 81.5065C172.153 82.6011 172.769 83.6271 174.103 83.6271C174.445 83.6271 174.753 83.6271 175.061 83.6271C175.916 83.5929 176.497 83.5929 177.353 83.7982C177.489 84.9953 177.729 86.5687 178.037 88.313C178.071 88.5867 178.139 88.8603 178.173 89.1339C178.208 89.4076 178.276 89.6469 178.31 89.9206C179.713 97.2743 182.141 107.364 183.681 112.871L137.332 81.9512C136.203 81.1987 135.211 80.6515 134.356 80.1384C133.877 79.8648 133.432 79.6253 132.988 79.3517L144.139 77.2995C157.376 74.8369 163.91 75.7262 167.399 77.4705ZM165.038 60.3346C164.97 59.719 164.525 59.6506 163.431 59.5137C160.386 59.1033 151.082 57.872 151.219 51.0997C151.288 46.8243 151.732 42.8225 152.451 39.1285C155.666 38.7181 158.163 35.9476 158.163 32.5615C158.163 30.5777 157.308 28.7991 155.94 27.602C157.582 23.8054 159.566 20.6245 161.755 18.1619C165.928 19.0853 175.198 21.5822 176.224 22.6425C176.532 24.2501 176.19 26.8153 175.813 29.5174C175.095 34.8189 174.377 40.3257 178.071 41.6254C178.858 41.899 179.713 42.3778 180.602 42.8909C182.073 43.746 183.612 44.6353 185.288 44.7721C185.528 49.8684 185.87 55.1699 186.314 58.8639C186.485 60.3347 186.622 61.8396 186.691 63.3445C179.747 65.944 175.847 73.674 177.113 82.1906C176.361 82.0538 175.745 82.088 175.027 82.088C174.753 82.088 174.445 82.088 174.103 82.088C173.624 82.088 173.35 81.7118 172.735 80.6857C171.982 79.4201 170.956 77.71 168.596 76.376C168.185 73.4345 167.228 69.6722 166.407 66.3202C165.757 63.7892 165.175 61.5317 165.038 60.3346ZM151.63 27.3625C152.553 27.3625 153.374 27.602 154.127 28.0466C154.332 28.1834 154.537 28.3203 154.742 28.4571C154.948 28.6281 155.153 28.7991 155.324 29.0043C156.179 29.9278 156.692 31.1591 156.692 32.5273C156.692 34.9899 155.016 37.0421 152.759 37.5552C152.519 37.6236 152.245 37.6578 151.972 37.6578C151.869 37.6578 151.767 37.6578 151.63 37.6578C151.493 37.6578 151.356 37.6578 151.219 37.6236C148.62 37.4183 146.567 35.1951 146.567 32.4589C146.567 29.6884 148.825 27.3625 151.63 27.3625ZM223.496 94.8801C223.77 95.4957 224.078 96.0772 224.386 96.6929C224.522 97.0007 224.659 97.2743 224.796 97.5821C224.933 97.89 225.07 98.1636 225.206 98.4714C230.953 110.579 236.939 124.056 242.241 136.095C244.977 142.32 247.611 148.203 249.732 152.923L223.667 152.889C227.019 143.483 223.633 127.613 221.307 116.702C220.828 114.513 220.418 112.461 220.076 110.716C219.973 110.237 219.905 109.827 219.836 109.382C219.768 108.903 219.665 108.425 219.631 108.014C219.597 107.706 219.563 107.399 219.528 107.125V107.091C218.126 98.7451 214.329 92.2806 208.24 87.9368C201.262 82.9773 192.745 81.7118 186.485 81.5407C186.212 81.5407 185.972 81.5407 185.699 81.5407C185.425 81.5407 185.186 81.5407 184.946 81.5407C181.936 81.5407 179.61 81.8144 178.516 81.9512C177.387 74.3581 180.739 67.4489 186.725 64.9179C186.964 64.8153 187.204 64.7127 187.443 64.6442C187.477 64.6442 187.512 64.6101 187.58 64.6101C187.785 64.5416 187.956 64.4732 188.162 64.439C197.055 61.908 210.772 68.6119 223.496 94.8801ZM196.713 247.359C196.679 247.632 196.679 247.872 196.645 248.077H157.718H156.248H133.501H122.418C121.084 242.536 122.452 213.669 123.855 190.855C123.855 190.615 123.889 190.376 123.889 190.137C123.889 189.897 123.923 189.658 123.923 189.418C124.641 177.687 125.326 167.802 125.633 163.834C126.146 157.164 127.549 149.879 129.601 142.525C129.704 142.183 129.806 141.841 129.909 141.465C130.012 141.123 130.114 140.781 130.217 140.439C131.859 134.966 133.877 129.46 136.203 124.158C136.306 123.919 136.408 123.714 136.511 123.474C136.613 123.235 136.716 123.029 136.819 122.79C137.537 121.217 138.255 119.678 139.008 118.173C139.316 117.557 139.624 116.907 139.966 116.291C140.273 115.676 140.581 115.094 140.923 114.513C141.402 113.624 141.881 112.734 142.394 111.879C146.328 105.004 151.288 101.618 157.137 101.892C169.554 102.439 182.757 118.822 187.785 129.733C188.401 131.033 191.206 137.121 193.942 142.765C196.781 148.648 198.321 151.555 199.21 152.992C199.415 153.299 199.552 153.539 199.689 153.71C200.065 154.223 200.305 154.36 200.51 154.36C200.578 154.36 200.612 154.36 200.681 154.36H201.297H202.083H221.512H222.333H223.154L250.45 154.394C250.45 154.428 250.45 154.428 250.485 154.462C254.452 165.921 253.016 177.96 246.722 185.964C239.436 195.199 226.267 199.029 208.617 197.08H198.355C198.389 196.191 198.355 194.651 198.218 191.813C197.944 185.588 197.466 173.993 199.586 171.769C199.792 171.53 199.963 171.53 200.099 171.53V170.059C199.518 170.059 198.971 170.299 198.526 170.777C196.2 173.206 196.371 182.167 196.781 191.881C196.884 194.309 196.987 196.84 196.884 197.456C196.645 197.867 196.474 198.961 196.439 202.245C196.439 202.484 196.439 202.723 196.439 202.963C196.439 203.202 196.439 203.442 196.439 203.681C196.439 207.478 196.508 213.566 196.679 223.314C196.747 227.795 196.85 232.686 196.884 236.995C196.884 237.474 196.884 237.987 196.884 238.466C196.85 242.399 196.85 245.683 196.713 247.359ZM117.253 156.651C117.253 156.651 117.219 156.651 117.253 156.651C115.953 156.651 115.132 158.635 114.038 162.295C113.969 162.534 113.901 162.808 113.867 162.876C112.977 165.065 112.293 175.224 111.541 187.4H111.472L111.712 197.046H61.2238H60.8476H59.1715C57.0165 189.247 62.6605 152.752 65.4653 142.765C67.1756 136.677 69.3648 130.52 71.896 124.671C71.9986 124.398 72.1355 124.124 72.2381 123.85C72.3407 123.577 72.4775 123.303 72.5801 123.029C74.3246 119.096 76.2402 115.334 78.2583 111.811C82.192 104.936 87.1518 101.55 93.001 101.823C100.458 102.165 108.223 108.219 114.311 115.368C114.482 115.573 114.688 115.778 114.859 116.018C115.03 116.223 115.201 116.462 115.372 116.668C118.895 121.046 121.802 125.697 123.615 129.665C124.128 130.794 126.352 135.548 128.712 140.473C126.352 148.477 124.778 156.412 124.231 163.629C124.197 163.937 123.376 174.984 122.521 189.111L113.011 187.605C113.559 178.644 114.345 165.579 115.235 163.39C115.269 163.287 115.337 163.082 115.474 162.671C116.364 159.661 116.911 158.567 117.219 158.191C117.287 158.362 117.424 158.635 117.527 159.114L118.929 158.772C118.758 158.225 118.348 156.686 117.253 156.651ZM53.1854 94.1276L100.766 85.3031C102.921 87.5605 105.555 89.9206 108.873 92.52L124.265 106.407L120.058 114.273L120.16 114.342L115.885 115.129C109.488 107.433 101.108 100.763 93.001 100.421C86.5703 100.147 81.1658 103.739 76.9585 111.161C74.7693 114.992 72.7169 119.096 70.8356 123.406L60.1292 125.355L53.1854 94.1276ZM125.394 107.433L125.839 106.578L137.879 84.0376L182.86 114.034C184.741 115.505 197.602 124.398 198.629 124.911C199.005 125.082 199.347 125.355 199.757 125.629C200.647 126.245 201.639 126.963 202.87 126.963V125.492C202.083 125.492 201.365 124.979 200.578 124.432C200.168 124.124 199.723 123.85 199.278 123.611C198.218 123.064 189.53 117.01 185.596 114.239C184.159 109.588 181.355 98.1636 179.781 89.989C179.747 89.7496 179.679 89.5101 179.644 89.2707C179.61 89.0313 179.542 88.7919 179.508 88.5524C179.2 86.8765 178.96 85.4057 178.823 84.2086C178.789 83.9008 178.755 83.6272 178.721 83.3535H178.755C179.747 83.2167 181.799 83.0115 184.433 82.9773C184.673 82.9773 184.946 82.9773 185.22 82.9773C185.494 82.9773 185.733 82.9773 186.007 82.9773C192.129 83.0799 200.613 84.2428 207.385 89.0655C213.166 93.1699 216.758 99.2923 218.092 107.227C218.194 108.151 218.365 109.246 218.571 110.511C218.639 110.921 218.742 111.366 218.81 111.811C218.878 112.221 218.981 112.666 219.084 113.076C219.323 114.273 219.597 115.573 219.905 116.941C222.231 127.921 225.651 143.962 222.128 152.821H202.631H201.844H201.057H200.852C199.449 151.076 192.54 136.642 189.051 129.015C183.886 117.796 170.169 100.9 157.171 100.353C150.911 100.079 145.61 103.534 141.402 110.579C141.3 110.75 141.197 110.921 141.094 111.092C140.889 111.469 140.65 111.879 140.444 112.255C140.137 112.837 139.795 113.418 139.487 114C138.118 116.565 136.784 119.233 135.553 121.969L124.162 115.026L123.239 114.444L122.315 113.863L122.008 113.658L125.394 107.433ZM135.006 123.372C132.851 128.297 130.935 133.359 129.362 138.455C127.72 135.069 126.146 131.683 124.949 129.083C123.171 125.218 120.4 120.704 116.979 116.394L122.076 115.471L135.006 123.372ZM20.4505 115.847L22.024 116.086L25.855 116.702L27.3601 116.941L33.175 117.865L32.1147 121.046L26.0602 120.02L24.6236 119.78L20.4505 119.062L18.9454 118.822L7.79433 116.941L8.44425 113.897L20.4505 115.847ZM21.1004 129.391C19.869 128.947 18.9112 128.605 18.8428 126.826C18.7744 124.705 19.1165 122.551 19.869 120.464L24.1447 121.183C23.2211 124.261 22.5028 127.715 22.1608 129.836C21.8187 129.665 21.4425 129.528 21.1004 129.391ZM26.6075 134.898C25.2051 134.83 23.6658 133.975 23.4264 131.649C23.4606 130.623 24.35 125.595 25.6156 121.422L32.0463 122.516C30.507 126.587 29.3782 130.862 29.344 133.085C29.1388 134.351 27.8047 134.966 26.6075 134.898ZM58.59 125.526C56.6402 127.647 55.7167 129.836 54.7931 131.957C53.5617 134.864 52.4671 137.361 48.9781 139.208C47.4047 140.029 46.0706 139.652 45.4549 138.9C44.8392 138.147 44.7366 136.677 46.2075 134.932C49.457 131.101 49.3202 126.381 49.286 126.21V126.108L49.2518 126.039C48.9097 124.808 47.952 123.987 46.6521 123.85C44.5998 123.611 42.0344 125.082 40.8372 127.168C40.1872 128.331 38.3059 135.787 37.8612 138.455C37.2113 140.507 36.151 141.773 34.8511 142.047C33.6881 142.286 32.3883 141.739 31.4306 140.61C30.0623 138.968 30.5412 134.419 30.7122 133.462C30.7122 133.427 30.7464 133.359 30.7464 133.325L30.1307 133.188H30.7464C30.7464 129.289 34.988 117.01 38.0323 114.479L37.1087 113.35C36.322 114 35.4668 115.163 34.6459 116.633L27.3943 115.471L26.9154 114.992C26.8128 115.094 26.7101 115.197 26.6075 115.334L22.8449 114.752C28.5915 106.749 39.7426 100.147 52.5013 98.1294L58.6242 125.595L58.59 125.526ZM63.0367 273.559C59.9582 273.456 59.9582 272.601 59.9582 269.523V269.181C59.9582 265.213 59.8898 260.801 59.8214 256.115C59.6846 245.238 59.5477 233.951 59.9924 225.879C60.1634 222.732 62.4894 221.946 66.1495 221.638C67.9966 221.501 70.1857 221.467 72.4775 221.467C73.88 221.467 75.3166 221.467 76.719 221.501C74.8035 223.485 74.8719 227.213 74.9061 230.394C74.9061 230.907 74.9061 231.386 74.9061 231.899C74.9061 233.233 74.8719 262.75 74.8719 264.255C74.7693 269.762 74.8377 272.362 75.385 273.627C70.9383 273.695 66.5599 273.695 63.0367 273.559ZM97.1057 222.698C97.5504 223.93 97.9608 234.669 98.0977 247.667C98.2345 261.895 97.9266 270.515 97.5504 272.225L97.4136 272.259L97.3794 272.43C95.7375 272.909 87.186 273.422 78.1899 273.593C77.9846 273.559 77.7794 273.525 77.6084 273.49C76.8559 273.388 76.7533 273.353 76.5822 272.601C76.3086 271.472 76.2402 269.146 76.3428 264.29C76.377 262.75 76.377 232.207 76.377 231.933C76.377 231.454 76.377 230.941 76.377 230.428C76.3086 225.4 76.5138 221.809 80.2422 221.604C80.5159 221.604 80.8237 221.604 81.0974 221.604C81.8499 221.604 82.9787 221.535 84.2785 221.433C88.178 221.159 96.3532 220.612 97.1057 222.698ZM198.252 236.961C198.218 233.472 198.15 228.992 198.047 223.245C197.979 219.038 197.876 214.455 197.842 210.351C198.252 210.419 198.8 210.488 199.484 210.556L203.417 236.961H198.252ZM214.329 269.762C213.645 270.309 212.756 271.028 212.106 271.541C211.285 270.617 209.745 269.112 209.745 269.044C209.745 269.044 209.677 269.078 209.643 269.112L200.955 210.659C203.486 210.795 207.454 210.864 213.748 210.864C216.416 210.864 219.46 210.864 223.017 210.83L214.329 269.762ZM264.167 238.637H220.418L224.522 210.83C227.909 210.795 231.706 210.761 235.981 210.693C238.307 210.659 239.983 210.624 240.667 210.624C247.543 210.624 253.358 209.462 258.249 207.067L264.167 238.637ZM268.75 93.4435C278.875 94.7091 287.187 103.123 286.845 111.777C286.572 118.651 281.783 149.811 277.405 171.051C275.489 180.423 272.718 191.026 266.801 198.345C264.475 201.253 261.704 203.544 258.489 205.289L257.873 205.391L257.907 205.597C253.153 208.025 247.406 209.222 240.599 209.222C239.915 209.222 238.239 209.256 235.913 209.291C233.176 209.325 228.695 209.393 223.77 209.427L223.257 209.359V209.427C212.687 209.53 200.168 209.496 197.842 208.948C197.808 207.067 197.808 205.323 197.808 203.818L198.492 203.886H198.56C200.27 203.886 203.007 203.921 206.154 203.955C210.464 203.989 215.526 204.057 219.905 204.057C221.41 204.057 222.812 204.057 224.112 204.023C235.092 203.921 241.352 203.031 246.996 198.516C247.885 197.832 248.535 197.285 249.082 196.875C251.203 195.199 251.237 195.164 253.187 193.181C253.631 192.736 254.145 192.189 254.829 191.471C265.159 180.936 274.668 143.278 277.781 130.896C279.867 122.653 281.885 110.75 275.318 102.747C272.65 99.4975 268.99 98.1636 262.73 96.7271C257.463 95.5299 234.784 95.3589 225.651 95.9746C225.377 95.4274 225.104 94.8459 224.864 94.2986C224.659 93.854 224.42 93.4093 224.214 92.9305C234.75 92.1096 260.541 92.4174 268.75 93.4435Z" fill="black"/>
</svg>
