<svg width="260" height="260" viewBox="0 0 260 260" fill="none" xmlns="http://www.w3.org/2000/svg">
<circle cx="130" cy="130" r="128.75" stroke="black" stroke-width="2.5"/>
<path d="M75.0568 116.758C102.581 146.179 123.36 181.269 153.583 208.261C158.44 212.579 161.948 215.549 168.424 211.77C174.361 208.261 180.837 199.893 182.726 193.415C184.615 186.667 176.25 180.999 172.202 176.68C164.377 168.313 156.551 159.675 148.725 151.038C130.915 131.334 113.375 111.36 96.3748 90.846C95.2954 89.4964 93.4065 91.3859 94.4859 92.7355C110.407 111.9 126.868 130.524 143.598 149.148C152.233 158.596 160.869 168.313 169.774 177.76C174.361 182.618 181.917 188.017 178.948 195.305C177.059 200.163 172.472 206.371 168.154 209.07C158.71 214.469 146.027 197.194 140.36 190.986C132.804 182.618 125.518 173.981 118.502 165.074C105.01 148.069 92.0572 130.794 77.4854 114.869C75.8663 113.789 73.9774 115.679 75.0568 116.758Z" fill="black"/>
<path d="M75.5963 115.948C78.2948 119.188 83.6918 119.457 87.4696 117.568C92.3269 114.869 89.0887 108.391 87.4696 104.342C86.6601 104.882 85.8505 105.152 85.3108 105.692C88.549 108.661 94.4857 112.44 98.2636 107.851C101.772 103.802 99.0731 96.5144 97.1842 92.4656C96.3746 90.8461 94.2158 92.1957 94.7555 93.8152C95.8349 96.2444 97.1842 99.7534 96.9143 102.453C97.1842 105.422 95.0254 106.771 90.438 106.501C89.0887 105.692 88.0093 104.882 86.9299 103.802C86.1204 102.992 84.2315 103.802 84.7712 105.152C85.8506 107.851 87.4696 111.09 86.1204 113.789C84.5013 117.028 79.9139 117.028 77.4852 114.059C76.4058 112.709 74.517 114.599 75.5963 115.948Z" fill="black"/>
<path d="M86.3908 107.581C89.0893 114.059 94.2164 118.648 98.8038 123.776C105.01 130.794 111.217 137.542 117.423 144.56C129.836 158.326 142.249 172.362 154.662 186.127C155.742 187.477 157.631 185.588 156.551 184.238C145.218 171.552 134.154 159.136 122.82 146.449C117.423 140.511 112.296 134.573 106.899 128.635C100.963 121.887 92.3275 114.869 88.8195 106.501C88.2798 105.152 85.8511 105.962 86.3908 107.581Z" fill="black"/>
<path d="M77.4859 114.329C72.3587 102.722 66.9618 90.8459 62.3743 78.9695C61.5648 76.8101 61.0251 73.0313 59.6758 71.1419C59.406 70.8719 59.6759 70.0622 59.4061 69.7923C58.8664 69.2524 57.5171 69.5223 58.0568 70.3321C58.5965 71.1418 60.7553 72.2215 61.8347 72.7613C72.6286 79.7792 83.6924 86.7971 94.7561 93.5451C96.1054 94.3548 97.7245 92.1955 96.1054 91.1158C88.8195 86.5272 81.8034 82.2085 74.7874 77.6199C70.1999 74.6508 65.3427 70.602 60.2156 68.4427C55.6282 66.5532 56.9774 71.1418 58.0568 74.1109C62.9141 88.4166 69.3904 101.913 75.3271 115.678C75.8668 117.298 78.0256 115.948 77.4859 114.329Z" fill="black"/>
<path d="M62.9133 83.0183C65.8816 82.2085 68.5801 80.0492 69.3896 77.08L58.3258 68.9825L62.9133 83.0183Z" fill="black"/>
<path d="M83.962 117.028C83.6921 119.997 83.962 122.966 84.2318 125.665C84.5017 126.745 86.1208 126.205 85.8509 125.126C85.3112 122.426 85.3112 119.727 85.5811 116.758C85.8509 115.948 83.962 115.948 83.962 117.028Z" fill="black"/>
<path d="M88.5496 111.63C88.2797 117.568 88.2797 123.506 88.8194 129.714C88.8194 130.794 90.7083 130.794 90.7083 129.714C90.4385 123.776 90.4385 117.838 90.4385 111.63C90.1687 110.55 88.5496 110.55 88.5496 111.63Z" fill="black"/>
<path d="M93.6761 118.108C92.8666 124.586 92.8667 131.064 93.1365 137.542C93.1365 138.622 95.0253 138.622 95.0253 137.542C94.7555 131.064 95.0254 124.586 95.5651 118.108C95.5651 117.028 93.6761 117.028 93.6761 118.108Z" fill="black"/>
<path d="M99.5886 66.2022C104.995 64.6236 108.723 60.9963 110.502 55.656C109.663 55.4209 108.823 55.1858 108.017 54.9507C106.607 60.291 109.394 65.3289 114.7 66.9411C114.599 66.135 114.498 65.3625 114.398 64.5565C108.42 68.3182 106.842 75.0019 105.734 81.5849C106.573 81.6857 107.446 81.82 108.286 81.9208C108.79 75.3714 106.876 69.5273 102.745 64.4221C101.704 63.1122 99.8572 64.9595 100.898 66.2694C104.592 70.8372 106.137 76.0767 105.7 81.9208C105.6 83.365 108.017 83.7009 108.252 82.2567C109.193 76.4797 110.368 70.1318 115.707 66.7732C116.648 66.1686 116.48 64.7244 115.405 64.3885C111.443 63.1794 109.461 59.5856 110.536 55.5888C110.972 53.9766 108.555 53.3385 108.051 54.8835C106.573 59.2834 103.417 62.3062 98.9505 63.616C97.3051 64.187 97.9767 66.6724 99.5886 66.2022Z" fill="black"/>
<path d="M53.2742 136.418C55.9271 134.033 57.5726 131.078 58.1435 127.551C57.3039 127.45 56.4308 127.316 55.5913 127.215C55.6585 130.809 58.1435 133.362 61.703 133.563C61.3336 132.925 60.9642 132.253 60.5949 131.615C58.0427 134.974 56.3301 138.668 55.4234 142.8C56.2629 143.035 57.1025 143.27 57.9084 143.505C58.4457 139.945 57.942 134.235 52.9049 134.907C51.2594 135.108 51.2594 137.728 52.9049 137.493C56.095 137.09 55.6921 140.885 55.3898 142.8C55.1548 144.412 57.539 145.151 57.8748 143.505C58.7143 139.575 60.3598 136.116 62.7776 132.959C63.4156 132.119 62.5425 131.044 61.6694 131.011C59.5874 130.876 58.177 129.331 58.1435 127.283C58.1099 125.872 55.8264 125.435 55.5913 126.947C55.0876 130.07 53.7444 132.556 51.3937 134.672C50.1848 135.679 52.0318 137.526 53.2742 136.418Z" fill="black"/>
</svg>
