<svg width="190" height="190" viewBox="0 0 190 190" fill="none" xmlns="http://www.w3.org/2000/svg">
<g clip-path="url(#clip0)">
<mask id="mask0" mask-type="alpha" maskUnits="userSpaceOnUse" x="24" y="23" width="265" height="471">
<path d="M111.846 27.3368C113.802 29.1836 115.869 30.3286 117.714 31.4736L109.226 25.3423C110.37 26.2287 111.736 27.226 111.846 27.3368Z" fill="white"/>
<path d="M117.714 31.4735L120.372 33.3942C119.597 32.6924 118.674 32.1014 117.714 31.4735Z" fill="white"/>
<path d="M109.226 25.3422C108.34 24.6773 107.565 24.1233 107.528 24.1233L109.226 25.3422Z" fill="white"/>
<path d="M107.454 35.9429L103.911 35.0564C104.834 35.3888 106.089 35.6843 107.454 35.9429Z" fill="white"/>
<path d="M107.454 35.9429L115.685 37.9743C113.95 37.1248 110.407 36.5338 107.454 35.9429Z" fill="white"/>
<path d="M108.193 43.6256L111.92 43.2562C110.702 43.2562 109.447 43.4409 108.193 43.6256Z" fill="white"/>
<path d="M108.193 43.6255L104.871 43.9579C105.904 43.921 107.048 43.7732 108.193 43.6255Z" fill="white"/>
<path d="M31.3888 253.2H32.1269C32.2746 253.2 32.4222 253.2 32.5698 253.2C32.7913 253.2 33.0865 253.2 33.3449 253.2C33.6032 253.2 33.8616 253.2 34.1199 253.2C35.5224 270.596 37.257 300.995 39.1024 332.723C39.5453 340.331 39.9882 348.014 40.431 355.66C42.2026 385.873 45.8564 448.147 47.9601 453.392C48.6613 453.355 49.7316 453.318 51.0603 453.318C51.3186 453.318 51.577 453.318 51.8353 453.318C52.0937 453.318 52.352 453.318 52.6104 453.318C52.8687 453.318 53.0902 453.318 53.3485 453.318L53.0533 452.247C52.758 452.321 52.6104 452.543 52.5366 452.69C52.5366 452.727 52.4997 452.764 52.4997 452.801C52.4997 452.727 52.4997 452.617 52.5366 452.506C52.5366 452.21 52.5366 451.73 52.5366 451.102C52.5366 450.844 52.5366 450.585 52.4997 450.29C52.4997 450.031 52.4997 449.772 52.4627 449.477C52.0568 438.175 49.8793 400.685 47.7755 364.229C44.9706 316.102 42.0919 266.386 41.8335 253.052C41.8335 252.793 41.8335 252.498 41.8335 252.276H42.6086H43.3836C43.3836 252.535 43.3836 252.793 43.3836 253.052C43.4943 258.26 44.011 269.267 44.7861 283.487C48.6613 276.285 56.744 258.186 57.4083 252.646C57.4452 252.35 57.4452 252.092 57.4452 251.87L58.2202 251.833L58.9953 251.796C58.9953 252.018 58.9953 252.276 58.9584 252.572C58.2572 259.294 47.8863 281.566 44.9706 286.257L44.9337 286.331C46.1147 308.382 47.7755 337.266 49.3626 364.155C50.7281 387.425 51.983 409.402 52.8687 425.838C53.3485 434.629 53.6807 441.093 53.8652 445.562C53.939 446.891 53.9759 448.073 54.0128 449.071C54.0128 449.366 54.0498 449.625 54.0498 449.883C54.0498 450.179 54.0497 450.437 54.0867 450.696C54.0867 450.844 54.0867 450.954 54.0867 451.102C54.1236 452.358 54.1236 453.023 54.0128 453.392C54.3081 453.392 54.6403 453.392 54.9724 453.392C58.5155 453.392 64.3468 453.392 68.665 453.134C68.9233 453.134 69.1817 453.097 69.44 453.097C69.6984 453.097 69.9567 453.06 70.215 453.023C72.1711 452.875 73.6474 452.617 74.0903 452.284C74.3117 449.809 75.1606 431.526 76.194 410.436C76.9321 395.551 77.7441 378.671 78.4822 363.601C78.962 354.072 79.3311 346.611 79.6633 340.738L79.4049 330.507L80.8074 322.011C80.955 320.349 81.0288 319.758 81.1026 319.573C81.2503 318.983 82.6158 310.93 84.0921 301.955L86.4173 287.846L87.9674 288.104C87.5245 290.874 86.6756 296.045 85.7898 301.438C92.8022 315.88 90.9568 422.255 90.2556 447.556C90.2556 447.852 90.2556 448.11 90.2187 448.369C90.2187 448.664 90.2187 448.923 90.1818 449.182C90.1449 450.216 90.108 451.028 90.108 451.656L106.163 450.807L106.974 450.77L107.75 450.733L109.632 450.622L122.18 291.761C122.402 292.056 122.66 292.389 122.881 292.684C123.103 292.98 123.361 293.312 123.583 293.608C140.597 315.326 163.516 338.152 178.205 346.204C183.335 349.011 187.727 351.523 191.971 353.998C203.819 360.794 213.156 366.187 228.952 371.985L229.58 372.207V372.17C229.617 372.17 229.654 372.207 229.691 372.207C229.875 382.66 224.044 394.553 206.439 419.965C205.516 421.258 204.409 422.772 203.154 424.545C194.223 436.771 179.239 457.234 183.704 473.855C183.963 474.815 184.147 475.738 184.295 476.625C174.699 475.332 167.797 464.473 173.739 440.945C175.511 434.001 186.325 421.812 185.402 421.443C174.957 417.49 162.224 437.953 160.822 444.269C159.161 451.804 152.259 478.065 177.43 489.035C182.634 491.325 189.24 491.473 193.522 490.734C196.659 491.325 201.014 491.621 206.993 491.658C208.58 491.658 210.277 491.695 212.123 491.695C219.135 491.695 227.919 491.584 237.072 491.51C252.942 491.325 269.366 491.141 276.784 491.51C278.519 491.584 281.139 490.07 282.357 487.447C283.169 485.748 283.944 482.276 280.143 478.139C278.26 476.108 276.341 474.778 275.492 474.224C275.492 472.525 275.381 470.974 275.271 469.09C275.16 466.948 275.012 464.547 274.939 461.038C274.791 455.091 275.012 431.194 275.197 410.14C275.271 400.278 275.382 390.971 275.418 384.064C275.455 380.37 275.455 377.674 275.455 375.79C275.455 374.497 275.455 373.648 275.418 373.131C276.341 372.54 276.858 371.949 277.005 371.395C277.485 369.474 277.042 363.97 275.898 363.158C275.751 363.047 275.603 363.01 275.455 362.973C275.492 362.752 275.529 362.53 275.566 362.308C275.861 360.388 276.23 358.208 278.113 357.544C282.8 355.881 287.635 349.676 288.52 344.21C288.963 341.403 288.299 339.26 286.601 337.931C282.726 334.976 280.142 333.794 278.408 333.018C275.345 331.651 274.865 331.43 273.536 323.045C273.093 320.275 273.019 318.502 272.946 316.951C272.798 313.811 272.687 311.928 269.919 306.055C269.292 304.725 268.406 304.504 267.816 304.614C263.793 305.095 258.589 321.642 258.22 323.193C258.035 323.378 256.743 324.264 248.218 324.301C247.849 322.972 247.406 321.346 246.926 319.647C245.671 315.178 244.084 309.601 243.605 306.203C243.272 303.839 241.907 303.654 241.316 303.691C237.22 303.913 229.986 316.729 229.58 329.952C229.469 333.609 229.727 340.701 229.949 347.534C230.133 353.185 230.355 359.501 230.281 361.57C230.06 361.606 229.875 361.68 229.764 361.754C228.805 362.419 228.842 364.118 228.879 366.519C228.915 367.775 228.915 369.289 228.731 370.286C213.488 364.635 204.335 359.353 192.747 352.705C188.502 350.267 184.11 347.719 178.943 344.911C164.07 336.786 140.708 313.331 123.767 291.428C123.509 291.133 123.287 290.8 123.066 290.505C122.845 290.209 122.586 289.877 122.365 289.582L125.428 250.54C125.723 250.54 125.982 250.503 126.203 250.503C126.498 250.503 126.757 250.466 126.978 250.466C128.27 250.429 129.008 250.393 129.082 250.393L129.857 250.356V249.58C129.783 242.784 129.783 235.692 129.746 228.231C129.709 208.729 129.672 188.193 128.528 169.798C133.363 171.608 138.087 172.569 142.331 172.569C144.251 172.569 146.059 172.384 147.757 172.015C156.799 169.983 161.745 162.596 161.708 151.183C161.708 148.191 160.342 131.755 158.46 115.207C154.88 83.3316 153.035 82.2604 152.333 81.8911C151.632 81.4848 150.488 81.3001 149.049 81.2262C149.381 78.3083 148.606 72.4724 147.129 66.7104C145.911 62.0196 143.18 53.5982 138.751 50.0523C138.715 50.0154 133.4 46.1002 129.193 43.9949L130.189 35.7582C130.337 34.5762 129.488 33.4681 128.307 33.3573C127.716 33.2835 127.163 33.4312 126.72 33.8006C126.277 34.1699 125.982 34.687 125.908 35.2411L125.096 42.5913C124.099 42.6652 123.251 43.1084 122.586 44.2165C121.996 45.2137 122.475 46.2479 123.324 47.1344C122.881 47.2083 122.549 47.4299 122.291 47.6146C120.852 46.4326 119.412 45.8786 117.973 46.8759C115.463 47.9839 116.718 51.1604 118.12 54.8909C119.338 58.0674 120.741 61.6871 120.446 64.9744C120.372 66.0456 120.852 67.9293 121.664 70.0716L120.446 79.8596C120.298 81.0415 121.147 82.1496 122.328 82.2604C122.402 82.2604 122.512 82.2604 122.586 82.2604C123.656 82.2604 124.616 81.4478 124.727 80.3398L125.133 77.1633C126.425 79.3056 127.753 81.0415 128.86 81.7064C128.934 83.4424 129.008 84.4397 129.303 85.0676C127.421 85.991 126.388 86.9513 126.166 87.9855C126.129 88.0963 126.129 88.0963 126.166 91.5313C126.166 94.634 126.203 99.768 126.203 103.683C126.203 103.979 126.203 104.496 126.203 105.161C126.203 107.044 126.166 108.485 126.092 108.928L126.277 108.965C126.314 110.332 126.351 111.846 126.388 113.508C126.425 115.207 126.498 117.165 126.535 119.196C125.908 119.049 124.026 118.162 123.251 117.719C120.962 116.315 116.349 114.432 112.917 112.991C110.038 111.366 102.915 109.039 95.9762 106.786C93.0605 105.826 90.2925 104.939 87.8566 104.09C87.7459 104.053 86.897 104.016 85.6053 104.016C84.7564 99.8419 83.9814 95.8528 83.76 94.2646C83.8707 94.2646 83.9814 94.2277 84.0921 94.2277C87.7459 93.7475 98.818 92.307 98.6335 83.7379C98.412 71.8445 95.5702 60.9115 90.6616 52.9703C89.6282 51.2712 88.4841 49.7199 87.303 48.3902C90.6985 46.9128 93.0236 43.8102 93.4665 40.0058C94.0201 35.5735 91.9164 31.4367 87.8935 28.962C84.1659 26.6719 78.3715 27.6692 73.3891 29.9223C72.7985 30.4394 72.2818 31.0304 71.7651 31.5844C71.3223 32.1015 70.9163 32.6186 70.5103 33.1726C69.9567 33.9483 69.5138 34.7239 69.1447 35.4257C67.3732 39.0085 65.3433 41.8526 62.4646 44.5489C62.4277 44.6228 62.3169 44.7336 62.3169 44.7705L61.0252 43.921C61.2835 43.5886 61.2835 43.5516 61.3574 43.4778C64.1254 40.8553 66.0445 38.2329 67.7423 34.7609C67.8161 34.6131 67.8899 34.4654 68.0006 34.2807C68.1852 33.9114 68.4066 33.542 68.628 33.1726C68.8864 32.7663 69.1447 32.3601 69.4769 31.9538C68.2221 32.5447 66.6351 33.1357 64.8266 33.7636C61.1359 35.0933 56.5594 36.7185 52.9056 39.4517C47.6279 43.4039 47.0374 51.2343 48.6982 56.8116C48.8459 57.2548 49.0304 57.9936 49.2518 58.88C46.3362 60.7637 46.3362 62.8322 48.0339 67.1537C48.9197 69.4067 49.8793 72.1769 50.8388 74.8363C51.6508 77.1633 52.3151 79.0101 52.8318 80.3398C51.8353 79.8596 50.9496 79.7857 50.359 80.3398C47.3327 83.4424 49.8793 87.7269 52.352 91.9007C52.5735 92.2331 52.758 92.6025 52.9794 92.9349C54.7879 95.8898 56.6332 98.9185 56.5594 104.496C43.0514 109.187 27.6981 116.943 25.373 123.148L25.336 123.222C22.7895 132.936 30.9828 247.585 31.3519 252.461L31.3888 253.2ZM245.228 480.318C242.017 477.437 238.032 473.818 240.984 466.652C245.302 456.199 240.172 439.911 232.68 431.305C228.694 426.688 224.413 424.656 220.722 425.616L220.316 424.102C224.634 422.994 229.432 425.173 233.861 430.27C237.81 434.813 241.058 441.277 242.793 448C244.675 455.276 244.527 462.146 242.423 467.28C239.914 473.411 243.125 476.329 246.262 479.173C248.329 481.057 250.285 482.83 250.1 485.342L248.55 485.231C248.661 483.421 247.074 481.981 245.228 480.318ZM275.197 364.524C275.603 365.817 276.009 369.252 275.603 370.767C275.529 370.988 275.234 371.321 274.606 371.653L274.385 371.727C271.174 373.057 267.852 373.98 264.346 374.534C262.353 374.793 260.139 375.014 257.592 375.125C257.371 375.125 257.186 375.125 256.965 375.162C249.251 375.273 240.8 373.758 231.499 370.582C231.388 370.286 231.093 370.028 230.65 370.065C230.539 370.065 230.466 370.102 230.355 370.102C230.539 368.994 230.539 367.59 230.502 366.26C230.502 365.115 230.466 363.453 230.687 362.899C230.724 362.899 230.724 362.936 230.761 362.936C235.706 366.741 246.151 368.772 255.931 368.772C263.276 368.772 270.288 367.627 274.348 365.152C274.57 365.005 274.754 364.82 274.902 364.635C275.049 364.598 275.123 364.561 275.197 364.524ZM237.33 327.626C237.33 326.924 237.699 322.528 238.29 318.244C239.508 309.416 240.467 309.231 241.132 309.121L241.39 310.672C241.501 310.635 241.575 310.598 241.575 310.598C240.357 311.78 238.843 325.631 238.843 327.626H237.33ZM264.715 324.708C264.715 321.088 265.933 317.394 267.114 313.811C267.446 312.74 267.779 311.78 268.074 310.783L269.587 311.226C269.292 312.223 268.96 313.294 268.591 314.292C267.446 317.764 266.265 321.309 266.265 324.708H264.715ZM279.773 339.667C281.84 339.704 283.501 339.74 284.424 340.922C285.199 341.92 285.199 343.471 284.534 346.13C284.018 348.088 282.837 349.528 281.287 350.046C280.918 350.156 280.438 350.267 279.921 350.267C278.814 350.267 277.411 349.861 275.714 348.568L275.64 348.494C274.016 346.795 272.872 343.803 273.758 341.772C274.237 340.738 275.381 339.519 278.371 339.63C278.814 339.667 279.294 339.667 279.773 339.667ZM34.0092 251.611C33.714 251.611 33.4556 251.611 33.2342 251.611C33.0865 251.611 32.9758 251.611 32.8651 251.611C32.7544 250.023 32.4591 246.034 32.09 240.42C32.09 240.309 32.09 240.161 32.0531 240.014C32.0531 239.755 32.0162 239.496 32.0162 239.238C29.8756 208.027 24.8932 131.422 26.8492 123.666C28.547 119.27 39.6929 112.511 53.57 107.266C53.6069 107.451 53.6807 107.894 53.9021 108.965C53.9759 109.298 54.0498 109.667 54.1236 110.11C54.1605 110.258 54.1974 110.406 54.1974 110.553C54.2343 110.775 54.3081 111.033 54.345 111.292C54.9724 114.358 55.8951 118.901 56.5963 122.447C56.6332 122.89 56.7071 123.407 56.744 123.961C56.7809 124.22 56.8178 124.515 56.8178 124.811C56.8547 125.069 56.8916 125.365 56.8916 125.66C57.6666 133.343 59.0691 147.748 59.7703 156.058C55.8213 165.846 59.1798 179.217 65.5279 193.437C54.4926 188.229 42.3502 173.307 32.902 143.242L31.3888 143.722C41.4275 175.597 54.6034 190.778 66.4874 195.543C72.3926 208.286 80.5121 221.62 87.8197 233.624C88.6317 234.916 89.4067 236.209 90.1449 237.465C90.2925 237.724 90.4401 237.982 90.6247 238.241C90.7723 238.499 90.9199 238.758 91.1045 239.016C93.4296 242.858 95.5702 246.44 97.4525 249.765C73.6474 250.503 43.4943 251.464 34.0092 251.611ZM51.4293 81.5217C51.8722 81.5217 52.9425 82.1866 54.1236 83.11C54.751 83.5901 55.3784 84.1442 56.0058 84.7351L56.0796 84.809L56.5594 85.2522L56.7071 85.1414L57.113 84.7721C57.1499 84.7351 57.2238 84.6613 57.2976 84.5874C57.4452 84.4397 57.6297 84.255 57.8512 83.9964C58.0726 83.7379 58.331 83.4424 58.6631 83.11C58.7 83.073 58.7369 82.9991 58.8108 82.9622C59.0322 82.7406 59.2537 82.482 59.4751 82.2235C59.7334 81.928 59.9918 81.6325 60.287 81.337C63.498 77.8651 68.4066 72.6571 72.3188 69.9238C72.5033 69.813 72.6878 69.6653 72.8724 69.5545C72.9462 69.5176 73.02 69.4806 73.0938 69.4067C73.3522 69.2221 73.6105 69.0743 73.8319 68.9635C75.4928 68.0401 76.3416 67.9662 76.7476 68.1509C76.8952 68.1879 77.2643 68.3725 77.5227 69.4437C77.7072 70.2193 77.3381 71.9184 77.1536 72.731C76.969 73.0265 76.7107 73.4328 76.4154 73.9499C75.9726 74.6516 75.0499 76.166 74.1641 77.4218C73.8689 77.8281 73.6105 78.1975 73.3521 78.5299C73.02 78.9362 72.7616 79.2317 72.5033 79.3794C72.4295 79.4164 72.3557 79.4533 72.2818 79.4902L72.3926 80.192L72.5402 81.0415C72.7247 81.0046 72.9093 80.9307 73.0938 80.8199C73.3522 80.6722 73.6474 80.4136 73.9796 80.1182C74.9761 79.1209 76.1571 77.311 77.7072 74.7625C77.781 74.6147 77.8917 74.467 77.9655 74.3562C78.0763 74.3192 78.187 74.2823 78.2977 74.2453C78.5561 74.1345 78.9989 73.9868 79.2942 74.1345C79.5894 74.2823 79.8478 74.6886 80.0323 75.3165C80.2538 76.0183 79.9216 77.2741 79.6633 78.1606C79.4418 78.9731 79.2573 79.5641 79.368 80.0443C79.1097 80.3767 78.8513 80.783 78.4822 81.4109C77.6703 82.7037 76.5631 84.5135 75.2713 85.4739L76.194 86.7297C77.7441 85.5847 78.962 83.664 79.8109 82.2235C80.0692 81.8172 80.3645 81.3001 80.5859 81.0046C80.8074 81.1154 80.9919 81.337 81.1395 81.6325C81.7301 82.8883 81.5086 85.5108 79.5894 88.3918C75.7142 94.2277 76.2678 100.211 77.1905 104.09C77.2643 104.348 77.3012 104.607 77.375 104.865C77.4488 105.124 77.5226 105.382 77.5965 105.641C77.7072 106.084 77.8548 106.453 77.9286 106.823C77.9655 106.971 78.0393 107.118 78.0763 107.266V107.303C76.7107 107.118 74.1641 106.86 70.5841 106.49C68.2959 106.232 65.6017 105.973 63.2765 105.715C61.3204 105.493 59.5858 105.308 58.5524 105.161C58.3679 105.124 58.1833 105.124 58.0726 105.087C58.0726 105.087 58.0726 105.087 58.0726 105.05C58.0726 104.976 58.0726 104.902 58.0726 104.865C58.0726 104.681 58.0726 104.459 58.0726 104.274C58.0726 104.09 58.0726 103.905 58.0726 103.72C58.0357 102.464 57.925 101.319 57.7036 100.248C57.0392 96.7762 55.5998 94.4123 54.2712 92.2331C54.0497 91.9007 53.8652 91.5683 53.6438 91.1989C50.9865 86.545 49.4733 83.5901 51.4293 81.5217ZM55.2308 81.8911L55.157 81.7433C54.6772 81.0415 53.4961 77.6065 52.3151 74.3192C51.3555 71.6229 50.396 68.8527 49.5102 66.5627C48.2553 63.3862 47.9232 61.8718 49.6947 60.4683C49.8793 60.3205 50.1376 60.1728 50.396 59.9881C50.6174 59.8404 50.8388 59.7295 51.0972 59.5818C51.9091 59.1386 52.9794 58.6953 54.2712 58.1782C55.157 57.8089 56.1535 57.3287 57.1869 56.8116C58.5893 56.1098 59.8811 55.4819 61.0621 55.0387C61.3943 54.9279 61.6895 54.8171 61.9848 54.7063C62.28 54.5955 62.6122 54.5216 62.9074 54.4846C63.3503 54.3738 63.7932 54.3369 64.1992 54.3369C65.2695 54.3369 66.1553 54.7063 66.8196 55.5927C66.9672 55.8143 67.1518 56.0729 67.3363 56.3684C67.4839 56.59 67.6316 56.8485 67.7423 57.1071C67.853 57.3287 68.0006 57.5873 68.1113 57.8458C69.5876 60.7637 71.1746 65.0483 72.0973 68.0771C72.0604 68.0771 72.0604 68.114 72.0235 68.114C68.3328 70.5148 63.7194 75.2057 60.3609 78.8254C60.0656 79.1209 59.8073 79.4164 59.5489 79.7119C59.2537 80.0073 58.9953 80.3028 58.7369 80.5983C58.331 81.0415 57.9619 81.4478 57.6297 81.8172C57.1869 82.2974 56.8178 82.7037 56.5225 83.0361C56.1165 82.6667 55.6737 82.2974 55.2677 81.928C55.2308 81.928 55.2308 81.928 55.2308 81.8911ZM83.8707 92.6764C82.6896 92.8241 82.0991 92.898 82.0991 93.6736C82.0991 94.5231 82.8742 98.5492 83.9445 104.016C82.4682 104.016 80.6967 104.016 78.7775 104.016C77.8917 100.396 77.2274 94.7078 80.8812 89.2044C82.8742 86.2126 83.5016 82.9622 82.542 80.8938C82.1729 80.1181 81.6193 79.6011 80.9181 79.3794C80.955 79.1209 81.0657 78.7885 81.1395 78.5299C81.4717 77.3849 81.8408 75.9444 81.5086 74.7994C81.1765 73.7282 80.6598 73.0265 79.9585 72.694C79.5525 72.5094 79.1466 72.4724 78.7775 72.4724C78.9989 71.4013 79.2573 69.9977 79.0358 69.0374C78.7406 67.7816 78.1501 67.0059 77.3012 66.6366C76.3416 66.2672 75.1237 66.4888 73.4629 67.3383C72.4664 64.1618 70.7318 59.5079 69.1078 56.4792C69.5138 55.7405 69.8091 54.8171 70.0674 53.709C71.1746 52.6009 81.1765 49.9415 85.6791 48.9443C91.8795 55.8143 96.7512 68.1509 97.0465 83.8117C97.1941 90.9404 87.1923 92.2331 83.8707 92.6764ZM87.4137 105.641C89.8496 106.49 92.5807 107.377 95.4595 108.3C99.7038 109.667 104.317 111.181 107.75 112.474C108.266 112.806 109.595 113.36 112.105 114.395C112.141 114.395 112.178 114.432 112.215 114.432C112.326 114.505 112.437 114.579 112.547 114.653C119.412 120.378 123.878 134.709 126.166 158.496C126.425 161.34 126.683 164.295 126.867 167.287C126.904 167.878 126.941 168.469 126.978 169.06C128.159 187.565 128.196 208.138 128.233 228.157C128.233 235.36 128.27 242.156 128.307 248.767C128.012 248.767 127.606 248.804 127.163 248.804C126.904 248.804 126.646 248.804 126.388 248.841C126.129 248.841 125.871 248.841 125.613 248.878C120.63 249.063 110.776 249.395 99.2609 249.765C97.4156 246.44 95.275 242.858 92.9498 239.016C92.8022 238.758 92.6545 238.499 92.47 238.241C92.3224 237.982 92.1748 237.724 91.9902 237.465C91.0676 235.951 90.1449 234.436 89.1853 232.848C88.9638 232.479 88.7424 232.109 88.4841 231.74C88.3364 230.262 89.7389 224.981 91.1783 219.403C94.7214 205.811 99.5193 187.306 95.8286 180.104C97.4894 174.785 97.8585 168.653 96.6036 162.374C96.3822 161.303 95.9762 158.902 95.3857 155.615C94.0939 148.228 92.1379 137.036 90.108 127.396C89.5544 124.7 89.0377 122.41 88.5579 120.452C87.7828 117.239 87.1185 114.912 86.5649 113.213C85.9375 111.292 85.4208 110.258 85.0148 109.63C84.535 108.928 84.2028 108.817 83.9445 108.743C83.3171 108.522 81.767 108.152 79.7371 107.709C79.6633 107.377 79.5525 106.971 79.4049 106.417C79.3311 106.195 79.2573 105.973 79.1835 105.715C81.1026 105.715 82.8373 105.715 84.2397 105.715C84.535 105.715 84.7933 105.715 85.0517 105.715C85.347 105.715 85.6053 105.715 85.8637 105.715C86.6756 105.604 87.1923 105.604 87.4137 105.641ZM60.2132 162.227L61.7633 162.485C62.0217 160.712 59.8073 138.034 58.7739 127.544L59.1798 127.507C59.1798 127.248 59.106 126.768 58.9584 126.066C58.9215 125.808 58.8846 125.549 58.8108 125.254C58.7739 124.995 58.7 124.737 58.6631 124.441C58.0357 121.043 56.8916 115.503 55.8213 110.221C55.7475 109.888 55.6737 109.593 55.6368 109.298C55.5629 108.891 55.4891 108.522 55.4153 108.189C55.3046 107.709 55.2308 107.303 55.1939 107.118C55.1939 107.081 55.1939 107.081 55.1939 107.044C55.1939 107.007 55.2308 106.971 55.3415 106.897C55.6368 106.712 56.0796 106.564 56.6702 106.453C56.8178 106.416 57.0023 106.416 57.1869 106.38C57.2976 106.416 57.4452 106.453 57.6297 106.49C57.8512 106.527 58.1464 106.564 58.4417 106.601C59.1798 106.712 60.2132 106.823 61.5788 107.007C64.1254 107.303 67.5208 107.672 70.5103 107.968C74.3117 108.374 78.2608 108.78 78.8144 108.891C78.8513 108.891 78.8513 108.891 78.8882 108.891C81.0288 109.334 82.6896 109.778 83.5754 110.036C83.9076 110.221 84.941 111.551 87.0816 120.341C87.1923 120.748 87.2661 121.154 87.3768 121.597C87.4506 121.93 87.5245 122.262 87.5983 122.594C87.9674 124.183 88.3364 125.956 88.7793 127.95C90.7723 137.48 92.6915 148.45 93.9832 155.726C94.5737 159.05 94.9797 161.414 95.2011 162.522C98.3013 177.666 91.4366 191.923 79.5894 194.989C76.0095 195.912 71.9866 195.764 67.7792 194.213C61.9848 181.618 58.4786 169.688 60.2501 160.417C60.2132 161.377 60.2132 162.005 60.2132 162.227ZM74.9761 197.168C76.6738 197.168 78.3346 196.946 79.9216 196.54C86.897 194.73 92.2486 189.338 95.1273 182.209C97.2679 189.892 92.8022 207.141 89.7389 218.886C88.4841 223.762 87.5983 227.197 87.2292 229.413C80.7705 218.775 73.9058 207.288 68.628 196.208C70.7687 196.872 72.9093 197.168 74.9761 197.168ZM121.922 275.952L120.446 276.469C119.781 274.549 114.024 255.12 113.027 250.762C112.953 250.429 112.917 250.171 112.88 250.023L113.655 249.949L114.43 249.875V249.912C114.43 250.06 114.504 250.319 114.577 250.688C115.648 255.12 121.221 273.958 121.922 275.952ZM128.012 67.5969C127.569 66.4149 127.163 65.233 126.794 64.2357C126.572 63.5709 126.351 62.9799 126.203 62.4997C126.203 62.4259 126.166 62.3889 126.166 62.3151C125.945 61.5025 125.797 60.8376 125.686 60.3205C125.391 58.5476 125.797 58.2521 125.834 58.2152C125.834 58.2152 125.871 58.1782 125.945 58.1782C125.982 58.1782 126.019 58.1782 126.092 58.1782C126.24 58.1782 126.425 58.2152 126.72 58.289C126.941 58.3629 127.163 58.4368 127.458 58.5845C127.679 58.6953 127.975 58.8431 128.27 59.0278C128.307 59.0647 128.381 59.1016 128.418 59.1386L128.381 59.1755C128.454 59.2124 128.565 59.2494 128.639 59.3232C129.193 59.7295 129.672 60.0989 130.041 60.3575C130.706 60.8376 131.038 61.0592 131.259 61.207C132.662 62.4259 133.954 63.7925 134.655 64.7159L135.91 63.7556C134.802 62.3151 132.514 59.9881 130.374 58.5107C129.931 58.1782 129.525 57.9197 129.119 57.6611C128.676 57.2918 128.196 56.9224 127.716 56.5161C127.495 56.3314 127.236 56.1098 127.015 55.8882C126.757 55.6666 126.535 55.4819 126.314 55.2603C125.945 54.9279 125.576 54.5585 125.244 54.2261C124.985 53.9675 124.764 53.709 124.542 53.4874C124.284 53.1919 124.062 52.8964 123.841 52.6379C123.767 52.527 123.657 52.3793 123.62 52.2685C123.251 51.6775 123.029 51.0496 122.955 50.4956C122.845 49.7938 122.955 49.1659 123.214 48.8704C123.287 48.7965 123.361 48.7596 123.472 48.6857C123.73 48.5749 124.062 48.6118 124.358 48.6857C124.579 48.7227 124.764 48.7965 124.911 48.8704L125.133 48.9443L125.502 49.092C125.649 49.1659 125.76 49.2028 125.871 49.2397C125.945 49.2767 126.019 49.3136 126.092 49.3136C126.388 49.4614 126.683 49.6091 127.015 49.7569C127.236 49.8677 127.495 50.0154 127.753 50.1631C128.012 50.3109 128.233 50.4586 128.491 50.6064C130.743 51.973 133.363 53.9306 135.024 55.8513L136.205 54.8171C134.36 52.6748 131.333 50.4217 128.713 48.9073C128.454 48.7596 128.233 48.6118 127.975 48.501C127.864 48.4272 127.753 48.3902 127.642 48.3164C127.532 48.2055 127.384 48.0947 127.236 48.0209C127.2 47.9839 127.163 47.9839 127.126 47.947C126.757 47.7254 126.388 47.5038 126.092 47.2821C125.834 47.0975 125.576 46.9128 125.354 46.765C125.059 46.5434 124.838 46.3218 124.653 46.1741C123.767 45.3245 123.915 44.9921 123.952 44.9552C124.173 44.5858 124.432 44.2534 124.911 44.1426C125.133 44.0687 125.391 44.0687 125.723 44.1057C125.945 44.1426 126.203 44.1795 126.498 44.2534C126.831 44.3642 127.2 44.475 127.642 44.6597C127.864 44.7705 128.122 44.8813 128.381 44.9921C128.418 44.9921 128.454 45.0291 128.491 45.0291C128.713 45.1399 128.934 45.2507 129.156 45.3615C133.105 47.393 137.903 50.9388 137.94 50.9757C144.694 56.4053 148.31 75.9075 147.646 80.8569C147.24 80.8569 146.76 80.8938 146.17 80.9677C141.926 81.4478 133.621 83.3316 131.997 83.8856C131.961 83.8856 131.961 83.8856 131.924 83.9225C131.628 84.0334 131.001 84.255 130.743 84.255C130.558 83.8856 130.521 82.4451 130.447 80.8199C130.374 79.1209 130.3 76.8309 130.041 73.7282C130.005 73.0634 129.229 70.958 128.012 67.5969ZM122.033 65.1222C122.328 61.4655 120.815 57.5134 119.597 54.3369C118.268 50.9019 117.53 48.7596 118.637 48.3164L118.711 48.2794L118.785 48.2055C119.486 47.6884 120.372 48.0578 121.442 48.9812C121.147 50.1632 121.405 51.7145 122.254 53.0811C122.549 53.5982 122.992 54.1522 123.583 54.7801L122.18 66.3041C122.07 65.8609 121.996 65.4546 122.033 65.1222ZM125.502 74.5778L126.351 67.6708C126.425 67.8185 126.461 67.9662 126.535 68.114C127.384 70.4409 128.454 73.3589 128.491 73.9499C128.676 76.2399 128.75 78.1236 128.823 79.601C127.975 78.6777 126.794 76.9417 125.502 74.5778ZM122.439 119.049C122.771 119.233 125.465 120.711 126.572 120.785C126.72 126.768 126.794 132.826 126.535 133.638L128.012 134.118C128.418 132.863 128.233 124.737 127.938 113.434C127.864 110.036 127.753 106.971 127.753 105.161C127.79 101.689 127.753 96.4438 127.753 91.4944C127.753 89.9431 127.753 88.6134 127.753 88.281C127.864 87.9855 128.381 87.2098 130.853 86.1018C131.333 85.8801 131.85 85.6955 132.367 85.5108C132.403 85.5108 132.403 85.5108 132.44 85.4739C134.286 84.809 141.852 83.2208 145.764 82.6667C146.613 82.5929 147.425 82.5559 148.126 82.5559L148.753 82.7406L148.79 82.5559C150.082 82.5929 151.078 82.7037 151.595 82.9991C151.964 83.3685 153.773 86.6189 157.02 115.65C158.866 131.939 160.195 148.043 160.195 150.924C160.231 161.673 155.839 168.321 147.462 170.205C142.073 171.424 135.393 170.537 128.454 167.841C126.904 144.719 123.546 125.217 116.054 115.983C118.563 117.091 120.999 118.162 122.439 119.049Z" fill="black"/>
<path d="M52.2044 63.6447C52.0937 63.6078 52.0199 63.6078 51.9091 63.6078C51.7246 63.6078 51.577 63.6447 51.4293 63.7186C51.0972 63.9033 50.8757 64.2357 50.8757 64.6051C50.8757 64.8267 50.9495 65.0113 51.0234 65.1591C51.2079 65.4546 51.5401 65.6393 51.9091 65.6393C51.946 65.6393 51.946 65.6393 51.9829 65.6393C52.2782 65.6023 52.5365 65.4915 52.6842 65.2699C52.8318 65.0852 52.9425 64.8636 52.9425 64.6051C52.9425 64.1618 52.6104 63.7925 52.2044 63.6447Z" fill="black"/>
<path d="M116.423 31.6213C117.677 32.397 118.895 33.1357 119.855 33.9852L120.925 32.8402C119.855 31.8799 118.6 31.1042 117.271 30.2917C115.648 29.2944 113.987 28.2971 112.4 26.7827C112.363 26.7458 108.155 23.5324 107.786 23.3846L107.491 24.2711L107.159 24.7882C107.454 24.9729 111.034 27.6323 111.329 27.8908C113.027 29.5529 114.836 30.661 116.423 31.6213Z" fill="black"/>
<path d="M115.316 38.6762L116.017 37.2726C114.504 36.5339 111.772 35.9799 109.152 35.4628C107.196 35.0934 105.351 34.724 104.133 34.3177L103.616 35.7952C104.908 36.2384 106.827 36.6078 108.82 37.0141C111.366 37.5312 113.987 38.0113 115.316 38.6762Z" fill="black"/>
<path d="M104.871 43.1453V44.7336C105.978 44.7336 107.196 44.5489 108.377 44.4011C109.558 44.2165 110.776 44.0687 111.92 44.0687V42.4805C110.665 42.4805 109.374 42.6651 108.156 42.8498C106.975 42.9976 105.904 43.1453 104.871 43.1453Z" fill="black"/>
</mask>
<g mask="url(#mask0)">
<rect x="-2" y="-7" width="197" height="197" rx="98.5" fill="black"/>
</g>
</g>
<circle cx="95" cy="95" r="93.75" stroke="black" stroke-width="2.5"/>
<defs>
<clipPath id="clip0">
<rect width="141.769" height="166.615" fill="white" transform="translate(24.8462 23.3846)"/>
</clipPath>
</defs>
</svg>
