<svg width="260" height="260" viewBox="0 0 260 260" fill="none" xmlns="http://www.w3.org/2000/svg">
<circle cx="130" cy="130" r="128.75" stroke="black" stroke-width="2.5"/>
<path d="M192.692 84.8841C197.32 85.347 210.279 84.6526 212.13 89.7447C212.824 91.8279 212.361 95.5313 212.593 97.8459C212.824 99.929 213.518 102.012 214.444 104.095C215.37 106.178 216.758 107.336 217.915 108.956C219.072 110.576 219.535 110.576 219.072 113.122C218.609 114.742 217.684 116.594 216.989 118.214C214.213 124.695 211.436 131.176 208.659 137.426C207.965 138.814 210.047 139.972 210.742 138.583C214.213 130.482 217.684 122.381 221.386 114.28C221.849 113.122 223.006 111.271 222.543 109.882C222.312 108.956 221.155 108.493 220.692 108.03C218.841 106.178 217.684 104.79 216.758 102.244C215.138 98.0773 215.37 94.1425 215.138 89.7447C214.907 88.356 215.37 86.5043 214.213 85.347C212.593 83.9582 207.965 84.1897 206.114 83.9582C201.948 83.4953 197.783 83.0324 193.618 82.338C191.304 82.338 191.304 84.6526 192.692 84.8841Z" fill="black"/>
<path d="M206.577 142.055C201.717 154.785 195.238 167.978 192.693 181.171C193.387 181.403 194.081 181.634 195.007 181.866C195.007 181.403 195.238 181.171 195.238 180.709C195.469 179.32 193.155 178.625 192.924 180.014C192.924 180.477 192.693 180.709 192.693 181.171C192.461 182.56 194.544 183.255 195.007 181.866C197.552 168.441 204.031 155.479 208.891 142.749C209.353 141.129 207.039 140.666 206.577 142.055Z" fill="black"/>
<path d="M212.13 90.4393C208.891 99.0033 205.42 107.567 202.18 116.363C201.717 117.752 203.8 118.446 204.494 117.057C207.734 108.493 211.205 99.9291 214.444 91.1336C214.907 89.5134 212.593 89.0505 212.13 90.4393Z" fill="black"/>
<path d="M208.197 132.565C211.668 124.232 215.139 115.668 218.61 107.336C219.072 105.947 216.99 105.253 216.296 106.641C212.825 114.974 209.354 123.538 205.883 131.871C205.42 133.259 207.734 133.954 208.197 132.565Z" fill="black"/>
<path d="M206.114 126.084C209.353 118.677 212.824 111.271 216.064 103.864C216.758 102.475 214.676 101.318 213.981 102.707C210.742 110.113 207.271 117.52 204.031 124.927C203.568 126.316 205.42 127.473 206.114 126.084Z" fill="black"/>
<path d="M196.164 91.1336C199.172 91.5965 202.18 91.828 205.189 92.2909C204.957 91.5965 204.495 91.1336 204.263 90.4392C201.949 95.2999 199.866 100.392 198.478 105.484C198.015 106.873 200.329 107.567 200.792 106.179C202.18 101.086 204.032 96.2257 206.346 91.5965C206.809 90.6707 206.114 89.9763 205.42 89.7448C202.412 89.2819 199.404 89.0504 196.395 88.5875C194.776 88.5875 194.776 90.9021 196.164 91.1336Z" fill="black"/>
<path d="M83.0088 92.7538C81.6204 90.4392 78.1494 82.3381 75.3726 82.1066C71.9016 81.6437 65.6537 87.1988 62.8769 88.819C53.8523 94.1426 44.8277 99.9291 37.4229 107.567C31.8693 113.354 28.167 119.835 26.3158 127.704C24.6959 134.88 22.8447 143.907 24.9273 151.082C26.0843 154.785 29.3239 157.563 31.8693 160.34C36.9601 165.664 42.2824 170.987 47.6046 176.08C53.1582 181.403 59.1745 186.727 65.1909 191.587C68.1991 193.902 72.3643 197.837 76.2982 198.3C82.0832 199.226 89.0252 192.976 93.1904 189.736C97.8184 186.032 102.446 182.329 106.843 178.163C108 177.237 106.38 175.617 105.223 176.543C98.0498 183.255 89.7194 191.356 80.4634 195.291C76.0668 197.143 73.29 194.596 69.5876 192.05C64.4968 188.347 59.8688 184.181 55.2408 180.014C46.679 172.145 37.8857 164.044 30.2495 155.248C26.7785 151.313 26.5471 146.916 26.7785 141.592C27.2413 134.648 28.167 126.779 30.9438 120.529C35.3404 111.039 44.365 103.632 52.9268 97.846C57.3234 94.837 61.9513 92.0594 66.3479 89.5134C67.9677 88.5875 71.2074 85.5786 73.0586 85.5786C76.761 85.1156 79.3064 91.5965 80.9262 94.1426C81.8518 95.2999 83.9344 94.1426 83.0088 92.7538Z" fill="black"/>
<path d="M75.6047 99.2347C87.6375 120.066 98.2819 141.592 107.538 163.581C107.769 164.044 108.695 164.275 109.158 164.044C122.81 154.554 138.083 148.304 154.744 145.527C156.132 145.295 155.669 142.981 154.049 143.212C137.389 145.99 121.885 152.471 108.001 161.96C108.464 162.192 109.158 162.192 109.621 162.423C100.133 140.203 89.4887 118.909 77.6873 98.0774C76.9931 96.6886 74.9105 97.8459 75.6047 99.2347Z" fill="black"/>
<path d="M76.9929 101.781C75.3731 103.17 73.9847 104.558 72.3649 105.947C71.9021 106.179 71.902 106.873 72.1334 107.336C86.0174 129.093 98.2817 151.776 108.926 175.385C109.389 176.311 110.546 176.08 111.009 175.385C120.727 160.572 137.388 149.925 154.975 147.841C156.363 147.61 156.363 145.295 154.975 145.527C136.463 147.841 119.339 158.72 108.926 174.228C109.62 174.228 110.314 174.228 111.009 174.228C105.455 161.729 99.2073 149.693 92.7281 137.657C89.7199 132.102 86.4803 126.316 83.2407 120.761C81.3894 117.752 79.5383 114.511 77.6871 111.502C75.1417 107.567 75.1416 106.641 78.6126 103.401C79.7696 102.475 78.1499 100.855 76.9929 101.781Z" fill="black"/>
<path d="M71.9015 107.567C69.1247 119.835 79.0749 132.565 84.8599 142.518C92.4961 155.711 100.595 168.441 107.769 181.866C108.231 182.792 109.388 182.56 109.851 181.866C116.099 172.839 124.661 165.432 133.685 159.646C138.082 156.637 142.71 154.091 147.569 152.239C150.809 151.082 153.817 150.619 157.057 149.925C162.61 148.304 167.701 145.758 173.486 144.369C185.056 141.36 197.32 140.435 208.89 143.212C209.816 143.444 210.51 142.749 210.279 141.823C205.419 122.149 200.097 102.244 193.618 83.0325C191.998 78.1718 190.147 73.0797 187.833 68.4505C186.907 66.3673 185.519 63.3583 183.436 62.201C179.271 59.8864 172.098 61.5067 167.701 62.201C158.214 63.8213 149.189 66.8302 140.396 70.5336C133.917 73.3111 128.363 76.5516 121.421 77.4774C114.942 78.4032 108.925 80.2549 102.909 82.5695C93.4217 86.2729 84.1657 91.5965 76.5295 98.5403C75.3725 99.4662 76.9923 101.086 78.1493 100.161C85.5541 93.6796 94.3473 88.5875 103.603 84.8841C108 83.0324 112.628 81.6437 117.487 80.7179C120.496 80.0235 123.504 80.0235 126.512 79.5606C128.594 79.0976 129.983 78.1718 132.066 77.246C141.784 72.3853 151.966 68.4504 162.61 65.9044C167.701 64.7471 177.189 61.9696 182.279 64.2842C184.825 65.4415 185.982 69.1449 186.907 71.4595C188.99 76.0887 190.61 80.9493 192.23 85.81C196.163 97.383 199.403 109.187 202.643 120.992C204.494 128.167 206.576 135.342 208.196 142.749C208.659 142.286 209.122 141.823 209.585 141.36C198.246 138.583 186.445 139.277 175.106 142.055C168.627 143.675 162.379 146.684 155.9 148.304C152.429 149.23 148.958 149.693 145.718 151.082C140.859 153.165 136.231 155.711 131.834 158.72C122.809 164.738 114.248 172.145 108 181.403C108.694 181.403 109.388 181.403 110.083 181.403C103.835 169.83 97.1241 158.72 90.4135 147.61C87.1739 142.286 84.1657 136.963 81.1575 131.639C77.2237 124.695 72.3643 117.057 74.4469 108.956C74.4469 106.873 72.1329 106.178 71.9015 107.567Z" fill="black"/>
<path d="M125.818 78.1717C134.611 102.244 144.562 126.084 155.437 149.23C156.132 150.619 157.983 149.462 157.52 148.073C146.876 124.927 136.925 101.318 128.132 77.4773C127.438 76.0886 125.355 76.783 125.818 78.1717Z" fill="black"/>
<path d="M157.057 148.073C170.247 138.583 190.147 129.787 206.577 136.037C207.965 136.5 208.659 134.417 207.271 133.722C190.379 127.241 169.784 136.268 155.9 145.99C154.743 146.916 155.9 148.999 157.057 148.073Z" fill="black"/>
<path d="M155.437 145.527C169.784 134.88 186.908 129.093 204.725 129.093C206.114 129.093 206.114 126.778 204.725 126.778C186.445 127.01 168.858 132.796 154.28 143.675C153.123 144.369 154.28 146.453 155.437 145.527Z" fill="black"/>
<path d="M128.595 161.729C126.975 167.053 124.893 173.533 128.364 178.626C131.372 183.255 136.463 183.486 141.554 183.486C158.677 183.718 176.032 186.032 193.156 183.023C194.081 182.792 194.313 181.635 193.619 181.172C190.842 178.394 187.602 175.154 187.139 170.987C186.908 168.441 187.602 165.201 188.296 162.655C189.916 155.017 192.693 147.61 196.627 140.666C197.321 139.277 195.47 138.12 194.544 139.509C189.916 147.61 186.677 156.868 185.288 165.895C184.131 173.071 187.139 177.468 192.23 182.56C192.462 181.866 192.462 181.172 192.693 180.709C180.197 182.792 167.702 182.098 155.206 181.403C149.653 181.172 143.868 181.403 138.314 180.94C127.207 180.014 128.595 169.83 131.141 161.96C131.372 161.035 129.058 160.34 128.595 161.729Z" fill="black"/>
<path d="M187.602 172.145C192.461 161.96 196.858 151.776 200.56 141.36C201.023 139.972 198.94 139.277 198.246 140.666C194.544 151.082 190.147 161.035 185.519 170.987C185.056 172.145 186.908 173.302 187.602 172.145Z" fill="black"/>
<path d="M190.378 178.857C195.238 166.358 200.097 153.628 204.494 140.898C204.957 139.509 202.643 138.814 202.18 140.203C197.783 152.933 193.155 165.664 188.064 178.163C187.602 179.783 189.916 180.246 190.378 178.857Z" fill="black"/>
<path d="M142.248 153.396C141.322 157.1 140.396 160.803 139.471 164.506C139.239 165.895 141.322 166.59 141.785 165.201C142.479 161.498 143.405 157.794 144.562 154.091C145.024 152.702 142.71 152.008 142.248 153.396Z" fill="black"/>
<path d="M77.9184 102.707C77.2242 102.012 78.844 97.3829 78.844 97.3829C78.844 97.3829 76.0672 93.911 74.4474 93.911C70.745 93.911 43.2084 115.205 42.977 119.372C42.7456 123.538 42.7456 119.603 42.7456 119.603C53.8528 136.5 76.7614 168.21 80.2324 167.053C83.7034 165.664 88.3314 159.646 93.4223 156.174C93.4223 156.174 70.2822 120.529 71.902 113.817C73.2904 106.641 77.9184 102.707 77.9184 102.707Z" fill="black"/>
<path d="M90.4139 106.873C100.133 100.623 110.314 95.5314 121.19 91.5965C122.579 91.1336 121.884 88.819 120.496 89.2819C109.62 93.2168 99.2071 98.3089 89.2569 104.79C87.8685 105.716 89.0255 107.799 90.4139 106.873Z" fill="black"/>
<path d="M96.6612 116.594C105.917 112.196 115.636 105.947 125.818 103.864C127.206 103.632 126.743 101.318 125.123 101.549C114.71 103.632 104.992 109.882 95.5042 114.511C94.1158 115.205 95.2728 117.057 96.6612 116.594Z" fill="black"/>
<path d="M103.141 126.547C106.381 124.001 110.083 122.149 114.017 120.529C115.406 120.066 114.711 117.752 113.323 118.214C109.158 119.835 105.455 121.686 101.984 124.464C100.596 125.39 101.753 127.473 103.141 126.547Z" fill="black"/>
<path d="M108.695 135.343C116.794 131.408 125.356 127.936 133.918 124.927C135.306 124.464 134.612 122.149 133.223 122.612C124.43 125.621 115.637 129.093 107.307 133.259C106.15 133.954 107.307 136.037 108.695 135.343Z" fill="black"/>
<path d="M112.628 145.527C115.868 144.832 119.107 143.444 121.884 141.592C123.041 140.666 121.884 138.814 120.727 139.509C117.95 141.36 115.173 142.518 111.934 143.212C110.545 143.675 111.008 145.758 112.628 145.527Z" fill="black"/>
<path d="M144.099 85.1156C155.206 79.5605 166.776 75.6257 179.04 73.5425C180.428 73.3111 179.966 70.9965 178.346 71.2279C165.85 73.3111 154.049 77.2459 142.942 83.0324C141.553 83.9583 142.71 85.8099 144.099 85.1156Z" fill="black"/>
<path d="M146.413 95.0685C153.355 92.5224 160.297 89.9763 167.239 87.6617C168.627 87.1988 167.933 84.8842 166.545 85.3471C159.603 87.8932 152.661 90.4393 145.719 92.7539C144.33 93.2168 145.024 95.5314 146.413 95.0685Z" fill="black"/>
<path d="M150.347 103.864C160.76 100.16 171.635 94.8369 182.743 93.4482C184.131 93.2167 184.131 90.9021 182.743 91.1336C171.404 92.5223 160.528 97.8459 149.884 101.781C148.264 102.244 148.727 104.327 150.347 103.864Z" fill="black"/>
<path d="M152.661 113.585C156.594 110.576 161.454 109.882 166.082 108.493C170.71 107.104 175.106 105.484 179.272 103.401C180.66 102.707 179.503 100.855 178.115 101.318C172.792 103.864 167.239 105.716 161.685 107.104C157.983 108.03 154.512 108.956 151.504 111.271C150.115 112.428 151.272 114.511 152.661 113.585Z" fill="black"/>
<path d="M155.437 123.538C161.685 121.686 167.933 119.835 174.18 117.983C177.883 116.826 183.899 116.363 186.676 113.354C187.602 112.197 185.982 110.576 185.056 111.734C182.279 114.743 174.18 115.668 170.247 116.826C165.156 118.446 159.834 119.835 154.743 121.455C153.354 121.686 154.049 124.001 155.437 123.538Z" fill="black"/>
<path d="M150.115 150.388C149.652 152.702 149.189 154.785 149.421 157.1C149.421 157.563 149.652 158.026 150.346 158.257C154.511 159.877 159.834 159.877 164.23 160.109C170.015 160.572 175.569 160.803 181.354 160.803C182.048 160.803 182.511 160.34 182.511 159.646C183.205 153.396 184.825 147.841 187.602 142.286C188.296 140.898 186.213 139.74 185.519 141.129C183.899 144.37 182.742 147.61 181.817 151.313C180.428 156.405 181.817 158.72 175.8 158.489C171.172 158.257 166.776 158.026 162.148 157.563C160.065 157.331 157.288 157.563 155.437 156.868C151.966 155.711 152.197 154.091 152.66 151.082C152.66 149.693 150.346 148.999 150.115 150.388Z" fill="black"/>
<path d="M151.967 150.156C154.049 153.165 156.363 155.942 158.909 158.489C159.603 159.183 160.76 158.026 160.066 157.331C157.752 154.785 155.438 152.008 153.355 149.23C152.892 148.536 151.504 149.23 151.967 150.156Z" fill="black"/>
<path d="M156.594 149.462C159.14 152.933 162.148 156.405 165.156 159.646C165.85 160.34 167.007 159.183 166.313 158.489C163.305 155.48 160.528 152.239 157.983 148.767C157.289 147.841 155.9 148.767 156.594 149.462Z" fill="black"/>
<path d="M160.528 147.378C163.304 152.008 166.544 156.174 170.246 160.109C170.941 160.803 172.098 159.646 171.403 158.951C167.701 155.248 164.461 151.082 161.916 146.453C161.222 145.758 159.834 146.452 160.528 147.378Z" fill="black"/>
<path d="M165.619 145.99C168.396 150.619 171.635 155.017 175.338 159.183C176.032 159.877 177.189 158.72 176.495 158.026C172.792 154.091 169.784 149.693 167.007 145.064C166.545 144.369 165.156 145.064 165.619 145.99Z" fill="black"/>
<path d="M174.875 150.387C175.106 151.545 175.8 152.702 176.957 153.165C177.883 153.628 178.577 152.239 177.651 151.776C176.957 151.545 176.494 151.082 176.494 150.156C176.263 149.462 174.875 149.23 174.875 150.387Z" fill="black"/>
<path d="M179.04 148.536C179.271 148.536 179.271 148.536 179.503 148.536C180.428 148.536 180.428 146.916 179.503 146.916C179.271 146.916 179.271 146.916 179.04 146.916C178.114 146.916 178.114 148.536 179.04 148.536Z" fill="black"/>
<path d="M143.404 141.129C144.33 140.666 145.024 140.666 145.95 140.898C146.875 141.129 146.875 139.509 145.95 139.277C144.793 139.046 143.636 139.277 142.479 139.74C141.785 140.203 142.479 141.592 143.404 141.129Z" fill="black"/>
<path d="M143.636 136.731C143.867 136.5 144.099 136.268 144.562 135.805C145.256 135.111 144.099 133.954 143.405 134.648C143.173 134.88 142.942 135.111 142.479 135.574C141.785 136.268 142.942 137.426 143.636 136.731Z" fill="black"/>
<path d="M143.173 130.713C143.404 130.482 143.636 130.25 144.098 129.787C144.793 129.093 143.636 127.936 142.941 128.63C142.71 128.862 142.479 129.093 142.016 129.556C141.322 130.25 142.479 131.408 143.173 130.713Z" fill="black"/>
<path d="M195.007 124.464C196.164 124.001 197.552 124.001 198.941 124.232C199.866 124.464 200.329 122.844 199.403 122.844C197.784 122.612 196.164 122.612 194.776 123.075C193.85 123.306 194.081 124.695 195.007 124.464Z" fill="black"/>
<path d="M195.701 118.909C196.163 118.909 196.858 118.909 197.32 118.909C198.246 118.909 198.246 117.289 197.32 117.289C196.858 117.289 196.163 117.289 195.701 117.289C194.775 117.52 194.775 118.909 195.701 118.909Z" fill="black"/>
<path d="M195.469 113.585C195.932 113.122 196.395 112.659 196.858 112.196C197.552 111.502 196.395 110.345 195.701 111.039C195.238 111.502 194.775 111.965 194.312 112.428C193.618 113.122 194.775 114.28 195.469 113.585Z" fill="black"/>
</svg>
