<svg width="260" height="260" viewBox="0 0 260 260" fill="none" xmlns="http://www.w3.org/2000/svg">
<g clip-path="url(#clip0)">
<mask id="mask0" mask-type="alpha" maskUnits="userSpaceOnUse" x="34" y="32" width="361" height="643">
<path d="M153.053 37.4083C155.729 39.9355 158.558 41.5023 161.083 43.0692L149.467 34.6789C151.032 35.8919 152.901 37.2566 153.053 37.4083Z" fill="white"/>
<path d="M161.083 43.069L164.719 45.6973C163.659 44.737 162.396 43.9283 161.083 43.069Z" fill="white"/>
<path d="M149.467 34.6788C148.255 33.769 147.194 33.0109 147.144 33.0109L149.467 34.6788Z" fill="white"/>
<path d="M147.043 49.1849L142.194 47.9718C143.457 48.4267 145.174 48.831 147.043 49.1849Z" fill="white"/>
<path d="M147.043 49.1849L158.305 51.9648C155.932 50.8023 151.083 49.9936 147.043 49.1849Z" fill="white"/>
<path d="M148.053 59.6981L153.154 59.1926C151.487 59.1926 149.77 59.4453 148.053 59.6981Z" fill="white"/>
<path d="M148.053 59.698L143.507 60.1529C144.921 60.1023 146.487 59.9002 148.053 59.698Z" fill="white"/>
<path d="M42.9531 346.484H43.9631C44.1652 346.484 44.3672 346.484 44.5692 346.484C44.8722 346.484 45.2763 346.484 45.6298 346.484C45.9833 346.484 46.3369 346.484 46.6904 346.484C48.6096 370.29 50.9833 411.887 53.5085 455.305C54.1145 465.717 54.7206 476.23 55.3266 486.692C57.7508 528.037 62.7508 613.254 65.6295 620.431C66.5891 620.381 68.0537 620.33 69.8719 620.33C70.2254 620.33 70.579 620.33 70.9325 620.33C71.286 620.33 71.6396 620.33 71.9931 620.33C72.3466 620.33 72.6497 620.33 73.0032 620.33L72.5992 618.864C72.1951 618.966 71.9931 619.269 71.8921 619.471C71.8921 619.522 71.8416 619.572 71.8416 619.623C71.8416 619.521 71.8416 619.37 71.8921 619.218C71.8921 618.814 71.8921 618.157 71.8921 617.298C71.8921 616.944 71.8921 616.59 71.8416 616.186C71.8416 615.832 71.8416 615.478 71.7911 615.074C71.2355 599.607 68.2558 548.305 65.377 498.418C61.5387 432.56 57.5993 364.528 57.2458 346.282C57.2458 345.928 57.2458 345.523 57.2458 345.22H58.3064H59.367C59.367 345.574 59.367 345.928 59.367 346.282C59.5185 353.408 60.2256 368.47 61.2862 387.93C66.5891 378.074 77.6496 353.307 78.5587 345.726C78.6092 345.321 78.6092 344.967 78.6092 344.664L79.6698 344.614L80.7304 344.563C80.7304 344.866 80.7304 345.22 80.6799 345.624C79.7203 354.823 65.5285 385.301 61.5387 391.72L61.4882 391.822C63.1043 421.996 65.377 461.521 67.5487 498.317C69.4174 530.16 71.1345 560.234 72.3466 582.726C73.0032 594.755 73.4577 603.6 73.7102 609.716C73.8113 611.536 73.8618 613.153 73.9123 614.518C73.9123 614.922 73.9628 615.276 73.9628 615.63C73.9628 616.034 73.9628 616.388 74.0133 616.742C74.0133 616.944 74.0133 617.095 74.0133 617.298C74.0638 619.016 74.0638 619.926 73.9123 620.431C74.3163 620.431 74.7708 620.431 75.2254 620.431C80.0738 620.431 88.0535 620.431 93.9625 620.078C94.3161 620.078 94.6696 620.027 95.0231 620.027C95.3766 620.027 95.7302 619.976 96.0837 619.926C98.7604 619.724 100.781 619.37 101.387 618.915C101.69 615.529 102.851 590.509 104.265 561.649C105.276 541.28 106.387 518.181 107.397 497.559C108.053 484.519 108.558 474.309 109.013 466.273L108.659 452.272L110.578 440.647C110.78 438.372 110.882 437.564 110.983 437.311C111.185 436.502 113.053 425.484 115.073 413.202L118.255 393.894L120.376 394.248C119.77 398.038 118.609 405.115 117.397 412.494C126.992 432.257 124.467 577.823 123.508 612.445C123.508 612.85 123.508 613.204 123.457 613.557C123.457 613.962 123.457 614.316 123.407 614.669C123.356 616.085 123.306 617.197 123.306 618.056L145.275 616.893L146.386 616.843L147.447 616.792L150.022 616.641L167.194 399.251C167.497 399.656 167.851 400.111 168.154 400.515C168.457 400.919 168.81 401.374 169.113 401.779C192.396 431.498 223.759 462.735 243.86 473.753C250.88 477.594 256.89 481.031 262.698 484.418C278.91 493.718 291.687 501.097 313.303 509.033L314.162 509.336V509.285C314.212 509.285 314.263 509.336 314.313 509.336C314.566 523.64 306.586 539.915 282.496 574.689C281.233 576.458 279.718 578.53 278.001 580.957C265.779 597.687 245.274 625.688 251.385 648.433C251.738 649.747 251.991 651.01 252.193 652.223C239.062 650.454 229.617 635.594 237.749 603.398C240.173 593.896 254.971 577.216 253.708 576.711C239.415 571.303 221.991 599.304 220.072 607.947C217.799 618.258 208.355 654.195 242.799 669.206C249.92 672.34 258.96 672.542 264.819 671.531C269.112 672.34 275.071 672.744 283.253 672.795C285.425 672.795 287.748 672.845 290.273 672.845C299.869 672.845 311.889 672.694 324.414 672.593C346.131 672.34 368.606 672.087 378.757 672.593C381.131 672.694 384.716 670.621 386.383 667.033C387.494 664.708 388.555 659.957 383.353 654.296C380.777 651.516 378.151 649.696 376.989 648.938C376.989 646.613 376.838 644.49 376.686 641.912C376.535 638.981 376.333 635.696 376.232 630.894C376.03 622.756 376.333 590.054 376.585 561.244C376.686 547.749 376.838 535.012 376.888 525.561C376.939 520.506 376.939 516.816 376.939 514.239C376.939 512.47 376.939 511.307 376.888 510.6C378.151 509.791 378.858 508.982 379.06 508.224C379.717 505.596 379.111 498.065 377.545 496.953C377.343 496.801 377.141 496.751 376.939 496.7C376.989 496.397 377.04 496.093 377.09 495.79C377.494 493.162 377.999 490.18 380.575 489.27C386.989 486.996 393.605 478.504 394.817 471.024C395.423 467.182 394.514 464.251 392.191 462.431C386.888 458.388 383.353 456.77 380.979 455.709C376.787 453.839 376.131 453.536 374.313 442.062C373.707 438.271 373.605 435.845 373.504 433.722C373.302 429.426 373.151 426.848 369.363 418.812C368.505 416.992 367.292 416.689 366.484 416.841C360.979 417.498 353.858 440.141 353.353 442.264C353.101 442.517 351.333 443.73 339.667 443.781C339.161 441.961 338.555 439.737 337.899 437.412C336.182 431.296 334.01 423.664 333.353 419.014C332.899 415.779 331.03 415.527 330.222 415.577C324.616 415.88 314.717 433.419 314.162 451.514C314.01 456.518 314.364 466.222 314.667 475.573C314.919 483.306 315.222 491.949 315.121 494.779C314.818 494.83 314.566 494.931 314.414 495.032C313.101 495.942 313.152 498.267 313.202 501.552C313.253 503.271 313.253 505.343 313 506.708C292.142 498.974 279.617 491.747 263.758 482.649C257.95 479.313 251.94 475.825 244.87 471.984C224.516 460.864 192.547 428.769 169.366 398.797C169.012 398.392 168.709 397.937 168.406 397.533C168.103 397.129 167.749 396.674 167.446 396.269L171.638 342.845C172.042 342.845 172.396 342.794 172.699 342.794C173.103 342.794 173.456 342.743 173.76 342.743C175.527 342.693 176.537 342.642 176.638 342.642L177.699 342.592V341.53C177.598 332.23 177.598 322.526 177.547 312.316C177.497 285.629 177.446 257.527 175.881 232.356C182.497 234.832 188.961 236.147 194.769 236.147C197.396 236.147 199.87 235.894 202.194 235.388C214.567 232.608 221.335 222.5 221.284 206.882C221.284 202.788 219.416 180.296 216.84 157.652C211.941 114.033 209.416 112.567 208.456 112.061C207.496 111.505 205.931 111.253 203.961 111.152C204.416 107.159 203.355 99.1727 201.335 91.2879C199.668 84.8688 195.931 73.3448 189.87 68.4926C189.82 68.4421 182.547 63.0844 176.79 60.2034L178.153 48.9321C178.355 47.3147 177.194 45.7984 175.578 45.6468C174.77 45.5457 174.012 45.7479 173.406 46.2533C172.8 46.7588 172.396 47.4664 172.295 48.2245L171.184 58.2828C169.82 58.3838 168.659 58.9904 167.749 60.5067C166.941 61.8714 167.598 63.2866 168.76 64.4996C168.154 64.6007 167.699 64.904 167.345 65.1567C165.376 63.5393 163.406 62.7812 161.436 64.1458C158.002 65.6622 159.719 70.0089 161.638 75.1139C163.305 79.4606 165.224 84.4139 164.82 88.9123C164.719 90.3781 165.376 92.9558 166.487 95.8874L164.82 109.281C164.618 110.899 165.78 112.415 167.396 112.567C167.497 112.567 167.648 112.567 167.749 112.567C169.214 112.567 170.527 111.455 170.679 109.939L171.234 105.592C173.002 108.523 174.82 110.899 176.335 111.809C176.436 114.184 176.537 115.549 176.941 116.408C174.366 117.672 172.951 118.986 172.648 120.401C172.598 120.553 172.598 120.553 172.648 125.253C172.648 129.499 172.699 136.525 172.699 141.882C172.699 142.287 172.699 142.994 172.699 143.904C172.699 146.482 172.648 148.453 172.547 149.059L172.8 149.11C172.85 150.98 172.901 153.052 172.951 155.327C173.002 157.652 173.103 160.331 173.153 163.111C172.295 162.909 169.719 161.695 168.659 161.089C165.527 159.168 159.214 156.591 154.517 154.619C150.578 152.395 140.831 149.211 131.336 146.128C127.346 144.814 123.558 143.601 120.225 142.438C120.073 142.388 118.912 142.337 117.144 142.337C115.982 136.626 114.922 131.167 114.619 128.994C114.77 128.994 114.922 128.943 115.073 128.943C120.073 128.286 135.225 126.315 134.972 114.589C134.669 98.3135 130.78 83.3525 124.063 72.4856C122.649 70.1606 121.083 68.0377 119.467 66.2181C124.114 64.1964 127.295 59.9507 127.901 54.7447C128.659 48.6794 125.78 43.0185 120.275 39.6321C115.174 36.4984 107.245 37.863 100.427 40.9462C99.619 41.6538 98.912 42.4625 98.2049 43.2207C97.5988 43.9283 97.0433 44.6359 96.4877 45.3941C95.7302 46.4555 95.1241 47.5169 94.6191 48.4772C92.1949 53.38 89.4171 57.2719 85.4778 60.9616C85.4273 61.0627 85.2758 61.2143 85.2758 61.2648L83.5081 60.1023C83.8616 59.6474 83.8616 59.5969 83.9626 59.4958C87.7505 55.9072 90.3767 52.3186 92.6999 47.5675C92.8009 47.3653 92.9019 47.1631 93.0534 46.9104C93.306 46.405 93.609 45.8995 93.912 45.3941C94.2655 44.8381 94.6191 44.2821 95.0736 43.7261C93.3565 44.5348 91.1848 45.3435 88.7101 46.2028C83.6596 48.0224 77.3971 50.2463 72.3971 53.9865C65.175 59.3947 64.3669 70.11 66.6396 77.7421C66.8416 78.3487 67.0942 79.3595 67.3972 80.5726C63.4073 83.1503 63.4073 85.9808 65.7305 91.8944C66.9427 94.9776 68.2558 98.7684 69.5689 102.408C70.68 105.592 71.5891 108.119 72.2961 109.939C70.9325 109.281 69.7204 109.18 68.9123 109.939C64.771 114.184 68.2558 120.047 71.6396 125.759C71.9426 126.214 72.1951 126.719 72.4981 127.174C74.9729 131.218 77.4981 135.362 77.3971 142.994C58.9125 149.413 37.9026 160.028 34.7208 168.519L34.6703 168.62C31.1855 181.913 42.3975 338.801 42.9026 345.473L42.9531 346.484ZM335.576 657.278C331.182 653.335 325.727 648.382 329.768 638.577C335.677 624.273 328.657 601.983 318.404 590.206C312.95 583.888 307.091 581.108 302.041 582.422L301.485 580.35C307.394 578.834 313.96 581.816 320.02 588.791C325.424 595.008 329.869 603.853 332.242 613.052C334.818 623.009 334.616 632.41 331.737 639.436C328.303 647.826 332.697 651.819 336.99 655.711C339.818 658.289 342.495 660.715 342.242 664.152L340.121 664C340.273 661.523 338.101 659.552 335.576 657.278ZM376.585 498.823C377.141 500.592 377.696 505.292 377.141 507.365C377.04 507.668 376.636 508.123 375.777 508.578L375.474 508.679C371.08 510.498 366.535 511.762 361.737 512.52C359.01 512.874 355.979 513.177 352.495 513.329C352.192 513.329 351.939 513.329 351.636 513.379C341.081 513.531 329.515 511.459 316.788 507.112C316.637 506.708 316.232 506.354 315.626 506.404C315.475 506.404 315.374 506.455 315.222 506.455C315.475 504.939 315.475 503.018 315.424 501.198C315.424 499.632 315.374 497.357 315.677 496.599C315.727 496.599 315.727 496.649 315.778 496.649C322.546 501.855 336.838 504.635 350.222 504.635C360.272 504.635 369.868 503.069 375.424 499.682C375.727 499.48 375.979 499.227 376.181 498.974C376.383 498.924 376.484 498.873 376.585 498.823ZM324.768 448.33C324.768 447.369 325.273 441.354 326.081 435.491C327.747 423.411 329.061 423.159 329.97 423.007L330.323 425.13C330.475 425.079 330.576 425.029 330.576 425.029C328.909 426.646 326.838 445.6 326.838 448.33H324.768ZM362.242 444.337C362.242 439.383 363.909 434.329 365.525 429.426C365.979 427.96 366.434 426.646 366.838 425.282L368.909 425.888C368.505 427.253 368.05 428.719 367.545 430.083C365.979 434.834 364.363 439.687 364.363 444.337H362.242ZM382.848 464.807C385.676 464.857 387.949 464.908 389.211 466.525C390.272 467.89 390.272 470.013 389.363 473.652C388.656 476.331 387.04 478.302 384.918 479.01C384.413 479.161 383.757 479.313 383.05 479.313C381.535 479.313 379.616 478.757 377.292 476.988L377.191 476.887C374.969 474.562 373.404 470.468 374.616 467.688C375.272 466.273 376.838 464.605 380.929 464.756C381.535 464.807 382.191 464.807 382.848 464.807ZM46.5389 344.31C46.1348 344.31 45.7813 344.31 45.4783 344.31C45.2763 344.31 45.1247 344.31 44.9732 344.31C44.8217 342.137 44.4177 336.678 43.9126 328.996C43.9126 328.844 43.9126 328.642 43.8621 328.44C43.8621 328.086 43.8116 327.732 43.8116 327.378C40.8824 284.669 34.0643 179.841 36.741 169.226C39.0642 163.212 54.3165 153.962 73.3062 146.785C73.3567 147.038 73.4577 147.644 73.7607 149.11C73.8618 149.565 73.9628 150.07 74.0638 150.677C74.1143 150.879 74.1648 151.081 74.1648 151.283C74.2153 151.587 74.3163 151.94 74.3668 152.294C75.2254 156.489 76.488 162.706 77.4476 167.559C77.4981 168.165 77.5991 168.873 77.6496 169.631C77.7001 169.985 77.7506 170.389 77.7506 170.793C77.8011 171.147 77.8516 171.551 77.8516 171.956C78.9122 182.469 80.8314 202.181 81.791 213.553C76.387 226.948 80.9829 245.244 89.6696 264.704C74.5688 257.577 57.9529 237.157 45.0237 196.015L42.9531 196.672C56.6903 240.291 74.7203 261.065 90.9828 267.585C99.0635 285.022 110.174 303.269 120.174 319.695C121.285 321.465 122.346 323.234 123.356 324.952C123.558 325.306 123.76 325.66 124.013 326.013C124.215 326.367 124.417 326.721 124.669 327.075C127.851 332.331 130.78 337.234 133.356 341.783C100.781 342.794 59.5185 344.108 46.5389 344.31ZM70.377 111.556C70.983 111.556 72.4476 112.466 74.0638 113.729C74.9224 114.386 75.7809 115.145 76.6395 115.953L76.7405 116.054L77.3971 116.661L77.5991 116.509L78.1546 116.004C78.2051 115.953 78.3061 115.852 78.4072 115.751C78.6092 115.549 78.8617 115.296 79.1647 114.942C79.4678 114.589 79.8213 114.184 80.2758 113.729C80.3263 113.679 80.3768 113.578 80.4778 113.527C80.7809 113.224 81.0839 112.87 81.3869 112.516C81.7405 112.112 82.094 111.708 82.498 111.303C86.8919 106.552 93.609 99.4254 98.9625 95.6852C99.215 95.5336 99.4675 95.3314 99.72 95.1798C99.821 95.1292 99.922 95.0787 100.023 94.9776C100.377 94.7249 100.73 94.5227 101.033 94.3711C103.306 93.1075 104.467 93.0064 105.023 93.2591C105.225 93.3096 105.73 93.5624 106.084 95.0281C106.336 96.0895 105.831 98.4146 105.579 99.5265C105.326 99.9309 104.972 100.487 104.568 101.194C103.962 102.155 102.7 104.227 101.488 105.946C101.084 106.502 100.73 107.007 100.377 107.462C99.922 108.018 99.5685 108.422 99.215 108.624C99.114 108.675 99.013 108.726 98.912 108.776L99.0635 109.736L99.2655 110.899C99.518 110.848 99.7705 110.747 100.023 110.596C100.377 110.393 100.781 110.04 101.235 109.635C102.599 108.271 104.215 105.794 106.336 102.306C106.437 102.104 106.589 101.902 106.69 101.75C106.841 101.7 106.993 101.649 107.144 101.599C107.498 101.447 108.104 101.245 108.508 101.447C108.912 101.649 109.265 102.205 109.518 103.065C109.821 104.025 109.366 105.743 109.013 106.956C108.71 108.068 108.457 108.877 108.609 109.534C108.255 109.989 107.902 110.545 107.397 111.404C106.286 113.173 104.77 115.65 103.003 116.964L104.265 118.683C106.387 117.116 108.053 114.488 109.215 112.516C109.568 111.96 109.972 111.253 110.275 110.848C110.578 111 110.831 111.303 111.033 111.708C111.841 113.426 111.538 117.015 108.912 120.957C103.609 128.943 104.366 137.131 105.629 142.438C105.73 142.792 105.781 143.146 105.882 143.5C105.983 143.853 106.084 144.207 106.185 144.561C106.336 145.168 106.538 145.673 106.639 146.178C106.69 146.381 106.791 146.583 106.841 146.785V146.836C104.972 146.583 101.488 146.229 96.5888 145.724C93.4575 145.37 89.7707 145.016 86.5889 144.662C83.9121 144.359 81.5384 144.106 80.1243 143.904C79.8718 143.853 79.6193 143.853 79.4678 143.803C79.4678 143.803 79.4678 143.803 79.4678 143.752C79.4678 143.651 79.4678 143.55 79.4678 143.5C79.4678 143.247 79.4678 142.944 79.4678 142.691C79.4678 142.438 79.4678 142.186 79.4678 141.933C79.4172 140.214 79.2657 138.647 78.9627 137.182C78.0536 132.431 76.084 129.196 74.2658 126.214C73.9628 125.759 73.7102 125.304 73.4072 124.798C69.7709 118.43 67.7002 114.386 70.377 111.556ZM75.5789 112.061L75.4779 111.859C74.8213 110.899 73.2052 106.198 71.5891 101.7C70.2759 98.0102 68.9628 94.2194 67.7507 91.0857C66.0336 86.7389 65.579 84.6666 68.0032 82.746C68.2558 82.5438 68.6093 82.3416 68.9628 82.0889C69.2659 81.8867 69.5689 81.7351 69.9224 81.5329C71.0335 80.9264 72.4981 80.3199 74.2658 79.6123C75.4779 79.1068 76.8415 78.4497 78.2556 77.7421C80.1748 76.7818 81.9425 75.9226 83.5586 75.316C84.0131 75.1644 84.4172 75.0128 84.8212 74.8611C85.2253 74.7095 85.6798 74.6084 86.0838 74.5579C86.6899 74.4062 87.2959 74.3557 87.8515 74.3557C89.3161 74.3557 90.5282 74.8611 91.4373 76.0742C91.6393 76.3774 91.8918 76.7313 92.1444 77.1356C92.3464 77.4389 92.5484 77.7927 92.6999 78.1465C92.8514 78.4497 93.0534 78.8036 93.2049 79.1574C95.2251 83.1503 97.3968 89.0134 98.6594 93.158C98.6089 93.158 98.6089 93.2085 98.5584 93.2085C93.508 96.4939 87.1949 102.913 82.599 107.866C82.195 108.271 81.8415 108.675 81.4879 109.079C81.0839 109.484 80.7304 109.888 80.3768 110.292C79.8213 110.899 79.3162 111.455 78.8617 111.96C78.2556 112.617 77.7506 113.173 77.3466 113.628C76.791 113.123 76.185 112.617 75.6294 112.112C75.5789 112.112 75.5789 112.112 75.5789 112.061ZM114.77 126.82C113.154 127.022 112.346 127.123 112.346 128.185C112.346 129.347 113.407 134.857 114.871 142.337C112.851 142.337 110.427 142.337 107.801 142.337C106.589 137.384 105.68 129.6 110.679 122.069C113.407 117.975 114.265 113.527 112.952 110.697C112.447 109.635 111.69 108.928 110.73 108.624C110.78 108.271 110.932 107.816 111.033 107.462C111.488 105.895 111.993 103.924 111.538 102.357C111.084 100.891 110.376 99.9309 109.417 99.476C108.861 99.2233 108.306 99.1727 107.801 99.1727C108.104 97.7069 108.457 95.7863 108.154 94.4721C107.75 92.7537 106.942 91.6922 105.781 91.1868C104.467 90.6814 102.801 90.9846 100.528 92.1471C99.1645 87.8004 96.7908 81.4318 94.5686 77.2872C95.1241 76.2764 95.5282 75.0128 95.8817 73.4964C97.3968 71.9801 111.084 68.341 117.245 66.9763C125.73 76.3774 132.396 93.2591 132.8 114.69C133.002 124.445 119.316 126.214 114.77 126.82ZM119.619 144.561C122.952 145.724 126.689 146.937 130.629 148.2C136.437 150.07 142.75 152.143 147.447 153.912C148.154 154.367 149.972 155.125 153.406 156.54C153.457 156.54 153.507 156.591 153.558 156.591C153.709 156.692 153.861 156.793 154.012 156.894C163.406 164.728 169.517 184.339 172.648 216.889C173.002 220.781 173.355 224.825 173.608 228.919C173.659 229.727 173.709 230.536 173.76 231.345C175.376 256.667 175.426 284.82 175.477 312.215C175.477 322.071 175.527 331.371 175.578 340.418C175.174 340.418 174.618 340.469 174.012 340.469C173.659 340.469 173.305 340.469 172.951 340.52C172.598 340.52 172.244 340.52 171.891 340.57C165.073 340.823 151.588 341.278 135.831 341.783C133.305 337.234 130.376 332.331 127.194 327.075C126.992 326.721 126.79 326.367 126.538 326.013C126.336 325.66 126.134 325.306 125.881 324.952C124.619 322.88 123.356 320.807 122.043 318.634C121.74 318.129 121.437 317.623 121.083 317.118C120.881 315.096 122.801 307.868 124.77 300.236C129.619 281.636 136.184 256.313 131.134 246.457C133.406 239.179 133.912 230.789 132.194 222.196C131.891 220.731 131.336 217.445 130.528 212.947C128.76 202.838 126.083 187.523 123.306 174.331C122.548 170.642 121.841 167.508 121.184 164.829C120.124 160.432 119.215 157.248 118.457 154.923C117.599 152.294 116.892 150.879 116.336 150.02C115.679 149.059 115.225 148.908 114.871 148.807C114.013 148.504 111.892 147.998 109.114 147.392C109.013 146.937 108.861 146.381 108.659 145.623C108.558 145.319 108.457 145.016 108.356 144.662C110.983 144.662 113.356 144.662 115.275 144.662C115.679 144.662 116.033 144.662 116.386 144.662C116.791 144.662 117.144 144.662 117.498 144.662C118.609 144.511 119.316 144.511 119.619 144.561ZM82.397 221.994L84.5182 222.348C84.8717 219.922 81.8415 188.888 80.4273 174.534L80.9829 174.483C80.9829 174.129 80.8819 173.472 80.6799 172.512C80.6294 172.158 80.5788 171.804 80.4778 171.4C80.4273 171.046 80.3263 170.692 80.2758 170.288C79.4172 165.638 77.8516 158.056 76.387 150.829C76.286 150.374 76.185 149.969 76.1345 149.565C76.0335 149.009 75.9324 148.504 75.8314 148.049C75.6799 147.392 75.5789 146.836 75.5284 146.583C75.5284 146.532 75.5284 146.532 75.5284 146.482C75.5284 146.431 75.5789 146.381 75.7304 146.28C76.1345 146.027 76.7405 145.825 77.5486 145.673C77.7506 145.623 78.0031 145.623 78.2556 145.572C78.4072 145.623 78.6092 145.673 78.8617 145.724C79.1647 145.774 79.5688 145.825 79.9728 145.875C80.9829 146.027 82.397 146.178 84.2657 146.431C87.7505 146.836 92.3969 147.341 96.4877 147.745C101.69 148.301 107.094 148.857 107.851 149.009C107.902 149.009 107.902 149.009 107.952 149.009C110.882 149.615 113.154 150.222 114.366 150.576C114.821 150.829 116.235 152.648 119.164 164.678C119.316 165.234 119.417 165.79 119.568 166.396C119.669 166.851 119.77 167.306 119.871 167.761C120.376 169.934 120.881 172.36 121.487 175.09C124.215 188.13 126.841 203.141 128.609 213.099C129.417 217.647 129.972 220.882 130.275 222.399C134.518 243.122 125.124 262.631 108.912 266.827C104.013 268.09 98.5079 267.888 92.7504 265.765C84.8212 248.53 80.0233 232.204 82.4475 219.518C82.397 220.832 82.397 221.691 82.397 221.994ZM102.599 269.809C104.922 269.809 107.195 269.505 109.366 268.949C118.912 266.473 126.235 259.093 130.174 249.338C133.103 259.852 126.992 283.456 122.801 299.528C121.083 306.2 119.871 310.901 119.366 313.933C110.528 299.377 101.134 283.658 93.912 268.495C96.8413 269.404 99.7705 269.809 102.599 269.809ZM166.84 377.619L164.82 378.326C163.911 375.698 156.032 349.112 154.669 343.148C154.568 342.693 154.517 342.339 154.467 342.137L155.527 342.036L156.588 341.935V341.985C156.588 342.188 156.689 342.541 156.79 343.047C158.255 349.112 165.881 374.889 166.84 377.619ZM175.174 92.5009C174.568 90.8835 174.012 89.2661 173.507 87.9014C173.204 86.9917 172.901 86.183 172.699 85.5259C172.699 85.4248 172.648 85.3743 172.648 85.2732C172.345 84.1612 172.143 83.2514 171.992 82.5438C171.588 80.1177 172.143 79.7133 172.194 79.6628C172.194 79.6628 172.244 79.6123 172.345 79.6123C172.396 79.6123 172.446 79.6123 172.547 79.6123C172.749 79.6123 173.002 79.6628 173.406 79.7639C173.709 79.865 174.012 79.9661 174.416 80.1682C174.719 80.3199 175.123 80.522 175.527 80.7748C175.578 80.8253 175.679 80.8759 175.729 80.9264L175.679 80.9769C175.78 81.0275 175.931 81.078 176.032 81.1791C176.79 81.7351 177.446 82.2405 177.951 82.5943C178.86 83.2514 179.315 83.5547 179.618 83.7569C181.537 85.4248 183.305 87.2949 184.264 88.5585L185.982 87.2444C184.466 85.2732 181.335 82.0889 178.406 80.0671C177.8 79.6123 177.244 79.2584 176.689 78.9046C176.083 78.3992 175.426 77.8938 174.77 77.3378C174.467 77.0851 174.113 76.7818 173.81 76.4785C173.456 76.1753 173.153 75.9226 172.85 75.6193C172.345 75.1644 171.84 74.659 171.386 74.2041C171.032 73.8503 170.729 73.4965 170.426 73.1932C170.073 72.7888 169.77 72.3845 169.467 72.0307C169.366 71.879 169.214 71.6769 169.164 71.5252C168.659 70.7165 168.356 69.8573 168.255 69.0991C168.103 68.1388 168.255 67.2796 168.608 66.8752C168.709 66.7741 168.81 66.7236 168.962 66.6225C169.315 66.4709 169.77 66.5214 170.174 66.6225C170.477 66.673 170.729 66.7741 170.931 66.8752L171.234 66.9763L171.739 67.1785C171.941 67.2796 172.093 67.3301 172.244 67.3806C172.345 67.4312 172.446 67.4817 172.547 67.4817C172.951 67.6839 173.355 67.8861 173.81 68.0883C174.113 68.2399 174.467 68.4421 174.82 68.6442C175.174 68.8464 175.477 69.0486 175.83 69.2508C178.911 71.1209 182.497 73.7997 184.769 76.428L186.386 75.0128C183.86 72.0812 179.719 68.998 176.133 66.9257C175.78 66.7236 175.477 66.5214 175.123 66.3698C174.972 66.2687 174.82 66.2181 174.669 66.1171C174.517 65.9654 174.315 65.8138 174.113 65.7127C174.063 65.6622 174.012 65.6622 173.962 65.6116C173.456 65.3083 172.951 65.0051 172.547 64.7018C172.194 64.4491 171.84 64.1964 171.537 63.9942C171.133 63.6909 170.83 63.3877 170.578 63.1855C169.366 62.023 169.568 61.5681 169.618 61.5176C169.921 61.0121 170.275 60.5572 170.931 60.4056C171.234 60.3045 171.588 60.3045 172.042 60.3551C172.345 60.4056 172.699 60.4561 173.103 60.5572C173.557 60.7089 174.063 60.8605 174.669 61.1132C174.972 61.2648 175.325 61.4165 175.679 61.5681C175.729 61.5681 175.78 61.6186 175.83 61.6186C176.133 61.7703 176.436 61.9219 176.739 62.0735C182.143 64.8535 188.709 69.7057 188.759 69.7562C198.002 77.1861 202.951 103.873 202.042 110.646C201.486 110.646 200.83 110.697 200.022 110.798C194.214 111.455 182.85 114.033 180.628 114.791C180.578 114.791 180.578 114.791 180.527 114.841C180.123 114.993 179.264 115.296 178.911 115.296C178.658 114.791 178.608 112.82 178.507 110.596C178.406 108.271 178.305 105.137 177.951 100.891C177.901 99.9814 176.84 97.1004 175.174 92.5009ZM166.992 89.1145C167.396 84.1107 165.325 78.7025 163.659 74.3557C161.84 69.6551 160.83 66.7236 162.346 66.1171L162.447 66.0665L162.548 65.9654C163.507 65.2578 164.719 65.7632 166.184 67.0268C165.78 68.6442 166.133 70.7671 167.295 72.6372C167.699 73.3448 168.305 74.103 169.113 74.9622L167.194 90.7319C167.042 90.1254 166.941 89.5694 166.992 89.1145ZM171.739 102.054L172.901 92.602C173.002 92.8042 173.052 93.0064 173.153 93.2085C174.315 96.3928 175.78 100.386 175.83 101.194C176.083 104.328 176.184 106.906 176.285 108.928C175.123 107.664 173.507 105.289 171.739 102.054ZM167.547 162.909C168.002 163.161 171.689 165.183 173.204 165.284C173.406 173.472 173.507 181.761 173.153 182.873L175.174 183.53C175.729 181.812 175.477 170.692 175.073 155.226C174.972 150.576 174.82 146.381 174.82 143.904C174.871 139.153 174.82 131.976 174.82 125.203C174.82 123.08 174.82 121.26 174.82 120.805C174.972 120.401 175.679 119.34 179.062 117.823C179.719 117.52 180.426 117.267 181.133 117.015C181.184 117.015 181.184 117.015 181.234 116.964C183.759 116.054 194.113 113.881 199.466 113.123C200.628 113.022 201.739 112.971 202.699 112.971L203.557 113.224L203.608 112.971C205.375 113.022 206.739 113.173 207.446 113.578C207.951 114.083 210.426 118.531 214.87 158.258C217.395 180.548 219.213 202.585 219.213 206.528C219.264 221.236 213.254 230.334 201.789 232.912C194.416 234.58 185.275 233.367 175.78 229.677C173.659 198.036 169.063 171.349 158.81 158.713C162.244 160.23 165.578 161.695 167.547 162.909Z" fill="black"/>
<path d="M71.4375 87.0928C71.286 87.0422 71.185 87.0422 71.0335 87.0422C70.781 87.0422 70.579 87.0928 70.3769 87.1939C69.9224 87.4466 69.6194 87.9015 69.6194 88.4069C69.6194 88.7102 69.7204 88.9629 69.8214 89.1651C70.0739 89.5694 70.5285 89.8221 71.0335 89.8221C71.084 89.8221 71.084 89.8221 71.1345 89.8221C71.5385 89.7716 71.8921 89.62 72.0941 89.3167C72.2961 89.064 72.4476 88.7607 72.4476 88.4069C72.4476 87.8004 71.9931 87.295 71.4375 87.0928Z" fill="black"/>
<path d="M159.315 43.2713C161.032 44.3327 162.699 45.3436 164.012 46.5061L165.477 44.9392C164.012 43.6251 162.295 42.5637 160.477 41.4517C158.255 40.087 155.982 38.7223 153.81 36.65C153.76 36.5995 148.002 32.2022 147.497 32L147.093 33.2131L146.639 33.9207C147.043 34.1734 151.942 37.8125 152.346 38.1663C154.669 40.4408 157.143 41.9571 159.315 43.2713Z" fill="black"/>
<path d="M157.8 52.9252L158.76 51.0046C156.689 49.9937 152.952 49.2355 149.366 48.5279C146.689 48.0225 144.164 47.517 142.497 46.9611L141.79 48.9828C143.558 49.5893 146.184 50.0948 148.911 50.6508C152.396 51.3584 155.982 52.0154 157.8 52.9252Z" fill="black"/>
<path d="M143.507 59.0409V61.2143C145.022 61.2143 146.689 60.9616 148.305 60.7594C149.921 60.5067 151.588 60.3045 153.154 60.3045V58.1311C151.437 58.1311 149.669 58.3838 148.002 58.6365C146.386 58.8387 144.921 59.0409 143.507 59.0409Z" fill="black"/>
</mask>
<g mask="url(#mask0)">
<rect x="1" y="2" width="258" height="257" rx="128.5" fill="#040404"/>
</g>
</g>
<circle cx="130" cy="130" r="128.75" stroke="black" stroke-width="2.5"/>
<defs>
<clipPath id="clip0">
<rect width="194" height="228" fill="white" transform="translate(34 32)"/>
</clipPath>
</defs>
</svg>
