<svg width="200" height="45" viewBox="0 0 200 45" fill="none" xmlns="http://www.w3.org/2000/svg">
<path d="M160.044 19.191C160.044 17.8283 160.044 16.4759 160.044 15.1132C160.044 14.8861 160.013 14.69 160.363 14.6693C162.64 14.5351 164.102 13.2344 165.101 11.2936C165.596 10.3335 165.822 9.2908 165.874 8.21716C165.895 7.83519 166.028 7.77325 166.358 7.77325C168.089 7.78358 169.829 7.7939 171.56 7.77325C171.951 7.77325 172.054 7.89714 172.054 8.2791C172.034 10.0031 172.064 11.7168 172.034 13.4408C172.023 13.9054 172.147 14.0499 172.631 14.0396C178.059 14.019 183.477 14.0293 188.905 14.019C189.359 14.019 189.513 14.1119 189.503 14.6074C189.472 16.3314 189.482 18.0451 189.493 19.7691C189.493 20.0892 189.462 20.244 189.081 20.2956C187.824 20.4711 187.68 20.7602 188.226 21.9164C188.782 23.1139 189.348 24.3114 189.905 25.509C189.935 25.5812 189.997 25.6432 190.08 25.7671C190.749 24.2805 191.419 22.8455 192.037 21.4002C192.274 20.8531 191.975 20.4608 191.347 20.3472C190.553 20.1924 190.553 20.1924 190.553 19.3872C190.553 17.756 190.564 16.1249 190.543 14.4835C190.543 14.1635 190.615 14.0396 190.976 14.0396C193.808 14.0499 196.641 14.0499 199.474 14.0396C199.803 14.0396 199.916 14.1222 199.916 14.4732C199.896 16.2591 199.906 18.0451 199.916 19.8414C199.916 20.1201 199.886 20.2956 199.546 20.2853C198.299 20.2647 197.661 20.9976 197.177 22.0609C194.941 26.9956 192.562 31.8785 190.358 36.8338C189.348 39.105 187.772 40.8909 185.311 41.5723C182.921 42.2227 180.511 42.2123 178.234 41.0664C175.968 39.9309 174.928 37.4016 175.68 35.0169C176.154 33.52 177.555 32.3638 179.12 32.2399C180.057 32.1676 181.005 32.1573 181.891 32.6115C183.415 33.3858 184.126 35.1717 183.529 36.7719C183.23 37.5565 182.602 37.9694 181.747 38.2791C182.519 38.4959 183.158 38.5062 183.755 38.1242C184.682 37.5358 185.208 36.648 185.64 35.6673C185.712 35.4918 185.651 35.3679 185.578 35.2337C183.333 30.8875 181.015 26.5723 178.863 22.1848C178.131 20.6879 177.132 20.1614 175.577 20.2543C174.547 20.3163 173.517 20.275 172.487 20.2646C172.178 20.2646 172.064 20.3472 172.064 20.6673C172.085 22.4429 172.085 24.2082 172.095 25.9839C172.095 26.2213 172.147 26.4587 172.209 26.6962C172.415 27.6046 172.816 27.9247 173.713 27.904C174.485 27.8937 175.041 27.4188 175.206 26.6136C175.381 25.7154 175.278 24.7967 175.299 23.8882C175.319 22.9281 175.299 22.9281 176.277 22.9281C177.266 22.9281 177.266 22.9281 177.266 23.9295C177.266 25.4574 177.318 26.9852 176.967 28.4925C176.401 30.9494 174.897 32.467 172.476 33.0554C170.592 33.5097 168.696 33.4684 166.822 32.9935C164.38 32.3741 163.072 30.6501 162.846 27.9763C162.64 25.6019 162.774 23.2378 162.743 20.8634C162.743 20.4092 162.64 20.213 162.156 20.2646C161.713 20.3059 161.259 20.2853 160.817 20.2646C160.466 20.2543 160.332 20.3059 160.435 20.7189C160.703 21.7203 160.786 22.7423 160.806 23.7746C160.817 24.2289 160.703 24.3527 160.24 24.3527C156.243 24.3321 152.247 24.3424 148.24 24.3424C147.56 24.3424 147.539 24.3424 147.601 25.0031C147.684 25.9632 147.787 26.9439 148.477 27.6975C149.445 28.7505 150.681 28.8951 151.979 28.5647C153.236 28.2447 153.926 27.3259 154.163 26.0871C154.245 25.6535 154.399 25.5296 154.822 25.5399C156.501 25.5606 158.19 25.5606 159.869 25.5399C160.271 25.5399 160.405 25.5916 160.312 26.0561C159.467 30.1442 156.892 32.5083 152.679 33.0451C150.424 33.3342 148.168 33.3961 145.922 32.9109C142.657 32.1986 140.885 30.9288 138.928 27.9556C138.795 28.0795 138.856 28.2447 138.856 28.3789C138.846 29.6177 138.846 30.8565 138.856 32.0953C138.856 32.405 138.815 32.5496 138.444 32.5496C134.015 32.5393 129.586 32.5393 125.157 32.5496C124.807 32.5496 124.724 32.436 124.735 32.1057C124.745 30.3197 124.755 28.5337 124.735 26.7375C124.735 26.3761 124.848 26.2729 125.208 26.2729C126.578 26.2626 127.135 25.6845 127.135 24.3218C127.135 23.6714 127.114 23.0107 127.145 22.3603C127.217 20.8221 126.197 20.3472 125.188 20.2956C124.807 20.275 124.745 20.1408 124.745 19.8104C124.755 18.0554 124.765 16.3004 124.745 14.5454C124.745 14.1635 124.838 14.0499 125.229 14.0499C128.814 14.0602 132.398 14.0706 135.993 14.0499C136.425 14.0499 136.487 14.2048 136.487 14.5764C136.477 17.9109 136.477 21.2454 136.477 24.5799C136.477 25.5916 136.889 26.0974 137.795 26.2419C138.176 26.3039 138.341 26.2729 138.238 25.7877C137.826 23.8985 137.847 21.9887 138.382 20.1304C139.31 16.8992 141.524 14.9068 144.666 13.957C148.096 12.9247 151.536 12.966 154.914 14.2254C157.263 15.1029 158.952 16.7134 159.92 19.0465C159.941 19.1084 159.972 19.16 160.003 19.222C159.993 19.191 160.023 19.191 160.044 19.191ZM150.001 21.3693C150.691 21.3693 151.371 21.3693 152.061 21.3693C152.267 21.3693 152.442 21.3693 152.401 21.0802C152.288 20.2543 152.144 19.4491 151.68 18.7368C151.237 18.0554 150.599 17.7767 149.785 17.8283C148.992 17.8799 148.425 18.2516 148.085 18.9742C147.787 19.6039 147.684 20.2853 147.57 20.9563C147.519 21.266 147.601 21.3899 147.941 21.3796C148.631 21.3486 149.311 21.3693 150.001 21.3693Z" fill="black"/>
<path d="M103.701 25.5916C103.547 26.1181 103.423 26.6549 103.227 27.1607C102.249 29.6693 100.426 31.3314 97.9228 32.1986C94.2249 33.4787 90.4756 33.4787 86.7675 32.2915C83.9659 31.3934 81.9779 29.5661 80.9788 26.5723C80.7522 28.2757 80.0002 29.5661 78.8054 30.5778C77.4149 31.7547 75.7565 32.3225 73.9849 32.6115C70.5549 33.169 67.2588 32.8283 64.1584 31.1456C64.1069 31.1146 64.0348 31.1043 63.9318 31.063C63.9318 31.4243 63.9112 31.7547 63.9421 32.0747C63.9627 32.3534 63.8494 32.4154 63.5919 32.4154C62.0262 32.4051 60.4709 32.4051 58.9052 32.4154C58.6168 32.4154 58.5756 32.3121 58.5756 32.0541C58.5859 29.3493 58.5859 26.6549 58.5756 23.9501C58.5756 23.6611 58.658 23.5682 58.9464 23.5682C60.4915 23.5785 62.0365 23.5888 63.5816 23.5682C63.9524 23.5578 63.973 23.785 64.0554 24.0327C64.8073 26.3349 66.9189 27.7905 69.2673 27.6459C69.6278 27.6253 69.9883 27.5634 70.318 27.4188C70.8021 27.202 71.2038 26.882 71.2553 26.2936C71.3068 25.6742 70.9978 25.2509 70.4828 24.9515C69.9471 24.6315 69.3703 24.4147 68.7832 24.2392C67.2382 23.785 65.6828 23.3927 64.1481 22.8971C62.4073 22.3397 60.8726 21.4209 59.7293 19.9446C57.1439 16.5998 58.1842 11.7375 61.9438 9.60052C63.8906 8.48559 66.0227 8.17589 68.2373 8.21718C70.5961 8.2688 72.8003 8.85723 74.9222 10.0341C74.9222 9.60052 74.9325 9.22888 74.9222 8.85723C74.9119 8.64044 74.984 8.55785 75.2106 8.55785C76.7865 8.56818 78.3728 8.56818 79.9487 8.55785C80.2268 8.55785 80.2474 8.67141 80.2474 8.8882C80.2371 11.5517 80.2371 14.2151 80.2474 16.8889C80.2474 17.1573 80.1856 17.2399 79.9075 17.2399C78.3419 17.2296 76.7865 17.2296 75.2209 17.2399C74.9634 17.2399 74.9016 17.147 74.8295 16.9095C74.16 14.4629 71.4922 12.8731 69.154 13.5234C68.2579 13.7712 67.8253 14.3493 67.9592 15.1029C68.0416 15.5675 68.3609 15.8462 68.7317 16.0733C69.6793 16.6308 70.73 16.8682 71.7806 17.1263C73.6347 17.5702 75.4578 18.1071 77.1471 19.0052C78.5788 19.7588 79.7015 20.8428 80.371 22.35C80.4019 22.4223 80.4637 22.4842 80.5564 22.6184C80.6389 22.0713 80.6904 21.6067 80.7831 21.1422C81.432 18.138 83.2139 16.0424 86.0465 14.9481C90.1357 13.3789 94.297 13.3686 98.3966 14.9481C101.25 16.0527 103.001 18.1896 103.67 21.1938C103.506 22.67 103.526 24.1256 103.701 25.5916ZM89.7752 23.7127C89.7855 24.6831 89.7649 25.9116 90.1975 27.0782C90.4344 27.7079 90.8464 28.1518 91.5263 28.3066C92.9683 28.6473 93.9983 28.1002 94.3279 26.6446C94.8121 24.4973 94.7812 22.3087 94.297 20.1614C94.0498 19.0568 93.3391 18.5819 92.2061 18.5716C91.0422 18.5716 90.4241 19.0258 90.0945 20.1408C89.7855 21.2351 89.7752 22.35 89.7752 23.7127Z" fill="black"/>
<path d="M103.701 25.5916C103.526 24.1359 103.505 22.67 103.66 21.2144C103.918 20.1408 104.216 19.0878 104.772 18.1277C105.833 16.2798 107.399 14.9893 109.366 14.2564C112.765 12.9763 116.237 12.8317 119.677 14.0602C121.572 14.7416 123.117 15.8978 123.921 17.8593C124.333 18.8607 124.425 19.8827 124.199 20.946C123.746 23.1036 122.025 24.2495 119.801 24.1153C118.698 24.0534 117.71 23.7437 117.061 22.7423C116.103 21.266 116.525 19.5007 118.05 18.6335C117.421 17.5289 114.805 17.4463 113.909 18.9845C113.497 19.6865 113.301 20.4401 113.208 21.2247C113.033 22.8042 113.023 24.3837 113.394 25.9322C113.898 28.1105 116.175 29.0396 118.008 27.8421C118.565 27.4704 118.935 26.9646 119.028 26.3039C119.069 26.0045 119.162 25.9013 119.471 25.9116C121.016 25.9219 122.561 25.9322 124.106 25.9116C124.487 25.9116 124.528 26.0355 124.467 26.3658C123.776 30.1545 121.583 32.3225 117.596 33.0038C114.826 33.4787 112.055 33.4167 109.387 32.3844C106.348 31.2075 104.453 28.9983 103.784 25.7877C103.773 25.7051 103.732 25.6535 103.701 25.5916Z" fill="black"/>
<path d="M130.976 6.4002C132.357 6.38988 133.5 6.63764 134.396 7.52546C136.188 9.29077 135.498 12.2536 133.098 13.1001C131.924 13.5131 130.709 13.544 129.503 13.2137C127.773 12.7491 126.805 11.4381 126.867 9.69339C126.918 8.15519 128.103 6.84411 129.751 6.51376C130.204 6.43118 130.657 6.36923 130.976 6.4002Z" fill="black"/>
<path d="M53.714 2.30213C53.6934 2.34343 53.6728 2.3744 53.6522 2.38472L53.6213 2.41569L21.8449 44.3806C21.5359 44.7729 21.1239 44.969 20.6192 44.969C20.2896 44.969 19.9909 44.8761 19.7127 44.68C19.3831 44.4219 19.1874 44.0915 19.1256 43.6683C19.0638 43.245 19.1668 42.8734 19.414 42.543L44.1863 9.86923L24.7599 25.0654C24.4921 25.2822 24.1728 25.3854 23.8226 25.3854C23.5136 25.3854 23.2252 25.3028 22.9779 25.148C22.7101 24.9518 22.5144 24.7041 22.3908 24.4047C22.2775 24.1053 22.2672 23.7956 22.3599 23.4859L25.5118 12.1198C23.8226 14.0709 22.1127 15.9601 20.3823 17.808C18.6518 19.6456 16.6948 21.638 14.5214 23.7749C12.348 25.9119 10.1747 27.8424 8.02191 29.5767C5.86915 31.3111 3.93269 32.6222 2.22284 33.5409C2.00654 33.6751 1.77993 33.7474 1.52242 33.7474C0.925005 33.7474 0.471792 33.479 0.183383 32.9319C-0.0123224 32.5602 -0.0535236 32.1782 0.07008 31.7756C0.183383 31.373 0.43059 31.0736 0.801401 30.8878C2.14044 30.1652 3.66488 29.1431 5.36443 27.8011C7.06398 26.4694 8.71203 25.0654 10.288 23.6098C11.8742 22.1438 13.5532 20.5127 15.3145 18.6958C17.0862 16.8789 18.6106 15.2684 19.9085 13.8541C21.196 12.4398 22.4938 10.9945 23.7917 9.49759C25.0792 8.01101 25.9753 6.97866 26.4594 6.40055C26.9436 5.82244 27.3453 5.35788 27.6543 4.98624L27.6852 4.95526C27.7264 4.91397 27.7573 4.883 27.7676 4.87268L27.7985 4.84171C27.8397 4.80041 27.8603 4.77977 27.8706 4.76944C27.8809 4.75912 27.9015 4.7488 27.9324 4.72815C27.9633 4.7075 27.9839 4.69718 27.9942 4.68685C28.0045 4.67653 28.0251 4.66621 28.056 4.64556C28.0869 4.62491 28.1075 4.61459 28.1281 4.61459C28.1899 4.5733 28.2208 4.55265 28.2414 4.55265C28.262 4.55265 28.2826 4.54233 28.3032 4.52168C28.3444 4.50103 28.3753 4.49071 28.3856 4.49071H28.4474C28.4886 4.47006 28.5195 4.45974 28.5298 4.45974H28.5916C28.6328 4.43909 28.6637 4.42877 28.674 4.42877H28.7049C28.7461 4.42877 28.7873 4.42877 28.8182 4.42877H28.88C28.9212 4.42877 28.9521 4.42877 28.9624 4.42877C29.0448 4.42877 29.086 4.43909 29.1066 4.45974C29.1272 4.45974 29.1581 4.45974 29.189 4.45974L29.2199 4.49071H29.2508C29.2714 4.49071 29.3023 4.50103 29.3332 4.52168H29.3641H29.395C29.395 4.54233 29.4362 4.5733 29.5083 4.60427C29.5289 4.60427 29.5392 4.60427 29.5495 4.60427C29.5598 4.60427 29.5598 4.61459 29.5598 4.63524C29.601 4.65588 29.6319 4.66621 29.6422 4.66621L29.6731 4.69718C29.7143 4.71782 29.7452 4.73847 29.7555 4.75912C29.7555 4.77977 29.7658 4.79009 29.7864 4.79009C29.8276 4.83138 29.8585 4.86235 29.8688 4.87268C29.9306 4.93462 29.9615 4.96559 29.9718 4.97591C29.9821 4.98623 30.0028 5.01721 30.044 5.07915C30.0646 5.09979 30.0955 5.15141 30.1264 5.22367C30.1264 5.24432 30.1367 5.26497 30.1573 5.28562L30.1882 5.34756C30.1882 5.3682 30.1985 5.38885 30.2191 5.41982C30.2397 5.45079 30.25 5.47144 30.25 5.49208C30.25 5.51273 30.25 5.53338 30.25 5.55403C30.2706 5.59532 30.2809 5.62629 30.2809 5.63661C30.2809 5.65726 30.2809 5.67791 30.2809 5.69855C30.3015 5.73985 30.3118 5.77082 30.3118 5.78114V5.84308C30.3118 5.88438 30.3118 5.91535 30.3118 5.92567C30.3118 6.00826 30.3118 6.04955 30.3118 6.0702V6.15279C30.2912 6.17343 30.2809 6.19408 30.2809 6.21473C30.2809 6.23537 30.2809 6.26634 30.2809 6.29732L30.25 6.32829V6.35926L26.4903 19.8624L51.4995 0.278734H51.5304C51.551 0.258087 51.5819 0.23744 51.6128 0.216793L51.6437 0.185822C51.6643 0.165175 51.6849 0.154852 51.7158 0.144529C51.7467 0.134205 51.7673 0.134205 51.7879 0.134205C51.8085 0.113558 51.8291 0.103235 51.86 0.0929112C51.8909 0.0825877 51.9115 0.0825877 51.9321 0.0825877C51.9321 0.0619408 51.9527 0.0516173 51.9939 0.0516173L52.0557 0.0206469C52.0763 0.0206469 52.0969 0.0206469 52.1278 0.0103235C52.1587 0 52.1793 0 52.1999 0C52.2205 0 52.2514 0 52.2823 0C52.3029 0 52.3235 0 52.3441 0C52.3647 0 52.3853 0 52.4162 0C52.4471 0 52.4677 0 52.4883 0C52.5089 0 52.5398 0 52.5707 0H52.6325C52.6531 0 52.684 0.0103235 52.7149 0.0309704C52.7355 0.0309704 52.7561 0.0309704 52.7767 0.0309704C52.7973 0.0309704 52.8282 0.0412939 52.8591 0.0619408C52.8797 0.0619408 52.9003 0.0619408 52.9209 0.0619408C52.9415 0.0825877 52.9621 0.0929112 52.9827 0.0929112C53.0239 0.113558 53.0445 0.123882 53.0548 0.134205C53.0651 0.144529 53.0857 0.154852 53.1166 0.165175C53.1475 0.175499 53.1681 0.185822 53.1887 0.206469C53.2093 0.206469 53.2299 0.216793 53.2505 0.23744C53.2711 0.258087 53.302 0.278734 53.3329 0.299381H53.3638V0.330351C53.405 0.350998 53.4359 0.371645 53.4462 0.392292C53.4668 0.412939 53.4771 0.423262 53.4874 0.433586C53.4977 0.443909 53.508 0.454233 53.5286 0.474879C53.5492 0.495526 53.5698 0.526497 53.5904 0.557467C53.611 0.557467 53.6213 0.567791 53.6213 0.588438C53.6419 0.609085 53.6625 0.640055 53.6831 0.671025C53.7037 0.691672 53.714 0.712319 53.714 0.732966C53.7346 0.753613 53.7552 0.77426 53.7758 0.794907C53.7964 0.815554 53.8067 0.836201 53.8067 0.856848C53.8067 0.877495 53.8067 0.898142 53.817 0.929112C53.8273 0.960082 53.8376 0.980729 53.8582 1.00138C53.8582 1.02202 53.8582 1.04267 53.8582 1.06332C53.8788 1.10461 53.8891 1.13558 53.8891 1.1459C53.9097 1.22849 53.92 1.26979 53.92 1.29043C53.9406 1.37302 53.9509 1.41431 53.9509 1.43496V1.5382C53.9509 1.55884 53.9509 1.58981 53.9509 1.62078L53.92 1.68273C53.92 1.70337 53.92 1.73434 53.92 1.76531C53.92 1.80661 53.9097 1.82725 53.8891 1.82725C53.8891 1.8479 53.8891 1.87887 53.8891 1.90984C53.8685 1.93049 53.8582 1.95114 53.8582 1.97178C53.8582 1.99243 53.8479 2.01308 53.8273 2.04405C53.8067 2.07502 53.7964 2.09566 53.7964 2.11631C53.7964 2.13696 53.7861 2.1576 53.7655 2.17825C53.7449 2.1989 53.7346 2.22987 53.7346 2.26084C53.7243 2.27116 53.714 2.28149 53.714 2.30213Z" fill="black"/>
<path d="M54.3835 21.8752C54.7337 21.8132 55.053 21.8855 55.3414 22.092C55.6298 22.2984 55.8049 22.5772 55.8667 22.9282C55.9285 23.2791 55.8461 23.5992 55.6298 23.8882C53.9612 26.2213 52.0453 28.2138 49.8823 29.8345C47.7192 31.4553 45.5561 32.6219 43.3828 33.3239C42.7648 34.0672 42.1776 34.6866 41.6214 35.1821C41.0652 35.6776 40.4163 36.1112 39.685 36.4725C38.9433 36.8339 38.212 37.0094 37.4704 37.0094C36.9451 37.0094 36.4198 36.9268 35.8944 36.7719C34.8438 36.4416 34.1434 35.7705 33.7932 34.7588C33.5975 34.2323 33.5357 33.6749 33.6181 33.0761C33.7005 32.4774 33.8859 31.9509 34.2052 31.4863C34.3597 31.2282 34.5863 31.063 34.8953 30.9701C35.194 30.8875 35.4824 30.8979 35.7605 31.0114C36.1726 30.774 36.5743 30.774 36.9863 31.0114C38.109 31.6515 39.7468 31.6824 41.8892 31.094C42.1982 30.7017 42.5896 30.2062 43.0532 29.6074C43.0738 29.5661 43.0944 29.5248 43.1253 29.4732C43.1562 29.4216 43.1871 29.3803 43.2283 29.3287C43.2695 29.2771 43.3004 29.2461 43.3107 29.2255C42.0231 30.0204 40.9416 30.4333 40.0455 30.454C40.0249 30.454 40.0043 30.454 39.9837 30.454C39.1905 30.454 38.5416 30.1855 38.0575 29.6384C37.182 28.6474 37.285 27.3259 38.3768 25.6948C38.8403 24.9928 39.7983 23.8779 41.23 22.3604C42.7235 20.7602 43.6506 19.6659 44.0008 19.0568C44.1759 18.7471 44.4334 18.5407 44.7733 18.4478C45.1132 18.3549 45.4325 18.3858 45.7312 18.5613C46.0299 18.7368 46.236 18.9949 46.3287 19.3459C46.4214 19.6969 46.3905 20.0169 46.2154 20.306C45.7724 21.1009 44.7321 22.3707 43.0944 24.105C41.2712 26.0562 40.2618 27.3053 40.0867 27.8731C41.0343 27.7595 42.6514 26.7169 44.9278 24.7451C47.1424 22.8146 49.0685 20.8531 50.7063 18.871C50.9432 18.582 51.2316 18.4168 51.5818 18.3858C51.932 18.3549 52.241 18.4581 52.5191 18.6749C52.7869 18.902 52.9415 19.1911 52.9827 19.5421C53.0239 19.8931 52.9209 20.2028 52.6942 20.4815C52.6942 20.5021 52.6839 20.5228 52.6633 20.5434C52.6221 20.6776 52.5603 20.8015 52.4573 20.9254C51.1904 22.4017 49.5836 24.6212 47.6162 27.5634C47.2042 28.1725 46.8952 28.6267 46.6789 28.9364C49.326 27.2847 51.6024 25.0961 53.5286 22.3913C53.7552 22.1126 54.0333 21.9371 54.3835 21.8752ZM36.6567 34.3253C37.3571 34.5421 38.0781 34.4491 38.8094 34.0672C37.8206 34.0259 36.9348 33.8297 36.152 33.4787C36.152 33.6336 36.1726 33.7781 36.2138 33.9123C36.2962 34.1188 36.4404 34.253 36.6567 34.3253Z" fill="black"/>
</svg>
